<svg xmlns="http://www.w3.org/2000/svg"
    width="18"
    height="18"
    viewBox="0 0 18 18"
    class="fill-current"
    >
  <path
      d="M8.91688 12.4995C10.6918 12.4995 12.1306 11.0911 12.1306 9.35385C12.1306 7.61655 10.6918 6.20819 8.91688 6.20819C7.14197 6.20819 5.70312 7.61655 5.70312 9.35385C5.70312 11.0911 7.14197 12.4995 8.91688 12.4995Z"
      />
  <path
      d="M12.4078 0.947388H5.37075C2.57257 0.947388 0.300781 3.17104 0.300781 5.90993V12.7436C0.300781 15.5367 2.57257 17.7604 5.37075 17.7604H12.3524C15.2059 17.7604 17.4777 15.5367 17.4777 12.7978V5.90993C17.4777 3.17104 15.2059 0.947388 12.4078 0.947388ZM8.91696 13.4758C6.56206 13.4758 4.70584 11.6047 4.70584 9.35389C4.70584 7.10312 6.58976 5.23199 8.91696 5.23199C11.2165 5.23199 13.1004 7.10312 13.1004 9.35389C13.1004 11.6047 11.2442 13.4758 8.91696 13.4758ZM14.735 5.61164C14.4579 5.90993 14.0423 6.07264 13.5714 6.07264C13.1558 6.07264 12.7402 5.90993 12.4078 5.61164C12.103 5.31334 11.9368 4.9337 11.9368 4.47269C11.9368 4.01169 12.103 3.65916 12.4078 3.33375C12.7125 3.00834 13.1004 2.84563 13.5714 2.84563C13.9869 2.84563 14.4302 3.00834 14.735 3.30663C15.012 3.65916 15.2059 4.06593 15.2059 4.49981C15.1782 4.9337 15.012 5.31334 14.735 5.61164Z"
      />
  <path
      d="M13.5985 3.82184C13.2383 3.82184 12.9336 4.12013 12.9336 4.47266C12.9336 4.82519 13.2383 5.12349 13.5985 5.12349C13.9587 5.12349 14.2634 4.82519 14.2634 4.47266C14.2634 4.12013 13.9864 3.82184 13.5985 3.82184Z"
      />
</svg>
