<svg xmlns="http://www.w3.org/2000/svg"
     width="18"
     height="18"
     viewBox="0 0 18 18"
     class="fill-current"
     >
  <path
      d="M16.7821 0.947388H1.84847C1.14272 0.947388 0.578125 1.49747 0.578125 2.18508V16.7623C0.578125 17.4224 1.14272 18 1.84847 18H16.7257C17.4314 18 17.996 17.4499 17.996 16.7623V2.15757C18.0525 1.49747 17.4879 0.947388 16.7821 0.947388ZM5.7442 15.4421H3.17528V7.32837H5.7442V15.4421ZM4.44563 6.2007C3.59873 6.2007 2.94944 5.5406 2.94944 4.74297C2.94944 3.94535 3.62696 3.28525 4.44563 3.28525C5.26429 3.28525 5.94181 3.94535 5.94181 4.74297C5.94181 5.5406 5.32075 6.2007 4.44563 6.2007ZM15.4835 15.4421H12.9146V11.509C12.9146 10.5739 12.8864 9.33618 11.5596 9.33618C10.2045 9.33618 10.0069 10.3813 10.0069 11.4265V15.4421H7.438V7.32837H9.95046V8.45605H9.9787C10.3457 7.79594 11.1644 7.13584 12.4347 7.13584C15.0601 7.13584 15.54 8.7861 15.54 11.0414V15.4421H15.4835Z"
      />
</svg>
