<svg xmlns="http://www.w3.org/2000/svg"
    width="19"
    height="15"
    viewBox="0 0 19 15"
    class="fill-current"
    >
  <path
      d="M16.2622 3.17878L17.33 1.93293C17.6391 1.59551 17.7234 1.33595 17.7515 1.20618C16.9085 1.67337 16.1217 1.82911 15.6159 1.82911H15.4192L15.3068 1.72528C14.6324 1.18022 13.7894 0.894714 12.8902 0.894714C10.9233 0.894714 9.37779 2.40012 9.37779 4.13913C9.37779 4.24295 9.37779 4.39868 9.40589 4.5025L9.49019 5.02161L8.90009 4.99565C5.30334 4.89183 2.35288 2.03675 1.87518 1.5436C1.08839 2.84136 1.53799 4.08722 2.01568 4.86587L2.97107 6.31937L1.45369 5.54071C1.48179 6.63084 1.93138 7.48736 2.80247 8.11029L3.56116 8.62939L2.80247 8.9149C3.28017 10.2386 4.34795 10.7837 5.13474 10.9913L6.17443 11.2509L5.19094 11.8738C3.61736 12.912 1.65039 12.8342 0.779297 12.7563C2.54957 13.8983 4.65705 14.1579 6.11823 14.1579C7.21412 14.1579 8.02901 14.0541 8.2257 13.9762C16.0936 12.2631 16.4589 5.77431 16.4589 4.47655V4.29486L16.6275 4.19104C17.5829 3.36047 17.9763 2.91923 18.2011 2.65967C18.1168 2.68563 18.0044 2.73754 17.892 2.7635L16.2622 3.17878Z"
      />
</svg>
