<?xml version="1.0" standalone="no"?>
<!DOCTYPE svg PUBLIC "-//W3C//DTD SVG 20010904//EN"
 "http://www.w3.org/TR/2001/REC-SVG-20010904/DTD/svg10.dtd">
<svg version="1.0" xmlns="http://www.w3.org/2000/svg"
 viewBox="0 0 538.000000 347.000000"
 preserveAspectRatio="xMidYMid meet">

<g transform="translate(0.000000,347.000000) scale(0.100000,-0.100000)"
fill="#AC0C0F" stroke="none">
<path d="M1840 2615 c-467 -467 -850 -857 -850 -865 0 -17 749 -770 767 -770
10 0 1695 1692 1701 1708 1 4 -171 180 -383 392 l-385 385 -850 -850z"/>
<path d="M382 3087 c-199 -199 -362 -366 -362 -372 0 -13 752 -765 765 -765 5
0 173 163 373 363 l362 362 -388 388 -387 387 -363 -363z"/>
<path d="M3272 2112 c-727 -724 -1322 -1322 -1322 -1327 0 -6 173 -183 385
-395 l385 -385 1327 1328 1328 1327 -385 385 c-212 212 -387 385 -390 384 -3
0 -600 -593 -1328 -1317z"/>
</g>
</svg>
