<?xml version="1.0" encoding="UTF-8"?>
<svg id="Layer_1" xmlns="http://www.w3.org/2000/svg" xmlns:xlink="http://www.w3.org/1999/xlink" version="1.1" viewBox="0 0 166 48">
  <!-- Generator: Adobe Illustrator 29.3.0, SVG Export Plug-In . SVG Version: 2.1.0 Build 146)  -->
  <defs>
    <style>
      .st0 {
        fill: none;
      }

      .st1 {
        fill: #00c696;
      }

      .st1, .st2 {
        fill-rule: evenodd;
      }

      .st3, .st2 {
        fill: #09414e;
      }

      .st4 {
        clip-path: url(#clippath);
      }
    </style>
    <clipPath id="clippath">
      <rect class="st0" x="158" y="20" width="8" height="8"/>
    </clipPath>
  </defs>
  <path class="st1" d="M14.8,5.9c-1.8,3.5-1.9,7.6-.3,11-1.8-2.3-3.4-4.5-4-7.5-.5-2.5-.6-5.5.3-9.4-3.6,6.3-3.4,11.6-.4,15.9,3.1,4.4,7.9,7.2,14.4,10.2-.3-.3-.7-.6-1.1-1-1.8-1.6-4.3-3.8-6.4-7.6-1.7-3.1-2.3-6.6-2.5-11.6ZM14,22.1h0c-5.2-2.9-7.4-5.5-8.6-7,0,0-.1-.1-.2-.2-1.5,6.6,2.9,8,5.7,8.2h0,0s0,0,0,0c-4.1,1.8-6.6,3.8-8.7,7.2C-.8,35.4-.1,39.7.5,41.9c.6,2.2,2.5,5.2,3.7,6.1-3.6-8.2-2.2-13.1,0-16.4,1.9-2.9,4.2-4.9,8.1-6.5.4-.2.8-.3,1.3-.5,0,0,.1,0,.2.1,0,0,.2,0,.3.1,2.9,1.4,6.3,2.8,8.8,3.8h.1s-.9,1-.9,1c-.2.3-.6.4-.9.3-1.3-.2-3-.3-3.8-.3-7.6,0-11.4,2.9-12.6,7.2-.7,2.8.2,5.7,1.8,7.6,2,2.4,5.3,3.5,8.4,3.5h6c-2.5-1.3-4.9-2.8-6.3-4.5-1.6-1.8-2.8-4.2-2.3-6.9.4-2.3,2.1-4.4,4.7-4.6h.3c.5,0,1,0,1.5,0h0c1,0,2,.3,2.9.5.9.2,1.9,0,2.6-.7l3.5-3.6-.6-.2s-.2,0-.4-.2c-1.7-.7-7.8-3.3-11.8-5.2-.4-.2-.8-.4-1.1-.6Z"/>
  <path class="st3" d="M48.1,44c-3.5,0-6.4-1.1-8.7-3.4-2.3-2.3-3.4-5.2-3.4-8.6s1.1-6.2,3.4-8.5c2.3-2.3,5.2-3.5,8.7-3.5s4,.5,5.8,1.5c1.8,1,3.2,2.3,4.2,4l-3.3,1.9c-.6-1.1-1.5-2-2.7-2.7-1.2-.7-2.5-1-3.9-1-2.5,0-4.5.8-6,2.3-1.5,1.6-2.3,3.5-2.3,6s.8,4.4,2.3,6c1.5,1.6,3.5,2.3,6,2.3s2.8-.3,4-1c1.2-.7,2.1-1.6,2.7-2.7l3.3,1.9c-1,1.7-2.3,3.1-4.1,4.1-1.8,1-3.7,1.5-5.8,1.5Z"/>
  <path class="st3" d="M74,27h3.6v16.5h-3.6v-2.4c-1.3,1.9-3.3,2.8-5.8,2.8s-4.2-.8-5.8-2.5c-1.6-1.7-2.4-3.8-2.4-6.2s.8-4.5,2.4-6.2c1.6-1.7,3.5-2.5,5.8-2.5s4.4.9,5.8,2.8v-2.3ZM65.1,39.1c1,1,2.2,1.5,3.7,1.5s2.7-.5,3.7-1.5c1-1,1.5-2.3,1.5-3.8s-.5-2.8-1.5-3.8c-1-1-2.2-1.5-3.7-1.5s-2.7.5-3.7,1.5c-1,1-1.5,2.2-1.5,3.8s.5,2.8,1.5,3.8Z"/>
  <path class="st3" d="M85.3,29.8c.9-2,2.6-3.1,5.1-3.1v3.9c-1.4,0-2.6.2-3.6,1-1,.7-1.5,1.9-1.5,3.6v8.3h-3.6v-16.5h3.6v2.8Z"/>
  <path class="st3" d="M96.4,23.9c-.4.4-1,.7-1.6.7s-1.2-.2-1.6-.7c-.4-.5-.7-1-.7-1.6s.2-1.1.7-1.6c.4-.5,1-.7,1.6-.7s1.2.2,1.6.7c.4.4.7,1,.7,1.6s-.2,1.2-.7,1.6ZM93,43.6v-16.5h3.6v16.5h-3.6Z"/>
  <path class="st3" d="M110.1,26.6c2.3,0,4.2.8,5.8,2.5,1.6,1.7,2.4,3.7,2.4,6.2s-.8,4.5-2.4,6.2c-1.6,1.7-3.5,2.5-5.8,2.5s-4.4-.9-5.8-2.8v2.4h-3.6v-23.1h3.6v9c1.3-1.9,3.3-2.8,5.8-2.8ZM105.8,39.1c1,1,2.2,1.5,3.7,1.5s2.7-.5,3.7-1.5c1-1,1.5-2.3,1.5-3.8s-.5-2.8-1.5-3.8c-1-1-2.2-1.5-3.7-1.5s-2.7.5-3.7,1.5c-1,1-1.5,2.2-1.5,3.8s.5,2.8,1.5,3.8Z"/>
  <path class="st3" d="M129.4,44c-2.4,0-4.5-.8-6.2-2.5s-2.5-3.7-2.5-6.2.8-4.5,2.5-6.2c1.7-1.7,3.8-2.5,6.2-2.5s4.5.8,6.2,2.5c1.7,1.7,2.5,3.7,2.5,6.2s-.8,4.5-2.5,6.2c-1.7,1.7-3.7,2.5-6.2,2.5ZM125.7,39c1,1,2.2,1.5,3.7,1.5s2.7-.5,3.7-1.5c1-1,1.5-2.2,1.5-3.7s-.5-2.7-1.5-3.7c-1-1-2.2-1.5-3.7-1.5s-2.7.5-3.7,1.5c-1,1-1.5,2.2-1.5,3.7s.5,2.7,1.5,3.7Z"/>
  <path class="st3" d="M152.4,27h3.6v16.5h-3.6v-2.1c-1.1,1.7-2.8,2.5-5.1,2.5s-3.4-.6-4.6-1.8c-1.2-1.2-1.8-2.9-1.8-5v-10.1h3.6v9.8c0,1.2.3,2.2,1,2.8.7.7,1.6,1,2.7,1s2.3-.4,3-1.2c.8-.8,1.2-2,1.2-3.6v-8.9Z"/>
  <g class="st4">
    <g>
      <path class="st2" d="M162,20.9c-1.7,0-3.1,1.4-3.1,3.1s1.4,3.1,3.1,3.1,3.1-1.4,3.1-3.1-1.4-3.1-3.1-3.1ZM158.1,24c0-2.2,1.8-3.9,3.9-3.9s3.9,1.8,3.9,3.9-1.8,3.9-3.9,3.9-3.9-1.8-3.9-3.9Z"/>
      <path class="st3" d="M161.8,23.7c.2,0,.4,0,.5-.1,0,0,.1-.2.1-.4s0-.3-.1-.4c0,0-.3-.1-.5-.1h-.4v1.1h.4ZM161.3,24.4v1.6h-1.1v-4.1h1.6c.5,0,.9,0,1.2.3.3.2.4.5.4.9s0,.5-.2.7c-.1.2-.3.3-.6.4.1,0,.3.1.4.2.1.1.2.3.3.5l.6,1.2h-1.1l-.5-1c-.1-.2-.2-.3-.3-.4-.1,0-.2-.1-.4-.1h-.3Z"/>
    </g>
  </g>
</svg>