<?xml version="1.0" encoding="UTF-8" standalone="no"?>
<svg xmlns="http://www.w3.org/2000/svg" xmlns:xlink="http://www.w3.org/1999/xlink" xmlns:serif="http://www.serif.com/" width="100%" height="100%" viewBox="0 0 156 48" version="1.1" xml:space="preserve" style="fill-rule:evenodd;clip-rule:evenodd;stroke-linejoin:round;stroke-miterlimit:2;">
    <g transform="matrix(1,0,0,1,36,20.1667)">
        <path d="M-25.044,2.946C-27.912,2.756 -32.255,1.315 -30.78,-5.258C-30.73,-5.199 -30.679,-5.137 -30.625,-5.073C-29.391,-3.589 -27.181,-0.932 -21.998,1.922C-21.632,2.125 -21.243,2.327 -20.854,2.506C-16.857,4.383 -10.696,6.968 -9.022,7.67C-8.753,7.783 -8.6,7.847 -8.59,7.852L-8,8.067L-11.517,11.71C-12.178,12.401 -13.158,12.675 -14.079,12.437C-14.976,12.199 -15.979,12.032 -16.982,11.948L-17.018,11.948C-17.513,11.913 -18.033,11.889 -18.54,11.889L-18.835,11.889C-21.491,12.056 -23.179,14.116 -23.557,16.45C-24.005,19.165 -22.766,21.594 -21.208,23.356C-19.768,24.987 -17.384,26.535 -14.893,27.821L-20.925,27.821C-24.041,27.821 -27.298,26.738 -29.293,24.321C-30.886,22.392 -31.854,19.486 -31.123,16.7C-30.001,12.437 -26.177,9.519 -18.552,9.519C-17.738,9.519 -16.05,9.567 -14.775,9.793C-14.445,9.853 -14.102,9.746 -13.866,9.495L-12.934,8.531L-13.052,8.483C-15.531,7.447 -18.918,6.018 -21.833,4.649C-21.935,4.598 -22.029,4.554 -22.117,4.513C-22.193,4.477 -22.263,4.444 -22.329,4.411C-22.801,4.589 -23.238,4.756 -23.639,4.923C-27.523,6.53 -29.777,8.448 -31.701,11.389C-33.896,14.735 -35.277,19.629 -31.724,27.833C-32.917,26.881 -34.841,23.88 -35.466,21.725C-36.103,19.51 -36.753,15.211 -33.696,10.138C-31.689,6.792 -29.128,4.708 -25.044,2.946ZM12.092,24C8.612,24 5.727,22.854 3.436,20.562C1.146,18.248 0,15.394 0,12C0,8.606 1.145,5.763 3.436,3.471C5.726,1.157 8.612,0 12.092,0C14.184,0 16.112,0.496 17.874,1.488C19.658,2.479 21.045,3.824 22.036,5.521L18.733,7.438C18.116,6.292 17.213,5.388 16.023,4.728C14.856,4.044 13.546,3.702 12.092,3.702C9.625,3.702 7.621,4.485 6.079,6.05C4.559,7.614 3.799,9.598 3.799,12C3.799,14.402 4.559,16.386 6.079,17.95C7.621,19.515 9.625,20.298 12.092,20.298C13.546,20.298 14.867,19.967 16.056,19.306C17.246,18.623 18.138,17.708 18.733,16.562L22.036,18.446C21.067,20.143 19.691,21.499 17.906,22.512C16.145,23.504 14.206,24 12.092,24ZM38.012,7.041L41.58,7.041L41.58,23.571L38.012,23.571L38.012,21.191C36.67,23.062 34.742,24 32.231,24C29.962,24 28.024,23.163 26.416,21.488C24.808,19.791 24.004,17.73 24.004,15.306C24.004,12.86 24.808,10.799 26.416,9.124C28.024,7.449 29.962,6.612 32.231,6.612C34.741,6.612 36.669,7.537 38.012,9.388L38.012,7.041ZM29.06,19.107C30.051,20.099 31.296,20.595 32.793,20.595C34.291,20.595 35.535,20.099 36.527,19.107C37.517,18.094 38.013,16.827 38.013,15.306C38.013,13.786 37.518,12.529 36.527,11.537C35.535,10.523 34.291,10.017 32.793,10.017C31.296,10.017 30.051,10.523 29.06,11.537C28.069,12.529 27.573,13.785 27.573,15.306C27.573,16.826 28.069,18.094 29.06,19.107ZM49.308,9.818C50.212,7.768 51.907,6.744 54.395,6.744L54.395,10.612C53.03,10.523 51.84,10.854 50.827,11.603C49.814,12.331 49.307,13.543 49.307,15.24L49.307,23.57L45.74,23.57L45.74,7.041L49.308,7.041L49.308,9.818ZM60.401,3.9C59.961,4.342 59.432,4.562 58.816,4.562C58.199,4.562 57.659,4.342 57.196,3.901C56.756,3.438 56.536,2.898 56.536,2.281C56.536,1.664 56.756,1.135 57.196,0.694C57.637,0.231 58.176,0 58.816,0C59.454,0 59.994,0.231 60.434,0.694C60.875,1.135 61.095,1.664 61.095,2.281C61.095,2.898 60.864,3.437 60.401,3.9ZM57.032,23.571L57.031,7.041L60.6,7.041L60.6,23.571L57.032,23.571ZM74.092,6.612C76.361,6.612 78.299,7.449 79.907,9.124C81.515,10.799 82.319,12.86 82.319,15.306C82.319,17.73 81.515,19.791 79.907,21.488C78.3,23.163 76.361,24 74.092,24C71.582,24 69.654,23.063 68.311,21.19L68.311,23.57L64.743,23.57L64.743,0.43L68.311,0.43L68.311,9.388C69.654,7.538 71.581,6.612 74.092,6.612ZM69.797,19.107C70.789,20.099 72.033,20.595 73.531,20.595C75.028,20.595 76.273,20.099 77.264,19.107C78.255,18.094 78.751,16.827 78.751,15.306C78.751,13.786 78.255,12.529 77.264,11.537C76.273,10.523 75.028,10.017 73.531,10.017C72.033,10.017 70.789,10.523 69.797,11.537C68.807,12.529 68.311,13.785 68.311,15.306C68.311,16.826 68.806,18.094 69.797,19.107ZM93.35,24C90.927,24 88.868,23.163 87.172,21.488C85.476,19.813 84.628,17.752 84.628,15.306C84.628,12.86 85.476,10.799 87.172,9.124C88.868,7.449 90.927,6.612 93.35,6.612C95.795,6.612 97.854,7.449 99.528,9.124C101.224,10.799 102.072,12.86 102.072,15.306C102.072,17.752 101.224,19.813 99.528,21.488C97.854,23.163 95.794,24 93.35,24ZM89.682,19.041C90.674,20.033 91.896,20.529 93.35,20.529C94.803,20.529 96.026,20.033 97.017,19.041C98.008,18.05 98.504,16.804 98.504,15.306C98.504,13.807 98.008,12.562 97.017,11.57C96.026,10.578 94.803,10.083 93.35,10.083C91.896,10.083 90.674,10.578 89.682,11.57C88.692,12.562 88.196,13.807 88.196,15.306C88.196,16.804 88.691,18.05 89.682,19.041ZM116.432,7.04L120,7.041L120,23.571L116.432,23.571L116.432,21.454C115.353,23.151 113.646,24 111.311,24C109.417,24 107.886,23.394 106.719,22.182C105.551,20.97 104.968,19.306 104.968,17.19L104.968,7.041L108.536,7.041L108.536,16.826C108.536,18.061 108.866,19.008 109.527,19.669C110.188,20.331 111.091,20.661 112.236,20.661C113.492,20.661 114.505,20.275 115.276,19.504C116.046,18.711 116.432,17.51 116.432,15.901L116.432,7.04ZM-21.171,-14.26C-20.97,-9.271 -20.356,-5.794 -18.645,-2.662C-16.561,1.143 -14.067,3.35 -12.278,4.932C-11.879,5.286 -11.514,5.609 -11.197,5.911C-17.689,2.958 -22.552,0.1 -25.609,-4.258C-28.618,-8.557 -28.795,-13.915 -25.184,-20.167C-26.081,-16.273 -25.963,-13.284 -25.479,-10.771C-24.912,-7.783 -23.272,-5.532 -21.478,-3.234C-23.036,-6.687 -22.941,-10.736 -21.171,-14.26Z" style="fill:white;"></path>
    </g>
</svg>
