<svg width="769" height="332" viewBox="0 0 769 332" fill="none" xmlns="http://www.w3.org/2000/svg">
<path d="M347.68 130.97C319.57 130.97 298.37 152.55 298.37 181.18C298.37 209.81 319.57 231.38 347.68 231.38C367.02 231.38 383.59 221.24 392.03 204.26L392.41 203.5L368.03 195.05L367.72 195.59C363.38 203.25 356.82 207.09 347.66 207.33C336.02 207.62 328.08 200.98 325.71 189.02H396.32L396.4 188.36C396.73 185.79 396.89 183.26 396.9 180.84C396.9 152.41 375.74 130.97 347.69 130.97H347.68ZM326.46 170.23C329.54 159.95 337.22 154.08 347.68 154.08C358.14 154.08 366.19 159.8 369.8 170.23H326.46Z" fill="white"/>
<path d="M474.51 190.91C470.31 200.69 462.55 206.08 452.65 206.08C439.59 206.08 429.35 195.08 429.35 181.03C429.35 166.98 439.37 156.26 452.65 156.26C462.4 156.26 470.59 161.53 474.55 170.36L474.83 170.99L499.11 162.58L498.84 161.86C491.72 142.8 474.08 130.96 452.79 130.96C423.94 130.96 402.19 152.42 402.19 180.88C402.19 194.66 407.34 207.42 416.7 216.8C426.07 226.2 438.84 231.37 452.64 231.37C474.24 231.37 492.07 219.17 499.19 199.52L499.45 198.8L474.77 190.26L474.49 190.9L474.51 190.91Z" fill="white"/>
<path d="M170.32 190.91C166.12 200.69 158.35 206.08 148.46 206.08C135.4 206.08 125.16 195.08 125.16 181.03C125.16 166.98 135.18 156.26 148.46 156.26C158.21 156.26 166.4 161.53 170.36 170.36L170.64 170.99L194.92 162.58L194.65 161.86C187.53 142.8 169.89 130.96 148.6 130.96C119.75 130.97 98 152.43 98 180.89C98 194.67 103.15 207.43 112.51 216.81C121.88 226.21 134.65 231.38 148.45 231.38C170.05 231.38 187.89 219.18 195 199.53L195.26 198.81L170.58 190.27L170.3 190.91H170.32Z" fill="white"/>
<path d="M645.37 131.22C636.15 131.22 624.99 136.95 619.39 146.84C619.18 147.22 618.63 147.18 618.48 146.77L614.19 133.82L614.16 133.74H596.88V228.6H623.44V179.34C623.44 163.51 626.94 154.95 640.99 153.94C645.6 153.61 653.74 153.94 654.31 153.94V131.21H645.37V131.22Z" fill="white"/>
<path d="M590.01 133.74H591.01H560.32L534.12 169.57C533.83 169.99 533.18 169.78 533.18 169.28V100H506.62V228.6H533.18V189.5C533.18 188.81 534.07 188.54 534.46 189.1L561.99 228.31L562.18 228.59H593.4L557.91 178.93L590.02 133.73L590.01 133.74Z" fill="white"/>
<path d="M256.62 131.09C246.03 131.09 234.65 135.29 230.12 144.32C229.83 144.89 228.98 144.7 228.98 144.06V100H202.42V228.6H228.98V178.77C228.98 164.1 236.73 153.94 249.3 153.94C260.01 153.94 265.06 161.45 265.06 175.33V228.59H291.62V171.09C291.62 146.78 277.88 131.08 256.62 131.08V131.09Z" fill="white"/>
<path d="M662.265 228.6C660.805 228.6 659.465 228.25 658.245 227.54C657.025 226.84 656.065 225.88 655.355 224.68C654.645 223.48 654.295 222.16 654.295 220.74C654.295 219.32 654.645 217.99 655.355 216.78C656.065 215.57 657.025 214.62 658.245 213.92C659.465 213.22 660.805 212.87 662.265 212.87C663.725 212.87 665.065 213.22 666.285 213.92C667.505 214.62 668.475 215.57 669.185 216.78C669.895 217.99 670.255 219.31 670.255 220.74C670.255 222.17 669.895 223.47 669.185 224.67C668.475 225.88 667.505 226.83 666.285 227.54C665.065 228.24 663.725 228.6 662.265 228.6ZM662.265 227.7C663.545 227.7 664.715 227.39 665.785 226.78C666.855 226.17 667.695 225.33 668.325 224.27C668.945 223.21 669.265 222.03 669.265 220.75C669.265 219.47 668.955 218.27 668.325 217.21C667.705 216.15 666.855 215.31 665.785 214.7C664.715 214.09 663.545 213.78 662.265 213.78C660.985 213.78 659.825 214.09 658.765 214.7C657.705 215.31 656.855 216.15 656.235 217.21C655.615 218.27 655.295 219.46 655.295 220.75C655.295 222.04 655.605 223.22 656.235 224.28C656.855 225.34 657.705 226.18 658.765 226.79C659.825 227.4 660.995 227.7 662.265 227.7ZM658.965 225.81V215.52H662.945C663.535 215.52 664.065 215.66 664.555 215.94C665.045 216.22 665.425 216.6 665.715 217.08C665.995 217.56 666.135 218.09 666.135 218.67C666.135 219.32 665.955 219.91 665.605 220.44C665.245 220.96 664.785 221.34 664.205 221.56L666.325 225.81H665.165L663.185 221.79C663.115 221.79 663.035 221.8 662.945 221.81C662.865 221.81 662.775 221.82 662.685 221.82H660.025V225.8H658.955L658.965 225.81ZM662.895 220.94C663.295 220.94 663.665 220.84 664.005 220.63C664.335 220.42 664.605 220.15 664.795 219.81C664.985 219.47 665.085 219.09 665.085 218.68C665.085 218.27 664.985 217.91 664.795 217.56C664.605 217.21 664.335 216.93 663.995 216.73C663.655 216.52 663.285 216.42 662.885 216.42H660.035V220.93H662.895V220.94Z" fill="white"/>
</svg>
