<svg width="396" height="73" viewBox="0 0 396 73" fill="none" xmlns="http://www.w3.org/2000/svg">
<path d="M5.3501 66.74H13.1201V32.88H58.5701V25.44H13.1201V13.08H58.5701V5.63H5.3501V66.74Z" fill="black"/>
<path d="M75.3701 5.63H67.6001V66.74H138.53V59.29H75.3701V5.63Z" fill="black"/>
<path d="M161.29 4.99997C159.605 4.92855 157.923 5.19919 156.345 5.79557C154.767 6.39194 153.327 7.3017 152.11 8.46997C148.11 12.54 147.49 16.47 147.49 36.19C147.49 55.91 148.13 59.84 152.09 63.89C153.31 65.0601 154.754 65.9716 156.335 66.5697C157.916 67.1677 159.601 67.4399 161.29 67.37C167.56 67.37 174.29 63.03 174.29 53.49V32.49H159V39.94H166.54V53.33C166.54 57.46 164.54 59.93 161.3 59.93C160.643 59.9781 159.982 59.893 159.359 59.68C158.735 59.4669 158.161 59.1302 157.67 58.69C155.72 56.55 155.26 54.22 155.26 36.19C155.26 18.16 155.72 15.83 157.65 13.71C158.14 13.2617 158.717 12.9186 159.344 12.7019C159.972 12.4852 160.638 12.3995 161.3 12.45C162.87 12.45 166.54 12.45 166.54 20.15V22.45H174.31V20.15C174.31 15.15 173.03 11.28 170.46 8.52997C169.251 7.35025 167.814 6.42892 166.238 5.82205C164.661 5.21519 162.978 4.93548 161.29 4.99997Z" fill="black"/>
<path d="M236.28 30.33C238.28 28.33 239.34 25.45 239.34 21.67C239.34 5.67004 231.08 5.67004 225.62 5.67004H182.86V66.74H190.63V33.6H220.36L234.62 66.74H242.38L227.68 33.19C230.48 33.16 233.81 32.72 236.28 30.33ZM231.58 21C231.58 25.43 230.72 26.21 225.85 26.21H190.63V13.08H225.85C229.92 13.08 231.58 13.39 231.58 21Z" fill="black"/>
<path d="M267.58 5.63H264.36L251.23 66.74H259L262.34 49.74H271.75L275.16 66.74H282.92L270 5.63H267.58ZM263.84 42.31L267 26.21L270.22 42.31H263.84Z" fill="black"/>
<path d="M334.03 56.74L299.15 21.39H291.74V66.74H299.5V32.83L332.87 66.74H341.46L341.73 21.39H333.96L334.03 56.74Z" fill="black"/>
<path d="M291.74 5.63V13.08H350.54V66.74H358.31V13.08H390.04V5.63H291.74Z" fill="black"/>
<path d="M130.55 51H138.3L115.86 5.63H108.11V5.69H107L84.54 51H92.41L98.14 39.44H124.83L130.55 51ZM101.4 32.86L111.49 12.47L121.58 32.86H101.4Z" fill="black"/>
</svg>
