<svg width="75" height="26" viewBox="0 0 75 26" fill="none" xmlns="http://www.w3.org/2000/svg">
<path fill-rule="evenodd" clip-rule="evenodd" d="M53.2799 2.9647C53.2799 1.30702 54.5464 0 56.1526 0C57.8207 0 59.2412 1.30702 59.2412 2.9647C59.2412 4.68614 57.8207 5.96128 56.1526 5.96128C54.5464 5.96128 53.2799 4.68614 53.2799 2.9647ZM54.5272 7.97269C54.2065 7.88134 53.8647 8.10861 53.8647 8.44206V20.4723C53.8647 20.7296 54.0733 20.9382 54.3306 20.9382H58.189C58.4463 20.9382 58.6549 20.7296 58.6549 20.4723V8.38064C58.6549 8.04376 58.3067 7.81633 57.9851 7.91664C57.3981 8.09974 56.7802 8.19679 56.1525 8.19679C55.584 8.19679 55.0394 8.11861 54.5272 7.97269ZM35.0933 13.0689C35.0933 17.8901 38.0794 21.2806 42.2786 21.2806C44.2383 21.2806 45.8558 20.5341 46.9755 19.2277V20.4725C46.9755 20.7298 47.1841 20.9384 47.4415 20.9384H51.2998C51.5572 20.9384 51.7658 20.7298 51.7658 20.4725V0.479234C51.7658 0.221911 51.5572 0.0133088 51.2998 0.0133088H47.4415C47.1841 0.0133088 46.9755 0.221911 46.9755 0.479235V6.87896C45.8558 5.57255 44.2383 4.82603 42.2786 4.82603C38.0794 4.82603 35.0933 8.21648 35.0933 13.0689ZM43.5851 17.3303C41.4699 17.3303 39.9146 15.5573 39.9146 13.0689C39.9146 10.5805 41.4699 8.77637 43.5851 8.77637C45.7313 8.77637 47.2555 10.5494 47.2555 13.0689C47.2555 15.5573 45.7313 17.3303 43.5851 17.3303ZM60.2184 16.8015C60.2184 19.5388 62.3647 21.2496 65.3197 21.2496C67.4037 21.2496 69.2389 20.3475 70.2032 18.8856C70.2032 19.5681 70.2443 20.0658 70.3432 20.5788C70.384 20.7907 70.5732 20.9385 70.789 20.9385H74.5297C74.82 20.9385 75.0401 20.6762 75.0009 20.3886C74.8366 19.1834 74.7446 17.5352 74.7446 16.1172V11.1404C74.7446 7.34561 71.8829 4.70168 67.8703 4.70168C64.0119 4.70168 61.1164 7.05221 60.724 10.2941C60.6927 10.5528 60.8986 10.7729 61.1591 10.7799L64.8787 10.8797C65.126 10.8864 65.3314 10.6971 65.3819 10.4548C65.6409 9.21341 66.5393 8.55871 67.7148 8.55871C69.1767 8.55871 70.0166 9.52297 70.0166 10.9849C70.0166 11.1971 69.8564 11.3751 69.6454 11.3975L67.3726 11.6381C62.8001 12.1047 60.2184 13.8466 60.2184 16.8015ZM66.906 18.0146C65.7862 18.0146 65.0086 17.4236 65.0086 16.3972C65.0086 15.1841 66.0662 14.6864 67.7148 14.4998L69.6462 14.268C69.8597 14.2424 70.0477 14.4091 70.0477 14.6242C70.0477 16.5838 68.6479 18.0146 66.906 18.0146ZM25.8948 21.4051C21.0112 21.4051 17.4652 17.9213 17.4652 13.0689C17.4652 8.18545 21.0112 4.70168 25.8948 4.70168C30.8094 4.70168 34.3554 8.18545 34.3554 13.0689C34.3554 17.9213 30.8094 21.4051 25.8948 21.4051ZM22.2866 13.0689C22.2866 15.5884 23.7796 17.3614 25.8948 17.3614C28.041 17.3614 29.5341 15.5884 29.5341 13.0689C29.5341 10.5183 28.041 8.74534 25.8948 8.74534C23.7796 8.74534 22.2866 10.5183 22.2866 13.0689ZM0 25.5341C0 25.7914 0.208604 26 0.46593 26H4.32429C4.58162 26 4.79022 25.7914 4.79022 25.5341V19.1655C5.91001 20.5341 7.52749 21.2806 9.51823 21.2806C13.7174 21.2806 16.7036 17.8902 16.7036 13.0378C16.7036 8.21649 13.7174 4.82603 9.51823 4.82603C7.52749 4.82603 5.91001 5.57256 4.79022 6.91007V5.63412C4.79022 5.37679 4.58162 5.16819 4.32429 5.16819H0.46593C0.208604 5.16819 0 5.37679 0 5.63411V25.5341ZM8.21181 17.3303C6.06554 17.3303 4.54138 15.5573 4.54138 13.0378C4.54138 10.5494 6.06554 8.77637 8.21181 8.77637C10.327 8.77637 11.8822 10.5494 11.8822 13.0378C11.8822 15.5262 10.327 17.3303 8.21181 17.3303Z" fill="#06040E"/>
</svg>
