<svg width="1440" height="822" viewBox="0 0 1440 822" fill="none" xmlns="http://www.w3.org/2000/svg">
<g clip-path="url(#clip0_3913_2542)">
<path d="M1554 542L1157 246L1048 186L742 7.5L415 301.5L325.5 264L-12.5 495V2596H1554V542Z" fill="url(#paint0_linear_3913_2542)"/>
<path d="M89.2255 556.73C74.8901 535.812 -164 592.949 -164 592.949L326.059 252.807L414.012 290.254L742.258 0L1049.64 186.728C1049.64 186.728 786.779 161.518 766.282 145.23C765.023 170.335 761.564 189.473 783.212 207.13C840.146 253.57 894.986 301.82 950.6 349.385C957.446 355.221 964.078 361.162 970.451 366.768C1019.8 327.027 1156.37 245.446 1156.37 245.446L1633 592.949C1633 592.949 1412.76 518.28 1400.23 533.328C1391.52 543.739 1387.92 557.171 1380.64 572.045C1299.96 526.181 1220.48 481.02 1141.48 436.135C1153.59 417.022 1164.52 399.764 1176.51 380.806C1161 366.683 1145.53 352.626 1128.16 336.81C1117.9 369.894 1108.14 399.604 1099.87 429.606C1098.28 435.181 1101.29 442.408 1104.37 448.002C1121.37 478.653 1139.13 509.018 1156.49 539.528C1159.46 544.757 1161.92 550.176 1166.69 559.705C1129.27 540.279 1096.53 523.274 1063.77 506.268C1062.81 506.806 1061.87 507.349 1060.88 507.874C1067.23 516.265 1072.82 525.139 1080.06 532.946C1116.05 571.708 1151.38 610.931 1189.28 648.382C1204.91 663.798 1209.78 677.148 1197.24 694.503C1194.6 698.159 1193.09 702.389 1190.18 708C1144.97 686.27 1100.51 664.964 1056.05 643.641C1053.81 642.565 1051.78 641 1049.38 640.21C1013.12 628.147 990.707 607.997 990.871 573.288C990.908 567.982 986.34 561.835 981.975 557.438C927.312 502.505 872.332 447.85 817.57 393.031C815.501 390.962 814.762 387.953 813.417 385.383C811.296 386.638 809.168 387.861 807.091 389.104C822.377 423.832 837.696 458.549 853.482 494.341C851.202 493.737 849.339 493.703 848.359 492.887C810.54 461.279 772.787 429.64 735.088 397.872C719.236 384.518 708.381 371.936 707.875 349.477C706.974 307.826 695.982 266.3 688.982 224.741C687.455 215.687 685.039 206.694 683.363 199.246C598.001 268.308 512.718 337.314 426.212 407.292C392.897 381.244 359.884 355.41 324.534 327.768C307.116 360.062 241.325 406.037 241.325 406.037C241.325 406.037 280.041 444.266 284.388 456.678C288.298 467.93 286.01 475.416 275.833 483.969C234.985 518.331 195.239 553.624 155.102 588.587C152.849 587.383 150.566 586.182 148.302 584.961C162.378 547.16 176.431 509.314 190.484 471.503C188.694 470.275 186.89 469.059 185.098 467.828C154.012 496.642 122.958 525.461 89.2255 556.73Z" fill="#ECEBF5"/>
<path d="M1008 719.769C1008 719.769 908.217 650.734 855.775 614.429C863.469 610.863 868.234 608.664 873.491 606.224C782.304 524.197 693.724 444.461 605.409 365C522.096 443.174 441.461 522.72 355.52 597.493C323.909 624.955 227 739.057 227 739.057C227 739.057 342.682 679.146 343.638 680.114C392.941 637.094 442.222 594.104 491.502 551.09C493.506 551.768 495.551 552.437 497.567 553.116C497.567 578.462 497.567 603.801 497.567 629.14C499.384 629.315 501.211 629.504 503.041 629.68C538.397 566.929 573.773 504.222 610.257 439.53C638.795 466.189 665.59 491.236 693.454 517.268C674.223 532.103 656.808 545.524 639.391 558.959C682.082 602.594 723.02 644.383 765.012 687.29C739.51 695.751 717.358 703.127 695.208 710.452C695.156 711.933 695.119 713.383 695.041 714.838C759.757 730.492 824.574 746.12 890.369 762L939.672 717.793L1008 719.769Z" fill="#ECEBF5"/>
</g>
<defs>
<linearGradient id="paint0_linear_3913_2542" x1="770.75" y1="7.5" x2="770.75" y2="1088.93" gradientUnits="userSpaceOnUse">
<stop stop-color="#2B1A99"/>
<stop offset="1" stop-color="#1D1266"/>
</linearGradient>
<clipPath id="clip0_3913_2542">
<rect width="1440" height="822" fill="white"/>
</clipPath>
</defs>
</svg>
