<svg width="1440" height="755" viewBox="0 0 1440 755" fill="none" xmlns="http://www.w3.org/2000/svg">
<path d="M1230.91 154.482C1220.63 145.522 1201.33 146.806 1193.84 153.489C1187.59 159.057 1189.6 165.595 1198.93 168.62C1209.73 172.126 1220.29 172.843 1230.06 168.657C1238.03 165.23 1238.42 160.476 1230.93 154.494L1230.91 154.482ZM1227.08 159.033C1217.11 165.909 1209.02 166.449 1198.14 161.358C1196.98 156.824 1200.15 155.698 1203.96 154.759C1211.57 152.891 1220.05 154.207 1227.07 159.021L1227.08 159.033Z" fill="#100747"/>
<path d="M213.012 301.654C223.299 310.613 242.593 309.329 250.085 302.646C256.335 297.079 254.323 290.54 244.992 287.516C234.193 284.01 223.634 283.293 213.868 287.479C205.9 290.906 205.506 295.659 212.997 301.642L213.012 301.654ZM216.843 297.102C226.817 290.227 234.906 289.687 245.781 294.777C246.947 299.312 243.775 300.437 239.965 301.377C232.357 303.245 223.879 301.929 216.858 297.115L216.843 297.102Z" fill="#100747"/>
<path d="M1098.42 365.824C1108.71 374.783 1128 373.499 1135.49 366.816C1141.74 361.249 1139.73 354.71 1130.4 351.686C1119.6 348.18 1109.04 347.463 1099.28 351.649C1091.31 355.076 1090.92 359.829 1098.41 365.811L1098.42 365.824ZM1102.25 361.272C1112.23 354.396 1120.32 353.857 1131.19 358.947C1132.36 363.482 1129.19 364.607 1125.38 365.547C1117.77 367.415 1109.29 366.099 1102.27 361.285L1102.25 361.272Z" fill="#100747"/>
<path d="M686.407 587.261C696.694 596.221 715.988 594.937 723.479 588.254C729.729 582.686 727.718 576.148 718.387 573.123C707.588 569.617 697.029 568.9 687.263 573.086C679.294 576.513 678.901 581.267 686.391 587.249L686.407 587.261ZM690.237 582.71C700.211 575.834 708.3 575.294 719.176 580.385C720.342 584.92 717.17 586.045 713.36 586.985C705.752 588.852 697.274 587.537 690.253 582.722L690.237 582.71Z" fill="#100747"/>
<path d="M207.734 421.607C205.626 426.2 202.619 430.554 201.683 435.476C201.032 438.989 202.315 443.565 204.268 447.167C206.723 451.664 211.166 452.656 216.066 451.125C226.388 447.917 233.573 432.903 230.142 422.544C229.028 419.157 227.716 415.98 223.851 414.929C219.614 413.777 215.391 414.037 212.598 417.116C211.167 418.693 209.888 420.369 208.52 421.995C208.254 421.87 207.972 421.732 207.707 421.607L207.734 421.607ZM209.9 446.519C205.595 434.236 213.542 421.79 224.599 422.313C226.675 431.314 221.332 440.445 209.9 446.519Z" fill="#100747"/>
<path d="M1236.19 34.5289C1238.3 29.9353 1241.31 25.5822 1242.24 20.6597C1242.89 17.1472 1241.61 12.5708 1239.66 8.9686C1237.2 4.47194 1232.76 3.47996 1227.86 5.01117C1217.54 8.21911 1210.35 23.2329 1213.78 33.5919C1214.9 36.9787 1216.21 40.1562 1220.08 41.2067C1224.31 42.3584 1228.53 42.0985 1231.33 39.0195C1232.76 37.4431 1234.04 35.7667 1235.41 34.1404C1235.67 34.2657 1235.95 34.4036 1236.22 34.529L1236.19 34.5289ZM1234.03 9.61639C1238.33 21.8997 1230.38 34.346 1219.33 33.8227C1217.25 24.8213 1222.59 15.6903 1234.03 9.61639Z" fill="#100747"/>
<path d="M158.701 388.123C154.26 385.71 150.12 382.417 145.272 381.15C141.811 380.265 137.159 381.236 133.433 382.942C128.781 385.088 127.492 389.453 128.689 394.446C131.193 404.96 145.688 413.142 156.255 410.418C159.709 409.534 162.968 408.44 164.277 404.654C165.712 400.505 165.737 396.274 162.854 393.28C161.377 391.745 159.791 390.357 158.261 388.881C158.404 388.625 158.56 388.353 158.703 388.096L158.701 388.123ZM133.699 388.604C146.245 385.137 158.127 393.906 156.859 404.902C147.738 406.367 138.989 400.42 133.699 388.604Z" fill="#100747"/>
<path d="M1093.14 485.777C1091.04 490.37 1088.03 494.724 1087.09 499.646C1086.44 503.159 1087.72 507.735 1089.68 511.337C1092.13 515.834 1096.58 516.826 1101.48 515.294C1111.8 512.087 1118.98 497.073 1115.55 486.714C1114.44 483.327 1113.13 480.149 1109.26 479.099C1105.02 477.947 1100.8 478.207 1098.01 481.286C1096.58 482.863 1095.3 484.539 1093.93 486.165C1093.66 486.04 1093.38 485.902 1093.12 485.777L1093.14 485.777ZM1095.31 510.689C1091.01 498.406 1098.95 485.96 1110.01 486.483C1112.09 495.484 1106.74 504.615 1095.31 510.689Z" fill="#100747"/>
<path d="M1285.22 68.0114C1289.66 70.4247 1293.8 73.7177 1298.65 74.9843C1302.11 75.8699 1306.76 74.8991 1310.49 73.1927C1315.14 71.0466 1316.43 66.6815 1315.23 61.6892C1312.73 51.1746 1298.23 42.993 1287.67 45.717C1284.21 46.6005 1280.95 47.695 1279.65 51.4809C1278.21 55.6302 1278.18 59.861 1281.07 62.8552C1282.54 64.3895 1284.13 65.7782 1285.66 67.2533C1285.52 67.5102 1285.36 67.7818 1285.22 68.0386L1285.22 68.0114ZM1310.22 67.5306C1297.68 70.9973 1285.79 62.2286 1287.06 51.2325C1296.18 49.7678 1304.93 55.7146 1310.22 67.5306Z" fill="#100747"/>
<path d="M45.2424 293.206C47.7965 304.554 50.4816 306.798 61.1379 305.856C65.7861 305.436 70.3259 303.938 74.3448 302.091C78.2859 300.268 79.1034 295.937 76.9473 292.345C75.5638 290.058 71.2766 287.854 68.2718 287.403C59.3821 286.065 52.502 289.754 45.258 293.218L45.2424 293.206ZM51.3744 299.099C57.1173 292.629 62.0496 291.53 71.1695 294.691C67.0227 302.582 63.052 303.476 51.3744 299.099Z" fill="#100747"/>
<path d="M1044.11 452.294C1039.67 449.881 1035.53 446.588 1030.68 445.321C1027.22 444.436 1022.57 445.407 1018.84 447.113C1014.19 449.259 1012.9 453.624 1014.1 458.617C1016.6 469.131 1031.1 477.313 1041.67 474.589C1045.12 473.705 1048.38 472.611 1049.69 468.825C1051.12 464.676 1051.15 460.445 1048.26 457.45C1046.79 455.916 1045.2 454.527 1043.67 453.052C1043.81 452.796 1043.97 452.524 1044.11 452.267L1044.11 452.294ZM1019.11 452.775C1031.66 449.308 1043.54 458.077 1042.27 469.073C1033.15 470.538 1024.4 464.591 1019.11 452.775Z" fill="#100747"/>
<path d="M632.096 673.732C627.655 671.318 623.514 668.025 618.666 666.759C615.206 665.873 610.553 666.844 606.827 668.55C602.175 670.697 600.886 675.062 602.083 680.054C604.588 690.569 619.083 698.75 629.65 696.026C633.104 695.143 636.363 694.048 637.671 690.262C639.106 686.113 639.132 681.882 636.248 678.888C634.772 677.354 633.185 675.965 631.655 674.49C631.798 674.233 631.955 673.961 632.098 673.705L632.096 673.732ZM607.094 674.213C619.64 670.746 631.522 679.515 630.254 690.511C621.133 691.975 612.383 686.029 607.094 674.213Z" fill="#100747"/>
<path d="M259.981 360.076C260.788 364.895 271.545 379.964 278.164 386.354C278.504 378.399 270.517 366.468 259.981 360.076Z" fill="#100747"/>
<path d="M258.236 378.129C261.054 387.746 263.963 397.267 270.863 407.263C272.099 405.292 273.36 404.327 273.097 403.572C269.886 394.544 266.112 385.654 258.251 378.142L258.236 378.129Z" fill="#100747"/>
<path d="M282.421 365.638C278.99 354.349 271.273 349.463 261.42 345.386C260.697 351.89 267.456 352.541 270.273 355.747C273.14 359.014 277.194 361.478 282.421 365.638Z" fill="#100747"/>
<path d="M1398.68 162.93C1396.13 151.582 1393.44 149.337 1382.78 150.28C1378.14 150.7 1373.6 152.197 1369.58 154.045C1365.64 155.868 1364.82 160.199 1366.97 163.791C1368.36 166.077 1372.65 168.282 1375.65 168.732C1384.54 170.071 1391.42 166.382 1398.66 162.918L1398.68 162.93ZM1392.55 157.036C1386.8 163.507 1381.87 164.606 1372.75 161.445C1376.9 153.554 1380.87 152.66 1392.55 157.036Z" fill="#100747"/>
<path d="M930.652 357.376C933.207 368.724 935.892 370.968 946.548 370.025C951.196 369.606 955.736 368.108 959.755 366.261C963.696 364.437 964.514 360.107 962.357 356.515C960.974 354.228 956.687 352.024 953.682 351.573C944.792 350.235 937.912 353.924 930.668 357.388L930.652 357.376ZM936.785 363.269C942.527 356.799 947.46 355.7 956.58 358.86C952.433 366.752 948.462 367.646 936.785 363.269Z" fill="#100747"/>
<path d="M320.502 248.287C326.62 251.967 331.045 251.164 335.609 249.476C331.92 243.447 329.77 243.229 320.502 248.287Z" fill="#100747"/>
<path d="M589.852 520.149C592.406 531.497 595.091 533.742 605.747 532.799C610.396 532.379 614.935 530.882 618.954 529.034C622.895 527.211 623.713 522.88 621.557 519.289C620.173 517.002 615.886 514.797 612.881 514.347C603.992 513.008 597.111 516.697 589.867 520.162L589.852 520.149ZM595.984 526.043C601.727 519.572 606.659 518.473 615.779 521.634C611.632 529.525 607.661 530.419 595.984 526.043Z" fill="#100747"/>
<path d="M1183.94 96.0561C1183.13 91.2377 1172.38 76.1687 1165.76 69.7778C1165.42 77.7328 1173.4 89.6647 1183.94 96.0561Z" fill="#100747"/>
<path d="M1185.69 78.004C1182.87 68.3872 1179.96 58.8662 1173.06 48.8706C1171.82 50.8414 1170.56 51.8065 1170.83 52.5608C1174.04 61.589 1177.81 70.479 1185.67 77.9916L1185.69 78.004Z" fill="#100747"/>
<path d="M1161.5 90.4947C1164.93 101.783 1172.65 106.67 1182.5 110.746C1183.22 104.243 1176.47 103.591 1173.65 100.386C1170.78 97.1188 1166.73 94.6544 1161.5 90.4947Z" fill="#100747"/>
<path d="M345.169 360.285C348.132 360.362 351.262 360.891 353.993 360.314C355.104 360.09 356.27 357.243 355.751 356.02C355.268 354.867 352.309 353.366 350.994 353.642C348.463 354.143 346.348 355.787 344.064 356.954C344.436 358.06 344.797 359.179 345.169 360.285Z" fill="#100747"/>
<path d="M57.3602 661.504C60.3237 661.581 63.453 662.11 66.1841 661.532C67.2958 661.308 68.4613 658.462 67.9422 657.238C67.459 656.086 64.5006 654.585 63.1858 654.86C60.6546 655.362 58.5396 657.005 56.2555 658.173C56.6276 659.279 56.9881 660.398 57.3602 661.504Z" fill="#100747"/>
<path d="M818.563 645.894C821.527 645.971 824.656 646.499 827.387 645.922C828.499 645.698 829.664 642.851 829.145 641.628C828.662 640.476 825.704 638.974 824.389 639.25C821.858 639.752 819.743 641.395 817.459 642.563C817.831 643.669 818.191 644.787 818.563 645.894Z" fill="#100747"/>
<path d="M1145.39 424.247C1146.2 429.066 1156.96 444.135 1163.57 450.525C1163.91 442.57 1155.93 430.639 1145.39 424.247Z" fill="#100747"/>
<path d="M1143.65 442.3C1146.46 451.917 1149.37 461.438 1156.27 471.434C1157.51 469.463 1158.77 468.498 1158.51 467.743C1155.3 458.715 1151.52 449.825 1143.66 442.313L1143.65 442.3Z" fill="#100747"/>
<path d="M1167.83 429.809C1164.4 418.52 1156.68 413.634 1146.83 409.557C1146.11 416.061 1152.87 416.712 1155.68 419.917C1158.55 423.184 1162.6 425.649 1167.83 429.809Z" fill="#100747"/>
<path d="M733.38 645.685C734.187 650.503 744.944 665.572 751.563 671.963C751.903 664.008 743.915 652.076 733.38 645.685Z" fill="#100747"/>
<path d="M731.634 663.738C734.453 673.354 737.361 682.875 744.262 692.871C745.497 690.9 746.759 689.935 746.495 689.181C743.285 680.153 739.511 671.263 731.65 663.75L731.634 663.738Z" fill="#100747"/>
<path d="M755.819 651.246C752.388 639.958 744.671 635.071 734.819 630.994C734.096 637.498 740.854 638.15 743.672 641.355C746.538 644.622 750.592 647.086 755.819 651.246Z" fill="#100747"/>
<path d="M1123.42 207.848C1117.3 204.169 1112.88 204.972 1108.31 206.66C1112 212.688 1114.15 212.907 1123.42 207.848Z" fill="#100747"/>
<path d="M1205.91 312.457C1212.03 316.137 1216.46 315.334 1221.02 313.646C1217.33 307.617 1215.18 307.398 1205.91 312.457Z" fill="#100747"/>
<path d="M354.427 631.331C356.8 629.554 359.584 628.029 361.369 625.883C362.102 625.018 361.253 622.062 360.087 621.424C358.994 620.819 355.741 621.475 354.881 622.506C353.205 624.469 352.564 627.069 351.496 629.401C352.473 630.039 353.45 630.693 354.427 631.331Z" fill="#100747"/>
<path d="M32.693 549.506C38.8111 553.186 43.2367 552.383 47.8004 550.695C44.111 544.666 41.9609 544.447 32.693 549.506Z" fill="#100747"/>
<path d="M793.9 533.896C800.018 537.575 804.444 536.772 809.008 535.084C805.318 529.056 803.168 528.837 793.9 533.896Z" fill="#100747"/>
<path d="M513.877 427.243C511.504 429.019 508.721 430.544 506.936 432.69C506.202 433.555 507.052 436.511 508.218 437.15C509.311 437.754 512.563 437.099 513.424 436.067C515.099 434.104 515.741 431.504 516.809 429.172C515.831 428.534 514.855 427.88 513.877 427.243Z" fill="#100747"/>
<path d="M460.236 408.112C462.609 406.335 465.392 404.81 467.178 402.664C467.911 401.799 467.061 398.843 465.896 398.205C464.802 397.6 461.55 398.256 460.689 399.287C459.014 401.25 458.373 403.851 457.304 406.182C458.282 406.82 459.258 407.474 460.236 408.112Z" fill="#100747"/>
<path d="M1098.75 95.8503C1095.79 95.7735 1092.66 95.2449 1089.93 95.8222C1088.82 96.0462 1087.65 98.8928 1088.17 100.116C1088.65 101.268 1091.61 102.77 1092.93 102.494C1095.46 101.992 1097.57 100.349 1099.86 99.1816C1099.49 98.0753 1099.13 96.9567 1098.75 95.8503Z" fill="#100747"/>
<path d="M1230.58 424.455C1233.54 424.532 1236.67 425.061 1239.4 424.484C1240.51 424.259 1241.68 421.413 1241.16 420.19C1240.68 419.037 1237.72 417.536 1236.4 417.812C1233.87 418.313 1231.76 419.957 1229.47 421.124C1229.85 422.23 1230.21 423.349 1230.58 424.455Z" fill="#100747"/>
<path d="M932.376 424.237C935.339 424.313 938.469 424.842 941.2 424.265C942.311 424.041 943.477 421.194 942.958 419.971C942.475 418.819 939.516 417.317 938.202 417.593C935.67 418.095 933.555 419.738 931.271 420.905C931.643 422.012 932.004 423.13 932.376 424.237Z" fill="#100747"/>
<path d="M372.305 337.603C368.726 338.394 366.011 338.473 364.23 339.633C363.449 340.141 364.571 342.888 364.828 344.63C367.383 344.516 370.131 344.781 372.407 344.059C373.076 343.846 372.411 340.875 372.305 337.603Z" fill="#100747"/>
<path d="M84.4923 638.822C80.9131 639.614 78.1989 639.692 76.4178 640.852C75.636 641.361 76.7589 644.108 77.0152 645.849C79.5707 645.735 82.3187 646 84.5941 645.279C85.2631 645.065 84.5982 642.094 84.4923 638.822Z" fill="#100747"/>
<path d="M845.699 623.211C842.12 624.003 839.406 624.081 837.625 625.241C836.843 625.749 837.966 628.497 838.222 630.238C840.778 630.124 843.526 630.389 845.801 629.668C846.47 629.454 845.805 626.483 845.699 623.211Z" fill="#100747"/>
<path d="M942.77 725.675C945.734 725.752 948.863 726.28 951.594 725.703C952.706 725.479 953.872 722.633 953.352 721.409C952.869 720.257 949.911 718.756 948.596 719.031C946.065 719.533 943.95 721.176 941.666 722.344C942.038 723.45 942.398 724.569 942.77 725.675Z" fill="#100747"/>
<path d="M607.579 464.675C610.543 464.752 613.672 465.28 616.403 464.703C617.515 464.479 618.68 461.633 618.161 460.409C617.678 459.257 614.719 457.756 613.405 458.031C610.873 458.533 608.758 460.176 606.474 461.344C606.846 462.45 607.207 463.569 607.579 464.675Z" fill="#100747"/>
<path d="M1135.36 349.644C1132.4 349.567 1129.27 349.039 1126.53 349.616C1125.42 349.84 1124.26 352.687 1124.78 353.91C1125.26 355.062 1128.22 356.564 1129.53 356.288C1132.06 355.786 1134.18 354.143 1136.46 352.976C1136.09 351.869 1135.73 350.751 1135.36 349.644Z" fill="#100747"/>
<path d="M308.563 106.491C311.527 106.568 314.656 107.097 317.387 106.52C318.499 106.296 319.664 103.449 319.145 102.226C318.662 101.074 315.704 99.5721 314.389 99.8478C311.858 100.349 309.743 101.993 307.459 103.16C307.831 104.267 308.191 105.385 308.563 106.491Z" fill="#100747"/>
<path d="M496.14 352.494C493.822 355.333 491.741 357.077 491.062 359.092C490.764 359.975 493.348 361.435 494.628 362.643C496.563 360.969 498.884 359.473 500.222 357.497C500.614 356.915 498.251 354.996 496.14 352.494Z" fill="#100747"/>
<path d="M208.331 653.712C206.013 656.552 203.932 658.296 203.253 660.31C202.955 661.194 205.539 662.654 206.82 663.861C208.754 662.188 211.075 660.692 212.413 658.716C212.806 658.133 210.442 656.214 208.331 653.712Z" fill="#100747"/>
<path d="M20.7547 407.71C23.7182 407.787 26.8475 408.316 29.5786 407.738C30.6903 407.514 31.8558 404.668 31.3368 403.444C30.8535 402.292 27.8951 400.791 26.5804 401.067C24.0492 401.568 21.9341 403.211 19.65 404.379C20.0221 405.485 20.3827 406.604 20.7547 407.71Z" fill="#100747"/>
<path d="M642.236 330.112C644.609 328.335 647.392 326.81 649.178 324.664C649.911 323.799 649.061 320.843 647.896 320.205C646.802 319.6 643.55 320.256 642.689 321.287C641.014 323.25 640.373 325.851 639.304 328.182C640.282 328.82 641.258 329.474 642.236 330.112Z" fill="#100747"/>
<path d="M148.933 283.51C153.956 286.443 157.676 286.209 160.567 282.082C155.836 279.304 151.958 279.781 148.933 283.51Z" fill="#100747"/>
<path d="M1239.84 695.501C1242.21 693.725 1244.99 692.2 1246.78 690.054C1247.51 689.189 1246.66 686.233 1245.5 685.595C1244.4 684.99 1241.15 685.646 1240.29 686.677C1238.62 688.64 1237.97 691.24 1236.91 693.572C1237.88 694.21 1238.86 694.864 1239.84 695.501Z" fill="#100747"/>
<path d="M801.686 126.024C799.313 127.801 796.53 129.326 794.744 131.472C794.011 132.336 794.861 135.293 796.026 135.931C797.12 136.535 800.372 135.88 801.233 134.848C802.908 132.886 803.549 130.285 804.618 127.953C803.64 127.316 802.664 126.661 801.686 126.024Z" fill="#100747"/>
<path d="M188.967 310.026C182.647 310.072 179.605 311.349 180.031 316.656C186.386 317.687 189.089 315.965 188.967 310.026Z" fill="#100747"/>
<path d="M1399.29 491.414C1396.91 493.19 1394.13 494.715 1392.35 496.861C1391.61 497.726 1392.46 500.682 1393.63 501.32C1394.72 501.925 1397.97 501.269 1398.83 500.238C1400.51 498.275 1401.15 495.675 1402.22 493.343C1401.24 492.705 1400.27 492.051 1399.29 491.414Z" fill="#100747"/>
<path d="M1345.65 472.283C1348.02 470.506 1350.8 468.981 1352.59 466.835C1353.32 465.97 1352.47 463.014 1351.31 462.376C1350.21 461.771 1346.96 462.427 1346.1 463.458C1344.42 465.421 1343.78 468.021 1342.71 470.353C1343.69 470.991 1344.67 471.645 1345.65 472.283Z" fill="#100747"/>
<path d="M390.845 365.049C387.208 360.006 384.724 358.463 382.153 361.105C381.261 362.023 381.949 364.241 381.908 365.858C384.422 365.623 386.924 365.401 390.829 365.036L390.845 365.049Z" fill="#100747"/>
<path d="M103.036 666.267C99.3997 661.225 96.9155 659.682 94.3445 662.324C93.4524 663.241 94.1399 665.459 94.0993 667.076C96.6134 666.842 99.1158 666.62 103.021 666.255L103.036 666.267Z" fill="#100747"/>
<path d="M864.239 650.656C860.603 645.614 858.119 644.071 855.548 646.712C854.656 647.63 855.343 649.848 855.303 651.465C857.817 651.231 860.319 651.008 864.224 650.644L864.239 650.656Z" fill="#100747"/>
<path d="M983.686 48.0239C981.313 49.8006 978.53 51.3256 976.744 53.4715C976.011 54.3365 976.861 57.2926 978.026 57.9308C979.12 58.5354 982.372 57.8798 983.233 56.8484C984.908 54.8857 985.549 52.2852 986.618 49.9532C985.64 49.3157 984.664 48.6615 983.686 48.0239Z" fill="#100747"/>
<path d="M1071.62 118.533C1075.2 117.741 1077.91 117.663 1079.7 116.503C1080.48 115.995 1079.35 113.247 1079.1 111.506C1076.54 111.62 1073.79 111.355 1071.52 112.077C1070.85 112.29 1071.52 115.261 1071.62 118.533Z" fill="#100747"/>
<path d="M66.4305 412.473C62.7942 407.431 60.3101 405.888 57.739 408.53C56.847 409.447 57.5345 411.665 57.4938 413.282C60.0079 413.048 62.5103 412.826 66.4151 412.461L66.4305 412.473Z" fill="#100747"/>
<path d="M1257.72 401.774C1254.14 402.565 1251.42 402.643 1249.64 403.803C1248.86 404.312 1249.98 407.059 1250.24 408.801C1252.79 408.686 1255.54 408.952 1257.82 408.23C1258.49 408.016 1257.82 405.046 1257.72 401.774Z" fill="#100747"/>
<path d="M959.508 401.554C955.929 402.345 953.215 402.424 951.433 403.584C950.652 404.092 951.775 406.84 952.031 408.581C954.586 408.467 957.334 408.732 959.61 408.01C960.279 407.797 959.614 404.826 959.508 401.554Z" fill="#100747"/>
<path d="M969.903 702.992C966.323 703.784 963.609 703.862 961.828 705.022C961.046 705.531 962.169 708.278 962.425 710.019C964.981 709.905 967.729 710.17 970.004 709.449C970.673 709.235 970.008 706.264 969.903 702.992Z" fill="#100747"/>
<path d="M495.904 548.586C491.619 544.082 488.949 542.89 486.759 545.855C485.999 546.884 486.981 548.989 487.159 550.597C489.618 550.024 492.068 549.466 495.887 548.576L495.904 548.586Z" fill="#100747"/>
<path d="M634.715 441.992C631.136 442.784 628.422 442.862 626.641 444.022C625.859 444.531 626.982 447.278 627.238 449.019C629.793 448.905 632.541 449.17 634.817 448.449C635.486 448.235 634.821 445.264 634.715 441.992Z" fill="#100747"/>
<path d="M372.401 509.988C376.686 514.492 379.356 515.685 381.546 512.72C382.305 511.69 381.324 509.585 381.146 507.977C378.686 508.55 376.237 509.108 372.418 509.998L372.401 509.988Z" fill="#100747"/>
<path d="M552.699 382.94C546.72 381.237 543.814 381.566 543.434 385.233C543.303 386.506 545.217 387.82 546.188 389.114C548.015 387.372 549.841 385.646 552.679 382.94L552.699 382.94Z" fill="#100747"/>
<path d="M264.89 684.158C258.911 682.456 256.006 682.785 255.625 686.451C255.494 687.725 257.409 689.039 258.379 690.333C260.207 688.591 262.033 686.865 264.87 684.158L264.89 684.158Z" fill="#100747"/>
<path d="M1108.23 372.327C1111.81 371.535 1114.52 371.457 1116.3 370.297C1117.08 369.789 1115.96 367.041 1115.7 365.3C1113.15 365.414 1110.4 365.149 1108.12 365.87C1107.46 366.084 1108.12 369.055 1108.23 372.327Z" fill="#100747"/>
<path d="M335.699 83.8097C332.12 84.6013 329.406 84.6796 327.625 85.8396C326.843 86.3479 327.966 89.0954 328.222 90.8367C330.778 90.7226 333.526 90.9877 335.801 90.2662C336.47 90.0525 335.805 87.0818 335.699 83.8097Z" fill="#100747"/>
<path d="M369.065 297.019C369.604 299.138 369.929 300.368 370.229 301.599C371.91 301.311 373.727 301.258 375.192 300.628C375.623 300.443 375.29 297.833 374.965 297.744C373.336 297.271 371.601 297.263 369.065 297.019Z" fill="#100747"/>
<path d="M81.2564 598.239C81.7951 600.357 82.1207 601.588 82.4202 602.819C84.1012 602.531 85.9188 602.477 87.3835 601.848C87.8143 601.662 87.4818 599.053 87.1566 598.963C85.5274 598.491 83.7927 598.483 81.2564 598.239Z" fill="#100747"/>
<path d="M842.46 582.628C842.998 584.746 843.324 585.977 843.623 587.208C845.304 586.919 847.122 586.866 848.587 586.236C849.017 586.051 848.685 583.442 848.36 583.352C846.731 582.879 844.996 582.872 842.46 582.628Z" fill="#100747"/>
<path d="M47.8869 385.027C44.3077 385.819 41.5935 385.897 39.8124 387.057C39.0306 387.566 40.1535 390.313 40.4098 392.055C42.9653 391.94 45.7133 392.205 47.9887 391.484C48.6577 391.27 47.9927 388.3 47.8869 385.027Z" fill="#100747"/>
<path d="M1093.74 717.882C1091.42 720.722 1089.34 722.466 1088.66 724.48C1088.37 725.364 1090.95 726.824 1092.23 728.031C1094.16 726.358 1096.49 724.862 1097.82 722.886C1098.22 722.303 1095.85 720.384 1093.74 717.882Z" fill="#100747"/>
<path d="M68.1714 268.861C64.7019 267.705 61.8856 267.808 59.7159 272.819C63.8459 272.051 66.3852 271.6 68.9202 271.125C68.6668 270.375 68.4134 269.624 68.16 268.873L68.1714 268.861Z" fill="#100747"/>
<path d="M1381.55 416.663C1379.23 419.503 1377.15 421.247 1376.47 423.261C1376.17 424.145 1378.76 425.605 1380.04 426.812C1381.97 425.139 1384.29 423.643 1385.63 421.667C1386.02 421.084 1383.66 419.165 1381.55 416.663Z" fill="#100747"/>
<path d="M758.55 456.882C756.232 459.722 754.151 461.466 753.472 463.48C753.174 464.364 755.758 465.824 757.039 467.031C758.973 465.358 761.294 463.862 762.632 461.886C763.025 461.303 760.661 459.384 758.55 456.882Z" fill="#100747"/>
<path d="M947.786 103.642C950.104 100.802 952.185 99.0585 952.864 97.0442C953.162 96.1607 950.578 94.7008 949.298 93.4932C947.363 95.1669 945.042 96.6623 943.704 98.6389C943.311 99.2212 945.675 101.14 947.786 103.642Z" fill="#100747"/>
<path d="M1294.99 172.625C1289.97 169.693 1286.25 169.926 1283.36 174.054C1288.09 176.831 1291.97 176.355 1294.99 172.625Z" fill="#100747"/>
<path d="M1034.34 347.68C1039.37 350.613 1043.09 350.379 1045.98 346.251C1041.25 343.474 1037.37 343.951 1034.34 347.68Z" fill="#100747"/>
<path d="M421.04 208.002C409.014 201.562 390.492 207.116 384.68 215.302C379.829 222.122 383.248 228.048 393.018 228.915C404.327 229.925 414.78 228.269 423.367 222.011C430.37 216.893 429.694 212.172 421.058 208.011L421.04 208.002ZM418.321 213.293C410.131 222.22 402.366 224.55 390.63 222.013C388.482 217.852 391.323 216.048 394.827 214.282C401.827 210.765 410.386 210.157 418.303 213.284L418.321 213.293Z" fill="#100747"/>
<path d="M133.232 509.221C121.205 502.781 102.684 508.335 96.8711 516.52C92.02 523.341 95.4389 529.267 105.209 530.134C116.518 531.144 126.971 529.488 135.558 523.23C142.562 518.112 141.885 513.391 133.249 509.229L133.232 509.221ZM130.512 514.512C122.323 523.439 114.558 525.769 102.821 523.231C100.673 519.071 103.515 517.267 107.019 515.501C114.019 511.984 122.577 511.376 130.495 514.503L130.512 514.512Z" fill="#100747"/>
<path d="M894.435 493.61C882.409 487.17 863.887 492.725 858.074 500.91C853.223 507.731 856.642 513.656 866.413 514.524C877.722 515.533 888.174 513.878 896.761 507.619C903.765 502.502 903.088 497.78 894.453 493.619L894.435 493.61ZM891.716 498.901C883.526 507.828 875.761 510.158 864.024 507.621C861.876 503.46 864.718 501.656 868.222 499.891C875.222 496.374 883.78 495.765 891.698 498.893L891.716 498.901Z" fill="#100747"/>
<path d="M622.328 569.118C627.351 572.051 631.07 571.817 633.962 567.689C629.231 564.912 625.353 565.388 622.328 569.118Z" fill="#100747"/>
<path d="M80.965 223.197C81.9958 218.249 83.9556 213.335 83.7711 208.327C83.6217 204.758 81.3511 200.583 78.6432 197.507C75.2473 193.671 70.6959 193.695 66.2605 196.28C56.914 201.709 53.2576 217.947 58.9117 227.28C60.7533 230.333 62.7406 233.138 66.7431 233.3C71.1298 233.478 75.1885 232.283 77.2244 228.659C78.2681 226.803 79.1406 224.884 80.1121 222.993C80.3992 223.056 80.7044 223.128 80.9916 223.191L80.965 223.197ZM73.2982 199.395C80.2338 210.409 75.2621 224.314 64.3673 226.269C60.3357 217.958 63.5082 207.865 73.2982 199.395Z" fill="#100747"/>
<path d="M1254.96 146.11C1261.28 146.063 1264.32 144.787 1263.89 139.48C1257.54 138.449 1254.84 140.171 1254.96 146.11Z" fill="#100747"/>
<path d="M1074.38 374.196C1068.06 374.242 1065.01 375.519 1065.44 380.825C1071.8 381.857 1074.5 380.135 1074.38 374.196Z" fill="#100747"/>
<path d="M662.361 595.634C656.042 595.681 652.999 596.957 653.426 602.264C659.781 603.295 662.484 601.573 662.361 595.634Z" fill="#100747"/>
<path d="M298.656 480.045C293.636 469.552 290.518 467.963 280.34 471.258C275.903 472.704 271.811 475.176 268.305 477.873C264.87 480.529 265.039 484.933 267.942 487.954C269.8 489.875 274.471 491.067 277.501 490.836C286.465 490.159 292.349 485.028 298.638 480.036L298.656 480.045ZM291.365 475.667C287.209 483.255 282.646 485.426 273.051 484.379C275.334 475.762 279.005 474.005 291.365 475.667Z" fill="#100747"/>
<path d="M988.446 730.437C984.81 725.395 982.326 723.852 979.755 726.494C978.863 727.411 979.55 729.629 979.51 731.246C982.024 731.012 984.526 730.79 988.431 730.425L988.446 730.437Z" fill="#100747"/>
<path d="M1053.08 91.0882C1056.71 96.1304 1059.2 97.6733 1061.77 95.0319C1062.66 94.1142 1061.97 91.896 1062.01 90.2791C1059.5 90.5136 1057 90.7357 1053.09 91.1005L1053.08 91.0882Z" fill="#100747"/>
<path d="M1276.25 429.218C1272.62 424.176 1270.13 422.633 1267.56 425.275C1266.67 426.192 1267.36 428.411 1267.32 430.028C1269.83 429.793 1272.33 429.571 1276.24 429.206L1276.25 429.218Z" fill="#100747"/>
<path d="M978.048 429C974.412 423.957 971.927 422.415 969.356 425.056C968.464 425.974 969.152 428.192 969.111 429.809C971.625 429.574 974.128 429.352 978.032 428.987L978.048 429Z" fill="#100747"/>
<path d="M48.9775 456.61C53.7724 455.673 68.5446 444.512 74.7538 437.723C66.7925 437.598 55.0813 445.905 48.9775 456.61Z" fill="#100747"/>
<path d="M67.0707 457.866C76.6077 454.788 86.0464 451.623 95.8515 444.454C93.848 443.273 92.8491 442.038 92.1022 442.321C83.1642 445.775 74.3797 449.789 67.0826 457.85L67.0707 457.866Z" fill="#100747"/>
<path d="M53.9301 434.028C42.7388 437.763 38.063 445.61 34.2543 455.569C40.7755 456.116 41.2437 449.342 44.3715 446.439C47.5597 443.485 49.9134 439.366 53.9301 434.028Z" fill="#100747"/>
<path d="M653.255 469.437C649.619 464.395 647.134 462.852 644.563 465.494C643.671 466.411 644.359 468.629 644.318 470.246C646.832 470.012 649.335 469.79 653.239 469.425L653.255 469.437Z" fill="#100747"/>
<path d="M483.746 614.073C488.37 612.496 501.497 599.439 506.731 591.872C498.826 592.826 488.346 602.641 483.746 614.073Z" fill="#100747"/>
<path d="M501.845 612.87C510.878 608.531 519.802 604.118 528.547 595.688C526.402 594.789 525.245 593.7 524.544 594.083C516.155 598.714 507.994 603.879 501.855 612.853L501.845 612.87Z" fill="#100747"/>
<path d="M485.601 591.029C475.018 596.244 471.446 604.651 469.02 615.034C475.555 614.693 475.103 607.918 477.809 604.619C480.568 601.26 482.343 596.861 485.601 591.029Z" fill="#100747"/>
<path d="M1089.68 344.881C1093.32 349.923 1095.8 351.466 1098.37 348.825C1099.27 347.907 1098.58 345.689 1098.62 344.072C1096.11 344.307 1093.6 344.529 1089.7 344.893L1089.68 344.881Z" fill="#100747"/>
<path d="M384.554 444.501C379.93 446.078 366.804 459.135 361.57 466.702C369.475 465.748 379.955 455.933 384.554 444.501Z" fill="#100747"/>
<path d="M366.456 445.704C357.423 450.043 348.499 454.456 339.754 462.886C341.899 463.785 343.056 464.874 343.757 464.492C352.146 459.86 360.307 454.696 366.446 445.721L366.456 445.704Z" fill="#100747"/>
<path d="M382.7 467.545C393.283 462.33 396.855 453.924 399.281 443.541C392.746 443.881 393.198 450.656 390.492 453.956C387.733 457.314 385.958 461.713 382.7 467.545Z" fill="#100747"/>
<path d="M354.239 111.255C350.603 106.212 348.119 104.669 345.548 107.311C344.656 108.229 345.343 110.447 345.302 112.064C347.817 111.829 350.319 111.607 354.224 111.242L354.239 111.255Z" fill="#100747"/>
<path d="M328.156 283.994C321.372 281.772 317.237 283.542 313.164 286.205C318.105 291.259 320.25 290.993 328.156 283.994Z" fill="#100747"/>
<path d="M951.841 476.643C948.204 471.601 945.72 470.058 943.149 472.7C942.257 473.617 942.945 475.835 942.904 477.452C945.418 477.218 947.921 476.996 951.825 476.631L951.841 476.643Z" fill="#100747"/>
<path d="M783.713 247.366C779.428 242.863 776.758 241.67 774.568 244.635C773.808 245.665 774.789 247.77 774.968 249.377C777.427 248.805 779.876 248.246 783.696 247.356L783.713 247.366Z" fill="#100747"/>
<path d="M1381.31 612.756C1377.03 608.252 1374.36 607.06 1372.17 610.024C1371.41 611.054 1372.39 613.159 1372.57 614.767C1375.03 614.194 1377.48 613.636 1381.3 612.746L1381.31 612.756Z" fill="#100747"/>
<path d="M660.209 208.768C664.494 213.272 667.164 214.465 669.354 211.5C670.114 210.47 669.133 208.365 668.954 206.758C666.495 207.33 664.046 207.889 660.226 208.778L660.209 208.768Z" fill="#100747"/>
<path d="M1150.3 748.329C1144.32 746.627 1141.42 746.956 1141.04 750.622C1140.9 751.895 1142.82 753.21 1143.79 754.504C1145.62 752.761 1147.44 751.036 1150.28 748.329L1150.3 748.329Z" fill="#100747"/>
<path d="M1257.81 574.158C1262.1 578.662 1264.77 579.855 1266.96 576.89C1267.72 575.86 1266.73 573.755 1266.56 572.147C1264.1 572.72 1261.65 573.278 1257.83 574.168L1257.81 574.158Z" fill="#100747"/>
<path d="M430.834 627.174C428.034 628.148 424.919 628.757 422.568 630.261C421.607 630.863 421.52 633.938 422.438 634.899C423.296 635.807 426.594 636.168 427.727 635.446C429.918 634.083 431.318 631.8 433.043 629.901C432.305 628.998 431.573 628.078 430.834 627.174Z" fill="#100747"/>
<path d="M1438.11 447.111C1432.13 445.408 1429.22 445.737 1428.84 449.404C1428.71 450.677 1430.63 451.991 1431.6 453.285C1433.43 451.543 1435.25 449.817 1438.09 447.111L1438.11 447.111Z" fill="#100747"/>
<path d="M437.471 431.399C440.271 430.425 443.385 429.816 445.737 428.312C446.698 427.71 446.784 424.636 445.867 423.674C445.008 422.766 441.711 422.405 440.578 423.127C438.386 424.49 436.987 426.774 435.262 428.672C436 429.576 436.732 430.495 437.471 431.399Z" fill="#100747"/>
<path d="M966.667 662.409C967.205 664.527 967.531 665.758 967.83 666.989C969.511 666.7 971.329 666.647 972.794 666.018C973.225 665.832 972.892 663.223 972.567 663.133C970.938 662.661 969.203 662.653 966.667 662.409Z" fill="#100747"/>
<path d="M815.113 487.329C809.134 485.627 806.228 485.956 805.848 489.622C805.717 490.895 807.631 492.21 808.602 493.504C810.429 491.761 812.255 490.036 815.093 487.329L815.113 487.329Z" fill="#100747"/>
<path d="M891.223 73.196C897.202 74.8986 900.108 74.5694 900.488 70.903C900.619 69.6299 898.705 68.3155 897.734 67.0215C895.907 68.7639 894.081 70.4894 891.243 73.1961L891.223 73.196Z" fill="#100747"/>
<path d="M1074.86 159.117C1074.32 156.998 1073.99 155.767 1073.69 154.536C1072.01 154.825 1070.19 154.878 1068.73 155.508C1068.3 155.693 1068.63 158.302 1068.96 158.392C1070.59 158.865 1072.32 158.872 1074.86 159.117Z" fill="#100747"/>
<path d="M1254.48 361.19C1255.01 363.309 1255.34 364.539 1255.64 365.77C1257.32 365.482 1259.14 365.429 1260.6 364.799C1261.03 364.614 1260.7 362.004 1260.38 361.915C1258.75 361.442 1257.01 361.434 1254.48 361.19Z" fill="#100747"/>
<path d="M413.446 657.972C416.515 655.968 419.027 654.937 420.285 653.224C420.837 652.472 418.817 650.298 417.963 648.759C415.612 649.767 412.947 650.489 411.072 651.966C410.522 652.402 412.192 654.948 413.446 657.972Z" fill="#100747"/>
<path d="M631.475 401.409C632.014 403.527 632.34 404.758 632.639 405.989C634.32 405.7 636.138 405.647 637.602 405.018C638.033 404.832 637.701 402.223 637.375 402.133C635.746 401.661 634.012 401.653 631.475 401.409Z" fill="#100747"/>
<path d="M454.859 400.602C451.789 402.606 449.277 403.637 448.02 405.351C447.468 406.102 449.488 408.277 450.342 409.816C452.693 408.807 455.358 408.086 457.232 406.608C457.783 406.172 456.113 403.627 454.859 400.602Z" fill="#100747"/>
<path d="M1375.75 187.275C1379.22 188.431 1382.04 188.327 1384.21 183.317C1380.08 184.085 1377.54 184.535 1375 185.01C1375.26 185.761 1375.51 186.512 1375.76 187.263L1375.75 187.275Z" fill="#100747"/>
<path d="M953.582 333.031C950.112 331.875 947.296 331.978 945.126 336.989C949.256 336.221 951.795 335.77 954.33 335.295C954.077 334.545 953.824 333.794 953.57 333.043L953.582 333.031Z" fill="#100747"/>
<path d="M199.742 512.618C194.191 510.879 190.618 511.937 188.719 516.605C193.951 518.257 197.625 516.928 199.742 512.618Z" fill="#100747"/>
<path d="M960.945 497.007C955.395 495.268 951.821 496.325 949.923 500.994C955.154 502.646 958.828 501.317 960.945 497.007Z" fill="#100747"/>
<path d="M541.57 554.469C538.1 553.313 535.284 553.417 533.114 558.428C537.244 557.659 539.784 557.209 542.319 556.734C542.065 555.983 541.812 555.232 541.558 554.481L541.57 554.469Z" fill="#100747"/>
<path d="M1414.43 180.654C1411.55 178.36 1409.13 177.962 1407.25 180.177C1406.8 180.71 1407.41 182.891 1408.07 183.205C1410.87 184.567 1413.28 184.342 1414.43 180.654Z" fill="#100747"/>
<path d="M154.804 495.697C160.954 494.242 163.635 492.319 162.036 487.242C155.611 487.654 153.36 489.935 154.804 495.697Z" fill="#100747"/>
<path d="M916.007 480.087C922.157 478.632 924.838 476.709 923.239 471.631C916.814 472.043 914.563 474.324 916.007 480.087Z" fill="#100747"/>
<path d="M29.489 275.482C32.3712 277.776 34.7903 278.174 36.6716 275.958C37.1219 275.426 36.5135 273.245 35.8524 272.931C33.0485 271.569 30.6382 271.793 29.489 275.482Z" fill="#100747"/>
<path d="M502.884 561.091C505.766 563.384 508.185 563.782 510.066 561.567C510.517 561.034 509.908 558.853 509.247 558.539C506.443 557.177 504.033 557.402 502.884 561.091Z" fill="#100747"/>
<path d="M273.582 439.484C267.685 441.758 265.288 444.025 267.56 448.84C273.87 447.563 275.792 444.998 273.582 439.484Z" fill="#100747"/>
<path d="M1022.89 248.134C1034.91 254.574 1053.43 249.02 1059.25 240.834C1064.1 234.013 1060.68 228.088 1050.91 227.22C1039.6 226.211 1029.15 227.867 1020.56 234.125C1013.56 239.242 1014.23 243.964 1022.87 248.125L1022.89 248.134ZM1025.6 242.843C1033.79 233.916 1041.56 231.586 1053.3 234.123C1055.44 238.284 1052.6 240.088 1049.1 241.854C1042.1 245.371 1033.54 245.979 1025.62 242.851L1025.6 242.843Z" fill="#100747"/>
<path d="M1306.45 272.172C1294.42 265.732 1275.9 271.286 1270.09 279.472C1265.24 286.292 1268.66 292.218 1278.43 293.085C1289.74 294.095 1300.19 292.439 1308.78 286.181C1315.78 281.063 1315.1 276.342 1306.47 272.18L1306.45 272.172ZM1303.73 277.463C1295.54 286.39 1287.78 288.72 1276.04 286.183C1273.89 282.022 1276.73 280.218 1280.24 278.452C1287.24 274.935 1295.8 274.327 1303.71 277.454L1303.73 277.463Z" fill="#100747"/>
<path d="M1018.64 573.392C1006.62 566.952 988.094 572.506 982.281 580.691C977.43 587.512 980.849 593.437 990.619 594.305C1001.93 595.315 1012.38 593.659 1020.97 587.401C1027.97 582.283 1027.3 577.561 1018.66 573.4L1018.64 573.392ZM1015.92 578.683C1007.73 587.61 999.968 589.94 988.231 587.402C986.083 583.242 988.925 581.438 992.429 579.672C999.429 576.155 1007.99 575.547 1015.9 578.674L1015.92 578.683Z" fill="#100747"/>
<path d="M1362.96 232.939C1361.93 237.887 1359.97 242.801 1360.15 247.808C1360.3 251.377 1362.57 255.553 1365.28 258.628C1368.68 262.464 1373.23 262.441 1377.67 259.855C1387.01 254.427 1390.67 238.189 1385.01 228.855C1383.17 225.802 1381.19 222.997 1377.18 222.835C1372.8 222.657 1368.74 223.852 1366.7 227.477C1365.66 229.333 1364.79 231.252 1363.81 233.142C1363.53 233.08 1363.22 233.008 1362.93 232.945L1362.96 232.939ZM1370.63 256.741C1363.69 245.727 1368.66 231.822 1379.56 229.867C1383.59 238.178 1380.42 248.271 1370.63 256.741Z" fill="#100747"/>
<path d="M269.949 247.319C268.951 245.374 268.359 244.247 267.793 243.114C266.218 243.77 264.458 244.227 263.171 245.167C262.793 245.444 263.698 247.913 264.035 247.928C265.729 248.026 267.422 247.647 269.949 247.319Z" fill="#100747"/>
<path d="M966.375 287.367C967.406 282.419 969.366 277.505 969.181 272.497C969.032 268.928 966.761 264.753 964.053 261.677C960.657 257.841 956.106 257.865 951.671 260.45C942.324 265.879 938.668 282.117 944.322 291.45C946.163 294.503 948.151 297.308 952.153 297.47C956.54 297.648 960.599 296.453 962.635 292.829C963.678 290.973 964.551 289.054 965.522 287.163C965.809 287.226 966.115 287.298 966.402 287.361L966.375 287.367ZM958.708 263.564C965.644 274.579 960.672 288.484 949.777 290.439C945.746 282.127 948.918 272.035 958.708 263.564Z" fill="#100747"/>
<path d="M554.36 508.805C555.39 503.857 557.35 498.943 557.166 493.936C557.016 490.367 554.746 486.192 552.038 483.116C548.642 479.28 544.09 479.303 539.655 481.889C530.309 487.318 526.652 503.556 532.306 512.889C534.148 515.942 536.135 518.747 540.138 518.909C544.524 519.087 548.583 517.892 550.619 514.267C551.663 512.412 552.535 510.492 553.507 508.602C553.794 508.665 554.099 508.736 554.386 508.799L554.36 508.805ZM546.693 485.003C553.628 496.017 548.657 509.922 537.762 511.878C533.73 503.566 536.903 493.473 546.693 485.003Z" fill="#100747"/>
<path d="M857.457 277.31C862.477 287.802 865.595 289.392 875.773 286.096C880.211 284.651 884.302 282.179 887.808 279.481C891.243 276.825 891.074 272.421 888.172 269.401C886.313 267.48 881.642 266.287 878.612 266.518C869.648 267.196 863.764 272.326 857.475 277.319L857.457 277.31ZM864.749 281.688C868.904 274.1 873.467 271.928 883.062 272.976C880.78 281.593 877.108 283.35 864.749 281.688Z" fill="#100747"/>
<path d="M281.735 508.889C285.374 509.242 288.097 508.513 289.095 503.145C285.24 504.815 282.865 505.82 280.5 506.849C280.914 507.524 281.329 508.199 281.743 508.875L281.735 508.889Z" fill="#100747"/>
<path d="M586.469 178.825C581.449 168.332 578.331 166.743 568.153 170.038C563.715 171.484 559.624 173.956 556.118 176.653C552.683 179.31 552.852 183.713 555.754 186.734C557.613 188.655 562.284 189.848 565.313 189.617C574.278 188.939 580.162 183.809 586.451 178.816L586.469 178.825ZM579.177 174.447C575.022 182.035 570.459 184.207 560.864 183.159C563.146 174.542 566.818 172.785 579.177 174.447Z" fill="#100747"/>
<path d="M1184.07 544.215C1179.05 533.722 1175.93 532.133 1165.75 535.428C1161.31 536.873 1157.22 539.346 1153.72 542.043C1150.28 544.699 1150.45 549.103 1153.35 552.124C1155.21 554.044 1159.88 555.237 1162.91 555.006C1171.88 554.329 1177.76 549.198 1184.05 544.206L1184.07 544.215ZM1176.77 539.837C1172.62 547.425 1168.06 549.596 1158.46 548.549C1160.74 539.932 1164.42 538.175 1176.77 539.837Z" fill="#100747"/>
<path d="M317.965 493.808C314.644 492.215 312.197 492.367 310.857 494.946C310.537 495.565 311.616 497.556 312.331 497.715C315.368 498.417 317.667 497.66 317.965 493.808Z" fill="#100747"/>
<path d="M1107.13 300.743C1102.34 301.68 1087.56 312.841 1081.36 319.63C1089.32 319.755 1101.03 311.448 1107.13 300.743Z" fill="#100747"/>
<path d="M1089.04 299.487C1079.5 302.565 1070.06 305.73 1060.26 312.899C1062.26 314.08 1063.26 315.315 1064.01 315.032C1072.95 311.578 1081.73 307.564 1089.03 299.503L1089.04 299.487Z" fill="#100747"/>
<path d="M1102.18 323.325C1113.37 319.59 1118.05 311.743 1121.86 301.784C1115.33 301.237 1114.87 308.011 1111.74 310.914C1108.55 313.868 1106.2 317.987 1102.18 323.325Z" fill="#100747"/>
<path d="M440.421 574.403C453.828 576.922 469.817 566.047 472.895 556.491C475.466 548.526 470.422 543.906 460.844 546.021C449.756 548.464 440.287 553.191 433.983 561.745C428.846 568.735 430.913 573.033 440.401 574.4L440.421 574.403ZM441.42 568.539C446.541 557.56 453.244 552.999 465.2 551.884C468.501 555.204 466.335 557.781 463.525 560.52C457.91 565.982 449.932 569.139 441.44 568.542L441.42 568.539Z" fill="#100747"/>
<path d="M336.79 155.393C341.585 154.456 356.357 143.295 362.566 136.505C354.605 136.381 342.894 144.688 336.79 155.393Z" fill="#100747"/>
<path d="M354.883 156.649C364.42 153.571 373.859 150.406 383.664 143.237C381.661 142.055 380.662 140.82 379.915 141.104C370.977 144.558 362.192 148.571 354.895 156.633L354.883 156.649Z" fill="#100747"/>
<path d="M341.743 132.811C330.551 136.546 325.876 144.392 322.067 154.352C328.588 154.898 329.056 148.125 332.184 145.222C335.372 142.268 337.726 138.149 341.743 132.811Z" fill="#100747"/>
<path d="M427.884 484.17C414.476 481.651 398.487 492.526 395.41 502.082C392.838 510.047 397.883 514.668 407.461 512.552C418.549 510.109 428.018 505.382 434.321 496.828C439.458 489.839 437.391 485.54 427.903 484.173L427.884 484.17ZM426.884 490.034C421.763 501.013 415.061 505.574 403.105 506.689C399.803 503.369 401.97 500.793 404.779 498.053C410.395 492.592 418.373 489.434 426.865 490.032L426.884 490.034Z" fill="#100747"/>
<path d="M934.388 520.78C939.183 519.843 953.955 508.682 960.164 501.893C952.203 501.768 940.492 510.075 934.388 520.78Z" fill="#100747"/>
<path d="M952.481 522.036C962.018 518.958 971.457 515.793 981.262 508.624C979.258 507.443 978.259 506.208 977.512 506.491C968.575 509.945 959.79 513.959 952.493 522.02L952.481 522.036Z" fill="#100747"/>
<path d="M939.34 498.198C928.149 501.933 923.473 509.78 919.665 519.739C926.186 520.286 926.654 513.512 929.782 510.609C932.97 507.655 935.324 503.536 939.34 498.198Z" fill="#100747"/>
<path d="M591.481 271.305C594.867 267.552 599.038 264.297 601.404 259.88C603.075 256.723 603.22 251.973 602.434 247.951C601.436 242.926 597.494 240.651 592.36 240.646C581.551 240.62 570.204 252.797 570.379 263.707C570.429 267.272 570.73 270.697 574.105 272.856C577.803 275.222 581.91 276.237 585.496 274.134C587.334 273.058 589.055 271.841 590.847 270.699C591.064 270.898 591.291 271.114 591.507 271.313L591.481 271.305ZM596.866 246.885C597.3 259.893 585.994 269.393 575.6 265.586C576.311 256.376 584.141 249.261 596.866 246.885Z" fill="#100747"/>
<path d="M303.673 572.523C307.058 568.771 311.229 565.516 313.595 561.099C315.267 557.942 315.412 553.192 314.625 549.17C313.627 544.145 309.685 541.869 304.552 541.865C293.743 541.838 282.396 554.015 282.57 564.926C282.621 568.491 282.922 571.916 286.296 574.074C289.994 576.441 294.102 577.456 297.688 575.353C299.525 574.277 301.246 573.06 303.039 571.917C303.255 572.117 303.482 572.332 303.699 572.531L303.673 572.523ZM309.058 548.103C309.491 561.112 298.185 570.611 287.791 566.805C288.502 557.594 296.332 550.48 309.058 548.103Z" fill="#100747"/>
<path d="M579.269 350.829C587.217 359.322 590.669 359.899 599.381 353.691C603.177 350.976 606.334 347.386 608.865 343.759C611.341 340.191 609.854 336.043 606.176 334.037C603.825 332.765 599.012 333.034 596.192 334.167C587.848 337.513 583.783 344.177 579.289 350.832L579.269 350.829ZM587.541 352.807C589.218 344.32 592.915 340.875 602.38 338.984C602.799 347.889 599.827 350.67 587.541 352.807Z" fill="#100747"/>
<path d="M291.461 652.048C299.408 660.541 302.86 661.118 311.573 654.91C315.369 652.195 318.526 648.605 321.056 644.977C323.532 641.41 322.045 637.261 318.367 635.255C316.016 633.983 311.203 634.253 308.384 635.385C300.04 638.731 295.974 645.396 291.48 652.051L291.461 652.048ZM299.732 654.026C301.41 645.539 305.107 642.094 314.572 640.203C314.99 649.108 312.019 651.889 299.732 654.026Z" fill="#100747"/>
<path d="M771.559 312.853C776.183 311.276 789.309 298.219 794.543 290.652C786.638 291.606 776.158 301.421 771.559 312.853Z" fill="#100747"/>
<path d="M789.658 311.651C798.69 307.311 807.614 302.898 816.359 294.469C814.215 293.569 813.058 292.481 812.356 292.863C803.967 297.494 795.807 302.659 789.667 311.633L789.658 311.651Z" fill="#100747"/>
<path d="M773.413 289.809C762.83 295.024 759.259 303.431 756.832 313.814C763.368 313.473 762.915 306.698 765.621 303.399C768.381 300.041 770.156 295.641 773.413 289.809Z" fill="#100747"/>
<path d="M1369.16 678.243C1373.78 676.666 1386.91 663.609 1392.14 656.042C1384.24 656.996 1373.76 666.811 1369.16 678.243Z" fill="#100747"/>
<path d="M1387.26 677.04C1396.29 672.701 1405.21 668.288 1413.96 659.858C1411.81 658.959 1410.66 657.87 1409.95 658.252C1401.57 662.884 1393.4 668.049 1387.26 677.023L1387.26 677.04Z" fill="#100747"/>
<path d="M1371.01 655.199C1360.43 660.414 1356.86 668.821 1354.43 679.203C1360.97 678.863 1360.51 672.088 1363.22 668.789C1365.98 665.43 1367.75 661.031 1371.01 655.199Z" fill="#100747"/>
<path d="M504.349 296.267C508.962 297.876 527.347 295.69 536.133 292.959C529.321 288.836 515.019 290.102 504.349 296.267Z" fill="#100747"/>
<path d="M519.341 306.478C529.128 308.63 538.875 310.658 550.957 309.413C549.823 307.382 549.583 305.812 548.795 305.68C539.335 304.155 529.726 303.189 519.359 306.47L519.341 306.478Z" fill="#100747"/>
<path d="M520.015 279.266C508.467 276.846 500.472 281.263 492.16 287.942C497.516 291.703 501.336 286.09 505.501 285.161C509.744 284.218 513.854 281.849 520.015 279.266Z" fill="#100747"/>
<path d="M216.536 597.486C221.149 599.095 239.534 596.908 248.32 594.178C241.509 590.055 227.206 591.321 216.536 597.486Z" fill="#100747"/>
<path d="M231.528 607.696C241.316 609.849 251.062 611.877 263.145 610.632C262.01 608.601 261.771 607.031 260.983 606.899C251.523 605.373 241.913 604.408 231.547 607.689L231.528 607.696Z" fill="#100747"/>
<path d="M232.202 580.484C220.655 578.065 212.66 582.482 204.348 589.16C209.703 592.922 213.524 587.309 217.689 586.38C221.932 585.437 226.042 583.067 232.202 580.484Z" fill="#100747"/>
<path d="M672.363 143.281C667.739 144.858 654.613 157.915 649.379 165.482C657.284 164.529 667.764 154.713 672.363 143.281Z" fill="#100747"/>
<path d="M654.264 144.484C645.231 148.824 636.308 153.237 627.563 161.666C629.707 162.566 630.864 163.654 631.566 163.272C639.954 158.641 648.115 153.476 654.255 144.501L654.264 144.484Z" fill="#100747"/>
<path d="M670.509 166.326C681.092 161.111 684.663 152.704 687.09 142.321C680.554 142.662 681.007 149.436 678.301 152.736C675.541 156.094 673.766 160.494 670.509 166.326Z" fill="#100747"/>
<path d="M506.105 473.964C513.244 474.04 516.654 471.107 519.735 467.341C513.501 464.01 511.536 464.91 506.105 473.964Z" fill="#100747"/>
<path d="M1269.96 508.671C1265.34 510.248 1252.21 523.305 1246.98 530.872C1254.89 529.918 1265.37 520.103 1269.96 508.671Z" fill="#100747"/>
<path d="M1251.87 509.874C1242.83 514.213 1233.91 518.626 1225.16 527.056C1227.31 527.955 1228.47 529.044 1229.17 528.662C1237.56 524.03 1245.72 518.865 1251.86 509.891L1251.87 509.874Z" fill="#100747"/>
<path d="M1268.11 531.715C1278.69 526.5 1282.26 518.094 1284.69 507.711C1278.16 508.051 1278.61 514.826 1275.9 518.125C1273.14 521.484 1271.37 525.883 1268.11 531.715Z" fill="#100747"/>
<path d="M362.2 584.609C355.061 584.533 351.651 587.466 348.57 591.232C354.803 594.563 356.768 593.664 362.2 584.609Z" fill="#100747"/>
<path d="M1115.77 172.141C1122.55 174.364 1126.69 172.594 1130.76 169.931C1125.82 164.877 1123.68 165.143 1115.77 172.141Z" fill="#100747"/>
<path d="M441.993 288.707C439.188 287.747 436.36 286.307 433.582 286.041C432.454 285.922 430.49 288.29 430.62 289.612C430.736 290.856 433.11 293.174 434.447 293.304C437.012 293.583 439.522 292.647 442.051 292.216C442.027 291.049 442.017 289.874 441.993 288.707Z" fill="#100747"/>
<path d="M154.184 589.927C151.38 588.967 148.552 587.527 145.773 587.261C144.645 587.142 142.682 589.51 142.811 590.832C142.927 592.076 145.301 594.394 146.638 594.524C149.204 594.802 151.713 593.867 154.242 593.436C154.218 592.269 154.209 591.094 154.184 589.927Z" fill="#100747"/>
<path d="M915.388 574.316C912.583 573.356 909.755 571.915 906.976 571.649C905.848 571.531 903.885 573.898 904.014 575.221C904.131 576.465 906.504 578.782 907.841 578.913C910.407 579.191 912.917 578.256 915.445 577.825C915.421 576.658 915.412 575.483 915.388 574.316Z" fill="#100747"/>
<path d="M1213.57 348.165C1206.78 345.943 1202.65 347.713 1198.57 350.376C1203.52 355.43 1205.66 355.163 1213.57 348.165Z" fill="#100747"/>
<path d="M409.318 302.235C412.97 302.55 415.584 303.288 417.63 302.714C418.528 302.462 418.279 299.505 418.555 297.766C416.082 297.111 413.539 296.036 411.152 296.044C410.45 296.048 410.196 299.081 409.318 302.235Z" fill="#100747"/>
<path d="M121.51 603.454C125.162 603.769 127.775 604.506 129.822 603.932C130.72 603.681 130.47 600.723 130.746 598.985C128.274 598.33 125.731 597.255 123.344 597.263C122.641 597.266 122.387 600.3 121.51 603.454Z" fill="#100747"/>
<path d="M882.713 587.843C886.365 588.158 888.978 588.895 891.025 588.321C891.923 588.07 891.673 585.112 891.949 583.374C889.477 582.718 886.934 581.643 884.547 581.651C883.845 581.655 883.59 584.689 882.713 587.843Z" fill="#100747"/>
<path d="M40.3439 585.213C33.5594 582.991 29.4243 584.76 25.3519 587.424C30.2927 592.477 32.4375 592.211 40.3439 585.213Z" fill="#100747"/>
<path d="M801.551 569.603C794.767 567.38 790.631 569.15 786.559 571.813C791.5 576.867 793.645 576.601 801.551 569.603Z" fill="#100747"/>
<path d="M375.974 591.196C381.79 591.182 384.88 589.098 385.284 584.074C379.798 584.074 376.694 586.448 375.974 591.196Z" fill="#100747"/>
<path d="M1164.79 275.818C1167.7 275.232 1170.86 275.05 1173.4 273.878C1174.43 273.412 1174.93 270.377 1174.15 269.3C1173.43 268.285 1170.21 267.481 1168.99 268.043C1166.63 269.096 1164.94 271.17 1162.97 272.817C1163.58 273.813 1164.18 274.823 1164.79 275.818Z" fill="#100747"/>
<path d="M492.331 467.378C486.514 467.392 483.425 469.476 483.021 474.5C488.507 474.5 491.61 472.126 492.331 467.378Z" fill="#100747"/>
<path d="M279.136 180.317C276.23 180.903 273.062 181.086 270.528 182.258C269.495 182.724 268.993 185.759 269.772 186.836C270.5 187.851 273.719 188.655 274.939 188.093C277.295 187.039 278.99 184.966 280.956 183.319C280.347 182.323 279.746 181.313 279.136 180.317Z" fill="#100747"/>
<path d="M423.921 593.796C418.494 597.036 416.516 599.677 419.571 604.037C425.573 601.71 427.033 598.857 423.921 593.796Z" fill="#100747"/>
<path d="M752.531 465.925C749.625 466.511 746.457 466.693 743.923 467.865C742.889 468.331 742.388 471.366 743.167 472.443C743.895 473.458 747.113 474.262 748.334 473.7C750.689 472.647 752.384 470.573 754.351 468.926C753.741 467.93 753.14 466.92 752.531 465.925Z" fill="#100747"/>
<path d="M444.384 464.778C449.811 461.538 451.788 458.897 448.734 454.537C442.732 456.864 441.272 459.718 444.384 464.778Z" fill="#100747"/>
<path d="M718.643 325.955C715.843 326.929 712.728 327.539 710.376 329.042C709.415 329.644 709.329 332.719 710.246 333.68C711.105 334.588 714.403 334.949 715.536 334.227C717.727 332.865 719.126 330.581 720.852 328.683C720.113 327.779 719.381 326.859 718.643 325.955Z" fill="#100747"/>
<path d="M399.833 270.5C401.795 276.399 403.703 278.615 406.947 276.863C408.073 276.254 408.08 273.932 408.603 272.401C406.133 271.873 403.679 271.337 399.844 270.517L399.833 270.5Z" fill="#100747"/>
<path d="M112.024 571.719C113.986 577.618 115.895 579.833 119.138 578.082C120.264 577.473 120.271 575.151 120.794 573.62C118.325 573.092 115.87 572.555 112.035 571.735L112.024 571.719Z" fill="#100747"/>
<path d="M873.231 556.109C875.193 562.008 877.102 564.223 880.345 562.472C881.471 561.863 881.479 559.541 882.001 558.01C879.532 557.482 877.078 556.945 873.243 556.125L873.231 556.109Z" fill="#100747"/>
<path d="M1316.24 691.345C1313.44 692.319 1310.33 692.928 1307.98 694.432C1307.02 695.034 1306.93 698.109 1307.85 699.07C1308.71 699.978 1312 700.339 1313.14 699.617C1315.33 698.254 1316.73 695.971 1318.45 694.072C1317.71 693.168 1316.98 692.249 1316.24 691.345Z" fill="#100747"/>
<path d="M400.267 341.929C400.386 339.747 400.444 338.475 400.526 337.211C398.836 336.983 397.086 336.49 395.5 336.653C395.033 336.701 394.57 339.29 394.853 339.473C396.267 340.412 397.92 340.938 400.267 341.929Z" fill="#100747"/>
<path d="M112.458 643.148C112.578 640.965 112.635 639.694 112.718 638.429C111.027 638.202 109.277 637.709 107.691 637.872C107.224 637.92 106.761 640.509 107.045 640.692C108.458 641.63 110.111 642.157 112.458 643.148Z" fill="#100747"/>
<path d="M873.665 627.537C873.785 625.354 873.842 624.082 873.925 622.818C872.234 622.591 870.484 622.098 868.898 622.261C868.432 622.308 867.968 624.898 868.252 625.081C869.665 626.019 871.318 626.545 873.665 627.537Z" fill="#100747"/>
<path d="M586.722 318.226C583.145 318.986 580.768 320.501 581.434 325.92C584.607 323.167 586.569 321.493 588.514 319.8C587.916 319.281 587.317 318.762 586.718 318.243L586.722 318.226Z" fill="#100747"/>
<path d="M298.91 619.445C295.332 620.205 292.956 621.719 293.621 627.139C296.794 624.386 298.756 622.712 300.702 621.019C300.103 620.5 299.504 619.98 298.906 619.461L298.91 619.445Z" fill="#100747"/>
<path d="M725.279 130.18C728.079 129.207 731.194 128.597 733.546 127.093C734.507 126.492 734.593 123.417 733.676 122.455C732.817 121.548 729.519 121.187 728.386 121.908C726.195 123.271 724.796 125.555 723.07 127.453C723.809 128.357 724.541 129.276 725.279 130.18Z" fill="#100747"/>
<path d="M556.714 343.519C560.36 344.038 562.648 343.157 563.149 340.294C563.268 339.607 561.639 338.034 560.91 338.098C557.802 338.343 555.837 339.757 556.714 343.519Z" fill="#100747"/>
<path d="M268.901 644.738C272.548 645.257 274.835 644.376 275.336 641.513C275.455 640.826 273.826 639.252 273.097 639.316C269.99 639.562 268.025 640.975 268.901 644.738Z" fill="#100747"/>
<path d="M1322.88 495.57C1325.68 494.596 1328.8 493.987 1331.15 492.483C1332.11 491.881 1332.19 488.806 1331.28 487.845C1330.42 486.937 1327.12 486.576 1325.99 487.298C1323.8 488.661 1322.4 490.944 1320.67 492.843C1321.41 493.747 1322.14 494.666 1322.88 495.57Z" fill="#100747"/>
<path d="M1186.18 247.656C1182.87 249.226 1180.24 249.908 1178.76 251.436C1178.12 252.106 1179.82 254.534 1180.46 256.174C1182.93 255.493 1185.67 255.138 1187.72 253.928C1188.33 253.57 1187.02 250.823 1186.18 247.656Z" fill="#100747"/>
<path d="M257.743 208.479C261.055 206.909 263.684 206.228 265.161 204.7C265.81 204.03 264.103 201.602 263.464 199.962C260.999 200.643 258.261 200.997 256.204 202.208C255.599 202.566 256.91 205.313 257.743 208.479Z" fill="#100747"/>
<path d="M731.137 494.088C734.45 492.518 737.078 491.836 738.556 490.308C739.204 489.638 737.497 487.211 736.859 485.57C734.393 486.251 731.655 486.606 729.598 487.816C728.994 488.174 730.304 490.922 731.137 494.088Z" fill="#100747"/>
<path d="M701.258 356.752C704.328 354.749 706.84 353.718 708.097 352.004C708.649 351.252 706.629 349.078 705.775 347.539C703.424 348.547 700.759 349.269 698.885 350.747C698.334 351.183 700.005 353.728 701.258 356.752Z" fill="#100747"/>
<path d="M1298.86 722.142C1301.93 720.138 1304.44 719.107 1305.69 717.394C1306.25 716.642 1304.23 714.467 1303.37 712.929C1301.02 713.937 1298.36 714.659 1296.48 716.136C1295.93 716.572 1297.6 719.117 1298.86 722.142Z" fill="#100747"/>
<path d="M742.668 99.3827C739.598 101.386 737.086 102.417 735.829 104.131C735.277 104.882 737.297 107.057 738.151 108.596C740.502 107.587 743.167 106.866 745.041 105.388C745.592 104.952 743.921 102.407 742.668 99.3827Z" fill="#100747"/>
<path d="M1340.27 464.772C1337.2 466.776 1334.69 467.807 1333.43 469.521C1332.88 470.272 1334.9 472.447 1335.75 473.986C1338.1 472.977 1340.77 472.256 1342.64 470.778C1343.19 470.342 1341.52 467.797 1340.27 464.772Z" fill="#100747"/>
<path d="M956.371 244.736C961.922 246.475 965.496 245.418 967.394 240.749C962.162 239.097 958.488 240.426 956.371 244.736Z" fill="#100747"/>
<path d="M487.551 211.399C482 209.661 478.426 210.718 476.528 215.387C481.76 217.039 485.434 215.71 487.551 211.399Z" fill="#100747"/>
<path d="M1085.15 576.788C1079.6 575.049 1076.03 576.106 1074.13 580.775C1079.36 582.427 1083.04 581.098 1085.15 576.788Z" fill="#100747"/>
<path d="M1001.31 261.657C995.159 263.112 992.478 265.035 994.078 270.113C1000.5 269.701 1002.75 267.42 1001.31 261.657Z" fill="#100747"/>
<path d="M442.612 194.479C448.763 193.024 451.444 191.101 449.844 186.023C443.42 186.435 441.169 188.716 442.612 194.479Z" fill="#100747"/>
<path d="M1040.21 559.868C1046.36 558.413 1049.05 556.49 1047.45 551.413C1041.02 551.825 1038.77 554.106 1040.21 559.868Z" fill="#100747"/>
<path d="M882.535 317.871C888.433 315.597 890.829 313.329 888.557 308.514C882.247 309.792 880.326 312.356 882.535 317.871Z" fill="#100747"/>
<path d="M561.39 138.264C555.493 140.538 553.097 142.806 555.369 147.62C561.679 146.343 563.6 143.778 561.39 138.264Z" fill="#100747"/>
<path d="M1158.99 503.654C1153.09 505.927 1150.7 508.195 1152.97 513.01C1159.28 511.733 1161.2 509.168 1158.99 503.654Z" fill="#100747"/>
<path d="M1210.38 270.276C1205.71 266.171 1202.94 265.221 1201.02 268.369C1200.36 269.463 1201.52 271.472 1201.85 273.057C1204.24 272.268 1206.63 271.493 1210.36 270.267L1210.38 270.276Z" fill="#100747"/>
<path d="M233.546 185.86C238.215 189.965 240.98 190.915 242.898 187.766C243.563 186.673 242.398 184.664 242.077 183.079C239.678 183.868 237.288 184.642 233.563 185.869L233.546 185.86Z" fill="#100747"/>
<path d="M706.944 471.468C711.613 475.572 714.379 476.522 716.296 473.374C716.961 472.28 715.796 470.271 715.475 468.686C713.077 469.475 710.687 470.25 706.962 471.476L706.944 471.468Z" fill="#100747"/>
<path d="M1173.97 208.817C1174.97 210.762 1175.56 211.889 1176.13 213.022C1177.7 212.366 1179.46 211.909 1180.75 210.968C1181.13 210.692 1180.22 208.222 1179.89 208.207C1178.19 208.11 1176.5 208.489 1173.97 208.817Z" fill="#100747"/>
<path d="M1155.36 311.489C1154.36 309.544 1153.77 308.417 1153.2 307.283C1151.63 307.94 1149.87 308.397 1148.58 309.337C1148.2 309.614 1149.11 312.083 1149.45 312.098C1151.14 312.196 1152.83 311.817 1155.36 311.489Z" fill="#100747"/>
<path d="M743.343 532.926C742.346 530.981 741.754 529.854 741.187 528.721C739.613 529.377 737.853 529.834 736.566 530.775C736.187 531.052 737.093 533.521 737.43 533.536C739.124 533.633 740.816 533.254 743.343 532.926Z" fill="#100747"/>
<path d="M874.379 248.465C870.739 248.112 868.016 248.841 867.019 254.21C870.873 252.539 873.248 251.534 875.614 250.506C875.199 249.831 874.785 249.155 874.37 248.48L874.379 248.465Z" fill="#100747"/>
<path d="M569.543 207.67C573.183 208.023 575.906 207.295 576.903 201.926C573.049 203.596 570.674 204.602 568.308 205.63C568.723 206.305 569.137 206.981 569.552 207.656L569.543 207.67Z" fill="#100747"/>
<path d="M1167.14 573.06C1170.78 573.413 1173.51 572.684 1174.5 567.316C1170.65 568.986 1168.28 569.991 1165.91 571.019C1166.32 571.695 1166.74 572.37 1167.15 573.046L1167.14 573.06Z" fill="#100747"/>
<path d="M838.148 263.546C841.469 265.14 843.916 264.988 845.256 262.409C845.576 261.789 844.497 259.799 843.782 259.64C840.746 258.938 838.446 259.694 838.148 263.546Z" fill="#100747"/>
<path d="M605.778 192.589C602.456 190.996 600.01 191.148 598.67 193.727C598.349 194.346 599.429 196.337 600.143 196.496C603.18 197.198 605.48 196.442 605.778 192.589Z" fill="#100747"/>
<path d="M1203.38 557.979C1200.05 556.386 1197.61 556.538 1196.27 559.117C1195.95 559.736 1197.03 561.727 1197.74 561.885C1200.78 562.587 1203.08 561.831 1203.38 557.979Z" fill="#100747"/>
<path d="M1189.08 636.694C1192.47 632.942 1196.64 629.687 1199.01 625.27C1200.68 622.113 1200.82 617.362 1200.04 613.341C1199.04 608.316 1195.1 606.04 1189.96 606.036C1179.15 606.009 1167.81 618.186 1167.98 629.097C1168.03 632.662 1168.33 636.087 1171.71 638.245C1175.4 640.611 1179.51 641.627 1183.1 639.524C1184.94 638.448 1186.66 637.231 1188.45 636.088C1188.67 636.287 1188.89 636.503 1189.11 636.702L1189.08 636.694ZM1194.47 612.274C1194.9 625.283 1183.6 634.782 1173.2 630.976C1173.91 621.765 1181.74 614.651 1194.47 612.274Z" fill="#100747"/>
<path d="M728.23 273.184C741.637 275.703 757.626 264.829 760.703 255.273C763.275 247.308 758.23 242.687 748.652 244.802C737.564 247.246 728.095 251.973 721.792 260.527C716.655 267.516 718.722 271.814 728.21 273.182L728.23 273.184ZM729.229 267.32C734.35 256.341 741.052 251.78 753.008 250.665C756.31 253.986 754.144 256.562 751.334 259.301C745.718 264.763 737.741 267.921 729.249 267.323L729.229 267.32Z" fill="#100747"/>
<path d="M1176.87 716.219C1184.82 724.712 1188.27 725.289 1196.98 719.081C1200.78 716.366 1203.94 712.776 1206.47 709.148C1208.94 705.581 1207.46 701.432 1203.78 699.426C1201.43 698.154 1196.61 698.424 1193.79 699.556C1185.45 702.902 1181.38 709.567 1176.89 716.221L1176.87 716.219ZM1185.14 718.197C1186.82 709.71 1190.52 706.265 1199.98 704.374C1200.4 713.278 1197.43 716.06 1185.14 718.197Z" fill="#100747"/>
<path d="M1325.83 638.573C1339.24 641.092 1355.23 630.217 1358.3 620.661C1360.88 612.696 1355.83 608.076 1346.25 610.191C1335.17 612.634 1325.7 617.361 1319.39 625.915C1314.26 632.905 1316.32 637.203 1325.81 638.57L1325.83 638.573ZM1326.83 632.709C1331.95 621.73 1338.65 617.169 1350.61 616.054C1353.91 619.374 1351.75 621.951 1348.94 624.69C1343.32 630.152 1335.34 633.309 1326.85 632.712L1326.83 632.709Z" fill="#100747"/>
<path d="M715.696 182.951C702.289 180.433 686.3 191.307 683.223 200.863C680.651 208.828 685.696 213.449 695.274 211.333C706.362 208.89 715.83 204.163 722.134 195.609C727.271 188.62 725.204 184.321 715.716 182.954L715.696 182.951ZM714.697 188.816C709.576 199.795 702.873 204.355 690.918 205.47C687.616 202.15 689.782 199.574 692.592 196.835C698.208 191.373 706.185 188.215 714.677 188.813L714.697 188.816Z" fill="#100747"/>
<path d="M1313.29 548.341C1299.89 545.822 1283.9 556.697 1280.82 566.253C1278.25 574.218 1283.29 578.838 1292.87 576.723C1303.96 574.28 1313.43 569.553 1319.73 560.999C1324.87 554.01 1322.8 549.711 1313.31 548.344L1313.29 548.341ZM1312.29 554.205C1307.17 565.184 1300.47 569.745 1288.52 570.86C1285.21 567.54 1287.38 564.963 1290.19 562.224C1295.81 556.762 1303.78 553.605 1312.28 554.203L1312.29 554.205Z" fill="#100747"/>
<path d="M1101.95 661.656C1106.56 663.265 1124.94 661.078 1133.73 658.348C1126.92 654.225 1112.62 655.491 1101.95 661.656Z" fill="#100747"/>
<path d="M1116.94 671.866C1126.73 674.019 1136.47 676.046 1148.55 674.802C1147.42 672.771 1147.18 671.201 1146.39 671.069C1136.93 669.543 1127.32 668.578 1116.96 671.859L1116.94 671.866Z" fill="#100747"/>
<path d="M1117.61 644.654C1106.06 642.235 1098.07 646.652 1089.76 653.33C1095.11 657.092 1098.93 651.479 1103.1 650.55C1107.34 649.607 1111.45 647.237 1117.61 644.654Z" fill="#100747"/>
<path d="M852.441 184.831C849.055 188.584 844.884 191.838 842.518 196.255C840.847 199.413 840.701 204.163 841.488 208.185C842.486 213.21 846.428 215.485 851.562 215.49C862.37 215.516 873.718 203.339 873.543 192.428C873.493 188.863 873.191 185.439 869.817 183.28C866.119 180.914 862.012 179.899 858.426 182.001C856.588 183.077 854.867 184.295 853.075 185.437C852.858 185.238 852.631 185.022 852.415 184.823L852.441 184.831ZM847.056 209.251C846.622 196.242 857.928 186.743 868.322 190.55C867.611 199.76 859.781 206.875 847.056 209.251Z" fill="#100747"/>
<path d="M853.891 375.694C857.277 371.942 861.448 368.687 863.814 364.27C865.485 361.113 865.631 356.362 864.844 352.341C863.846 347.316 859.904 345.04 854.77 345.036C843.962 345.009 832.614 357.186 832.789 368.097C832.839 371.662 833.141 375.087 836.515 377.245C840.213 379.611 844.32 380.627 847.906 378.524C849.744 377.448 851.465 376.231 853.258 375.088C853.474 375.287 853.701 375.503 853.917 375.702L853.891 375.694ZM859.277 351.274C859.71 364.283 848.404 373.782 838.01 369.976C838.721 360.765 846.551 353.651 859.277 351.274Z" fill="#100747"/>
<path d="M841.68 455.219C849.627 463.712 853.079 464.289 861.792 458.081C865.588 455.366 868.745 451.776 871.275 448.148C873.751 444.581 872.264 440.432 868.586 438.426C866.235 437.154 861.422 437.424 858.603 438.556C850.259 441.902 846.193 448.567 841.699 455.221L841.68 455.219ZM849.951 457.197C851.628 448.71 855.326 445.265 864.791 443.374C865.209 452.278 862.238 455.06 849.951 457.197Z" fill="#100747"/>
<path d="M864.653 105.307C856.705 96.8134 853.253 96.2369 844.541 102.445C840.744 105.159 837.588 108.749 835.057 112.377C832.581 115.945 834.068 120.093 837.746 122.099C840.097 123.371 844.91 123.102 847.73 121.969C856.074 118.623 860.139 111.959 864.633 105.304L864.653 105.307ZM856.381 103.329C854.704 111.816 851.007 115.26 841.542 117.152C841.123 108.247 844.095 105.466 856.381 103.329Z" fill="#100747"/>
<path d="M1039.59 654.097C1036.79 653.137 1033.96 651.697 1031.18 651.431C1030.06 651.312 1028.09 653.679 1028.22 655.002C1028.34 656.246 1030.71 658.564 1032.05 658.694C1034.61 658.972 1037.12 658.037 1039.65 657.606C1039.63 656.439 1039.62 655.264 1039.59 654.097Z" fill="#100747"/>
<path d="M939.573 159.87C934.96 158.26 916.575 160.447 907.789 163.178C914.601 167.301 928.903 166.034 939.573 159.87Z" fill="#100747"/>
<path d="M924.581 149.659C914.794 147.506 905.047 145.479 892.965 146.724C894.099 148.754 894.339 150.325 895.127 150.456C904.587 151.982 914.196 152.947 924.563 149.667L924.581 149.659Z" fill="#100747"/>
<path d="M923.907 176.871C935.455 179.29 943.45 174.874 951.762 168.195C946.406 164.434 942.586 170.047 938.421 170.976C934.178 171.918 930.068 174.288 923.907 176.871Z" fill="#100747"/>
<path d="M1389.76 360.437C1394.37 362.046 1412.76 359.86 1421.54 357.129C1414.73 353.006 1400.43 354.272 1389.76 360.437Z" fill="#100747"/>
<path d="M1404.75 370.647C1414.54 372.8 1424.28 374.828 1436.37 373.583C1435.23 371.552 1434.99 369.982 1434.21 369.85C1424.75 368.325 1415.14 367.359 1404.77 370.64L1404.75 370.647Z" fill="#100747"/>
<path d="M1405.42 343.435C1393.88 341.016 1385.88 345.433 1377.57 352.112C1382.93 355.873 1386.75 350.26 1390.91 349.331C1395.15 348.388 1399.26 346.019 1405.42 343.435Z" fill="#100747"/>
<path d="M1006.92 667.624C1010.57 667.939 1013.19 668.676 1015.23 668.102C1016.13 667.851 1015.88 664.893 1016.16 663.155C1013.68 662.5 1011.14 661.425 1008.75 661.433C1008.05 661.436 1007.8 664.47 1006.92 667.624Z" fill="#100747"/>
<path d="M766.759 400.656C771.372 402.265 789.757 400.078 798.543 397.348C791.731 393.225 777.429 394.491 766.759 400.656Z" fill="#100747"/>
<path d="M781.751 410.866C791.538 413.019 801.285 415.046 813.367 413.802C812.233 411.771 811.994 410.201 811.205 410.069C801.746 408.543 792.136 407.578 781.769 410.859L781.751 410.866Z" fill="#100747"/>
<path d="M782.425 383.654C770.878 381.235 762.882 385.652 754.571 392.33C759.926 396.092 763.747 390.479 767.912 389.55C772.154 388.607 776.264 386.237 782.425 383.654Z" fill="#100747"/>
<path d="M793.913 172.746C801.052 172.821 804.462 169.888 807.543 166.122C801.31 162.791 799.345 163.691 793.913 172.746Z" fill="#100747"/>
<path d="M1391.51 538.135C1398.65 538.211 1402.06 535.278 1405.15 531.512C1398.91 528.181 1396.95 529.081 1391.51 538.135Z" fill="#100747"/>
<path d="M650.009 283.39C642.87 283.314 639.46 286.247 636.378 290.013C642.612 293.344 644.577 292.445 650.009 283.39Z" fill="#100747"/>
<path d="M1247.61 648.78C1240.47 648.704 1237.06 651.637 1233.98 655.403C1240.21 658.734 1242.18 657.834 1247.61 648.78Z" fill="#100747"/>
<path d="M1001.93 167.429C1004.73 168.388 1007.56 169.829 1010.34 170.095C1011.47 170.214 1013.43 167.846 1013.3 166.523C1013.19 165.279 1010.81 162.962 1009.48 162.832C1006.91 162.553 1004.4 163.488 1001.87 163.919C1001.9 165.086 1001.9 166.262 1001.93 167.429Z" fill="#100747"/>
<path d="M1327.4 352.878C1324.6 351.918 1321.77 350.478 1318.99 350.212C1317.86 350.093 1315.9 352.461 1316.03 353.783C1316.15 355.027 1318.52 357.345 1319.86 357.475C1322.42 357.753 1324.93 356.818 1327.46 356.387C1327.44 355.22 1327.43 354.045 1327.4 352.878Z" fill="#100747"/>
<path d="M704.403 393.097C701.598 392.137 698.77 390.697 695.992 390.431C694.864 390.312 692.9 392.679 693.03 394.002C693.146 395.246 695.52 397.564 696.857 397.694C699.422 397.972 701.932 397.037 704.461 396.606C704.437 395.439 704.427 394.264 704.403 393.097Z" fill="#100747"/>
<path d="M1034.61 153.902C1030.96 153.586 1028.34 152.849 1026.3 153.423C1025.4 153.674 1025.65 156.632 1025.37 158.37C1027.84 159.026 1030.39 160.101 1032.77 160.093C1033.48 160.089 1033.73 157.055 1034.61 153.902Z" fill="#100747"/>
<path d="M1294.73 366.405C1298.38 366.72 1300.99 367.458 1303.04 366.883C1303.94 366.632 1303.69 363.675 1303.97 361.936C1301.49 361.281 1298.95 360.206 1296.56 360.214C1295.86 360.218 1295.61 363.251 1294.73 366.405Z" fill="#100747"/>
<path d="M997.435 635.89C999.396 641.789 1001.31 644.004 1004.55 642.253C1005.67 641.644 1005.68 639.322 1006.2 637.791C1003.74 637.263 1001.28 636.726 997.446 635.906L997.435 635.89Z" fill="#100747"/>
<path d="M671.728 406.624C675.38 406.939 677.994 407.676 680.04 407.102C680.938 406.851 680.689 403.893 680.965 402.155C678.492 401.5 675.949 400.425 673.562 400.433C672.86 400.436 672.606 403.47 671.728 406.624Z" fill="#100747"/>
<path d="M663.782 289.976C669.599 289.963 672.688 287.878 673.092 282.854C667.606 282.855 664.503 285.229 663.782 289.976Z" fill="#100747"/>
<path d="M997.868 707.318C997.988 705.135 998.045 703.864 998.128 702.599C996.437 702.372 994.687 701.879 993.101 702.042C992.635 702.09 992.171 704.679 992.455 704.862C993.868 705.8 995.521 706.326 997.868 707.318Z" fill="#100747"/>
<path d="M1261.38 655.366C1267.2 655.352 1270.29 653.268 1270.69 648.244C1265.21 648.244 1262.1 650.618 1261.38 655.366Z" fill="#100747"/>
<path d="M1184.32 683.616C1180.74 684.376 1178.37 685.89 1179.03 691.31C1182.2 688.557 1184.17 686.883 1186.11 685.19C1185.51 684.671 1184.91 684.151 1184.32 683.632L1184.32 683.616Z" fill="#100747"/>
<path d="M780.143 166.159C774.327 166.172 771.238 168.257 770.834 173.28C776.32 173.28 779.423 170.906 780.143 166.159Z" fill="#100747"/>
<path d="M1377.74 531.548C1371.92 531.562 1368.84 533.646 1368.43 538.67C1373.92 538.67 1377.02 536.296 1377.74 531.548Z" fill="#100747"/>
<path d="M1154.31 708.909C1157.96 709.428 1160.25 708.546 1160.75 705.684C1160.87 704.996 1159.24 703.423 1158.51 703.487C1155.4 703.732 1153.43 705.146 1154.31 708.909Z" fill="#100747"/>
<path d="M711.729 292.577C706.303 295.816 704.325 298.458 707.38 302.818C713.382 300.49 714.841 297.637 711.729 292.577Z" fill="#100747"/>
<path d="M1309.33 657.966C1303.9 661.206 1301.93 663.847 1304.98 668.207C1310.98 665.88 1312.44 663.026 1309.33 657.966Z" fill="#100747"/>
<path d="M732.193 163.558C737.619 160.318 739.597 157.677 736.542 153.317C730.54 155.645 729.081 158.498 732.193 163.558Z" fill="#100747"/>
<path d="M1329.79 528.948C1335.22 525.708 1337.2 523.067 1334.14 518.707C1328.14 521.034 1326.68 523.888 1329.79 528.948Z" fill="#100747"/>
<path d="M1044.09 185.635C1042.13 179.736 1040.22 177.521 1036.98 179.273C1035.85 179.881 1035.84 182.204 1035.32 183.734C1037.79 184.263 1040.24 184.799 1044.08 185.619L1044.09 185.635Z" fill="#100747"/>
<path d="M1285.24 334.67C1287.2 340.569 1289.11 342.785 1292.36 341.033C1293.48 340.424 1293.49 338.102 1294.01 336.571C1291.54 336.043 1289.09 335.506 1285.25 334.687L1285.24 334.67Z" fill="#100747"/>
<path d="M662.247 374.89C664.209 380.789 666.118 383.004 669.361 381.253C670.487 380.644 670.494 378.322 671.017 376.791C668.547 376.263 666.093 375.726 662.258 374.906L662.247 374.89Z" fill="#100747"/>
<path d="M1043.66 114.207C1043.54 116.39 1043.48 117.662 1043.4 118.926C1045.09 119.153 1046.84 119.646 1048.42 119.484C1048.89 119.436 1049.35 116.846 1049.07 116.664C1047.66 115.725 1046 115.199 1043.66 114.207Z" fill="#100747"/>
<path d="M1285.68 406.099C1285.8 403.917 1285.85 402.645 1285.94 401.381C1284.25 401.153 1282.5 400.66 1280.91 400.823C1280.44 400.871 1279.98 403.46 1280.26 403.643C1281.68 404.582 1283.33 405.108 1285.68 406.099Z" fill="#100747"/>
<path d="M987.474 405.881C987.593 403.698 987.651 402.426 987.733 401.162C986.043 400.934 984.293 400.441 982.707 400.604C982.24 400.652 981.777 403.241 982.06 403.424C983.474 404.363 985.127 404.889 987.474 405.881Z" fill="#100747"/>
<path d="M662.681 446.318C662.8 444.135 662.858 442.864 662.94 441.599C661.25 441.372 659.5 440.879 657.914 441.042C657.447 441.09 656.984 443.679 657.267 443.862C658.681 444.8 660.334 445.326 662.681 446.318Z" fill="#100747"/>
<path d="M849.132 422.616C845.555 423.376 843.179 424.89 843.844 430.31C847.017 427.557 848.979 425.883 850.925 424.19C850.326 423.671 849.727 423.151 849.129 422.632L849.132 422.616Z" fill="#100747"/>
<path d="M857.204 137.909C860.781 137.15 863.157 135.635 862.492 130.215C859.319 132.969 857.357 134.643 855.412 136.336C856.01 136.855 856.609 137.374 857.207 137.893L857.204 137.909Z" fill="#100747"/>
<path d="M819.124 447.909C822.771 448.428 825.058 447.546 825.559 444.684C825.678 443.996 824.049 442.423 823.32 442.487C820.213 442.732 818.247 444.146 819.124 447.909Z" fill="#100747"/>
<path d="M887.212 112.616C883.565 112.097 881.278 112.979 880.777 115.842C880.658 116.529 882.287 118.102 883.016 118.038C886.124 117.793 888.089 116.379 887.212 112.616Z" fill="#100747"/>
</svg>
