<svg width="1440" height="721" viewBox="0 0 1440 721" fill="none" xmlns="http://www.w3.org/2000/svg">
<g clip-path="url(#clip0_3913_2539)">
<path d="M-182.632 122.396C-197.643 122.396 -208.65 122.396 -224.642 122.396C-200.965 80.5904 -179.522 42.6842 -155.336 0C-133.326 42.7355 -114.575 79.1478 -94.9825 117.237C-108.22 119.467 -117.78 121.056 -128.901 122.919C-103.312 164.355 -78.7669 204.074 -52.2291 247.058C-75.1553 247.058 -91.4916 247.058 -109.81 247.058C-87.4221 286.37 -66.0454 323.859 -42.4856 365.254C-60.8697 365.254 -73.3165 365.254 -90.1 365.254C-65.6611 402.992 -43.3026 437.508 -20.2556 473.067C-7.42811 454.207 3.48395 438.137 16.6558 418.78C1.21294 418.78 -10.3692 418.78 -26.2296 418.78C-2.39874 378.062 19.359 340.932 42.3145 301.752C30.5199 300.935 21.725 300.335 8.06604 299.416C29.4574 260.814 49.402 224.812 72.0681 183.87C92.291 225.163 109.518 260.327 127.257 296.567C115.111 299.298 107.203 301.096 97.9062 303.143C118.261 337.9 137.55 370.765 159.648 408.422C141.777 408.422 131.491 408.422 116.473 408.422C141.315 449.502 163.941 486.965 188.406 527.442C207.709 495.156 224.899 466.411 243.807 434.762C235.071 435.721 231.057 436.193 221.812 437.189C236.65 411.501 262.807 366.258 262.807 366.258L319.646 439.356L288.019 442.216C288.019 442.216 314.882 487.998 328.893 511.885C319.963 514.287 314.787 515.693 306.846 517.856C324.626 547.363 340.826 574.282 358.764 604.089C372.199 582.106 383.518 563.649 395.349 544.357C387.258 542.073 381.507 540.421 374.917 538.558C380.983 526.351 386.551 515.154 390.173 507.817L429.172 439.697L454.527 493.97H454.516C458.454 502.383 462.212 510.376 465.911 518.318L467.38 521.43C471.098 529.346 474.783 537.258 478.585 545.383C469.406 546.184 463.311 546.682 457.388 547.221C472.739 574.604 487.314 600.644 502.244 627.262C494.72 630.044 490.705 631.538 484.453 633.812C492.911 646.216 499.738 656.219 507.917 668.163C522.188 643.536 534.825 621.751 548.059 598.937C542.297 597.652 538.316 596.759 530.569 595.053C544.675 571.598 557.491 550.333 572.352 525.633C586.417 550.662 598.3 571.796 610.127 592.874C604.285 596.905 600.428 599.593 596.248 602.496C610.878 629.759 624.522 655.209 638.427 681.142C652.075 650.39 664.507 622.498 676.902 594.544C672.411 593.899 668.155 593.284 660.723 592.233C680.173 558.578 698.542 526.893 718.344 492.728C734.725 516.893 748.354 537.002 761.511 556.414C779.016 525.857 795.639 496.825 812.671 467.084C805.54 464.378 799.738 462.16 791.412 458.971C810.316 425.213 827.858 393.868 847.725 358.364C867.128 396.138 884.113 429.163 901.977 463.906C892.226 466.374 886.028 467.923 878.406 469.852C894.94 497.928 910.486 524.322 926.833 552.072C918.885 554.185 912.815 555.788 904.629 557.963C913.346 571.733 920.646 583.241 929.577 597.367C947.803 568.859 963.884 543.75 981.4 516.344C970.872 515.279 963.177 514.481 952.726 513.419C973.132 474.03 992.586 436.515 1013.88 395.446C1034.28 436.779 1052.1 472.847 1070.55 510.19C1061.5 512.474 1055.93 513.928 1048.65 515.78C1064.2 541.637 1078.67 565.736 1093.15 589.81C1086.87 593.998 1082.9 596.634 1077.92 599.93C1085.06 609.405 1090.87 617.138 1097.68 626.193C1107.31 611.467 1115.06 599.629 1122.81 587.803C1118.31 584.482 1111.62 580.074 1111.83 579.664C1125.55 553.203 1139.87 527.083 1154.91 499.495C1145.88 498.22 1137.85 497.144 1126.01 495.464C1147.87 452.926 1168.56 412.629 1192.07 366.847C1214.76 411.973 1233.88 450.037 1253.35 488.811C1243.15 491.868 1236.33 493.929 1228.09 496.382C1239.47 513.144 1249.48 527.91 1260.82 544.606C1286.04 503.577 1310.05 464.605 1335.76 422.829C1322.21 420.728 1310.7 418.945 1295.93 416.66C1315.3 383.136 1333.47 351.744 1352.26 319.216C1345.49 317.063 1340.15 315.357 1331.29 312.523C1345.91 284.503 1359.5 258.471 1375.6 227.602C1393.92 261.755 1408.78 289.501 1424.86 319.495C1414.6 321.292 1408.3 322.409 1400.55 323.764C1419.59 356.053 1437.68 386.768 1458.65 422.298C1441.09 422.298 1430.28 422.298 1414.34 422.298C1430.62 445.413 1443.93 464.312 1458.78 485.354C1482.23 451.911 1503.37 421.709 1526.86 388.145C1511.06 386.399 1498.65 385.033 1482.16 383.195C1504.57 349.239 1525.64 317.334 1548.32 282.969C1528.4 281.76 1510.67 280.673 1488.32 279.348C1517.67 235.638 1544.6 195.609 1573.29 152.858C1559.62 152.031 1550.76 151.507 1537.49 150.706C1559.22 113.349 1579.31 78.789 1601.84 40.0188C1624.97 79.0526 1645.49 113.693 1667.23 150.431C1651.19 151.822 1640.14 152.792 1624.65 154.158C1645.97 183.295 1665.74 210.335 1686 238.029V2472.5H-264V250.024C-236.246 206.519 -210.434 166.039 -182.632 122.396Z" fill="url(#paint0_linear_3913_2539)"/>
</g>
<defs>
<linearGradient id="paint0_linear_3913_2539" x1="711" y1="222" x2="711" y2="2041" gradientUnits="userSpaceOnUse">
<stop stop-color="#00695C"/>
<stop offset="1" stop-color="#FFEBE5"/>
</linearGradient>
<clipPath id="clip0_3913_2539">
<rect width="1440" height="721" fill="white"/>
</clipPath>
</defs>
</svg>
