<svg width="1440" height="1209" viewBox="0 0 1440 1209" fill="none" xmlns="http://www.w3.org/2000/svg">
<g clip-path="url(#clip0_3912_2535)">
<path d="M1440 2707.5L714.577 3136L0 2707.5L0 614.5L1232 0L1440 493.5L1440 2707.5Z" fill="url(#paint0_linear_3912_2535)"/>
<path d="M1440 2707.5L714.577 3136L0 2707.5L0 614.5L1232 0L1440 493.5L1440 2707.5Z" fill="url(#paint1_linear_3912_2535)"/>
<path d="M804.74 753.008C801.654 755.152 798.805 757.138 794.491 760.115C803.225 775.683 812 791.292 822.387 809.777C833.36 791.535 842.825 775.829 853.241 758.506C847.521 757.246 844.58 756.586 840.325 755.637C850.098 738.787 859.43 722.696 869.969 704.508C876.009 713.329 881.051 720.717 887.297 729.879C882.68 731.558 879.715 732.662 874.159 734.717C885.184 754.376 895.947 773.609 907.283 793.834C902.909 794.231 898.408 794.599 891.63 795.191C894.438 801.192 897.159 807.035 899.904 812.882L900.989 815.181C903.721 821.046 906.496 826.95 909.403 833.164H909.396L928.119 873.248L956.918 822.937C959.593 817.517 963.705 809.248 968.185 800.232C963.319 798.856 959.072 797.636 953.097 795.948C961.833 781.7 970.192 768.068 980.113 751.832C993.359 773.847 1005.32 793.728 1018.45 815.521C1012.59 817.12 1008.77 818.159 1002.17 819.933C1012.5 837.548 1032.3 871.285 1032.36 871.388L1009 873.5L1050.97 927.489C1051.03 927.386 1070.31 894.044 1081.25 875.101C1074.42 875.836 1071.46 876.185 1065 876.894C1078.97 853.518 1091.66 832.288 1105.92 808.442C1123.98 838.337 1140.69 866.007 1159.04 896.348C1147.95 896.348 1140.35 896.348 1127.15 896.348C1143.47 924.16 1157.71 948.434 1172.75 974.104C1165.88 975.616 1160.04 976.945 1151.07 978.962C1164.17 1005.73 1176.89 1031.7 1191.83 1062.2C1208.57 1031.96 1223.29 1005.37 1239.09 976.857C1229 976.179 1222.51 975.736 1213.8 975.133C1230.75 946.195 1246.82 918.771 1264.42 888.697C1252.7 888.697 1244.15 888.697 1232.75 888.697C1242.47 874.4 1250.53 862.532 1260 848.603C1277.02 874.866 1293.53 900.358 1311.58 928.23C1299.19 928.23 1290 928.23 1276.42 928.23C1293.82 958.804 1309.6 986.493 1326.14 1015.53C1312.61 1015.53 1300.55 1015.53 1283.62 1015.53C1303.21 1047.28 1321.34 1076.61 1340.23 1107.21C1332.02 1108.59 1324.96 1109.76 1315.19 1111.41C1329.66 1139.54 1343.5 1166.44 1359.76 1198C1377.62 1166.47 1393.45 1138.48 1410.94 1107.6C1399.13 1107.6 1391 1107.6 1379.91 1107.6C1400.44 1075.37 1419.5 1045.47 1440 1013.34V2749L720 2988.5L0 2749V1022.2C14.9636 1042.65 29.5621 1062.62 45.3047 1084.14C33.8629 1085.15 25.7022 1085.87 13.8574 1086.89C29.9165 1114.03 45.0696 1139.61 62.1484 1168.44C78.7837 1139.81 93.6251 1114.28 109.668 1086.69C99.8709 1086.1 93.33 1085.71 83.2354 1085.1C104.417 1053.53 124.301 1023.96 145.979 991.68C129.471 990.701 116.381 989.897 101.675 989.005C118.421 963.623 133.98 940.058 150.528 914.979C138.348 913.622 129.19 912.613 117.516 911.323C134.865 886.534 150.474 864.226 167.794 839.526C178.757 855.067 188.59 869.027 200.613 886.099C188.842 886.099 180.856 886.099 167.892 886.099C183.377 912.34 196.734 935.027 210.794 958.875C205.071 959.876 200.418 960.7 192.842 962.027C204.714 984.18 215.691 1004.67 229.218 1029.9C241.106 1007.1 251.146 987.872 261.938 967.177C255.398 965.084 251.452 963.823 246.453 962.233C260.329 938.209 273.746 915.023 288.052 890.264C277.143 888.576 268.644 887.259 258.636 885.707C277.622 854.852 295.358 826.068 313.979 795.765C322.353 808.096 329.748 819.002 338.149 831.382C332.061 833.194 327.03 834.716 319.497 836.974C333.876 865.611 347.99 893.724 364.75 927.054C382.113 893.24 397.385 863.478 413.53 832.061C404.791 830.819 398.856 830.024 392.191 829.083C403.295 808.707 413.868 789.415 424.001 769.872C424.158 769.569 419.216 766.313 415.895 763.86C421.621 755.126 427.339 746.383 434.45 735.507C439.479 742.194 443.774 747.906 449.04 754.904C445.37 757.338 442.432 759.284 437.796 762.378C448.491 780.158 459.176 797.958 470.658 817.055C465.281 818.423 461.166 819.496 454.485 821.184C468.107 848.764 481.272 875.404 496.336 905.932C512.06 875.598 526.425 847.891 541.494 818.799C533.777 818.015 528.094 817.426 520.32 816.639C533.255 796.398 545.13 777.852 558.59 756.797C565.184 767.23 570.575 775.729 577.013 785.899C570.967 787.506 566.485 788.691 560.615 790.251C572.687 810.746 584.167 830.241 596.377 850.977C590.748 852.402 586.171 853.546 578.971 855.368C592.162 881.028 604.705 905.42 619.033 933.319C633.705 907.097 646.659 883.946 660.619 859.014C654.471 856.658 650.186 855.019 644.92 853.021C657.498 831.054 669.772 809.612 682.699 787.043C692.415 801.381 702.481 816.232 714.577 834.08C729.2 808.847 742.765 785.445 757.128 760.588C751.64 759.812 748.497 759.358 745.181 758.882C754.334 738.235 763.514 717.635 773.593 694.922C783.861 714.076 793.937 732.872 804.74 753.008Z" fill="url(#paint2_linear_3912_2535)"/>
</g>
<defs>
<linearGradient id="paint0_linear_3912_2535" x1="720" y1="0" x2="720" y2="3346" gradientUnits="userSpaceOnUse">
<stop stop-color="#00362F"/>
<stop offset="1" stop-color="#001C19"/>
</linearGradient>
<linearGradient id="paint1_linear_3912_2535" x1="720" y1="0" x2="720" y2="3136" gradientUnits="userSpaceOnUse">
<stop stop-color="#C4C1DB"/>
<stop offset="1" stop-color="#FFEBE5"/>
</linearGradient>
<linearGradient id="paint2_linear_3912_2535" x1="720" y1="728" x2="720" y2="3139.87" gradientUnits="userSpaceOnUse">
<stop stop-color="#004F46"/>
<stop offset="1" stop-color="#001C19"/>
</linearGradient>
<clipPath id="clip0_3912_2535">
<rect width="1440" height="1209" fill="white"/>
</clipPath>
</defs>
</svg>
