<svg width="1550" height="1965" viewBox="0 0 1550 1965" fill="none" xmlns="http://www.w3.org/2000/svg">
<g clip-path="url(#clip0_478_1473)">
<path d="M1048.53 268.244L910.485 165.319L872.584 144.456L766.182 82.3876L652.477 184.617L621.356 171.578L503.827 251.901L280.5 129.003L230 144.456L89.5 67.5027L0.5 170.28V1964.5H503.827H1048.53H1550V383.003V84.4161L1410.5 5.00269L1048.53 268.244Z" fill="url(#paint0_linear_478_1473)"/>
<path d="M539.072 272.943C534.086 265.675 451 285.527 451 285.527L621.443 167.342L652.034 180.354L766.198 79.5027L873.108 144.383C873.108 144.383 781.683 135.623 774.554 129.964C774.116 138.687 772.913 145.336 780.442 151.472C800.244 167.608 819.317 184.372 838.66 200.899C841.041 202.927 843.348 204.991 845.564 206.939C862.728 193.131 910.228 164.785 910.228 164.785L1076 285.527C1076 285.527 999.4 259.583 995.042 264.812C992.012 268.429 990.76 273.096 988.23 278.264C960.167 262.328 932.525 246.637 905.05 231.041C909.261 224.4 913.062 218.404 917.231 211.817C911.839 206.91 906.458 202.025 900.416 196.53C896.848 208.025 893.454 218.348 890.577 228.773C890.024 230.71 891.07 233.221 892.141 235.164C898.054 245.814 904.23 256.365 910.269 266.966C911.303 268.783 912.157 270.666 913.816 273.977C900.802 267.227 889.413 261.318 878.022 255.409C877.688 255.596 877.358 255.785 877.014 255.968C879.225 258.883 881.168 261.966 883.686 264.679C896.204 278.147 908.493 291.775 921.674 304.788C927.11 310.145 928.802 314.783 924.441 320.813C923.523 322.083 923 323.553 921.986 325.503C906.261 317.952 890.799 310.549 875.337 303.141C874.556 302.767 873.852 302.223 873.016 301.949C860.404 297.757 852.609 290.756 852.666 278.696C852.679 276.852 851.09 274.717 849.572 273.189C830.56 254.102 811.438 235.111 792.392 216.064C791.672 215.345 791.415 214.3 790.947 213.407C790.21 213.843 789.47 214.268 788.747 214.7C794.064 226.766 799.392 238.829 804.882 251.265C804.089 251.056 803.441 251.044 803.101 250.76C789.947 239.778 776.816 228.784 763.704 217.746C758.191 213.106 754.416 208.735 754.24 200.931C753.927 186.459 750.103 172.03 747.669 157.591C747.138 154.445 746.297 151.32 745.714 148.732C716.025 172.728 686.364 196.705 656.277 221.019C644.69 211.969 633.208 202.993 620.913 193.388C614.855 204.609 591.973 220.583 591.973 220.583C591.973 220.583 605.438 233.866 606.95 238.179C608.31 242.088 607.514 244.69 603.975 247.661C589.768 259.601 575.944 271.864 561.984 284.012C561.201 283.594 560.407 283.176 559.619 282.752C564.515 269.618 569.402 256.468 574.29 243.33C573.668 242.903 573.04 242.481 572.417 242.053C561.605 252.065 550.804 262.078 539.072 272.943Z" fill="#F6F5FA"/>
<path d="M-135.928 254.943C-140.914 247.675 -224 267.527 -224 267.527L-53.5567 149.342L-22.9662 162.354L91.1982 61.5027L198.108 126.383C198.108 126.383 106.683 117.623 99.5539 111.964C99.1159 120.687 97.913 127.336 105.442 133.472C125.244 149.608 144.317 166.372 163.66 182.899C166.041 184.927 168.348 186.991 170.564 188.939C187.728 175.131 230.05 144.503 230.05 144.503L281 126.383L474 235.503L331.5 202.503C331.5 202.503 308.53 253.835 306 259.003L250.05 213.041L262.231 173.817L225.416 178.53C221.848 190.025 218.454 200.348 215.577 210.773C215.024 212.71 216.07 215.221 217.141 217.164C223.054 227.814 229.23 238.365 235.269 248.966C236.303 250.783 237.157 252.666 238.816 255.977C225.802 249.227 214.413 243.318 203.022 237.409C202.688 237.596 202.358 237.785 202.014 237.968C204.225 240.883 206.168 243.966 208.686 246.679C221.204 260.147 233.493 273.775 246.674 286.788C252.11 292.145 253.802 296.783 249.441 302.813C248.523 304.083 248 305.553 246.986 307.503C231.261 299.952 215.799 292.549 200.337 285.141C199.556 284.767 198.852 284.223 198.016 283.949C185.404 279.757 177.609 272.756 177.666 260.696C177.679 258.852 176.09 256.717 174.572 255.189C155.56 236.102 136.438 217.111 117.392 198.064C116.672 197.345 116.415 196.3 115.947 195.407C115.21 195.843 114.47 196.268 113.747 196.7C119.064 208.766 124.392 220.829 129.882 233.265C129.089 233.056 128.441 233.044 128.1 232.76C114.947 221.778 101.816 210.784 88.7045 199.746C83.191 195.106 79.4158 190.735 79.2399 182.931C78.9266 168.459 75.1035 154.03 72.6686 139.591C72.1375 136.445 71.2975 133.32 70.7144 130.732C41.0254 154.728 11.3637 178.705 -18.7231 203.019C-30.3101 193.969 -41.7921 184.993 -54.0869 175.388C-60.1451 186.609 -83.0271 202.583 -83.0271 202.583C-83.0271 202.583 -69.5619 215.866 -68.0499 220.179C-66.6899 224.088 -67.4856 226.69 -71.0252 229.661C-85.2323 241.601 -99.0562 253.864 -113.016 266.012C-113.799 265.594 -114.593 265.176 -115.381 264.752C-110.485 251.618 -105.598 238.468 -100.71 225.33C-101.332 224.903 -101.96 224.481 -102.583 224.053C-113.395 234.065 -124.196 244.078 -135.928 254.943Z" fill="#F6F5FA"/>
<path d="M858 329.823C858 329.823 823.376 305.826 805.179 293.206C807.849 291.966 809.502 291.202 811.327 290.354C779.686 261.841 748.949 234.124 718.304 206.503C689.396 233.676 661.416 261.327 631.595 287.319C620.626 296.865 587 336.528 587 336.528C587 336.528 627.14 315.702 627.472 316.038C644.58 301.085 661.68 286.141 678.78 271.189C679.475 271.425 680.185 271.657 680.884 271.893C680.884 280.704 680.884 289.512 680.884 298.319C681.515 298.38 682.149 298.446 682.784 298.507C695.052 276.695 707.327 254.897 719.987 232.41C729.889 241.677 739.187 250.383 748.855 259.432C742.182 264.589 736.14 269.254 730.096 273.924C744.91 289.092 759.115 303.618 773.686 318.533C764.836 321.474 757.15 324.038 749.464 326.584C749.446 327.099 749.433 327.603 749.406 328.109C771.862 333.55 794.353 338.983 817.183 344.503L834.291 329.136L858 329.823Z" fill="#F6F5FA"/>
<path d="M1230 231.823C1230 231.823 1264.62 207.826 1282.82 195.206C1280.15 193.966 1278.5 193.202 1276.67 192.354C1308.31 163.841 1339.05 136.124 1369.7 108.503L1462.85 175.503L1498 154.503L1513.5 175.924L1551.5 195.206L1556 242.503C1556 242.503 1520.86 247.702 1520.53 248.038C1503.42 233.085 1486.32 218.141 1469.22 203.189C1468.52 203.425 1467.82 203.657 1467.12 203.893C1467.12 212.704 1467.12 221.512 1467.12 230.319C1466.48 230.38 1465.85 230.446 1465.22 230.507C1452.95 208.695 1380.67 156.897 1368.01 134.41C1358.11 143.677 1348.81 152.383 1339.14 161.432C1345.82 166.589 1351.86 171.254 1357.9 175.924C1343.09 191.092 1328.89 205.618 1314.31 220.533C1323.16 223.474 1330.85 226.038 1338.54 228.584C1338.55 229.099 1338.57 229.603 1338.59 230.109C1316.14 235.55 1293.65 240.983 1270.82 246.503L1253.71 231.136L1230 231.823Z" fill="#F6F5FA"/>
<path d="M1615 117.533C1615 117.533 1580.38 93.5362 1562.18 80.9163C1564.85 79.6766 1555.68 68.3509 1557.5 67.5027C1557.5 67.5027 1410 -0.497263 1409 0.002744C1408 0.502753 1316 72.9244 1316 72.9244C1305.03 82.4705 1224 140.003 1224 140.003C1224 140.003 1327.14 114.702 1327.47 115.039C1344.58 100.085 1361.68 85.141 1378.78 70.1888C1379.48 70.4248 1380.18 70.6573 1380.88 70.8932C1380.88 79.7037 1380.88 88.5116 1380.88 97.3195C1381.51 97.3804 1382.15 97.4464 1382.78 97.5072C1395.05 75.6946 1407.33 53.8972 1419.99 31.4098C1429.89 40.6769 1439.19 49.3833 1448.86 58.4323C1442.18 63.5888 1436.14 68.2541 1430.1 72.9244C1444.91 88.0922 1459.11 102.618 1473.69 117.533C1464.84 120.474 1457.15 123.038 1449.46 125.584C1449.45 126.099 1449.43 126.603 1449.41 127.109C1471.86 132.55 1551.35 126.693 1574.18 132.213L1591.29 116.846L1615 117.533Z" fill="#F6F5FA"/>
</g>
<defs>
<linearGradient id="paint0_linear_478_1473" x1="788" y1="5.00269" x2="788" y2="836.5" gradientUnits="userSpaceOnUse">
<stop stop-color="#2B1A99"/>
<stop offset="1" stop-color="#1D1266"/>
</linearGradient>
<clipPath id="clip0_478_1473">
<rect width="1550" height="1965" fill="white"/>
</clipPath>
</defs>
</svg>
