<svg width="1440" height="384" viewBox="0 0 1440 384" fill="none" xmlns="http://www.w3.org/2000/svg">
<path d="M990.03 268.741L851.985 165.816L814.084 144.953L707.682 82.8849L593.977 185.115L562.856 172.075L445.327 252.398L222 129.5L171.5 144.953L31 68L-58 170.778V382H193.664H256.579H319.495H382.411H445.327H717.679H990.03H1240.77H1491.5V84.9134L1352 5.5L990.03 268.741Z" fill="url(#paint0_linear_3902_1467)"/>
<path d="M481.072 273.44C476.086 266.172 393 286.025 393 286.025L563.443 167.84L594.034 180.851L708.198 80L815.108 144.88C815.108 144.88 723.683 136.121 716.554 130.461C716.116 139.184 714.913 145.834 722.442 151.969C742.244 168.105 761.317 184.87 780.66 201.396C783.041 203.424 785.348 205.488 787.564 207.436C804.728 193.628 852.228 165.282 852.228 165.282L1018 286.025C1018 286.025 941.4 260.08 937.042 265.309C934.012 268.926 932.76 273.593 930.23 278.761C902.167 262.826 874.525 247.134 847.05 231.539C851.261 224.897 855.062 218.901 859.231 212.314C853.839 207.407 848.458 202.523 842.416 197.027C838.848 208.522 835.454 218.846 832.577 229.27C832.024 231.207 833.07 233.718 834.141 235.662C840.054 246.312 846.23 256.862 852.269 267.463C853.303 269.28 854.157 271.163 855.816 274.474C842.802 267.724 831.413 261.815 820.022 255.907C819.688 256.094 819.358 256.282 819.014 256.465C821.225 259.38 823.168 262.464 825.686 265.176C838.204 278.644 850.493 292.272 863.674 305.285C869.11 310.642 870.802 315.28 866.441 321.31C865.523 322.581 865 324.05 863.986 326C848.261 318.45 832.799 311.047 817.337 303.638C816.556 303.264 815.852 302.72 815.016 302.446C802.404 298.254 794.609 291.253 794.666 279.193C794.679 277.35 793.09 275.214 791.572 273.686C772.56 254.599 753.438 235.609 734.392 216.562C733.672 215.843 733.415 214.797 732.947 213.904C732.21 214.34 731.47 214.765 730.747 215.197C736.064 227.264 741.392 239.326 746.882 251.762C746.089 251.553 745.441 251.541 745.101 251.257C731.947 240.275 718.816 229.282 705.704 218.244C700.191 213.604 696.416 209.232 696.24 201.428C695.927 186.957 692.103 172.528 689.669 158.088C689.138 154.942 688.297 151.817 687.714 149.23C658.025 173.226 628.364 197.202 598.277 221.517C586.69 212.466 575.208 203.49 562.913 193.886C556.855 205.106 533.973 221.081 533.973 221.081C533.973 221.081 547.438 234.364 548.95 238.676C550.31 242.586 549.514 245.187 545.975 248.159C531.768 260.098 517.944 272.361 503.984 284.509C503.201 284.091 502.407 283.673 501.619 283.249C506.515 270.115 511.402 256.965 516.29 243.827C515.668 243.401 515.04 242.978 514.417 242.55C503.605 252.562 492.804 262.576 481.072 273.44Z" fill="#F6F5FA"/>
<path d="M-193.928 255.44C-198.914 248.172 -282 268.025 -282 268.025L-111.557 149.84L-80.9662 162.851L33.1982 62L140.108 126.88C140.108 126.88 48.6827 118.121 41.5539 112.461C41.1159 121.184 39.913 127.834 47.4421 133.969C67.2439 150.105 86.3174 166.87 105.66 183.396C108.041 185.424 110.348 187.488 112.564 189.436C129.728 175.628 172.05 145 172.05 145L223 126.88L416 236L273.5 203C273.5 203 250.53 254.332 248 259.5L192.05 213.539L204.231 174.314L167.416 179.027C163.848 190.522 160.454 200.846 157.577 211.27C157.024 213.207 158.07 215.718 159.141 217.662C165.054 228.312 171.23 238.862 177.269 249.463C178.303 251.28 179.157 253.163 180.816 256.474C167.802 249.724 156.413 243.815 145.022 237.907C144.688 238.094 144.358 238.282 144.014 238.465C146.225 241.38 148.168 244.464 150.686 247.176C163.204 260.644 175.493 274.273 188.674 287.285C194.11 292.642 195.802 297.28 191.441 303.31C190.523 304.581 190 306.05 188.986 308C173.261 300.45 157.799 293.047 142.337 285.638C141.556 285.264 140.852 284.72 140.016 284.446C127.404 280.254 119.609 273.253 119.666 261.193C119.679 259.35 118.09 257.214 116.572 255.686C97.5604 236.599 78.4382 217.609 59.392 198.562C58.6723 197.843 58.4153 196.797 57.9475 195.904C57.2098 196.34 56.4697 196.765 55.7474 197.197C61.0637 209.264 66.3919 221.326 71.8823 233.762C71.0892 233.553 70.4411 233.541 70.1005 233.257C56.9469 222.275 43.8163 211.282 30.7045 200.244C25.191 195.604 21.4158 191.232 21.2399 183.428C20.9266 168.957 17.1035 154.528 14.6686 140.088C14.1375 136.942 13.2975 133.817 12.7144 131.23C-16.9746 155.226 -46.6363 179.202 -76.7231 203.517C-88.3101 194.466 -99.7921 185.49 -112.087 175.886C-118.145 187.106 -141.027 203.081 -141.027 203.081C-141.027 203.081 -127.562 216.364 -126.05 220.676C-124.69 224.586 -125.486 227.187 -129.025 230.159C-143.232 242.098 -157.056 254.361 -171.016 266.509C-171.799 266.091 -172.593 265.673 -173.381 265.249C-168.485 252.115 -163.598 238.965 -158.71 225.827C-159.332 225.401 -159.96 224.978 -160.583 224.55C-171.395 234.562 -182.196 244.576 -193.928 255.44Z" fill="#F6F5FA"/>
<path d="M800 330.32C800 330.32 765.376 306.323 747.179 293.703C749.849 292.464 751.502 291.699 753.327 290.851C721.686 262.338 690.949 234.621 660.304 207C631.396 234.174 603.416 261.825 573.595 287.816C562.626 297.362 529 337.025 529 337.025C529 337.025 569.14 316.199 569.472 316.536C586.58 301.582 603.68 286.638 620.78 271.686C621.475 271.922 622.185 272.155 622.884 272.391C622.884 281.201 622.884 290.009 622.884 298.817C623.515 298.878 624.149 298.944 624.784 299.005C637.052 277.192 649.327 255.395 661.987 232.907C671.889 242.174 681.187 250.881 690.855 259.93C684.182 265.086 678.14 269.751 672.096 274.422C686.91 289.589 701.115 304.115 715.686 319.03C706.836 321.971 699.15 324.535 691.464 327.081C691.446 327.596 691.433 328.1 691.406 328.606C713.862 334.048 736.353 339.48 759.183 345L776.291 329.633L800 330.32Z" fill="#F6F5FA"/>
<path d="M1172 232.32C1172 232.32 1206.62 208.323 1224.82 195.703C1222.15 194.464 1220.5 193.699 1218.67 192.851C1250.31 164.338 1281.05 136.621 1311.7 109L1404.85 176L1440 155L1455.5 176.422L1493.5 195.703L1498 243C1498 243 1462.86 248.199 1462.53 248.536C1445.42 233.582 1428.32 218.638 1411.22 203.686C1410.52 203.922 1409.82 204.155 1409.12 204.391C1409.12 213.201 1409.12 222.009 1409.12 230.817C1408.48 230.878 1407.85 230.944 1407.22 231.005C1394.95 209.192 1322.67 157.395 1310.01 134.907C1300.11 144.174 1290.81 152.881 1281.14 161.93C1287.82 167.086 1293.86 171.751 1299.9 176.422C1285.09 191.589 1270.89 206.115 1256.31 221.03C1265.16 223.971 1272.85 226.535 1280.54 229.081C1280.55 229.596 1280.57 230.1 1280.59 230.606C1258.14 236.048 1235.65 241.48 1212.82 247L1195.71 231.633L1172 232.32Z" fill="#F6F5FA"/>
<path d="M1557 118.03C1557 118.03 1522.38 94.0333 1504.18 81.4134C1506.85 80.1737 1497.68 68.848 1499.5 67.9998C1499.5 67.9998 1352 -0.000192246 1351 0.499814C1350 0.999823 1258 73.4215 1258 73.4215C1247.03 82.9676 1166 140.5 1166 140.5C1166 140.5 1269.14 115.199 1269.47 115.536C1286.58 100.582 1303.68 85.6381 1320.78 70.6859C1321.48 70.9218 1322.18 71.1544 1322.88 71.3903C1322.88 80.2008 1322.88 89.0087 1322.88 97.8166C1323.51 97.8775 1324.15 97.9434 1324.78 98.0043C1337.05 76.1917 1349.33 54.3943 1361.99 31.9069C1371.89 41.174 1381.19 49.8804 1390.86 58.9293C1384.18 64.0859 1378.14 68.7512 1372.1 73.4215C1386.91 88.5893 1401.11 103.115 1415.69 118.03C1406.84 120.971 1399.15 123.535 1391.46 126.081C1391.45 126.596 1391.43 127.1 1391.41 127.606C1413.86 133.047 1493.35 127.19 1516.18 132.71L1533.29 117.344L1557 118.03Z" fill="#F6F5FA"/>
<defs>
<linearGradient id="paint0_linear_3902_1467" x1="729.5" y1="5.5" x2="729.5" y2="836.998" gradientUnits="userSpaceOnUse">
<stop stop-color="#2B1A99"/>
<stop offset="1" stop-color="#1D1266"/>
</linearGradient>
</defs>
</svg>
