<svg width="1440" height="755" viewBox="0 0 1440 755" fill="none" xmlns="http://www.w3.org/2000/svg">
<path d="M111.905 600.043C122.178 609.002 141.445 607.719 148.926 601.035C155.167 595.468 153.159 588.93 143.841 585.905C133.056 582.399 122.512 581.682 112.759 585.868C104.802 589.295 104.409 594.048 111.889 600.031L111.905 600.043ZM115.73 595.492C125.69 588.616 133.768 588.076 144.628 593.167C145.793 597.701 142.625 598.826 138.82 599.766C131.223 601.634 122.756 600.318 115.745 595.504L115.73 595.492Z" fill="#00362F"/>
<path d="M1128.39 452.872C1118.12 443.912 1098.85 445.196 1091.37 451.879C1085.13 457.446 1087.14 463.985 1096.46 467.01C1107.24 470.515 1117.79 471.232 1127.54 467.047C1135.5 463.62 1135.89 458.866 1128.41 452.884L1128.39 452.872ZM1124.57 457.423C1114.61 464.299 1106.53 464.839 1095.67 459.748C1094.51 455.213 1097.67 454.088 1101.48 453.148C1109.08 451.281 1117.54 452.596 1124.55 457.411L1124.57 457.423Z" fill="#00362F"/>
<path d="M244.212 388.701C233.939 379.742 214.672 381.026 207.191 387.709C200.95 393.276 202.959 399.815 212.276 402.839C223.061 406.345 233.605 407.062 243.358 402.876C251.315 399.449 251.708 394.696 244.228 388.713L244.212 388.701ZM240.387 393.253C230.427 400.128 222.349 400.668 211.489 395.578C210.324 391.043 213.492 389.918 217.297 388.978C224.894 387.11 233.361 388.426 240.372 393.24L240.387 393.253Z" fill="#00362F"/>
<path d="M1415.8 151.653C1405.53 142.693 1386.26 143.977 1378.78 150.66C1372.54 156.228 1374.55 162.766 1383.87 165.791C1394.65 169.297 1405.2 170.014 1414.95 165.828C1422.91 162.401 1423.3 157.647 1415.82 151.665L1415.8 151.653ZM1411.98 156.204C1402.02 163.08 1393.94 163.62 1383.08 158.529C1381.92 153.994 1385.08 152.869 1388.89 151.929C1396.49 150.062 1404.95 151.378 1411.96 156.192L1411.98 156.204Z" fill="#00362F"/>
<path d="M655.657 167.264C645.384 158.304 626.116 159.588 618.635 166.271C612.394 171.839 614.403 178.377 623.721 181.402C634.505 184.908 645.049 185.624 654.802 181.439C662.759 178.012 663.152 173.258 655.672 167.276L655.657 167.264ZM651.831 171.815C641.871 178.691 633.793 179.231 622.933 174.14C621.768 169.605 624.936 168.48 628.741 167.54C636.338 165.673 644.805 166.988 651.816 171.803L651.831 171.815Z" fill="#00362F"/>
<path d="M1133.67 332.919C1135.77 328.325 1138.77 323.972 1139.71 319.049C1140.36 315.537 1139.08 310.96 1137.13 307.358C1134.67 302.862 1130.24 301.87 1125.35 303.401C1115.04 306.609 1107.86 321.623 1111.29 331.982C1112.4 335.368 1113.71 338.546 1117.57 339.596C1121.8 340.748 1126.02 340.488 1128.81 337.409C1130.24 335.833 1131.51 334.156 1132.88 332.53C1133.15 332.655 1133.43 332.793 1133.69 332.919L1133.67 332.919ZM1131.5 308.006C1135.8 320.289 1127.87 332.736 1116.82 332.212C1114.75 323.211 1120.09 314.08 1131.5 308.006Z" fill="#00362F"/>
<path d="M106.634 719.996C104.528 724.59 101.526 728.943 100.591 733.866C99.9414 737.378 101.222 741.955 103.173 745.557C105.625 750.053 110.061 751.045 114.954 749.514C125.261 746.306 132.437 731.292 129.011 720.934C127.898 717.547 126.588 714.369 122.728 713.319C118.497 712.167 114.28 712.427 111.491 715.506C110.062 717.082 108.785 718.759 107.419 720.385C107.153 720.26 106.872 720.122 106.606 719.996L106.634 719.996ZM108.797 744.909C104.498 732.626 112.434 720.179 123.475 720.703C125.549 729.704 120.213 738.835 108.797 744.909Z" fill="#00362F"/>
<path d="M1182.63 366.402C1187.06 368.815 1191.2 372.108 1196.04 373.374C1199.5 374.26 1204.14 373.289 1207.86 371.583C1212.51 369.437 1213.8 365.072 1212.6 360.079C1210.1 349.565 1195.62 341.383 1185.07 344.107C1181.62 344.991 1178.37 346.085 1177.06 349.871C1175.63 354.02 1175.6 358.251 1178.48 361.245C1179.96 362.78 1181.54 364.168 1183.07 365.643C1182.93 365.9 1182.77 366.172 1182.63 366.429L1182.63 366.402ZM1207.6 365.921C1195.07 369.387 1183.2 360.619 1184.47 349.623C1193.58 348.158 1202.32 354.105 1207.6 365.921Z" fill="#00362F"/>
<path d="M249.483 268.748C251.589 264.154 254.591 259.801 255.526 254.878C256.176 251.366 254.895 246.79 252.944 243.187C250.492 238.691 246.056 237.699 241.163 239.23C230.855 242.438 223.68 257.452 227.106 267.811C228.219 271.197 229.529 274.375 233.389 275.425C237.62 276.577 241.837 276.317 244.626 273.238C246.055 271.662 247.332 269.985 248.698 268.359C248.964 268.484 249.245 268.622 249.51 268.748L249.483 268.748ZM247.32 243.835C251.619 256.118 243.683 268.565 232.642 268.041C230.568 259.04 235.904 249.909 247.32 243.835Z" fill="#00362F"/>
<path d="M57.673 686.513C53.2382 684.1 49.1035 680.807 44.2622 679.54C40.8062 678.654 36.1603 679.625 32.4396 681.332C27.7941 683.478 26.5066 687.843 27.7022 692.835C30.2032 703.35 44.6781 711.531 55.2302 708.807C58.6796 707.924 61.9339 706.829 63.2409 703.043C64.6737 698.894 64.6991 694.663 61.8195 691.669C60.3453 690.135 58.7611 688.746 57.2329 687.271C57.3758 687.014 57.5321 686.743 57.6749 686.486L57.673 686.513ZM32.7058 686.994C45.2341 683.527 57.0996 692.296 55.8335 703.292C46.7253 704.757 37.9876 698.81 32.7058 686.994Z" fill="#00362F"/>
<path d="M1295.93 461.32C1293.38 449.972 1290.7 447.727 1280.06 448.67C1275.42 449.089 1270.88 450.587 1266.87 452.435C1262.93 454.258 1262.12 458.588 1264.27 462.18C1265.65 464.467 1269.93 466.671 1272.93 467.122C1281.81 468.461 1288.68 464.771 1295.92 461.307L1295.93 461.32ZM1289.81 455.426C1284.07 461.896 1279.15 462.996 1270.04 459.835C1274.18 451.944 1278.15 451.049 1289.81 455.426Z" fill="#00362F"/>
<path d="M298.448 302.231C302.883 304.644 307.017 307.937 311.859 309.204C315.315 310.09 319.961 309.119 323.681 307.412C328.327 305.266 329.614 300.901 328.419 295.909C325.918 285.394 311.443 277.213 300.891 279.937C297.441 280.82 294.187 281.915 292.88 285.701C291.447 289.85 291.422 294.081 294.301 297.075C295.776 298.609 297.36 299.998 298.888 301.473C298.745 301.73 298.589 302.001 298.446 302.258L298.448 302.231ZM323.415 301.75C310.887 305.217 299.021 296.448 300.287 285.452C309.396 283.988 318.133 289.934 323.415 301.75Z" fill="#00362F"/>
<path d="M709.892 80.7932C714.327 83.2064 718.462 86.4994 723.303 87.766C726.759 88.6517 731.405 87.6809 735.125 85.9744C739.771 83.8283 741.058 79.4633 739.863 74.4709C737.362 63.9563 722.887 55.7747 712.335 58.4987C708.885 59.3822 705.631 60.4767 704.324 64.2627C702.891 68.4119 702.866 72.6428 705.746 75.6369C707.22 77.1712 708.804 78.56 710.332 80.0351C710.189 80.2919 710.033 80.5635 709.89 80.8203L709.892 80.7932ZM734.859 80.3123C722.331 83.779 710.465 75.0104 711.732 64.0143C720.84 62.5495 729.578 68.4963 734.859 80.3123Z" fill="#00362F"/>
<path d="M1081.49 394.449C1080.69 389.631 1069.94 374.562 1063.33 368.171C1062.99 376.126 1070.97 388.058 1081.49 394.449Z" fill="#00362F"/>
<path d="M1083.23 376.396C1080.42 366.779 1077.51 357.258 1070.62 347.263C1069.39 349.233 1068.13 350.199 1068.39 350.953C1071.6 359.981 1075.37 368.871 1083.22 376.384L1083.23 376.396Z" fill="#00362F"/>
<path d="M1059.08 388.887C1062.51 400.176 1070.21 405.062 1080.05 409.139C1080.78 402.635 1074.03 401.984 1071.21 398.778C1068.35 395.511 1064.3 393.047 1059.08 388.887Z" fill="#00362F"/>
<path d="M411.749 397.149C409.199 385.801 406.517 383.557 395.876 384.499C391.234 384.919 386.701 386.417 382.687 388.264C378.752 390.087 377.935 394.418 380.088 398.01C381.47 400.297 385.751 402.501 388.752 402.952C397.629 404.29 404.5 400.601 411.734 397.137L411.749 397.149ZM405.626 391.256C399.891 397.726 394.966 398.825 385.858 395.664C389.999 387.773 393.964 386.879 405.626 391.256Z" fill="#00362F"/>
<path d="M1021.05 506.238C1014.94 502.559 1010.53 503.362 1005.97 505.05C1009.65 511.078 1011.8 511.297 1021.05 506.238Z" fill="#00362F"/>
<path d="M1396.45 399.376C1393.9 388.028 1391.22 385.784 1380.58 386.726C1375.94 387.146 1371.4 388.644 1367.39 390.491C1363.45 392.314 1362.64 396.645 1364.79 400.237C1366.17 402.524 1370.45 404.728 1373.45 405.179C1382.33 406.517 1389.2 402.828 1396.44 399.364L1396.45 399.376ZM1390.33 393.483C1384.59 399.953 1379.67 401.052 1370.56 397.892C1374.7 390 1378.67 389.106 1390.33 393.483Z" fill="#00362F"/>
<path d="M752.078 234.376C749.527 223.028 746.846 220.784 736.204 221.726C731.562 222.146 727.029 223.644 723.015 225.491C719.08 227.314 718.263 231.645 720.417 235.237C721.798 237.524 726.079 239.728 729.08 240.179C737.957 241.517 744.828 237.828 752.062 234.364L752.078 234.376ZM745.954 228.483C740.219 234.953 735.294 236.052 726.186 232.892C730.327 225 734.293 224.106 745.954 228.483Z" fill="#00362F"/>
<path d="M158.812 658.465C159.618 663.284 170.36 678.353 176.97 684.744C177.309 676.789 169.333 664.857 158.812 658.465Z" fill="#00362F"/>
<path d="M157.069 676.519C159.884 686.135 162.788 695.656 169.679 705.652C170.913 703.681 172.173 702.716 171.91 701.962C168.703 692.933 164.935 684.043 157.085 676.531L157.069 676.519Z" fill="#00362F"/>
<path d="M181.22 664.027C177.794 652.739 170.088 647.852 160.249 643.775C159.527 650.279 166.277 650.931 169.09 654.136C171.953 657.403 176.001 659.868 181.22 664.027Z" fill="#00362F"/>
<path d="M996.421 394.24C993.462 394.163 990.337 393.635 987.61 394.212C986.499 394.436 985.335 397.282 985.854 398.506C986.336 399.658 989.291 401.159 990.604 400.884C993.131 400.382 995.243 398.739 997.524 397.571C997.153 396.465 996.793 395.346 996.421 394.24Z" fill="#00362F"/>
<path d="M1283.83 93.0207C1280.87 92.9439 1277.75 92.4153 1275.02 92.9926C1273.91 93.2166 1272.74 96.0632 1273.26 97.2865C1273.75 98.4387 1276.7 99.9402 1278.01 99.6644C1280.54 99.1627 1282.65 97.5195 1284.93 96.352C1284.56 95.2457 1284.2 94.1271 1283.83 93.0207Z" fill="#00362F"/>
<path d="M523.683 108.632C520.724 108.555 517.599 108.026 514.871 108.603C513.761 108.827 512.597 111.674 513.116 112.897C513.598 114.05 516.553 115.551 517.866 115.275C520.393 114.774 522.505 113.13 524.786 111.963C524.415 110.857 524.055 109.738 523.683 108.632Z" fill="#00362F"/>
<path d="M197.308 330.279C196.503 325.46 185.761 310.391 179.151 304C178.811 311.955 186.787 323.887 197.308 330.279Z" fill="#00362F"/>
<path d="M199.052 312.226C196.237 302.609 193.333 293.088 186.442 283.092C185.208 285.063 183.948 286.028 184.211 286.782C187.417 295.811 191.186 304.701 199.036 312.213L199.052 312.226Z" fill="#00362F"/>
<path d="M174.9 324.717C178.326 336.005 186.033 340.892 195.871 344.969C196.593 338.465 189.844 337.813 187.031 334.608C184.168 331.341 180.12 328.877 174.9 324.717Z" fill="#00362F"/>
<path d="M1368.9 93.23C1368.09 88.4115 1357.35 73.3425 1350.74 66.9517C1350.4 74.9067 1358.38 86.8385 1368.9 93.23Z" fill="#00362F"/>
<path d="M1370.64 75.1768C1367.83 65.5601 1364.92 56.0391 1358.03 46.0435C1356.8 48.0142 1355.54 48.9793 1355.8 49.7337C1359.01 58.7619 1362.78 67.6519 1370.63 75.1645L1370.64 75.1768Z" fill="#00362F"/>
<path d="M1346.49 87.668C1349.92 98.9563 1357.62 103.843 1367.46 107.92C1368.18 101.416 1361.44 100.764 1358.62 97.5592C1355.76 94.2921 1351.71 91.8278 1346.49 87.668Z" fill="#00362F"/>
<path d="M608.749 108.841C607.943 104.022 597.201 88.9533 590.591 82.5625C590.252 90.5175 598.228 102.449 608.749 108.841Z" fill="#00362F"/>
<path d="M610.492 90.7876C607.678 81.1709 604.773 71.6499 597.882 61.6543C596.648 63.6251 595.388 64.5902 595.651 65.3445C598.858 74.3727 602.626 83.2627 610.476 90.7753L610.492 90.7876Z" fill="#00362F"/>
<path d="M586.34 103.279C589.767 114.567 597.473 119.454 607.312 123.531C608.034 117.027 601.284 116.375 598.471 113.17C595.608 109.903 591.56 107.439 586.34 103.279Z" fill="#00362F"/>
<path d="M219.249 546.677C225.359 550.357 229.778 549.553 234.335 547.865C230.651 541.837 228.504 541.618 219.249 546.677Z" fill="#00362F"/>
<path d="M136.872 442.067C130.762 438.388 126.343 439.191 121.785 440.879C125.47 446.907 127.617 447.126 136.872 442.067Z" fill="#00362F"/>
<path d="M987.175 123.194C984.806 124.971 982.026 126.496 980.243 128.642C979.511 129.507 980.36 132.463 981.524 133.101C982.616 133.706 985.863 133.05 986.723 132.019C988.396 130.056 989.036 127.456 990.103 125.124C989.127 124.486 988.152 123.832 987.175 123.194Z" fill="#00362F"/>
<path d="M1308.46 205.019C1302.35 201.339 1297.93 202.142 1293.38 203.83C1297.06 209.859 1299.21 210.078 1308.46 205.019Z" fill="#00362F"/>
<path d="M548.312 220.63C542.203 216.95 537.783 217.753 533.226 219.441C536.91 225.47 539.057 225.688 548.312 220.63Z" fill="#00362F"/>
<path d="M827.947 327.282C830.316 325.506 833.096 323.981 834.878 321.835C835.611 320.97 834.762 318.014 833.598 317.375C832.506 316.771 829.259 317.426 828.399 318.458C826.726 320.42 826.086 323.021 825.019 325.353C825.995 325.99 826.97 326.645 827.947 327.282Z" fill="#00362F"/>
<path d="M881.514 346.413C879.144 348.19 876.364 349.715 874.582 351.861C873.849 352.726 874.698 355.682 875.862 356.32C876.954 356.925 880.201 356.269 881.061 355.238C882.734 353.275 883.374 350.674 884.441 348.342C883.465 347.705 882.49 347.051 881.514 346.413Z" fill="#00362F"/>
<path d="M243.882 658.675C246.841 658.752 249.966 659.28 252.694 658.703C253.804 658.479 254.968 655.633 254.449 654.409C253.967 653.257 251.012 651.756 249.7 652.031C247.172 652.533 245.06 654.176 242.779 655.344C243.15 656.45 243.51 657.569 243.882 658.675Z" fill="#00362F"/>
<path d="M112.239 330.069C109.28 329.992 106.155 329.464 103.427 330.041C102.317 330.265 101.153 333.112 101.672 334.335C102.154 335.487 105.108 336.988 106.421 336.713C108.949 336.211 111.061 334.568 113.342 333.4C112.971 332.294 112.61 331.175 112.239 330.069Z" fill="#00362F"/>
<path d="M410.028 330.289C407.069 330.212 403.944 329.683 401.217 330.261C400.107 330.485 398.943 333.331 399.461 334.555C399.944 335.707 402.898 337.208 404.211 336.933C406.739 336.431 408.851 334.788 411.132 333.62C410.76 332.514 410.4 331.395 410.028 330.289Z" fill="#00362F"/>
<path d="M969.323 416.922C972.897 416.13 975.607 416.052 977.386 414.892C978.167 414.384 977.045 411.636 976.79 409.895C974.238 410.009 971.493 409.744 969.221 410.465C968.553 410.679 969.217 413.65 969.323 416.922Z" fill="#00362F"/>
<path d="M1256.74 115.703C1260.31 114.911 1263.02 114.833 1264.8 113.673C1265.58 113.165 1264.46 110.417 1264.2 108.676C1261.65 108.79 1258.91 108.525 1256.63 109.246C1255.97 109.46 1256.63 112.431 1256.74 115.703Z" fill="#00362F"/>
<path d="M496.585 131.314C500.159 130.522 502.869 130.444 504.648 129.284C505.429 128.776 504.307 126.028 504.051 124.287C501.5 124.401 498.755 124.136 496.483 124.857C495.815 125.071 496.479 128.042 496.585 131.314Z" fill="#00362F"/>
<path d="M399.648 28.8503C396.689 28.7735 393.564 28.2449 390.837 28.8222C389.727 29.0462 388.563 31.8928 389.081 33.1161C389.564 34.2683 392.518 35.7697 393.831 35.494C396.358 34.9923 398.471 33.3491 400.751 32.1816C400.38 31.0753 400.02 29.9567 399.648 28.8503Z" fill="#00362F"/>
<path d="M734.375 289.85C731.416 289.774 728.291 289.245 725.563 289.822C724.453 290.046 723.289 292.893 723.808 294.116C724.29 295.268 727.244 296.77 728.557 296.494C731.085 295.992 733.197 294.349 735.478 293.182C735.107 292.075 734.746 290.957 734.375 289.85Z" fill="#00362F"/>
<path d="M207.327 404.881C210.287 404.957 213.412 405.486 216.139 404.909C217.249 404.685 218.413 401.838 217.895 400.615C217.412 399.463 214.458 397.961 213.145 398.237C210.617 398.739 208.505 400.382 206.224 401.549C206.596 402.656 206.956 403.774 207.327 404.881Z" fill="#00362F"/>
<path d="M1032.98 648.034C1030.02 647.957 1026.89 647.429 1024.16 648.006C1023.05 648.23 1021.89 651.076 1022.41 652.3C1022.89 653.452 1025.85 654.953 1027.16 654.678C1029.69 654.176 1031.8 652.533 1034.08 651.365C1033.71 650.259 1033.35 649.14 1032.98 648.034Z" fill="#00362F"/>
<path d="M845.659 402.032C847.974 399.192 850.053 397.448 850.73 395.434C851.028 394.55 848.448 393.09 847.169 391.883C845.237 393.557 842.919 395.052 841.583 397.029C841.191 397.611 843.551 399.53 845.659 402.032Z" fill="#00362F"/>
<path d="M1133.07 100.813C1135.38 97.9732 1137.46 96.2294 1138.14 94.2151C1138.44 93.3316 1135.86 91.8717 1134.58 90.6641C1132.65 92.3378 1130.33 93.8332 1128.99 95.8098C1128.6 96.3921 1130.96 98.3111 1133.07 100.813Z" fill="#00362F"/>
<path d="M1320.39 346.815C1317.43 346.738 1314.3 346.21 1311.57 346.787C1310.46 347.011 1309.3 349.858 1309.82 351.081C1310.3 352.233 1313.25 353.735 1314.57 353.459C1317.1 352.957 1319.21 351.314 1321.49 350.146C1321.12 349.04 1320.76 347.922 1320.39 346.815Z" fill="#00362F"/>
<path d="M699.766 424.414C697.396 426.19 694.617 427.715 692.834 429.861C692.101 430.726 692.95 433.682 694.114 434.32C695.206 434.925 698.454 434.269 699.313 433.238C700.986 431.275 701.626 428.675 702.694 426.343C701.717 425.705 700.742 425.051 699.766 424.414Z" fill="#00362F"/>
<path d="M1192.38 471.015C1187.37 468.082 1183.65 468.316 1180.77 472.444C1185.49 475.221 1189.36 474.745 1192.38 471.015Z" fill="#00362F"/>
<path d="M102.993 59.0239C100.623 60.8006 97.844 62.3256 96.0612 64.4715C95.3288 65.3365 96.1775 68.2926 97.3415 68.9308C98.4334 69.5354 101.681 68.8798 102.541 67.8484C104.214 65.8857 104.854 63.2852 105.921 60.9532C104.945 60.3157 103.97 59.6615 102.993 59.0239Z" fill="#00362F"/>
<path d="M540.537 628.501C542.907 626.725 545.686 625.2 547.469 623.054C548.202 622.189 547.353 619.233 546.189 618.595C545.097 617.99 541.849 618.646 540.99 619.677C539.317 621.64 538.677 624.24 537.609 626.572C538.586 627.21 539.561 627.864 540.537 628.501Z" fill="#00362F"/>
<path d="M1152.41 444.5C1158.72 444.453 1161.76 443.176 1161.33 437.87C1154.98 436.839 1152.28 438.56 1152.41 444.5Z" fill="#00362F"/>
<path d="M-2.66872 282.243C-5.03849 284.019 -7.81789 285.544 -9.60065 287.69C-10.3331 288.555 -9.48436 291.511 -8.32036 292.15C-7.22848 292.754 -3.98083 292.099 -3.12123 291.067C-1.4483 289.104 -0.808094 286.504 0.259064 284.172C-0.717334 283.534 -1.69232 282.88 -2.66872 282.243Z" fill="#00362F"/>
<path d="M950.809 389.477C954.44 394.519 956.921 396.062 959.488 393.421C960.379 392.503 959.692 390.285 959.733 388.668C957.222 388.902 954.723 389.124 950.824 389.489L950.809 389.477Z" fill="#00362F"/>
<path d="M1238.22 88.2581C1241.85 93.3003 1244.33 94.8432 1246.9 92.2018C1247.79 91.2841 1247.1 89.066 1247.14 87.449C1244.63 87.6835 1242.13 87.9056 1238.23 88.2704L1238.22 88.2581Z" fill="#00362F"/>
<path d="M478.071 103.869C481.702 108.911 484.183 110.454 486.75 107.813C487.641 106.895 486.954 104.677 486.995 103.06C484.484 103.294 481.985 103.516 478.086 103.881L478.071 103.869Z" fill="#00362F"/>
<path d="M358.79 706.501C361.159 704.725 363.939 703.2 365.722 701.054C366.454 700.189 365.605 697.233 364.441 696.595C363.349 695.99 360.102 696.646 359.242 697.677C357.569 699.64 356.929 702.24 355.862 704.572C356.838 705.21 357.813 705.864 358.79 706.501Z" fill="#00362F"/>
<path d="M270.976 635.992C267.402 636.784 264.692 636.862 262.913 638.022C262.132 638.531 263.254 641.278 263.51 643.019C266.062 642.905 268.806 643.17 271.078 642.449C271.746 642.235 271.082 639.264 270.976 635.992Z" fill="#00362F"/>
<path d="M1274.77 342.052C1278.4 347.094 1280.88 348.637 1283.45 345.996C1284.34 345.078 1283.66 342.86 1283.7 341.243C1281.19 341.477 1278.69 341.7 1274.79 342.064L1274.77 342.052Z" fill="#00362F"/>
<path d="M85.1406 352.752C88.7148 351.96 91.4253 351.882 93.2039 350.722C93.9846 350.214 92.8632 347.466 92.6073 345.725C90.0554 345.839 87.3111 345.574 85.0389 346.295C84.3708 346.509 85.0349 349.48 85.1406 352.752Z" fill="#00362F"/>
<path d="M382.934 352.971C386.508 352.179 389.219 352.101 390.997 350.941C391.778 350.432 390.657 347.685 390.401 345.944C387.849 346.058 385.105 345.793 382.832 346.514C382.164 346.728 382.828 349.699 382.934 352.971Z" fill="#00362F"/>
<path d="M372.554 51.5326C376.128 50.7409 378.839 50.6627 380.617 49.5027C381.398 48.9944 380.276 46.2468 380.021 44.5055C377.469 44.6197 374.724 44.3546 372.452 45.0761C371.784 45.2897 372.448 48.2605 372.554 51.5326Z" fill="#00362F"/>
<path d="M845.895 205.939C850.174 210.443 852.84 211.636 855.027 208.671C855.786 207.641 854.806 205.536 854.628 203.929C852.172 204.501 849.726 205.06 845.912 205.949L845.895 205.939Z" fill="#00362F"/>
<path d="M707.277 312.533C710.851 311.741 713.561 311.663 715.34 310.503C716.12 309.994 714.999 307.247 714.743 305.506C712.191 305.62 709.447 305.355 707.175 306.076C706.507 306.29 707.171 309.261 707.277 312.533Z" fill="#00362F"/>
<path d="M969.227 244.537C964.948 240.033 962.282 238.841 960.095 241.806C959.336 242.836 960.316 244.94 960.494 246.548C962.95 245.976 965.396 245.417 969.21 244.527L969.227 244.537Z" fill="#00362F"/>
<path d="M789.179 371.585C795.15 373.288 798.051 372.959 798.431 369.292C798.562 368.019 796.65 366.705 795.681 365.411C793.856 367.153 792.033 368.879 789.199 371.585L789.179 371.585Z" fill="#00362F"/>
<path d="M1076.59 70.3664C1082.56 72.069 1085.46 71.7398 1085.84 68.0734C1085.97 66.8003 1084.06 65.4859 1083.09 64.1919C1081.27 65.9343 1079.44 67.6598 1076.61 70.3665L1076.59 70.3664Z" fill="#00362F"/>
<path d="M234.422 382.198C230.847 382.99 228.137 383.068 226.358 384.228C225.578 384.737 226.699 387.484 226.955 389.225C229.507 389.111 232.251 389.376 234.523 388.655C235.191 388.441 234.527 385.47 234.422 382.198Z" fill="#00362F"/>
<path d="M1005.88 670.716C1009.45 669.925 1012.16 669.846 1013.94 668.686C1014.72 668.178 1013.6 665.43 1013.34 663.689C1010.79 663.803 1008.05 663.538 1005.78 664.26C1005.11 664.473 1005.77 667.444 1005.88 670.716Z" fill="#00362F"/>
<path d="M972.558 457.505C972.02 455.387 971.695 454.156 971.396 452.925C969.717 453.214 967.902 453.267 966.44 453.897C966.009 454.082 966.341 456.691 966.666 456.781C968.293 457.254 970.025 457.261 972.558 457.505Z" fill="#00362F"/>
<path d="M1259.97 156.287C1259.43 154.168 1259.1 152.937 1258.81 151.706C1257.13 151.995 1255.31 152.048 1253.85 152.678C1253.42 152.863 1253.75 155.472 1254.08 155.562C1255.7 156.035 1257.43 156.042 1259.97 156.287Z" fill="#00362F"/>
<path d="M499.82 171.897C499.282 169.779 498.957 168.548 498.658 167.317C496.979 167.606 495.164 167.659 493.701 168.289C493.271 168.474 493.603 171.083 493.928 171.173C495.555 171.646 497.287 171.653 499.82 171.897Z" fill="#00362F"/>
<path d="M1293.29 369.497C1296.87 368.705 1299.58 368.627 1301.35 367.467C1302.13 366.959 1301.01 364.211 1300.76 362.47C1298.21 362.584 1295.46 362.319 1293.19 363.04C1292.52 363.254 1293.19 366.225 1293.29 369.497Z" fill="#00362F"/>
<path d="M248.887 36.6422C251.201 33.8023 253.28 32.0585 253.958 30.0442C254.256 29.1607 251.675 27.7008 250.396 26.4932C248.464 28.1669 246.147 29.6623 244.81 31.6389C244.418 32.2212 246.778 34.1402 248.887 36.6422Z" fill="#00362F"/>
<path d="M1273.03 485.664C1276.5 486.82 1279.31 486.717 1281.48 481.706C1277.35 482.475 1274.82 482.925 1272.29 483.4C1272.54 484.151 1272.79 484.902 1273.05 485.652L1273.03 485.664Z" fill="#00362F"/>
<path d="M583.613 297.642C585.928 294.802 588.006 293.058 588.684 291.044C588.982 290.161 586.401 288.701 585.123 287.493C583.191 289.167 580.873 290.662 579.537 292.639C579.145 293.221 581.505 295.14 583.613 297.642Z" fill="#00362F"/>
<path d="M394.64 650.883C392.325 653.723 390.247 655.467 389.569 657.481C389.271 658.365 391.852 659.825 393.13 661.032C395.062 659.359 397.38 657.863 398.716 655.887C399.108 655.304 396.748 653.385 394.64 650.883Z" fill="#00362F"/>
<path d="M47.9146 581.899C52.9307 584.832 56.645 584.599 59.5326 580.471C54.8079 577.694 50.9353 578.17 47.9146 581.899Z" fill="#00362F"/>
<path d="M308.202 406.845C303.186 403.912 299.472 404.146 296.584 408.273C301.309 411.051 305.182 410.574 308.202 406.845Z" fill="#00362F"/>
<path d="M920.655 546.523C932.664 552.963 951.161 547.409 956.965 539.224C961.809 532.403 958.395 526.478 948.638 525.61C937.345 524.601 926.907 526.256 918.332 532.514C911.338 537.632 912.014 542.354 920.637 546.515L920.655 546.523ZM923.37 541.232C931.549 532.306 939.303 529.975 951.023 532.513C953.168 536.673 950.331 538.477 946.831 540.243C939.841 543.76 931.295 544.368 923.388 541.241L923.37 541.232Z" fill="#00362F"/>
<path d="M1208.06 255.304C1220.07 261.744 1238.57 256.19 1244.37 248.005C1249.22 241.184 1245.8 235.258 1236.05 234.391C1224.75 233.381 1214.32 235.037 1205.74 241.295C1198.75 246.413 1199.42 251.134 1208.05 255.296L1208.06 255.304ZM1210.78 250.013C1218.96 241.086 1226.71 238.756 1238.43 241.293C1240.58 245.454 1237.74 247.258 1234.24 249.024C1227.25 252.541 1218.7 253.149 1210.8 250.022L1210.78 250.013Z" fill="#00362F"/>
<path d="M447.917 260.915C459.926 267.355 478.423 261.801 484.227 253.615C489.071 246.795 485.657 240.869 475.9 240.002C464.607 238.992 454.169 240.648 445.594 246.906C438.6 252.024 439.275 256.745 447.899 260.906L447.917 260.915ZM450.632 255.624C458.811 246.697 466.565 244.367 478.285 246.904C480.43 251.065 477.593 252.869 474.093 254.635C467.103 258.152 458.557 258.76 450.65 255.633L450.632 255.624Z" fill="#00362F"/>
<path d="M719.647 185.407C714.63 182.474 710.916 182.708 708.029 186.836C712.753 189.613 716.626 189.137 719.647 185.407Z" fill="#00362F"/>
<path d="M1260.26 531.329C1259.23 536.277 1257.27 541.191 1257.46 546.198C1257.61 549.767 1259.87 553.942 1262.58 557.018C1265.97 560.854 1270.51 560.83 1274.94 558.245C1284.28 552.816 1287.93 536.578 1282.28 527.245C1280.44 524.192 1278.46 521.387 1274.46 521.225C1270.08 521.047 1266.03 522.242 1263.99 525.866C1262.95 527.722 1262.08 529.642 1261.11 531.532C1260.82 531.469 1260.52 531.398 1260.23 531.335L1260.26 531.329ZM1267.91 555.131C1260.99 544.117 1265.95 530.212 1276.83 528.256C1280.86 536.568 1277.69 546.66 1267.91 555.131Z" fill="#00362F"/>
<path d="M87.8928 608.415C81.5816 608.462 78.5434 609.739 78.9697 615.045C85.3156 616.076 88.0149 614.355 87.8928 608.415Z" fill="#00362F"/>
<path d="M268.224 380.329C274.535 380.283 277.574 379.006 277.147 373.699C270.801 372.668 268.102 374.39 268.224 380.329Z" fill="#00362F"/>
<path d="M1439.82 143.28C1446.13 143.234 1449.17 141.957 1448.74 136.651C1442.39 135.619 1439.69 137.341 1439.82 143.28Z" fill="#00362F"/>
<path d="M679.668 158.891C685.98 158.845 689.018 157.568 688.592 152.261C682.246 151.23 679.546 152.952 679.668 158.891Z" fill="#00362F"/>
<path d="M1042.87 274.481C1047.88 284.973 1051 286.563 1061.16 283.267C1065.59 281.822 1069.68 279.349 1073.18 276.652C1076.61 273.996 1076.44 269.592 1073.54 266.572C1071.68 264.651 1067.02 263.458 1064 263.689C1055.04 264.366 1049.17 269.497 1042.89 274.489L1042.87 274.481ZM1050.15 278.858C1054.3 271.27 1058.86 269.099 1068.44 270.146C1066.16 278.764 1062.49 280.521 1050.15 278.858Z" fill="#00362F"/>
<path d="M354.036 24.0877C357.667 29.1299 360.148 30.6728 362.715 28.0314C363.606 27.1137 362.92 24.8956 362.96 23.2786C360.45 23.5131 357.951 23.7352 354.051 24.1L354.036 24.0877Z" fill="#00362F"/>
<path d="M289.494 663.438C285.863 658.395 283.382 656.853 280.815 659.494C279.924 660.412 280.611 662.63 280.57 664.247C283.081 664.012 285.58 663.79 289.479 663.425L289.494 663.438Z" fill="#00362F"/>
<path d="M66.6265 325.306C70.2577 330.349 72.7384 331.892 75.3059 329.25C76.1967 328.332 75.5102 326.114 75.5508 324.497C73.0402 324.732 70.5412 324.954 66.6419 325.319L66.6265 325.306Z" fill="#00362F"/>
<path d="M364.42 325.526C368.051 330.568 370.532 332.111 373.099 329.469C373.99 328.552 373.304 326.334 373.344 324.717C370.834 324.951 368.335 325.173 364.435 325.538L364.42 325.526Z" fill="#00362F"/>
<path d="M1292.2 297.913C1287.41 298.85 1272.66 310.011 1266.46 316.801C1274.41 316.925 1286.11 308.618 1292.2 297.913Z" fill="#00362F"/>
<path d="M1274.13 296.657C1264.61 299.735 1255.18 302.9 1245.39 310.069C1247.39 311.25 1248.39 312.485 1249.14 312.202C1258.06 308.748 1266.83 304.734 1274.12 296.673L1274.13 296.657Z" fill="#00362F"/>
<path d="M1287.26 320.495C1298.43 316.76 1303.1 308.913 1306.9 298.954C1300.39 298.407 1299.92 305.181 1296.8 308.084C1293.62 311.038 1291.27 315.157 1287.26 320.495Z" fill="#00362F"/>
<path d="M688.762 285.088C692.394 290.13 694.874 291.673 697.442 289.031C698.333 288.114 697.646 285.896 697.687 284.279C695.176 284.513 692.677 284.735 688.778 285.1L688.762 285.088Z" fill="#00362F"/>
<path d="M858.036 140.452C853.418 142.029 840.31 155.086 835.083 162.653C842.977 161.699 853.443 151.884 858.036 140.452Z" fill="#00362F"/>
<path d="M839.962 141.654C830.942 145.994 822.031 150.407 813.298 158.836C815.439 159.736 816.595 160.825 817.295 160.442C825.672 155.811 833.822 150.646 839.953 141.672L839.962 141.654Z" fill="#00362F"/>
<path d="M856.184 163.496C866.753 158.281 870.319 149.874 872.742 139.491C866.216 139.831 866.668 146.606 863.965 149.906C861.21 153.264 859.437 157.664 856.184 163.496Z" fill="#00362F"/>
<path d="M252.94 409.644C249.308 404.602 246.828 403.059 244.26 405.7C243.369 406.618 244.056 408.836 244.015 410.453C246.526 410.218 249.025 409.996 252.924 409.631L252.94 409.644Z" fill="#00362F"/>
<path d="M957.09 310.024C961.708 308.447 974.816 295.39 980.042 287.823C972.148 288.777 961.683 298.592 957.09 310.024Z" fill="#00362F"/>
<path d="M975.164 308.821C984.184 304.482 993.095 300.069 1001.83 291.639C999.686 290.74 998.531 289.651 997.831 290.033C989.454 294.665 981.304 299.829 975.173 308.804L975.164 308.821Z" fill="#00362F"/>
<path d="M958.942 286.98C948.373 292.195 944.807 300.602 942.384 310.985C948.91 310.645 948.458 303.87 951.161 300.57C953.916 297.212 955.689 292.813 958.942 286.98Z" fill="#00362F"/>
<path d="M987.363 643.271C990.994 648.313 993.475 649.856 996.043 647.214C996.934 646.297 996.247 644.079 996.288 642.462C993.777 642.696 991.278 642.918 987.379 643.283L987.363 643.271Z" fill="#00362F"/>
<path d="M1013.41 470.531C1020.19 472.753 1024.31 470.983 1028.38 468.32C1023.45 463.266 1021.31 463.532 1013.41 470.531Z" fill="#00362F"/>
<path d="M390.591 277.882C394.222 282.924 396.703 284.467 399.27 281.825C400.161 280.908 399.474 278.689 399.515 277.073C397.004 277.307 394.505 277.529 390.606 277.894L390.591 277.882Z" fill="#00362F"/>
<path d="M558.485 507.158C562.765 511.662 565.431 512.855 567.618 509.89C568.377 508.86 567.397 506.755 567.218 505.147C564.763 505.72 562.317 506.278 558.502 507.168L558.485 507.158Z" fill="#00362F"/>
<path d="M681.818 545.757C677.539 541.253 674.872 540.06 672.685 543.025C671.927 544.055 672.906 546.16 673.085 547.767C675.54 547.195 677.986 546.636 681.801 545.747L681.818 545.757Z" fill="#00362F"/>
<path d="M192.406 6.196C198.377 7.89858 201.279 7.56943 201.658 3.90299C201.789 2.62992 199.877 1.31548 198.908 0.021467C197.083 1.76389 195.26 3.48939 192.426 6.19607L192.406 6.196Z" fill="#00362F"/>
<path d="M85.0449 180.367C80.7658 175.863 78.0995 174.67 75.9125 177.635C75.1538 178.665 76.1337 180.77 76.3119 182.378C78.7677 181.805 81.2137 181.247 85.0279 180.357L85.0449 180.367Z" fill="#00362F"/>
<path d="M910.875 127.351C913.671 126.377 916.781 125.768 919.13 124.264C920.089 123.662 920.176 120.587 919.26 119.626C918.402 118.718 915.109 118.357 913.977 119.079C911.789 120.441 910.392 122.725 908.669 124.623C909.406 125.527 910.137 126.447 910.875 127.351Z" fill="#00362F"/>
<path d="M904.247 323.126C901.451 324.1 898.341 324.709 895.992 326.213C895.032 326.815 894.946 329.889 895.862 330.851C896.72 331.758 900.013 332.12 901.144 331.398C903.333 330.035 904.73 327.751 906.453 325.853C905.716 324.949 904.985 324.03 904.247 323.126Z" fill="#00362F"/>
<path d="M375.785 92.1161C375.247 89.9976 374.922 88.7669 374.623 87.5358C372.944 87.8245 371.129 87.8776 369.667 88.5074C369.236 88.6926 369.568 91.3018 369.893 91.3916C371.52 91.8644 373.253 91.8719 375.785 92.1161Z" fill="#00362F"/>
<path d="M527.129 267.196C533.1 268.899 536.001 268.569 536.381 264.903C536.512 263.63 534.6 262.315 533.631 261.021C531.806 262.764 529.983 264.489 527.149 267.196L527.129 267.196Z" fill="#00362F"/>
<path d="M451.124 681.329C445.154 679.627 442.252 679.956 441.872 683.622C441.741 684.895 443.653 686.21 444.622 687.504C446.447 685.761 448.27 684.036 451.104 681.329L451.124 681.329Z" fill="#00362F"/>
<path d="M267.745 595.409C268.283 597.527 268.608 598.758 268.907 599.989C270.586 599.7 272.401 599.647 273.864 599.018C274.294 598.832 273.962 596.223 273.637 596.133C272.01 595.661 270.278 595.653 267.745 595.409Z" fill="#00362F"/>
<path d="M88.3759 393.335C87.8379 391.217 87.5127 389.986 87.2136 388.755C85.535 389.044 83.7199 389.097 82.2572 389.727C81.8271 389.912 82.1591 392.521 82.4838 392.611C84.1107 393.084 85.8431 393.091 88.3759 393.335Z" fill="#00362F"/>
<path d="M928.239 96.5536C925.174 98.5571 922.665 99.588 921.41 101.302C920.858 102.053 922.875 104.228 923.728 105.767C926.076 104.758 928.737 104.037 930.609 102.559C931.159 102.123 929.491 99.5778 928.239 96.5536Z" fill="#00362F"/>
<path d="M710.512 353.116C709.974 350.998 709.649 349.767 709.35 348.536C707.671 348.824 705.856 348.878 704.393 349.507C703.963 349.693 704.295 352.302 704.62 352.392C706.247 352.864 707.979 352.872 710.512 353.116Z" fill="#00362F"/>
<path d="M886.883 353.923C889.948 351.919 892.457 350.889 893.713 349.175C894.264 348.423 892.247 346.249 891.394 344.71C889.046 345.718 886.385 346.44 884.513 347.918C883.963 348.354 885.631 350.899 886.883 353.923Z" fill="#00362F"/>
<path d="M388.852 421.494C392.317 422.649 395.129 422.546 397.296 417.535C393.172 418.304 390.636 418.754 388.104 419.229C388.357 419.98 388.61 420.731 388.864 421.482L388.852 421.494Z" fill="#00362F"/>
<path d="M1141.65 241.907C1147.19 243.646 1150.76 242.589 1152.65 237.92C1147.43 236.268 1143.76 237.597 1141.65 241.907Z" fill="#00362F"/>
<path d="M381.499 257.518C387.042 259.257 390.61 258.2 392.506 253.531C387.282 251.879 383.613 253.208 381.499 257.518Z" fill="#00362F"/>
<path d="M1373.55 423.721C1377.02 424.876 1379.83 424.773 1382 419.762C1377.87 420.531 1375.34 420.981 1372.81 421.456C1373.06 422.207 1373.31 422.958 1373.57 423.709L1373.55 423.721Z" fill="#00362F"/>
<path d="M800.293 200.056C803.757 201.212 806.57 201.109 808.736 196.098C804.612 196.866 802.076 197.317 799.545 197.792C799.798 198.542 800.051 199.293 800.304 200.044L800.293 200.056Z" fill="#00362F"/>
<path d="M1186.52 258.828C1180.38 260.283 1177.7 262.205 1179.3 267.283C1185.72 266.871 1187.96 264.59 1186.52 258.828Z" fill="#00362F"/>
<path d="M426.375 274.438C420.233 275.893 417.556 277.816 419.153 282.894C425.569 282.482 427.817 280.201 426.375 274.438Z" fill="#00362F"/>
<path d="M1311.66 479.043C1308.78 476.75 1306.37 476.352 1304.49 478.567C1304.04 479.1 1304.65 481.281 1305.31 481.595C1308.11 482.956 1310.52 482.732 1311.66 479.043Z" fill="#00362F"/>
<path d="M1412.18 417.099C1409.31 414.806 1406.89 414.408 1405.01 416.623C1404.56 417.156 1405.17 419.337 1405.83 419.651C1408.63 421.012 1411.04 420.788 1412.18 417.099Z" fill="#00362F"/>
<path d="M838.925 193.435C836.047 191.141 833.631 190.743 831.752 192.959C831.303 193.491 831.91 195.672 832.571 195.986C835.371 197.348 837.778 197.124 838.925 193.435Z" fill="#00362F"/>
<path d="M1067.91 315.041C1073.8 312.768 1076.19 310.5 1073.92 305.685C1067.62 306.963 1065.7 309.527 1067.91 315.041Z" fill="#00362F"/>
<path d="M319.644 506.392C307.635 499.952 289.139 505.506 283.334 513.691C278.49 520.512 281.904 526.437 291.661 527.305C302.954 528.315 313.392 526.659 321.968 520.401C328.961 515.283 328.286 510.561 319.662 506.4L319.644 506.392ZM316.929 511.683C308.751 520.61 300.996 522.94 289.276 520.402C287.131 516.242 289.968 514.438 293.468 512.672C300.458 509.155 309.004 508.547 316.911 511.674L316.929 511.683Z" fill="#00362F"/>
<path d="M36.4728 482.353C48.4822 488.792 66.9784 483.238 72.7828 475.053C77.6272 468.232 74.2131 462.307 64.4562 461.439C53.1629 460.43 42.7246 462.085 34.1494 468.344C27.1558 473.461 27.8313 478.183 36.4549 482.344L36.4728 482.353ZM39.1881 477.062C47.3665 468.135 55.1207 465.804 66.841 468.342C68.9862 472.502 66.1486 474.307 62.6493 476.072C55.659 479.589 47.1127 480.198 39.2059 477.07L39.1881 477.062Z" fill="#00362F"/>
<path d="M323.882 181.134C335.892 187.574 354.388 182.02 360.192 173.834C365.037 167.013 361.623 161.088 351.866 160.22C340.572 159.211 330.134 160.867 321.559 167.125C314.565 172.242 315.241 176.964 323.864 181.125L323.882 181.134ZM326.598 175.843C334.776 166.916 342.53 164.586 354.25 167.123C356.396 171.284 353.558 173.088 350.059 174.854C343.068 178.371 334.522 178.979 326.615 175.851L326.598 175.843Z" fill="#00362F"/>
<path d="M1071.54 507.206C1072.53 509.151 1073.12 510.279 1073.69 511.412C1075.26 510.756 1077.02 510.298 1078.3 509.358C1078.68 509.081 1077.78 506.612 1077.44 506.597C1075.75 506.499 1074.06 506.879 1071.54 507.206Z" fill="#00362F"/>
<path d="M376.076 467.158C375.047 472.106 373.09 477.02 373.274 482.028C373.423 485.597 375.691 489.772 378.395 492.848C381.786 496.684 386.331 496.66 390.76 494.075C400.094 488.646 403.745 472.408 398.099 463.075C396.26 460.022 394.275 457.217 390.278 457.055C385.898 456.877 381.845 458.072 379.812 461.696C378.77 463.552 377.898 465.471 376.928 467.362C376.641 467.299 376.337 467.227 376.05 467.164L376.076 467.158ZM383.733 490.96C376.806 479.946 381.771 466.041 392.651 464.086C396.677 472.397 393.509 482.49 383.733 490.96Z" fill="#00362F"/>
<path d="M1360.78 469.385C1359.75 474.333 1357.8 479.247 1357.98 484.254C1358.13 487.823 1360.4 491.998 1363.1 495.074C1366.49 498.91 1371.04 498.887 1375.47 496.301C1384.8 490.872 1388.45 474.634 1382.81 465.301C1380.97 462.248 1378.98 459.443 1374.99 459.281C1370.6 459.103 1366.55 460.298 1364.52 463.922C1363.48 465.778 1362.6 467.698 1361.63 469.588C1361.35 469.525 1361.04 469.454 1360.76 469.391L1360.78 469.385ZM1368.44 493.187C1361.51 482.173 1366.48 468.268 1377.36 466.312C1381.38 474.624 1378.22 484.717 1368.44 493.187Z" fill="#00362F"/>
<path d="M787.521 245.72C786.491 250.668 784.534 255.582 784.718 260.59C784.868 264.159 787.135 268.334 789.839 271.41C793.23 275.246 797.775 275.222 802.205 272.637C811.538 267.208 815.19 250.97 809.543 241.637C807.704 238.584 805.72 235.779 801.723 235.617C797.342 235.439 793.289 236.634 791.256 240.258C790.214 242.114 789.342 244.033 788.372 245.924C788.086 245.861 787.781 245.789 787.494 245.726L787.521 245.72ZM795.177 269.522C788.251 258.508 793.216 244.603 804.095 242.648C808.121 250.959 804.953 261.052 795.177 269.522Z" fill="#00362F"/>
<path d="M484.844 477.215C479.83 466.722 476.716 465.133 466.553 468.428C462.121 469.874 458.036 472.346 454.535 475.044C451.104 477.7 451.273 482.103 454.172 485.124C456.028 487.045 460.692 488.238 463.717 488.007C472.669 487.329 478.545 482.199 484.826 477.206L484.844 477.215ZM477.562 472.837C473.412 480.425 468.856 482.597 459.274 481.549C461.553 472.932 465.219 471.175 477.562 472.837Z" fill="#00362F"/>
<path d="M1059.77 245.636C1056.13 245.283 1053.41 246.011 1052.42 251.38C1056.27 249.71 1058.64 248.705 1061 247.676C1060.59 247.001 1060.17 246.326 1059.76 245.65L1059.77 245.636Z" fill="#00362F"/>
<path d="M755.456 575.7C760.469 586.192 763.583 587.782 773.746 584.486C778.178 583.041 782.264 580.568 785.764 577.871C789.195 575.215 789.026 570.811 786.128 567.79C784.272 565.87 779.607 564.677 776.582 564.908C767.63 565.585 761.754 570.716 755.474 575.708L755.456 575.7ZM762.737 580.077C766.887 572.489 771.444 570.318 781.025 571.365C778.746 579.982 775.08 581.74 762.737 580.077Z" fill="#00362F"/>
<path d="M158.687 210.31C163.7 220.803 166.814 222.392 176.978 219.097C181.409 217.651 185.495 215.179 188.996 212.482C192.426 209.826 192.258 205.422 189.359 202.401C187.503 200.48 182.839 199.288 179.813 199.519C170.861 200.196 164.985 205.327 158.705 210.319L158.687 210.31ZM165.969 214.688C170.118 207.1 174.675 204.929 184.257 205.976C181.977 214.593 178.311 216.35 165.969 214.688Z" fill="#00362F"/>
<path d="M1023.59 260.717C1026.9 262.31 1029.35 262.158 1030.69 259.579C1031 258.96 1029.93 256.969 1029.21 256.81C1026.18 256.108 1023.88 256.865 1023.59 260.717Z" fill="#00362F"/>
<path d="M235.515 453.783C240.303 452.846 255.055 441.684 261.255 434.895C253.305 434.771 241.61 443.078 235.515 453.783Z" fill="#00362F"/>
<path d="M253.583 455.039C263.107 451.961 272.532 448.796 282.324 441.627C280.323 440.446 279.326 439.21 278.58 439.494C269.654 442.948 260.882 446.961 253.595 455.023L253.583 455.039Z" fill="#00362F"/>
<path d="M240.457 431.2C229.281 434.936 224.612 442.782 220.808 452.741C227.32 453.288 227.788 446.514 230.911 443.611C234.095 440.657 236.446 436.538 240.457 431.2Z" fill="#00362F"/>
<path d="M901.301 180.122C887.912 177.603 871.945 188.478 868.872 198.034C866.304 205.999 871.342 210.62 880.907 208.504C891.979 206.061 901.435 201.334 907.73 192.78C912.86 185.791 910.795 181.492 901.321 180.125L901.301 180.122ZM900.303 185.987C895.189 196.966 888.496 201.526 876.557 202.641C873.26 199.321 875.423 196.745 878.229 194.006C883.837 188.544 891.803 185.386 900.284 185.984L900.303 185.987Z" fill="#00362F"/>
<path d="M1004.79 599.132C1000 600.069 985.248 611.231 979.048 618.02C986.998 618.145 998.693 609.837 1004.79 599.132Z" fill="#00362F"/>
<path d="M986.72 597.876C977.196 600.954 967.771 604.119 957.979 611.288C959.98 612.47 960.977 613.705 961.723 613.421C970.649 609.967 979.421 605.954 986.708 597.892L986.72 597.876Z" fill="#00362F"/>
<path d="M999.843 621.714C1011.02 617.979 1015.69 610.132 1019.49 600.173C1012.98 599.627 1012.51 606.4 1009.39 609.303C1006.2 612.257 1003.85 616.376 999.843 621.714Z" fill="#00362F"/>
<path d="M913.821 270.355C927.21 272.874 943.177 261.999 946.25 252.443C948.818 244.478 943.78 239.857 934.215 241.973C923.143 244.416 913.687 249.143 907.392 257.697C902.262 264.686 904.327 268.985 913.801 270.352L913.821 270.355ZM914.819 264.49C919.933 253.512 926.626 248.951 938.565 247.836C941.862 251.156 939.699 253.732 936.893 256.471C931.285 261.933 923.319 265.091 914.838 264.493L914.819 264.49Z" fill="#00362F"/>
<path d="M408.019 233.743C403.231 234.68 388.479 245.841 382.279 252.63C390.229 252.755 401.924 244.448 408.019 233.743Z" fill="#00362F"/>
<path d="M389.951 232.487C380.427 235.564 371.002 238.73 361.21 245.898C363.211 247.08 364.209 248.315 364.954 248.031C373.88 244.577 382.652 240.564 389.939 232.503L389.951 232.487Z" fill="#00362F"/>
<path d="M403.074 256.325C414.249 252.589 418.919 244.743 422.722 234.784C416.21 234.237 415.742 241.011 412.619 243.914C409.435 246.868 407.085 250.987 403.074 256.325Z" fill="#00362F"/>
<path d="M750.45 483.22C747.069 486.973 742.904 490.228 740.541 494.644C738.872 497.802 738.727 502.552 739.513 506.574C740.509 511.599 744.446 513.874 749.573 513.879C760.366 513.905 771.698 501.728 771.523 490.817C771.473 487.252 771.172 483.828 767.803 481.669C764.11 479.303 760.008 478.288 756.427 480.39C754.592 481.467 752.873 482.684 751.083 483.826C750.867 483.627 750.64 483.411 750.424 483.212L750.45 483.22ZM745.073 507.64C744.64 494.632 755.93 485.132 766.31 488.939C765.6 498.149 757.781 505.264 745.073 507.64Z" fill="#00362F"/>
<path d="M1037.86 182.002C1034.48 185.754 1030.31 189.009 1027.95 193.426C1026.28 196.583 1026.14 201.333 1026.92 205.355C1027.92 210.38 1031.86 212.656 1036.98 212.66C1047.78 212.687 1059.11 200.51 1058.93 189.599C1058.88 186.034 1058.58 182.609 1055.21 180.451C1051.52 178.084 1047.42 177.069 1043.84 179.172C1042 180.248 1040.28 181.465 1038.49 182.608C1038.28 182.408 1038.05 182.193 1037.83 181.993L1037.86 182.002ZM1032.48 206.421C1032.05 193.413 1043.34 183.914 1053.72 187.72C1053.01 196.931 1045.19 204.045 1032.48 206.421Z" fill="#00362F"/>
<path d="M762.645 403.696C754.709 395.203 751.262 394.627 742.561 400.834C738.77 403.549 735.618 407.139 733.091 410.767C730.618 414.334 732.104 418.483 735.776 420.489C738.124 421.761 742.93 421.491 745.746 420.359C754.078 417.013 758.138 410.348 762.626 403.694L762.645 403.696ZM754.385 401.718C752.71 410.205 749.018 413.65 739.566 415.541C739.148 406.637 742.116 403.855 754.385 401.718Z" fill="#00362F"/>
<path d="M1050.05 102.477C1042.12 93.9838 1038.67 93.4073 1029.97 99.615C1026.18 102.33 1023.03 105.92 1020.5 109.548C1018.03 113.115 1019.51 117.263 1023.19 119.27C1025.53 120.541 1030.34 120.272 1033.16 119.139C1041.49 115.794 1045.55 109.129 1050.04 102.474L1050.05 102.477ZM1041.79 100.499C1040.12 108.986 1036.43 112.431 1026.98 114.322C1026.56 105.417 1029.53 102.636 1041.79 100.499Z" fill="#00362F"/>
<path d="M570.622 441.671C566.005 443.248 552.897 456.305 547.67 463.872C555.564 462.918 566.029 453.103 570.622 441.671Z" fill="#00362F"/>
<path d="M552.549 442.873C543.529 447.213 534.617 451.626 525.884 460.055C528.026 460.955 529.181 462.043 529.882 461.661C538.259 457.03 546.408 451.865 552.539 442.89L552.549 442.873Z" fill="#00362F"/>
<path d="M568.771 464.714C579.339 459.499 582.906 451.093 585.329 440.71C578.803 441.05 579.254 447.825 576.552 451.124C573.796 454.483 572.024 458.882 568.771 464.714Z" fill="#00362F"/>
<path d="M837.466 458.259C832.859 456.649 814.5 458.836 805.726 461.567C812.528 465.69 826.811 464.424 837.466 458.259Z" fill="#00362F"/>
<path d="M822.495 448.048C812.721 445.896 802.988 443.868 790.922 445.113C792.055 447.143 792.294 448.714 793.081 448.845C802.528 450.371 812.124 451.336 822.476 448.056L822.495 448.048Z" fill="#00362F"/>
<path d="M821.822 475.26C833.353 477.679 841.337 473.262 849.637 466.584C844.29 462.823 840.474 468.435 836.315 469.364C832.078 470.307 827.974 472.677 821.822 475.26Z" fill="#00362F"/>
<path d="M1124.87 157.04C1120.27 155.431 1101.91 157.617 1093.13 160.348C1099.94 164.471 1114.22 163.205 1124.87 157.04Z" fill="#00362F"/>
<path d="M1109.9 146.83C1100.13 144.677 1090.4 142.649 1078.33 143.894C1079.46 145.925 1079.7 147.495 1080.49 147.627C1089.94 149.152 1099.53 150.118 1109.89 146.837L1109.9 146.83Z" fill="#00362F"/>
<path d="M1109.23 174.041C1120.76 176.46 1128.75 172.044 1137.05 165.365C1131.7 161.604 1127.88 167.217 1123.72 168.146C1119.49 169.088 1115.38 171.458 1109.23 174.041Z" fill="#00362F"/>
<path d="M669.681 611.244C674.298 609.667 687.406 596.609 692.633 589.042C684.739 589.996 674.274 599.811 669.681 611.244Z" fill="#00362F"/>
<path d="M687.754 610.04C696.775 605.701 705.686 601.288 714.419 592.858C712.277 591.959 711.122 590.87 710.421 591.252C702.044 595.884 693.895 601.049 687.764 610.023L687.754 610.04Z" fill="#00362F"/>
<path d="M671.532 588.2C660.964 593.415 657.397 601.821 654.975 612.204C661.501 611.864 661.049 605.089 663.751 601.79C666.507 598.431 668.279 594.032 671.532 588.2Z" fill="#00362F"/>
<path d="M835.708 280.561C828.579 280.485 825.174 283.418 822.097 287.184C828.322 290.515 830.284 289.615 835.708 280.561Z" fill="#00362F"/>
<path d="M72.9078 245.854C77.5254 244.277 90.6337 231.22 95.8602 223.653C87.9662 224.606 77.501 234.422 72.9078 245.854Z" fill="#00362F"/>
<path d="M90.9815 244.651C100.002 240.311 108.913 235.898 117.646 227.469C115.504 226.569 114.349 225.481 113.648 225.863C105.272 230.494 97.122 235.659 90.9912 244.633L90.9815 244.651Z" fill="#00362F"/>
<path d="M74.7596 222.81C64.1912 228.025 60.6248 236.432 58.2018 246.815C64.7279 246.474 64.2761 239.699 66.9787 236.4C69.7341 233.042 71.5065 228.642 74.7596 222.81Z" fill="#00362F"/>
<path d="M979.413 169.916C986.542 169.992 989.948 167.059 993.025 163.293C986.8 159.962 984.837 160.861 979.413 169.916Z" fill="#00362F"/>
<path d="M226.889 582.384C220.114 580.162 215.985 581.931 211.918 584.594C216.852 589.648 218.994 589.382 226.889 582.384Z" fill="#00362F"/>
<path d="M899.731 465.818C902.532 466.777 905.356 468.218 908.131 468.484C909.257 468.603 911.218 466.235 911.089 464.913C910.973 463.669 908.602 461.351 907.267 461.221C904.705 460.942 902.199 461.878 899.674 462.308C899.698 463.475 899.707 464.651 899.731 465.818Z" fill="#00362F"/>
<path d="M1187.14 164.598C1189.94 165.558 1192.77 166.999 1195.54 167.265C1196.67 167.383 1198.63 165.016 1198.5 163.693C1198.38 162.449 1196.01 160.132 1194.68 160.001C1192.11 159.723 1189.61 160.658 1187.08 161.089C1187.11 162.256 1187.12 163.431 1187.14 164.598Z" fill="#00362F"/>
<path d="M426.993 180.209C429.794 181.169 432.618 182.609 435.393 182.876C436.519 182.994 438.48 180.627 438.351 179.304C438.235 178.06 435.864 175.743 434.529 175.612C431.967 175.334 429.461 176.269 426.936 176.7C426.96 177.867 426.969 179.042 426.993 180.209Z" fill="#00362F"/>
<path d="M129.228 406.36C136.003 408.583 140.132 406.813 144.199 404.15C139.265 399.096 137.123 399.362 129.228 406.36Z" fill="#00362F"/>
<path d="M932.361 452.29C928.714 451.975 926.104 451.238 924.06 451.812C923.164 452.063 923.413 455.021 923.137 456.759C925.606 457.414 928.146 458.489 930.529 458.482C931.231 458.478 931.484 455.444 932.361 452.29Z" fill="#00362F"/>
<path d="M1219.77 151.071C1216.12 150.756 1213.51 150.019 1211.47 150.593C1210.57 150.844 1210.82 153.802 1210.55 155.54C1213.02 156.196 1215.55 157.271 1217.94 157.263C1218.64 157.259 1218.89 154.225 1219.77 151.071Z" fill="#00362F"/>
<path d="M459.623 166.682C455.976 166.367 453.366 165.63 451.322 166.204C450.426 166.455 450.675 169.413 450.399 171.151C452.868 171.806 455.408 172.881 457.791 172.874C458.493 172.87 458.746 169.836 459.623 166.682Z" fill="#00362F"/>
<path d="M1300.82 169.312C1307.6 171.534 1311.73 169.765 1315.79 167.101C1310.86 162.048 1308.72 162.314 1300.82 169.312Z" fill="#00362F"/>
<path d="M540.672 184.923C547.447 187.145 551.576 185.375 555.643 182.712C550.709 177.658 548.567 177.924 540.672 184.923Z" fill="#00362F"/>
<path d="M965.659 163.329C959.85 163.343 956.765 165.427 956.362 170.451C961.84 170.451 964.939 168.077 965.659 163.329Z" fill="#00362F"/>
<path d="M177.937 478.707C175.035 479.293 171.871 479.475 169.341 480.647C168.309 481.113 167.808 484.148 168.586 485.225C169.313 486.24 172.527 487.044 173.746 486.482C176.098 485.429 177.791 483.355 179.754 481.708C179.146 480.712 178.546 479.702 177.937 478.707Z" fill="#00362F"/>
<path d="M849.463 287.147C855.271 287.134 858.357 285.049 858.76 280.025C853.282 280.026 850.183 282.399 849.463 287.147Z" fill="#00362F"/>
<path d="M1062.36 574.208C1065.26 573.622 1068.43 573.439 1070.96 572.268C1071.99 571.801 1072.49 568.767 1071.71 567.69C1070.99 566.674 1067.77 565.87 1066.55 566.432C1064.2 567.486 1062.51 569.559 1060.54 571.207C1061.15 572.202 1061.75 573.212 1062.36 574.208Z" fill="#00362F"/>
<path d="M917.779 160.729C923.198 157.489 925.172 154.848 922.122 150.488C916.128 152.816 914.671 155.669 917.779 160.729Z" fill="#00362F"/>
<path d="M1349.78 272.989C1352.68 272.403 1355.84 272.221 1358.37 271.049C1359.4 270.583 1359.9 267.548 1359.13 266.471C1358.4 265.456 1355.19 264.652 1353.97 265.214C1351.61 266.267 1349.92 268.341 1347.96 269.988C1348.57 270.984 1349.17 271.994 1349.78 272.989Z" fill="#00362F"/>
<path d="M589.624 288.6C592.526 288.014 595.69 287.831 598.22 286.66C599.252 286.193 599.753 283.159 598.975 282.082C598.248 281.066 595.034 280.263 593.816 280.824C591.463 281.878 589.77 283.952 587.807 285.599C588.415 286.594 589.015 287.604 589.624 288.6Z" fill="#00362F"/>
<path d="M897.343 289.748C891.924 292.987 889.949 295.628 893 299.989C898.994 297.661 900.451 294.808 897.343 289.748Z" fill="#00362F"/>
<path d="M623.465 428.57C626.261 427.596 629.372 426.987 631.72 425.483C632.68 424.881 632.766 421.806 631.85 420.845C630.993 419.937 627.699 419.576 626.568 420.298C624.38 421.661 622.982 423.944 621.259 425.843C621.997 426.747 622.728 427.666 623.465 428.57Z" fill="#00362F"/>
<path d="M941.833 484.025C939.874 478.126 937.968 475.911 934.729 477.662C933.604 478.271 933.597 480.593 933.075 482.124C935.541 482.652 937.992 483.189 941.822 484.009L941.833 484.025Z" fill="#00362F"/>
<path d="M1229.24 182.806C1227.28 176.907 1225.38 174.692 1222.14 176.443C1221.01 177.052 1221.01 179.374 1220.48 180.905C1222.95 181.433 1225.4 181.97 1229.23 182.79L1229.24 182.806Z" fill="#00362F"/>
<path d="M469.091 198.417C467.132 192.518 465.226 190.302 461.987 192.054C460.863 192.663 460.855 194.985 460.334 196.516C462.799 197.044 465.25 197.58 469.08 198.4L469.091 198.417Z" fill="#00362F"/>
<path d="M26.6925 63.1803C29.4886 62.2066 32.5989 61.5971 34.9473 60.0934C35.9072 59.4915 35.9933 56.4168 35.0773 55.4553C34.2198 54.5477 30.9265 54.1866 29.7951 54.9085C27.6067 56.271 26.2094 58.5548 24.4865 60.4531C25.224 61.357 25.955 62.2764 26.6925 63.1803Z" fill="#00362F"/>
<path d="M941.4 412.596C941.28 414.779 941.223 416.05 941.14 417.315C942.828 417.542 944.576 418.035 946.16 417.872C946.626 417.824 947.088 415.235 946.805 415.052C945.394 414.114 943.743 413.588 941.4 412.596Z" fill="#00362F"/>
<path d="M1228.81 111.377C1228.69 113.56 1228.63 114.832 1228.55 116.096C1230.24 116.323 1231.99 116.816 1233.57 116.653C1234.04 116.606 1234.5 114.016 1234.21 113.833C1232.8 112.895 1231.15 112.369 1228.81 111.377Z" fill="#00362F"/>
<path d="M468.658 126.988C468.538 129.171 468.481 130.442 468.399 131.707C470.087 131.934 471.834 132.427 473.418 132.264C473.884 132.216 474.347 129.627 474.064 129.444C472.652 128.506 471.002 127.98 468.658 126.988Z" fill="#00362F"/>
<path d="M755.203 436.299C758.775 435.539 761.148 434.024 760.484 428.604C757.315 431.358 755.356 433.032 753.413 434.725C754.011 435.244 754.609 435.763 755.207 436.282L755.203 436.299Z" fill="#00362F"/>
<path d="M1042.62 135.08C1046.19 134.32 1048.56 132.805 1047.9 127.386C1044.73 130.139 1042.77 131.813 1040.83 133.506C1041.42 134.025 1042.02 134.544 1042.62 135.064L1042.62 135.08Z" fill="#00362F"/>
<path d="M616.838 624.345C614.042 625.319 610.931 625.928 608.583 627.432C607.623 628.034 607.537 631.109 608.453 632.07C609.31 632.978 612.604 633.339 613.735 632.617C615.924 631.254 617.321 628.971 619.044 627.072C618.306 626.168 617.575 625.249 616.838 624.345Z" fill="#00362F"/>
<path d="M785.17 411.006C781.528 410.487 779.244 411.369 778.743 414.231C778.625 414.919 780.251 416.492 780.98 416.428C784.083 416.183 786.045 414.769 785.17 411.006Z" fill="#00362F"/>
<path d="M1072.58 109.787C1068.94 109.268 1066.66 110.149 1066.16 113.012C1066.04 113.699 1067.66 115.272 1068.39 115.209C1071.5 114.963 1073.46 113.55 1072.58 109.787Z" fill="#00362F"/>
<path d="M20.0651 258.955C17.269 259.929 14.1587 260.539 11.8102 262.042C10.8504 262.644 10.7643 265.719 11.6803 266.68C12.5378 267.588 15.8311 267.949 16.9625 267.227C19.1508 265.865 20.5482 263.581 22.2711 261.683C21.5336 260.779 20.8026 259.859 20.0651 258.955Z" fill="#00362F"/>
<path d="M156.573 506.869C159.881 505.299 162.506 504.618 163.981 503.09C164.629 502.42 162.924 499.992 162.287 498.351C159.825 499.033 157.091 499.387 155.036 500.598C154.433 500.955 155.741 503.703 156.573 506.869Z" fill="#00362F"/>
<path d="M1083.73 546.046C1080.42 547.616 1077.79 548.298 1076.32 549.825C1075.67 550.495 1077.37 552.923 1078.01 554.564C1080.47 553.882 1083.21 553.528 1085.26 552.317C1085.87 551.96 1084.56 549.212 1083.73 546.046Z" fill="#00362F"/>
<path d="M1371.14 244.827C1367.83 246.397 1365.21 247.078 1363.73 248.606C1363.08 249.276 1364.79 251.704 1365.43 253.344C1367.89 252.663 1370.62 252.309 1372.68 251.098C1373.28 250.741 1371.97 247.993 1371.14 244.827Z" fill="#00362F"/>
<path d="M610.988 260.438C607.68 262.008 605.055 262.689 603.58 264.217C602.932 264.887 604.637 267.315 605.274 268.955C607.736 268.274 610.471 267.92 612.525 266.709C613.129 266.351 611.82 263.604 610.988 260.438Z" fill="#00362F"/>
<path d="M640.826 397.772C637.76 399.776 635.252 400.807 633.996 402.521C633.445 403.272 635.462 405.447 636.315 406.986C638.663 405.977 641.324 405.256 643.196 403.778C643.745 403.342 642.077 400.797 640.826 397.772Z" fill="#00362F"/>
<path d="M44.0569 32.3831C40.9914 34.3867 38.4829 35.4176 37.2273 37.1314C36.6759 37.8828 38.6932 40.0575 39.5462 41.5964C41.8938 40.5879 44.5549 39.8664 46.4268 38.3885C46.9767 37.9526 45.3086 35.4074 44.0569 32.3831Z" fill="#00362F"/>
<path d="M599.473 655.142C602.539 653.138 605.047 652.107 606.303 650.394C606.854 649.642 604.837 647.467 603.984 645.929C601.637 646.937 598.975 647.659 597.103 649.136C596.554 649.572 598.222 652.117 599.473 655.142Z" fill="#00362F"/>
<path d="M2.7007 289.753C5.76619 287.749 8.27471 286.718 9.53029 285.004C10.0816 284.253 8.06436 282.078 7.21141 280.539C4.8638 281.548 2.20264 282.269 0.330748 283.747C-0.219087 284.183 1.44893 286.728 2.7007 289.753Z" fill="#00362F"/>
<path d="M386.066 509.789C380.523 508.05 376.955 509.107 375.059 513.776C380.283 515.428 383.952 514.099 386.066 509.789Z" fill="#00362F"/>
<path d="M854.237 543.126C859.78 544.865 863.348 543.808 865.244 539.139C860.02 537.487 856.351 538.816 854.237 543.126Z" fill="#00362F"/>
<path d="M257.464 177.737C263.007 179.476 266.576 178.418 268.471 173.75C263.247 172.098 259.578 173.427 257.464 177.737Z" fill="#00362F"/>
<path d="M341.19 492.868C347.332 491.413 350.01 489.49 348.412 484.413C341.997 484.825 339.749 487.106 341.19 492.868Z" fill="#00362F"/>
<path d="M899.113 560.047C892.971 561.502 890.294 563.425 891.891 568.502C898.307 568.09 900.554 565.809 899.113 560.047Z" fill="#00362F"/>
<path d="M302.34 194.657C296.198 196.112 293.521 198.035 295.118 203.113C301.534 202.701 303.782 200.42 302.34 194.657Z" fill="#00362F"/>
<path d="M459.8 436.654C453.911 438.927 451.518 441.195 453.786 446.01C460.087 444.733 462.007 442.168 459.8 436.654Z" fill="#00362F"/>
<path d="M780.499 616.26C786.388 613.987 788.781 611.719 786.513 606.904C780.212 608.181 778.293 610.746 780.499 616.26Z" fill="#00362F"/>
<path d="M183.727 250.871C189.615 248.597 192.009 246.33 189.74 241.515C183.439 242.792 181.52 245.357 183.727 250.871Z" fill="#00362F"/>
<path d="M132.414 484.249C137.076 488.354 139.838 489.304 141.753 486.156C142.417 485.062 141.253 483.053 140.933 481.468C138.538 482.257 136.151 483.032 132.431 484.258L132.414 484.249Z" fill="#00362F"/>
<path d="M1107.89 568.665C1103.23 564.561 1100.47 563.611 1098.55 566.759C1097.89 567.852 1099.05 569.861 1099.37 571.447C1101.77 570.658 1104.15 569.883 1107.87 568.657L1107.89 568.665Z" fill="#00362F"/>
<path d="M1395.3 267.446C1390.64 263.342 1387.87 262.392 1385.96 265.54C1385.3 266.634 1386.46 268.643 1386.78 270.228C1389.17 269.439 1391.56 268.664 1395.28 267.438L1395.3 267.446Z" fill="#00362F"/>
<path d="M635.148 283.057C630.485 278.953 627.723 278.003 625.809 281.151C625.145 282.245 626.308 284.254 626.628 285.839C629.023 285.05 631.41 284.275 635.13 283.049L635.148 283.057Z" fill="#00362F"/>
<path d="M168.766 545.708C167.77 543.763 167.179 542.636 166.613 541.503C165.041 542.159 163.284 542.616 161.998 543.557C161.62 543.833 162.525 546.303 162.861 546.318C164.552 546.415 166.243 546.036 168.766 545.708Z" fill="#00362F"/>
<path d="M187.355 443.036C188.351 444.982 188.942 446.109 189.508 447.242C191.08 446.586 192.837 446.129 194.123 445.188C194.501 444.911 193.596 442.442 193.26 442.427C191.568 442.329 189.878 442.709 187.355 443.036Z" fill="#00362F"/>
<path d="M1358.95 205.988C1359.94 207.933 1360.53 209.06 1361.1 210.193C1362.67 209.537 1364.43 209.08 1365.71 208.139C1366.09 207.863 1365.19 205.393 1364.85 205.378C1363.16 205.281 1361.47 205.66 1358.95 205.988Z" fill="#00362F"/>
<path d="M598.799 221.598C599.795 223.544 600.386 224.671 600.952 225.804C602.524 225.148 604.281 224.691 605.567 223.75C605.945 223.473 605.04 221.004 604.704 220.989C603.013 220.891 601.322 221.271 598.799 221.598Z" fill="#00362F"/>
<path d="M467.945 506.06C471.58 506.413 474.299 505.684 475.295 500.316C471.446 501.986 469.074 502.991 466.712 504.019C467.126 504.695 467.54 505.37 467.954 506.046L467.945 506.06Z" fill="#00362F"/>
<path d="M772.358 546.855C768.723 546.502 766.004 547.231 765.008 552.599C768.857 550.929 771.229 549.924 773.591 548.896C773.177 548.22 772.763 547.545 772.349 546.869L772.358 546.855Z" fill="#00362F"/>
<path d="M175.585 181.465C171.95 181.112 169.232 181.841 168.235 187.21C172.085 185.539 174.456 184.534 176.818 183.506C176.404 182.831 175.991 182.155 175.577 181.48L175.585 181.465Z" fill="#00362F"/>
<path d="M504.125 490.979C500.809 489.386 498.365 489.538 497.027 492.117C496.708 492.736 497.786 494.727 498.499 494.885C501.532 495.587 503.828 494.831 504.125 490.979Z" fill="#00362F"/>
<path d="M736.174 561.935C739.49 563.529 741.934 563.377 743.272 560.798C743.592 560.178 742.514 558.188 741.8 558.029C738.768 557.327 736.471 558.083 736.174 561.935Z" fill="#00362F"/>
<path d="M139.405 196.546C142.722 198.14 145.165 197.988 146.503 195.409C146.823 194.789 145.745 192.799 145.031 192.64C141.999 191.938 139.702 192.694 139.405 196.546Z" fill="#00362F"/>
<path d="M153.678 117.831C150.296 121.584 146.132 124.838 143.769 129.255C142.1 132.413 141.955 137.163 142.74 141.185C143.737 146.21 147.673 148.485 152.8 148.49C163.594 148.516 174.925 136.339 174.751 125.428C174.7 121.863 174.4 118.439 171.03 116.28C167.337 113.914 163.235 112.899 159.654 115.001C157.82 116.077 156.1 117.295 154.311 118.437C154.095 118.238 153.868 118.022 153.652 117.823L153.678 117.831ZM148.3 142.251C147.867 129.242 159.158 119.743 169.537 123.55C168.827 132.76 161.008 139.875 148.3 142.251Z" fill="#00362F"/>
<path d="M613.892 481.341C600.503 478.822 584.536 489.697 581.463 499.253C578.895 507.218 583.933 511.838 593.497 509.723C604.57 507.28 614.026 502.553 620.32 493.999C625.45 487.01 623.386 482.711 613.911 481.344L613.892 481.341ZM612.894 487.205C607.78 498.184 601.087 502.745 589.147 503.86C585.85 500.54 588.013 497.963 590.819 495.224C596.427 489.762 604.394 486.605 612.874 487.203L612.894 487.205Z" fill="#00362F"/>
<path d="M165.873 38.3067C157.936 29.8134 154.489 29.2369 145.788 35.4446C141.997 38.1595 138.845 41.7493 136.318 45.3771C133.845 48.9446 135.331 53.093 139.003 55.0991C141.351 56.371 146.157 56.1016 148.973 54.969C157.305 51.6232 161.365 44.9587 165.853 38.3039L165.873 38.3067ZM157.612 36.3285C155.937 44.8156 152.245 48.2605 142.793 50.1516C142.375 41.2469 145.343 38.4658 157.612 36.3285Z" fill="#00362F"/>
<path d="M17.1189 115.951C3.73018 113.433 -12.2368 124.307 -15.3098 133.863C-17.8779 141.828 -12.8401 146.449 -3.27538 144.333C7.7972 141.89 17.2529 137.163 23.5476 128.609C28.6774 121.62 26.6131 117.321 17.1384 115.954L17.1189 115.951ZM16.1209 121.816C11.0071 132.795 4.3138 137.355 -7.62551 138.47C-10.9224 135.15 -8.75922 132.574 -5.9534 129.835C-0.345525 124.373 7.62109 121.215 16.1013 121.813L16.1209 121.816Z" fill="#00362F"/>
<path d="M626.408 571.574C639.796 574.092 655.763 563.218 658.836 553.662C661.404 545.697 656.367 541.076 646.802 543.191C635.729 545.635 626.273 550.362 619.979 558.916C614.849 565.905 616.913 570.204 626.388 571.571L626.408 571.574ZM627.405 565.709C632.519 554.73 639.213 550.17 651.152 549.054C654.449 552.375 652.286 554.951 649.48 557.69C643.872 563.152 635.905 566.31 627.425 565.712L627.405 565.709Z" fill="#00362F"/>
<path d="M29.6387 206.184C43.0274 208.703 58.9943 197.829 62.0674 188.273C64.6355 180.308 59.5977 175.687 50.0329 177.802C38.9604 180.246 29.5047 184.973 23.2099 193.527C18.0802 200.516 20.1444 204.814 29.6192 206.182L29.6387 206.184ZM30.6367 200.32C35.7505 189.341 42.4438 184.78 54.3831 183.665C57.68 186.986 55.5168 189.562 52.711 192.301C47.1031 197.763 39.1365 200.921 30.6562 200.323L30.6367 200.32Z" fill="#00362F"/>
<path d="M240.693 92.8696C236.087 91.2603 217.727 93.447 208.953 96.1777C215.755 100.301 230.038 99.0344 240.693 92.8696Z" fill="#00362F"/>
<path d="M225.722 82.6592C215.948 80.5065 206.215 78.4789 194.149 79.7236C195.282 81.7543 195.521 83.3246 196.308 83.4563C205.755 84.982 215.351 85.9473 225.704 82.6669L225.722 82.6592Z" fill="#00362F"/>
<path d="M225.049 109.871C236.58 112.29 244.564 107.873 252.865 101.194C247.517 97.4333 243.701 103.046 239.542 103.975C235.305 104.918 231.201 107.288 225.049 109.871Z" fill="#00362F"/>
<path d="M489.853 569.694C493.234 565.942 497.399 562.687 499.762 558.27C501.431 555.113 501.576 550.362 500.79 546.341C499.794 541.316 495.857 539.04 490.731 539.036C479.937 539.009 468.605 551.186 468.78 562.097C468.83 565.662 469.131 569.087 472.501 571.245C476.194 573.611 480.295 574.627 483.876 572.524C485.711 571.448 487.43 570.231 489.22 569.088C489.436 569.287 489.663 569.503 489.879 569.702L489.853 569.694ZM495.231 545.274C495.664 558.283 484.373 567.782 473.993 563.976C474.703 554.765 482.522 547.651 495.231 545.274Z" fill="#00362F"/>
<path d="M488.404 378.831C485.023 382.584 480.858 385.838 478.495 390.255C476.826 393.413 476.681 398.163 477.467 402.185C478.463 407.21 482.4 409.485 487.526 409.49C498.32 409.516 509.652 397.339 509.477 386.428C509.427 382.863 509.126 379.439 505.756 377.28C502.063 374.914 497.962 373.899 494.381 376.001C492.546 377.077 490.827 378.295 489.037 379.437C488.821 379.238 488.594 379.022 488.378 378.823L488.404 378.831ZM483.026 403.251C482.593 390.242 493.884 380.743 504.264 384.55C503.554 393.76 495.735 400.875 483.026 403.251Z" fill="#00362F"/>
<path d="M500.599 299.307C492.663 290.813 489.216 290.237 480.515 296.445C476.724 299.159 473.572 302.749 471.044 306.377C468.572 309.945 470.057 314.093 473.73 316.099C476.077 317.371 480.884 317.102 483.699 315.969C492.032 312.623 496.092 305.959 500.579 299.304L500.599 299.307ZM492.339 297.329C490.664 305.816 486.972 309.26 477.52 311.152C477.102 302.247 480.07 299.466 492.339 297.329Z" fill="#00362F"/>
<path d="M477.658 649.219C485.594 657.712 489.041 658.289 497.742 652.081C501.533 649.366 504.685 645.776 507.212 642.148C509.685 638.581 508.2 634.432 504.527 632.426C502.179 631.154 497.373 631.424 494.557 632.556C486.225 635.902 482.165 642.567 477.677 649.221L477.658 649.219ZM485.918 651.197C487.593 642.71 491.285 639.265 500.737 637.374C501.155 646.278 498.187 649.06 485.918 651.197Z" fill="#00362F"/>
<path d="M302.958 100.428C305.759 101.388 308.583 102.828 311.358 103.094C312.484 103.213 314.445 100.845 314.316 99.5229C314.2 98.2789 311.829 95.9613 310.494 95.8311C307.932 95.5527 305.426 96.488 302.901 96.9188C302.925 98.0858 302.934 99.261 302.958 100.428Z" fill="#00362F"/>
<path d="M412.827 574.656C417.434 576.265 435.793 574.078 444.567 571.348C437.765 567.225 423.482 568.491 412.827 574.656Z" fill="#00362F"/>
<path d="M427.798 584.866C437.572 587.019 447.305 589.046 459.371 587.802C458.238 585.771 457.999 584.201 457.212 584.069C447.765 582.543 438.169 581.578 427.817 584.859L427.798 584.866Z" fill="#00362F"/>
<path d="M428.472 557.655C416.94 555.235 408.956 559.652 400.656 566.331C406.004 570.092 409.819 564.479 413.978 563.55C418.215 562.607 422.32 560.238 428.472 557.655Z" fill="#00362F"/>
<path d="M335.588 86.901C331.941 86.5858 329.331 85.8486 327.288 86.4227C326.391 86.6739 326.64 89.6315 326.364 91.3698C328.833 92.0252 331.373 93.1002 333.756 93.0924C334.458 93.0886 334.712 90.055 335.588 86.901Z" fill="#00362F"/>
<path d="M575.419 353.87C570.813 352.26 552.453 354.447 543.68 357.178C550.482 361.301 564.764 360.034 575.419 353.87Z" fill="#00362F"/>
<path d="M560.448 343.659C550.675 341.506 540.942 339.479 528.876 340.724C530.009 342.754 530.248 344.325 531.035 344.456C540.482 345.982 550.078 346.947 560.43 343.667L560.448 343.659Z" fill="#00362F"/>
<path d="M559.775 370.871C571.307 373.29 579.291 368.873 587.591 362.194C582.243 358.433 578.428 364.046 574.269 364.975C570.032 365.918 565.927 368.288 559.775 370.871Z" fill="#00362F"/>
<path d="M548.299 581.78C541.17 581.704 537.765 584.637 534.688 588.403C540.913 591.734 542.875 590.834 548.299 581.78Z" fill="#00362F"/>
<path d="M692.004 471.135C699.133 471.211 702.538 468.278 705.615 464.512C699.39 461.181 697.428 462.081 692.004 471.135Z" fill="#00362F"/>
<path d="M95.2313 105.746C102.36 105.821 105.766 102.888 108.843 99.1225C102.618 95.7913 100.655 96.691 95.2313 105.746Z" fill="#00362F"/>
<path d="M340.572 587.097C337.771 586.137 334.947 584.697 332.172 584.431C331.046 584.312 329.085 586.679 329.214 588.002C329.33 589.246 331.701 591.564 333.036 591.694C335.598 591.972 338.104 591.037 340.63 590.606C340.605 589.439 340.596 588.264 340.572 587.097Z" fill="#00362F"/>
<path d="M15.549 401.647C18.3499 402.607 21.1739 404.047 23.9488 404.314C25.075 404.432 27.0359 402.065 26.9067 400.742C26.7904 399.498 24.4199 397.181 23.0847 397.05C20.5229 396.772 18.0166 397.707 15.4914 398.138C15.5155 399.305 15.5249 400.48 15.549 401.647Z" fill="#00362F"/>
<path d="M637.685 361.428C640.486 362.388 643.31 363.828 646.085 364.094C647.211 364.213 649.172 361.845 649.043 360.523C648.926 359.279 646.556 356.961 645.221 356.831C642.659 356.553 640.153 357.488 637.627 357.919C637.651 359.086 637.661 360.261 637.685 361.428Z" fill="#00362F"/>
<path d="M307.938 600.624C311.585 600.94 314.195 601.677 316.239 601.103C317.136 600.851 316.886 597.894 317.162 596.156C314.693 595.5 312.154 594.425 309.77 594.433C309.069 594.437 308.815 597.47 307.938 600.624Z" fill="#00362F"/>
<path d="M48.1786 388.12C44.5315 387.805 41.9218 387.067 39.8781 387.641C38.9814 387.893 39.2307 390.85 38.9547 392.589C41.4239 393.244 43.9633 394.319 46.347 394.311C47.0483 394.307 47.3021 391.274 48.1786 388.12Z" fill="#00362F"/>
<path d="M345.06 118.635C343.101 112.736 341.195 110.521 337.956 112.273C336.832 112.881 336.824 115.204 336.303 116.734C338.768 117.263 341.219 117.799 345.049 118.619L345.06 118.635Z" fill="#00362F"/>
<path d="M670.315 347.901C666.668 347.586 664.058 346.849 662.014 347.423C661.117 347.674 661.367 350.632 661.091 352.37C663.56 353.025 666.099 354.1 668.483 354.092C669.184 354.089 669.438 351.055 670.315 347.901Z" fill="#00362F"/>
<path d="M678.249 464.549C672.441 464.562 669.356 466.647 668.952 471.67C674.431 471.67 677.53 469.296 678.249 464.549Z" fill="#00362F"/>
<path d="M344.627 47.2068C344.507 49.3895 344.45 50.6612 344.368 51.9255C346.056 52.1529 347.804 52.6459 349.387 52.4831C349.853 52.4352 350.316 49.846 350.033 49.663C348.622 48.7246 346.971 48.1985 344.627 47.2068Z" fill="#00362F"/>
<path d="M81.4767 99.159C75.6682 99.1726 72.5831 101.257 72.1797 106.281C77.6581 106.281 80.7571 103.907 81.4767 99.159Z" fill="#00362F"/>
<path d="M158.434 70.9094C162.006 70.1498 164.379 68.6351 163.715 63.2153C160.547 65.9688 158.587 67.6427 156.644 69.3355C157.242 69.8547 157.84 70.374 158.438 70.8932L158.434 70.9094Z" fill="#00362F"/>
<path d="M562.05 588.366C567.858 588.352 570.943 586.268 571.347 581.244C565.868 581.244 562.769 583.618 562.05 588.366Z" fill="#00362F"/>
<path d="M188.401 45.6163C184.759 45.0973 182.475 45.979 181.974 48.8417C181.856 49.529 183.483 51.102 184.211 51.0381C187.314 50.7929 189.276 49.3792 188.401 45.6163Z" fill="#00362F"/>
<path d="M630.369 461.948C635.788 458.708 637.763 456.067 634.713 451.707C628.719 454.035 627.261 456.888 630.369 461.948Z" fill="#00362F"/>
<path d="M33.5964 96.5585C39.0156 93.3188 40.9903 90.6777 37.9401 86.3175C31.9461 88.6452 30.4886 91.4984 33.5964 96.5585Z" fill="#00362F"/>
<path d="M609.934 590.966C604.515 594.206 602.54 596.847 605.59 601.207C611.584 598.88 613.042 596.026 609.934 590.966Z" fill="#00362F"/>
<path d="M13.1613 225.577C7.74212 228.817 5.76735 231.458 8.81761 235.818C14.8116 233.491 16.2691 230.637 13.1613 225.577Z" fill="#00362F"/>
<path d="M298.47 568.89C300.429 574.789 302.335 577.004 305.574 575.253C306.698 574.644 306.706 572.322 307.228 570.791C304.762 570.263 302.311 569.726 298.481 568.906L298.47 568.89Z" fill="#00362F"/>
<path d="M57.6506 419.854C55.6918 413.955 53.7855 411.74 50.5466 413.491C49.4224 414.1 49.4149 416.422 48.8932 417.953C51.3589 418.481 53.8098 419.018 57.6396 419.838L57.6506 419.854Z" fill="#00362F"/>
<path d="M679.783 379.635C677.824 373.736 675.917 371.521 672.679 373.273C671.554 373.881 671.547 376.204 671.025 377.734C673.491 378.263 675.942 378.799 679.772 379.619L679.783 379.635Z" fill="#00362F"/>
<path d="M298.903 640.319C299.023 638.136 299.08 636.864 299.163 635.6C297.475 635.372 295.727 634.879 294.143 635.042C293.677 635.09 293.215 637.679 293.498 637.862C294.909 638.801 296.56 639.327 298.903 640.319Z" fill="#00362F"/>
<path d="M57.2174 348.426C57.098 350.608 57.0406 351.88 56.9583 353.144C58.6463 353.372 60.3942 353.865 61.978 353.702C62.4438 353.654 62.9064 351.065 62.6233 350.882C61.2121 349.943 59.5613 349.417 57.2174 348.426Z" fill="#00362F"/>
<path d="M355.007 348.645C354.888 350.827 354.83 352.099 354.748 353.364C356.436 353.591 358.184 354.084 359.768 353.921C360.233 353.873 360.696 351.284 360.413 351.101C359.002 350.163 357.351 349.636 355.007 348.645Z" fill="#00362F"/>
<path d="M679.349 308.207C679.23 310.39 679.173 311.661 679.09 312.926C680.778 313.153 682.526 313.646 684.11 313.483C684.576 313.435 685.038 310.846 684.755 310.663C683.344 309.725 681.693 309.198 679.349 308.207Z" fill="#00362F"/>
<path d="M493.157 331.909C496.729 331.15 499.102 329.635 498.437 324.215C495.269 326.969 493.31 328.643 491.367 330.336C491.965 330.855 492.563 331.374 493.16 331.893L493.157 331.909Z" fill="#00362F"/>
<path d="M485.096 616.616C481.524 617.376 479.151 618.89 479.816 624.31C482.984 621.557 484.943 619.883 486.886 618.19C486.288 617.671 485.69 617.151 485.093 616.632L485.096 616.616Z" fill="#00362F"/>
<path d="M523.123 306.616C519.482 306.097 517.197 306.979 516.697 309.842C516.579 310.529 518.205 312.102 518.933 312.038C522.036 311.793 523.999 310.379 523.123 306.616Z" fill="#00362F"/>
<path d="M455.129 641.909C458.771 642.428 461.055 641.546 461.556 638.684C461.674 637.996 460.048 636.423 459.32 636.487C456.217 636.732 454.254 638.146 455.129 641.909Z" fill="#00362F"/>
</svg>
