<svg width="1586" height="1213" viewBox="0 0 1586 1213" fill="none" xmlns="http://www.w3.org/2000/svg">
<path d="M1519.82 99.5951C1532.03 99.5951 1540.98 99.5951 1553.99 99.5951C1534.73 65.5775 1517.29 34.7327 1497.62 0C1479.72 34.7744 1464.47 64.4036 1448.53 95.3973C1459.3 97.2117 1467.07 98.5047 1476.12 100.021C1455.31 133.738 1435.34 166.057 1413.76 201.034C1432.41 201.034 1445.69 201.034 1460.59 201.034C1442.38 233.023 1425 263.528 1405.84 297.212C1420.79 297.212 1430.91 297.212 1444.56 297.212C1424.68 327.92 1406.5 356.006 1387.75 384.941C1377.32 369.594 1368.45 356.518 1357.73 340.767C1370.29 340.767 1379.71 340.767 1392.61 340.767C1373.23 307.634 1355.53 277.421 1336.86 245.539C1346.46 244.875 1353.61 244.386 1364.72 243.638C1347.32 212.228 1331.1 182.932 1312.66 149.618C1296.22 183.218 1282.21 211.831 1267.78 241.321C1277.66 243.543 1284.09 245.006 1291.65 246.671C1275.09 274.954 1259.41 301.696 1241.43 332.338C1255.97 332.338 1264.33 332.338 1276.55 332.338C1256.34 365.766 1237.94 396.25 1218.04 429.186C1202.34 402.915 1188.36 379.524 1172.98 353.771C1180.09 354.552 1183.35 354.936 1190.87 355.747C1178.8 334.844 1157.53 298.029 1157.53 298.029L1111.3 357.51L1137.03 359.837C1137.03 359.837 1115.18 397.09 1103.78 416.527C1111.04 418.482 1115.25 419.626 1121.71 421.387C1107.25 445.397 1094.07 467.301 1079.49 491.555C1068.56 473.667 1059.35 458.649 1049.73 442.951C1056.31 441.092 1060.99 439.748 1066.35 438.231C1061.41 428.298 1056.89 419.188 1053.94 413.217L1022.22 357.787L1001.6 401.95H1001.61C998.404 408.796 995.348 415.3 992.339 421.762L991.144 424.294C988.12 430.736 985.123 437.174 982.031 443.785C989.497 444.437 994.454 444.843 999.271 445.28C986.786 467.563 974.932 488.751 962.789 510.411C968.908 512.675 972.173 513.891 977.258 515.741C970.38 525.835 964.826 533.974 958.174 543.693C946.567 523.654 936.289 505.927 925.525 487.363C930.211 486.317 933.45 485.59 939.751 484.202C928.278 465.117 917.854 447.813 905.767 427.715C894.327 448.081 884.663 465.278 875.043 482.429C879.795 485.71 882.932 487.896 886.331 490.259C874.433 512.443 863.335 533.152 852.026 554.254C840.926 529.231 830.815 506.535 820.733 483.788C824.386 483.264 827.847 482.763 833.892 481.908C818.073 454.522 803.132 428.739 787.027 400.94C773.704 420.603 762.619 436.965 751.917 452.762C737.68 427.896 724.16 404.273 710.307 380.073C716.108 377.871 720.827 376.065 727.598 373.47C712.223 346.001 697.956 320.495 681.797 291.605C666.016 322.343 652.202 349.216 637.672 377.486C645.603 379.495 650.644 380.755 656.843 382.325C643.395 405.17 630.752 426.648 617.456 449.228C623.921 450.947 628.857 452.252 635.515 454.022C628.425 465.227 622.488 474.591 615.224 486.085C600.4 462.888 587.321 442.456 573.075 420.156C581.637 419.289 587.896 418.64 596.396 417.776C579.799 385.724 563.977 355.198 546.659 321.779C530.068 355.413 515.568 384.762 500.565 415.148C507.924 417.007 512.455 418.19 518.378 419.697C505.731 440.737 493.963 460.347 482.184 479.936C487.29 483.344 490.525 485.489 494.568 488.171C488.768 495.881 484.037 502.173 478.499 509.541C470.666 497.558 464.368 487.926 458.061 478.303C461.72 475.601 467.163 472.014 466.99 471.68C455.83 450.149 444.185 428.894 431.955 406.445C439.296 405.409 445.832 404.533 455.458 403.165C437.675 368.552 420.855 335.761 401.731 298.508C383.273 335.228 367.727 366.201 351.89 397.752C360.187 400.239 365.728 401.917 372.434 403.913C363.181 417.552 355.036 429.568 345.812 443.153C325.304 409.767 305.77 378.056 284.859 344.062C295.882 342.352 305.242 340.901 317.257 339.042C301.5 311.763 286.724 286.219 271.441 259.75C276.946 257.999 281.293 256.61 288.496 254.304C276.61 231.504 265.551 210.321 252.457 185.202C237.559 212.993 225.469 235.57 212.394 259.977C220.738 261.44 225.862 262.348 232.166 263.451C216.681 289.725 201.969 314.719 184.914 343.63C199.193 343.63 207.987 343.63 220.953 343.63C207.71 362.438 196.881 377.817 184.807 394.939C165.731 367.726 148.538 343.15 129.43 315.839C142.288 314.418 152.375 313.306 165.791 311.811C147.564 284.181 130.428 258.219 111.984 230.255C128.182 229.272 142.598 228.387 160.78 227.309C136.905 191.742 115.005 159.169 91.6749 124.383C102.793 123.71 109.997 123.284 120.787 122.631C103.118 92.2333 86.7712 64.1117 68.4493 32.5638C49.6389 64.3262 32.9496 92.5133 15.2623 122.408C28.3081 123.54 37.2961 124.329 49.898 125.441C32.5593 149.15 16.4807 171.152 0 193.687V1213H1586V203.448C1563.43 168.048 1542.43 135.108 1519.82 99.5951Z" fill="#00695C"/>
</svg>
