<svg width="1440" height="1526" viewBox="0 0 1440 1526" fill="none" xmlns="http://www.w3.org/2000/svg">
<path d="M60.0869 90.3992C49.0022 90.3992 40.874 90.3992 29.0643 90.3992C46.549 59.5225 62.3834 31.5257 80.244 0C96.4978 31.5636 110.344 58.457 124.813 86.589C115.037 88.2358 107.978 89.4095 99.7654 90.7859C118.662 121.39 136.787 150.725 156.385 182.472C139.455 182.472 127.391 182.472 113.864 182.472C130.396 211.507 146.182 239.196 163.58 269.77C150.004 269.77 140.812 269.77 128.418 269.77C146.466 297.642 162.977 323.135 179.996 349.398C189.469 335.469 197.526 323.6 207.253 309.303C195.849 309.303 187.297 309.303 175.584 309.303C193.182 279.229 209.25 251.806 226.201 222.868C217.492 222.265 210.997 221.821 200.91 221.143C216.707 192.632 231.435 166.042 248.173 135.803C263.107 166.301 275.828 192.272 288.928 219.039C279.959 221.056 274.119 222.384 267.254 223.895C282.285 249.566 296.529 273.84 312.848 301.652C299.651 301.652 292.055 301.652 280.965 301.652C299.31 331.994 316.018 359.663 334.084 389.558C348.339 365.712 361.033 344.482 374.996 321.106C368.545 321.815 365.58 322.164 358.753 322.899C369.711 303.927 389.026 270.511 389.026 270.511L431 324.5L407.644 326.612C407.644 326.612 427.482 360.426 437.829 378.068C431.234 379.842 427.412 380.88 421.548 382.479C434.677 404.272 446.641 424.153 459.887 446.168C469.809 429.932 478.167 416.3 486.904 402.052C480.929 400.364 476.682 399.145 471.816 397.768C476.295 388.752 480.407 380.483 483.082 375.064L511.881 324.752L530.604 364.836H530.596C533.504 371.051 536.279 376.954 539.011 382.819L540.096 385.118C542.841 390.964 545.563 396.808 548.37 402.809C541.592 403.401 537.091 403.769 532.717 404.166C544.053 424.391 554.816 443.624 565.841 463.283C560.285 465.338 557.321 466.442 552.704 468.121C558.949 477.283 563.991 484.671 570.031 493.492C580.57 475.303 589.902 459.213 599.674 442.363C595.42 441.414 592.479 440.754 586.759 439.494C597.175 422.171 606.64 406.465 617.613 388.222C628 406.708 636.775 422.317 645.509 437.885C641.195 440.863 638.347 442.848 635.26 444.992C646.064 465.128 656.14 483.924 666.407 503.078C676.486 480.366 685.666 459.765 694.82 439.118C691.504 438.642 688.361 438.188 682.872 437.412C697.235 412.555 710.801 389.153 725.423 363.92C737.52 381.767 747.585 396.619 757.301 410.957C757.301 410.957 782.503 384.946 795.08 362.979C789.814 360.981 785.529 359.342 779.381 356.987C793.341 332.054 806.295 308.903 820.966 282.68C835.294 310.58 847.837 334.972 861.029 360.632C853.828 362.455 849.252 363.599 843.623 365.024C855.833 385.76 879.384 407.75 879.384 407.75C873.515 409.31 869.033 410.494 862.987 412.101C869.425 422.271 874.816 430.77 881.41 441.203C894.87 420.148 906.745 401.603 919.68 381.362C911.906 380.575 906.223 379.985 898.506 379.201C913.575 350.109 927.94 322.402 943.664 292.069C958.728 322.596 971.893 349.236 985.515 376.816C978.833 378.503 974.719 379.577 969.342 380.945C980.824 400.042 991.509 417.842 1002.2 435.622C997.568 438.715 994.63 440.662 990.96 443.096C996.226 450.095 1000.52 455.806 1005.55 462.494C1012.66 451.617 1018.38 442.875 1024.11 434.14C1020.78 431.687 1015.84 428.431 1016 428.128C1026.13 408.585 1036.71 389.293 1047.81 368.917C1041.14 367.976 1035.21 367.181 1026.47 365.94C1042.62 334.522 1057.89 304.759 1075.25 270.946C1092.01 304.275 1106.12 332.388 1120.5 361.026C1112.97 363.284 1107.94 364.807 1101.85 366.618C1110.25 378.998 1117.65 389.904 1126.02 402.236C1144.64 371.932 1162.38 343.148 1181.36 312.293C1171.36 310.741 1162.86 309.424 1151.95 307.737C1166.25 282.977 1179.67 259.791 1193.55 235.767C1188.55 234.177 1184.6 232.917 1178.06 230.824C1188.85 210.128 1198.89 190.901 1210.78 168.102C1224.31 193.327 1235.29 213.82 1247.16 235.972C1239.58 237.3 1234.93 238.125 1229.21 239.126C1243.27 262.974 1256.62 285.66 1272.11 311.901C1259.14 311.901 1251.16 311.901 1239.39 311.901C1251.41 328.973 1261.24 342.932 1272.21 358.473C1289.53 333.773 1305.14 311.466 1322.48 286.676C1310.81 285.387 1301.65 284.378 1289.47 283.02C1306.02 257.941 1321.58 234.377 1338.32 208.995C1323.62 208.103 1310.53 207.3 1294.02 206.321C1315.7 174.038 1335.58 144.473 1356.76 112.898C1346.67 112.287 1340.13 111.9 1330.33 111.308C1346.37 83.7171 1361.22 58.192 1377.85 29.5571C1394.93 58.3867 1410.08 83.9712 1426.14 111.105C1414.3 112.133 1406.14 112.85 1394.7 113.858C1410.44 135.378 1425.04 155.349 1440 175.804V829V1526H0V829V184.663C20.4951 152.531 39.5566 122.633 60.0869 90.3992Z" fill="url(#paint0_linear_478_1470)"/>
<defs>
<linearGradient id="paint0_linear_478_1470" x1="720" y1="0" x2="720" y2="1512.96" gradientUnits="userSpaceOnUse">
<stop stop-color="#004F46"/>
<stop offset="1" stop-color="#001C19"/>
</linearGradient>
</defs>
</svg>
