<svg width="1440" height="646" viewBox="0 0 1440 646" fill="none" xmlns="http://www.w3.org/2000/svg">
<g clip-path="url(#clip0_3912_2536)">
<rect width="1633.79" height="645.525" transform="translate(-129.788)" fill="white"/>
<path d="M135.905 491.043C146.178 500.002 165.446 498.719 172.927 492.035C179.168 486.468 177.159 479.93 167.841 476.905C157.057 473.399 146.513 472.682 136.76 476.868C128.803 480.295 128.41 485.048 135.89 491.031L135.905 491.043ZM139.731 486.492C149.691 479.616 157.769 479.076 168.629 484.167C169.794 488.701 166.626 489.826 162.821 490.766C155.224 492.634 146.757 491.318 139.746 486.504L139.731 486.492Z" fill="#00362F"/>
<path d="M1152.39 343.872C1142.12 334.912 1122.85 336.196 1115.37 342.879C1109.13 348.446 1111.14 354.985 1120.46 358.01C1131.24 361.515 1141.79 362.232 1151.54 358.047C1159.5 354.62 1159.89 349.866 1152.41 343.884L1152.39 343.872ZM1148.57 348.423C1138.61 355.299 1130.53 355.839 1119.67 350.748C1118.51 346.213 1121.67 345.088 1125.48 344.148C1133.08 342.281 1141.54 343.596 1148.55 348.411L1148.57 348.423Z" fill="#00362F"/>
<path d="M268.214 279.701C257.941 270.742 238.673 272.026 231.192 278.709C224.951 284.276 226.96 290.815 236.278 293.839C247.062 297.345 257.606 298.062 267.359 293.876C275.316 290.449 275.709 285.696 268.229 279.713L268.214 279.701ZM264.388 284.253C254.428 291.128 246.35 291.668 235.49 286.578C234.325 282.043 237.493 280.918 241.298 279.978C248.895 278.11 257.362 279.426 264.373 284.24L264.388 284.253Z" fill="#00362F"/>
<path d="M1439.8 42.6528C1429.53 33.6933 1410.26 34.9772 1402.78 41.6604C1396.54 47.2277 1398.55 53.7663 1407.87 56.7908C1418.65 60.2967 1429.2 61.0137 1438.95 56.8278C1446.91 53.4008 1447.3 48.6473 1439.82 42.6651L1439.8 42.6528ZM1435.98 47.2043C1426.02 54.0801 1417.94 54.6201 1407.08 49.5293C1405.92 44.9944 1409.08 43.8694 1412.89 42.9295C1420.49 41.062 1428.95 42.3775 1435.96 47.1919L1435.98 47.2043Z" fill="#00362F"/>
<path d="M679.658 58.2636C669.385 49.3042 650.118 50.588 642.637 57.2712C636.395 62.8385 638.404 69.3771 647.722 72.4016C658.506 75.9075 669.05 76.6245 678.803 72.4387C686.76 69.0116 687.153 64.2581 679.673 58.276L679.658 58.2636ZM675.833 62.8151C665.872 69.6909 657.795 70.2309 646.934 65.1401C645.77 60.6053 648.938 59.4802 652.742 58.5403C660.34 56.6728 668.806 57.9884 675.817 62.8028L675.833 62.8151Z" fill="#00362F"/>
<path d="M1157.67 223.919C1159.77 219.325 1162.77 214.972 1163.71 210.049C1164.36 206.537 1163.08 201.96 1161.13 198.358C1158.67 193.862 1154.24 192.87 1149.35 194.401C1139.04 197.609 1131.86 212.623 1135.29 222.982C1136.4 226.368 1137.71 229.546 1141.57 230.596C1145.8 231.748 1150.02 231.488 1152.81 228.409C1154.24 226.833 1155.51 225.156 1156.88 223.53C1157.15 223.655 1157.43 223.793 1157.69 223.919L1157.67 223.919ZM1155.5 199.006C1159.8 211.289 1151.87 223.736 1140.82 223.212C1138.75 214.211 1144.09 205.08 1155.5 199.006Z" fill="#00362F"/>
<path d="M130.634 610.996C128.529 615.59 125.527 619.943 124.592 624.865C123.942 628.378 125.223 632.954 127.174 636.557C129.626 641.053 134.061 642.045 138.955 640.514C149.262 637.306 156.438 622.292 153.012 611.933C151.899 608.546 150.589 605.369 146.729 604.318C142.498 603.167 138.281 603.427 135.492 606.506C134.063 608.082 132.786 609.758 131.419 611.385C131.154 611.259 130.873 611.122 130.607 610.996L130.634 610.996ZM132.797 635.909C128.498 623.625 136.435 611.179 147.476 611.702C149.55 620.704 144.214 629.835 132.797 635.909Z" fill="#00362F"/>
<path d="M1206.63 257.402C1211.07 259.815 1215.2 263.108 1220.04 264.374C1223.5 265.26 1228.14 264.289 1231.86 262.583C1236.51 260.437 1237.8 256.072 1236.6 251.079C1234.1 240.565 1219.63 232.383 1209.07 235.107C1205.62 235.991 1202.37 237.085 1201.06 240.871C1199.63 245.02 1199.6 249.251 1202.48 252.245C1203.96 253.78 1205.54 255.168 1207.07 256.643C1206.93 256.9 1206.77 257.172 1206.63 257.429L1206.63 257.402ZM1231.6 256.921C1219.07 260.387 1207.2 251.619 1208.47 240.623C1217.58 239.158 1226.32 245.105 1231.6 256.921Z" fill="#00362F"/>
<path d="M273.485 159.748C275.59 155.154 278.592 150.801 279.528 145.878C280.177 142.366 278.896 137.79 276.945 134.187C274.494 129.691 270.058 128.699 265.164 130.23C254.857 133.438 247.681 148.452 251.107 158.811C252.22 162.197 253.53 165.375 257.39 166.425C261.621 167.577 265.838 167.317 268.627 164.238C270.056 162.662 271.333 160.985 272.7 159.359C272.965 159.484 273.246 159.622 273.512 159.748L273.485 159.748ZM271.322 134.835C275.621 147.118 267.684 159.565 256.643 159.041C254.569 150.04 259.905 140.909 271.322 134.835Z" fill="#00362F"/>
<path d="M81.6734 577.513C77.2386 575.1 73.1038 571.807 68.2625 570.54C64.8066 569.655 60.1606 570.626 56.44 572.332C51.7945 574.478 50.507 578.843 51.7025 583.835C54.2036 594.35 68.6785 602.532 79.2306 599.808C82.68 598.924 85.9343 597.83 87.2412 594.044C88.674 589.894 88.6995 585.664 85.8199 582.669C84.3456 581.135 82.7615 579.746 81.2333 578.271C81.3761 578.014 81.5324 577.743 81.6753 577.486L81.6734 577.513ZM56.7062 577.994C69.2344 574.527 81.1 583.296 79.8339 594.292C70.7256 595.757 61.9879 589.81 56.7062 577.994Z" fill="#00362F"/>
<path d="M1319.93 352.32C1317.38 340.972 1314.7 338.727 1304.06 339.67C1299.42 340.089 1294.88 341.587 1290.87 343.435C1286.93 345.258 1286.12 349.588 1288.27 353.18C1289.65 355.467 1293.93 357.671 1296.93 358.122C1305.81 359.461 1312.68 355.771 1319.92 352.307L1319.93 352.32ZM1313.81 346.426C1308.07 352.896 1303.15 353.996 1294.04 350.835C1298.18 342.944 1302.15 342.049 1313.81 346.426Z" fill="#00362F"/>
<path d="M322.449 193.231C326.883 195.644 331.018 198.937 335.86 200.204C339.315 201.09 343.961 200.119 347.682 198.412C352.328 196.266 353.615 191.901 352.42 186.909C349.919 176.394 335.444 168.213 324.892 170.937C321.442 171.82 318.188 172.915 316.881 176.701C315.448 180.85 315.423 185.081 318.302 188.075C319.776 189.609 321.361 190.998 322.889 192.473C322.746 192.73 322.59 193.001 322.447 193.258L322.449 193.231ZM347.416 192.75C334.888 196.217 323.022 187.448 324.288 176.452C333.396 174.988 342.134 180.934 347.416 192.75Z" fill="#00362F"/>
<path d="M1105.49 285.449C1104.69 280.631 1093.94 265.562 1087.33 259.171C1086.99 267.126 1094.97 279.058 1105.49 285.449Z" fill="#00362F"/>
<path d="M1107.23 267.396C1104.42 257.779 1101.52 248.258 1094.62 238.263C1093.39 240.233 1092.13 241.199 1092.39 241.953C1095.6 250.981 1099.37 259.871 1107.22 267.384L1107.23 267.396Z" fill="#00362F"/>
<path d="M1083.08 279.887C1086.51 291.175 1094.22 296.062 1104.05 300.139C1104.78 293.635 1098.03 292.983 1095.21 289.778C1092.35 286.511 1088.3 284.047 1083.08 279.887Z" fill="#00362F"/>
<path d="M-31.6287 482.595C-29.0781 493.943 -26.3967 496.188 -15.7552 495.245C-11.1134 494.825 -6.57995 493.327 -2.5666 491.48C1.36906 489.657 2.18537 485.326 0.0322416 481.734C-1.34926 479.447 -5.63055 477.243 -8.63122 476.793C-17.5085 475.454 -24.3791 479.143 -31.6131 482.607L-31.6287 482.595ZM-25.5051 488.488C-19.7702 482.018 -14.8448 480.919 -5.73749 484.08C-9.87856 491.971 -13.8437 492.865 -25.5051 488.488Z" fill="#00362F"/>
<path d="M435.75 288.149C433.2 276.801 430.518 274.557 419.877 275.499C415.235 275.919 410.702 277.417 406.688 279.264C402.753 281.087 401.936 285.418 404.089 289.01C405.471 291.297 409.752 293.501 412.753 293.952C421.63 295.29 428.501 291.601 435.735 288.137L435.75 288.149ZM429.627 282.256C423.892 288.726 418.966 289.825 409.859 286.664C414 278.773 417.965 277.879 429.627 282.256Z" fill="#00362F"/>
<path d="M1045.05 397.238C1038.94 393.558 1034.53 394.361 1029.97 396.049C1033.65 402.078 1035.8 402.297 1045.05 397.238Z" fill="#00362F"/>
<path d="M1420.45 290.376C1417.9 279.028 1415.22 276.784 1404.58 277.726C1399.94 278.146 1395.4 279.644 1391.39 281.491C1387.45 283.314 1386.64 287.645 1388.79 291.237C1390.17 293.524 1394.45 295.728 1397.45 296.179C1406.33 297.517 1413.2 293.828 1420.44 290.364L1420.45 290.376ZM1414.33 284.483C1408.59 290.953 1403.67 292.052 1394.56 288.892C1398.7 281 1402.67 280.106 1414.33 284.483Z" fill="#00362F"/>
<path d="M776.078 125.376C773.528 114.028 770.846 111.784 760.205 112.726C755.563 113.146 751.03 114.644 747.016 116.491C743.081 118.314 742.264 122.645 744.417 126.237C745.799 128.524 750.08 130.728 753.081 131.179C761.958 132.517 768.829 128.828 776.063 125.364L776.078 125.376ZM769.955 119.483C764.22 125.953 759.295 127.052 750.187 123.892C754.328 116 758.293 115.106 769.955 119.483Z" fill="#00362F"/>
<path d="M182.813 549.466C183.619 554.284 194.361 569.353 200.971 575.744C201.31 567.789 193.334 555.857 182.813 549.466Z" fill="#00362F"/>
<path d="M181.07 567.519C183.884 577.135 186.789 586.656 193.68 596.652C194.913 594.681 196.173 593.716 195.91 592.962C192.704 583.933 188.935 575.043 181.085 567.531L181.07 567.519Z" fill="#00362F"/>
<path d="M205.221 555.028C201.795 543.739 194.089 538.853 184.25 534.776C183.528 541.28 190.277 541.931 193.091 545.136C195.953 548.403 200.001 550.868 205.221 555.028Z" fill="#00362F"/>
<path d="M1020.42 285.24C1017.46 285.163 1014.34 284.634 1011.61 285.212C1010.5 285.436 1009.34 288.282 1009.85 289.506C1010.34 290.658 1013.29 292.159 1014.6 291.883C1017.13 291.382 1019.24 289.739 1021.52 288.571C1021.15 287.465 1020.79 286.346 1020.42 285.24Z" fill="#00362F"/>
<path d="M221.31 221.279C220.504 216.46 209.762 201.391 203.152 195C202.813 202.955 210.789 214.887 221.31 221.279Z" fill="#00362F"/>
<path d="M223.053 203.226C220.239 193.609 217.335 184.088 210.443 174.092C209.21 176.063 207.95 177.028 208.213 177.782C211.419 186.811 215.188 195.701 223.038 203.213L223.053 203.226Z" fill="#00362F"/>
<path d="M198.902 215.717C202.328 227.005 210.034 231.892 219.873 235.968C220.595 229.464 213.846 228.813 211.032 225.608C208.17 222.341 204.122 219.876 198.902 215.717Z" fill="#00362F"/>
<path d="M243.25 437.677C249.359 441.357 253.779 440.553 258.336 438.865C254.652 432.837 252.505 432.618 243.25 437.677Z" fill="#00362F"/>
<path d="M160.873 333.067C154.764 329.388 150.344 330.191 145.787 331.879C149.471 337.907 151.618 338.126 160.873 333.067Z" fill="#00362F"/>
<path d="M1011.18 14.1944C1008.81 15.9711 1006.03 17.4961 1004.24 19.6419C1003.51 20.5069 1004.36 23.463 1005.52 24.1012C1006.62 24.7058 1009.86 24.0502 1010.72 23.0188C1012.4 21.0561 1013.04 18.4556 1014.1 16.1237C1013.13 15.4861 1012.15 14.8319 1011.18 14.1944Z" fill="#00362F"/>
<path d="M1332.46 96.0187C1326.35 92.3393 1321.93 93.1424 1317.38 94.8303C1321.06 100.859 1323.21 101.078 1332.46 96.0187Z" fill="#00362F"/>
<path d="M572.314 111.63C566.204 107.95 561.785 108.753 557.227 110.441C560.911 116.47 563.059 116.688 572.314 111.63Z" fill="#00362F"/>
<path d="M851.947 218.282C854.317 216.506 857.097 214.981 858.879 212.835C859.612 211.97 858.763 209.014 857.599 208.375C856.507 207.771 853.26 208.426 852.4 209.458C850.727 211.42 850.087 214.021 849.02 216.353C849.996 216.99 850.971 217.645 851.947 218.282Z" fill="#00362F"/>
<path d="M905.514 237.413C903.144 239.19 900.365 240.715 898.582 242.861C897.85 243.726 898.698 246.682 899.862 247.32C900.954 247.925 904.202 247.269 905.062 246.238C906.734 244.275 907.375 241.674 908.442 239.342C907.465 238.705 906.49 238.051 905.514 237.413Z" fill="#00362F"/>
<path d="M267.883 549.675C270.842 549.752 273.967 550.28 276.695 549.703C277.805 549.479 278.969 546.632 278.45 545.409C277.968 544.257 275.014 542.755 273.701 543.031C271.173 543.533 269.061 545.176 266.78 546.344C267.151 547.45 267.512 548.568 267.883 549.675Z" fill="#00362F"/>
<path d="M136.24 221.069C133.281 220.992 130.156 220.464 127.428 221.041C126.318 221.265 125.154 224.112 125.673 225.335C126.155 226.487 129.109 227.989 130.422 227.713C132.95 227.211 135.062 225.568 137.343 224.401C136.972 223.294 136.612 222.176 136.24 221.069Z" fill="#00362F"/>
<path d="M434.029 221.289C431.07 221.212 427.945 220.683 425.217 221.26C424.107 221.484 422.943 224.331 423.462 225.554C423.944 226.707 426.899 228.208 428.212 227.932C430.739 227.431 432.851 225.787 435.132 224.62C434.761 223.513 434.401 222.395 434.029 221.289Z" fill="#00362F"/>
<path d="M993.323 307.922C996.897 307.13 999.608 307.052 1001.39 305.892C1002.17 305.384 1001.05 302.636 1000.79 300.895C998.238 301.009 995.494 300.744 993.221 301.465C992.553 301.679 993.217 304.65 993.323 307.922Z" fill="#00362F"/>
<path d="M520.586 22.3138C524.16 21.5222 526.87 21.4439 528.649 20.2839C529.43 19.7756 528.308 17.0281 528.052 15.2868C525.501 15.4009 522.756 15.1359 520.484 15.8573C519.816 16.071 520.48 19.0418 520.586 22.3138Z" fill="#00362F"/>
<path d="M758.376 180.85C755.416 180.774 752.291 180.245 749.564 180.822C748.454 181.046 747.29 183.893 747.808 185.116C748.291 186.268 751.245 187.77 752.558 187.494C755.086 186.992 757.198 185.349 759.479 184.182C759.107 183.075 758.747 181.957 758.376 180.85Z" fill="#00362F"/>
<path d="M231.328 295.881C234.288 295.957 237.413 296.486 240.14 295.909C241.25 295.685 242.414 292.838 241.896 291.615C241.413 290.463 238.459 288.961 237.146 289.237C234.618 289.739 232.506 291.382 230.225 292.549C230.597 293.656 230.957 294.774 231.328 295.881Z" fill="#00362F"/>
<path d="M1056.98 539.034C1054.02 538.957 1050.89 538.429 1048.16 539.006C1047.05 539.23 1045.89 542.076 1046.41 543.3C1046.89 544.452 1049.85 545.953 1051.16 545.678C1053.69 545.176 1055.8 543.533 1058.08 542.365C1057.71 541.259 1057.35 540.14 1056.98 539.034Z" fill="#00362F"/>
<path d="M869.661 293.032C871.976 290.192 874.054 288.448 874.732 286.434C875.03 285.55 872.449 284.09 871.17 282.883C869.238 284.557 866.921 286.052 865.584 288.029C865.192 288.611 867.552 290.53 869.661 293.032Z" fill="#00362F"/>
<path d="M1344.39 237.815C1341.43 237.738 1338.3 237.21 1335.57 237.787C1334.46 238.011 1333.3 240.857 1333.82 242.081C1334.3 243.233 1337.26 244.734 1338.57 244.459C1341.1 243.957 1343.21 242.314 1345.49 241.146C1345.12 240.04 1344.76 238.921 1344.39 237.815Z" fill="#00362F"/>
<path d="M723.766 315.413C721.397 317.19 718.617 318.715 716.835 320.861C716.102 321.726 716.951 324.682 718.115 325.32C719.207 325.925 722.454 325.269 723.314 324.238C724.987 322.275 725.627 319.675 726.694 317.343C725.718 316.705 724.743 316.051 723.766 315.413Z" fill="#00362F"/>
<path d="M1216.38 362.015C1211.37 359.082 1207.65 359.316 1204.77 363.444C1209.49 366.221 1213.36 365.745 1216.38 362.015Z" fill="#00362F"/>
<path d="M564.538 519.501C566.908 517.725 569.687 516.199 571.47 514.054C572.203 513.189 571.354 510.233 570.19 509.594C569.098 508.99 565.85 509.645 564.991 510.677C563.318 512.639 562.678 515.24 561.61 517.572C562.587 518.209 563.562 518.864 564.538 519.501Z" fill="#00362F"/>
<path d="M1176.41 335.5C1182.72 335.453 1185.76 334.176 1185.33 328.87C1178.98 327.839 1176.28 329.56 1176.41 335.5Z" fill="#00362F"/>
<path d="M21.3314 173.243C18.9616 175.019 16.1822 176.544 14.3995 178.69C13.667 179.555 14.5158 182.511 15.6798 183.15C16.7716 183.754 20.0193 183.099 20.8789 182.067C22.5518 180.104 23.192 177.504 24.2592 175.172C23.2828 174.534 22.3078 173.88 21.3314 173.243Z" fill="#00362F"/>
<path d="M974.809 280.477C978.44 285.519 980.921 287.062 983.488 284.421C984.379 283.503 983.693 281.285 983.733 279.668C981.223 279.902 978.724 280.124 974.824 280.489L974.809 280.477Z" fill="#00362F"/>
<path d="M382.79 597.501C385.16 595.725 387.939 594.2 389.722 592.054C390.455 591.189 389.606 588.233 388.442 587.595C387.35 586.99 384.102 587.646 383.243 588.677C381.57 590.64 380.93 593.24 379.862 595.572C380.839 596.21 381.814 596.864 382.79 597.501Z" fill="#00362F"/>
<path d="M294.978 526.993C291.404 527.784 288.693 527.862 286.914 529.022C286.134 529.531 287.255 532.278 287.511 534.02C290.063 533.905 292.807 534.171 295.079 533.449C295.748 533.235 295.083 530.265 294.978 526.993Z" fill="#00362F"/>
<path d="M1298.77 233.052C1302.4 238.094 1304.89 239.637 1307.45 236.996C1308.34 236.078 1307.66 233.86 1307.7 232.243C1305.19 232.477 1302.69 232.7 1298.79 233.064L1298.77 233.052Z" fill="#00362F"/>
<path d="M109.141 243.752C112.715 242.96 115.426 242.882 117.204 241.722C117.985 241.213 116.864 238.466 116.608 236.725C114.056 236.839 111.311 236.574 109.039 237.295C108.371 237.509 109.035 240.48 109.141 243.752Z" fill="#00362F"/>
<path d="M406.935 243.971C410.51 243.179 413.22 243.101 414.999 241.941C415.779 241.433 414.658 238.685 414.402 236.944C411.85 237.058 409.106 236.793 406.834 237.514C406.166 237.728 406.83 240.699 406.935 243.971Z" fill="#00362F"/>
<path d="M869.896 96.9392C874.175 101.443 876.841 102.636 879.028 99.6708C879.787 98.6409 878.807 96.5361 878.629 94.9286C876.173 95.501 873.727 96.0596 869.913 96.9493L869.896 96.9392Z" fill="#00362F"/>
<path d="M731.277 203.533C734.851 202.741 737.562 202.663 739.34 201.503C740.121 200.994 739 198.247 738.744 196.506C736.192 196.62 733.448 196.355 731.175 197.076C730.507 197.29 731.171 200.261 731.277 203.533Z" fill="#00362F"/>
<path d="M993.227 135.537C988.948 131.033 986.282 129.841 984.095 132.806C983.336 133.836 984.316 135.94 984.494 137.548C986.95 136.976 989.396 136.417 993.21 135.527L993.227 135.537Z" fill="#00362F"/>
<path d="M813.18 262.585C819.151 264.288 822.052 263.959 822.432 260.292C822.563 259.019 820.651 257.705 819.682 256.411C817.857 258.153 816.034 259.879 813.2 262.585L813.18 262.585Z" fill="#00362F"/>
<path d="M258.423 273.198C254.849 273.99 252.138 274.068 250.36 275.228C249.579 275.737 250.7 278.484 250.956 280.225C253.508 280.111 256.253 280.376 258.525 279.655C259.193 279.441 258.529 276.47 258.423 273.198Z" fill="#00362F"/>
<path d="M1029.88 561.716C1033.45 560.925 1036.16 560.846 1037.94 559.686C1038.72 559.178 1037.6 556.43 1037.34 554.689C1034.79 554.803 1032.05 554.538 1029.78 555.26C1029.11 555.473 1029.77 558.444 1029.88 561.716Z" fill="#00362F"/>
<path d="M996.559 348.506C996.021 346.387 995.695 345.156 995.396 343.925C993.718 344.214 991.903 344.267 990.44 344.897C990.01 345.082 990.342 347.691 990.667 347.781C992.293 348.254 994.026 348.261 996.559 348.506Z" fill="#00362F"/>
<path d="M1283.97 47.2865C1283.43 45.168 1283.1 43.9373 1282.81 42.7062C1281.13 42.9949 1279.31 43.048 1277.85 43.6778C1277.42 43.863 1277.75 46.4722 1278.08 46.562C1279.7 47.0348 1281.43 47.0424 1283.97 47.2865Z" fill="#00362F"/>
<path d="M523.821 62.8974C523.283 60.7788 522.958 59.5481 522.659 58.317C520.98 58.6057 519.165 58.6588 517.702 59.2886C517.272 59.4739 517.604 62.0831 517.929 62.1729C519.556 62.6456 521.288 62.6532 523.821 62.8974Z" fill="#00362F"/>
<path d="M1317.29 260.497C1320.87 259.706 1323.58 259.627 1325.35 258.467C1326.14 257.959 1325.01 255.211 1324.76 253.47C1322.21 253.584 1319.46 253.319 1317.19 254.041C1316.52 254.254 1317.19 257.225 1317.29 260.497Z" fill="#00362F"/>
<path d="M1297.03 376.664C1300.5 377.82 1303.31 377.717 1305.48 372.706C1301.35 373.474 1298.82 373.925 1296.29 374.4C1296.54 375.151 1296.79 375.901 1297.05 376.652L1297.03 376.664Z" fill="#00362F"/>
<path d="M607.614 188.642C609.929 185.802 612.007 184.058 612.685 182.044C612.983 181.161 610.402 179.701 609.123 178.493C607.191 180.167 604.874 181.662 603.538 183.639C603.146 184.221 605.506 186.14 607.614 188.642Z" fill="#00362F"/>
<path d="M418.641 541.883C416.326 544.723 414.248 546.467 413.57 548.481C413.272 549.364 415.853 550.824 417.132 552.032C419.063 550.358 421.381 548.863 422.717 546.886C423.109 546.304 420.749 544.385 418.641 541.883Z" fill="#00362F"/>
<path d="M71.9146 472.899C76.9307 475.832 80.645 475.599 83.5326 471.471C78.8079 468.694 74.9353 469.17 71.9146 472.899Z" fill="#00362F"/>
<path d="M332.203 297.845C327.187 294.912 323.473 295.146 320.585 299.273C325.31 302.051 329.182 301.574 332.203 297.845Z" fill="#00362F"/>
<path d="M944.655 437.523C956.665 443.963 975.161 438.409 980.965 430.224C985.81 423.403 982.396 417.477 972.639 416.61C961.345 415.6 950.907 417.256 942.332 423.514C935.338 428.632 936.014 433.353 944.637 437.515L944.655 437.523ZM947.371 432.232C955.549 423.305 963.303 420.975 975.023 423.512C977.169 427.673 974.331 429.477 970.832 431.243C963.841 434.76 955.295 435.368 947.388 432.241L947.371 432.232Z" fill="#00362F"/>
<path d="M1232.06 146.304C1244.07 152.744 1262.57 147.19 1268.37 139.005C1273.22 132.184 1269.81 126.258 1260.05 125.391C1248.75 124.381 1238.32 126.037 1229.74 132.295C1222.75 137.413 1223.42 142.134 1232.05 146.296L1232.06 146.304ZM1234.78 141.013C1242.96 132.086 1250.71 129.756 1262.43 132.293C1264.58 136.454 1261.74 138.258 1258.24 140.024C1251.25 143.541 1242.7 144.149 1234.8 141.022L1234.78 141.013Z" fill="#00362F"/>
<path d="M471.918 151.915C483.928 158.355 502.424 152.801 508.228 144.615C513.073 137.795 509.659 131.869 499.902 131.002C488.609 129.992 478.17 131.648 469.595 137.906C462.601 143.024 463.277 147.745 471.901 151.906L471.918 151.915ZM474.634 146.624C482.812 137.697 490.566 135.367 502.287 137.904C504.432 142.065 501.594 143.869 498.095 145.635C491.105 149.152 482.558 149.76 474.652 146.633L474.634 146.624Z" fill="#00362F"/>
<path d="M743.647 76.4072C738.631 73.4744 734.917 73.7081 732.029 77.8359C736.754 80.6131 740.627 80.1368 743.647 76.4072Z" fill="#00362F"/>
<path d="M1284.26 422.329C1283.23 427.277 1281.27 432.191 1281.46 437.198C1281.61 440.767 1283.87 444.942 1286.58 448.018C1289.97 451.854 1294.51 451.83 1298.94 449.245C1308.28 443.816 1311.93 427.578 1306.28 418.245C1304.44 415.192 1302.46 412.387 1298.46 412.225C1294.08 412.047 1290.03 413.242 1287.99 416.866C1286.95 418.722 1286.08 420.642 1285.11 422.532C1284.82 422.469 1284.52 422.398 1284.23 422.335L1284.26 422.329ZM1291.91 446.131C1284.99 435.117 1289.95 421.212 1300.83 419.256C1304.86 427.568 1301.69 437.66 1291.91 446.131Z" fill="#00362F"/>
<path d="M111.893 499.415C105.582 499.462 102.544 500.738 102.97 506.045C109.316 507.076 112.015 505.354 111.893 499.415Z" fill="#00362F"/>
<path d="M292.225 271.329C298.536 271.283 301.574 270.006 301.148 264.699C294.802 263.668 292.103 265.39 292.225 271.329Z" fill="#00362F"/>
<path d="M703.669 49.8913C709.981 49.8446 713.019 48.5679 712.592 43.2614C706.247 42.2303 703.547 43.952 703.669 49.8913Z" fill="#00362F"/>
<path d="M1066.87 165.481C1071.88 175.973 1075 177.563 1085.16 174.267C1089.59 172.822 1093.68 170.349 1097.18 167.652C1100.61 164.996 1100.44 160.592 1097.54 157.572C1095.69 155.651 1091.02 154.458 1088 154.689C1079.04 155.366 1073.17 160.497 1066.89 165.489L1066.87 165.481ZM1074.15 169.858C1078.3 162.27 1082.86 160.099 1092.44 161.146C1090.16 169.764 1086.49 171.521 1074.15 169.858Z" fill="#00362F"/>
<path d="M313.496 554.438C309.865 549.395 307.384 547.853 304.816 550.494C303.926 551.412 304.612 553.63 304.572 555.247C307.082 555.012 309.581 554.79 313.48 554.425L313.496 554.438Z" fill="#00362F"/>
<path d="M90.6267 216.306C94.2579 221.349 96.7386 222.892 99.3061 220.25C100.197 219.332 99.5104 217.114 99.551 215.497C97.0404 215.732 94.5414 215.954 90.6421 216.319L90.6267 216.306Z" fill="#00362F"/>
<path d="M388.421 216.526C392.052 221.568 394.533 223.111 397.101 220.469C397.991 219.552 397.305 217.334 397.345 215.717C394.835 215.951 392.336 216.173 388.437 216.538L388.421 216.526Z" fill="#00362F"/>
<path d="M1316.2 188.913C1311.41 189.85 1296.66 201.011 1290.46 207.801C1298.41 207.925 1310.11 199.618 1316.2 188.913Z" fill="#00362F"/>
<path d="M1298.13 187.657C1288.61 190.734 1279.18 193.9 1269.39 201.069C1271.39 202.25 1272.39 203.485 1273.14 203.201C1282.06 199.747 1290.84 195.734 1298.12 187.673L1298.13 187.657Z" fill="#00362F"/>
<path d="M1311.26 211.495C1322.43 207.759 1327.1 199.913 1330.9 189.954C1324.39 189.407 1323.93 196.181 1320.8 199.084C1317.62 202.038 1315.27 206.157 1311.26 211.495Z" fill="#00362F"/>
<path d="M712.764 176.088C716.395 181.13 718.876 182.673 721.443 180.031C722.334 179.114 721.648 176.896 721.688 175.279C719.178 175.513 716.679 175.735 712.779 176.1L712.764 176.088Z" fill="#00362F"/>
<path d="M882.037 31.4513C877.42 33.0283 864.311 46.0853 859.085 53.6523C866.979 52.6987 877.444 42.8834 882.037 31.4513Z" fill="#00362F"/>
<path d="M863.964 32.654C854.943 36.9935 846.032 41.4065 837.299 49.8359C839.441 50.7355 840.596 51.8241 841.297 51.4419C849.674 46.8105 857.823 41.6457 863.954 32.6713L863.964 32.654Z" fill="#00362F"/>
<path d="M880.186 54.4951C890.754 49.2802 894.32 40.8733 896.743 30.4904C890.217 30.831 890.669 37.6058 887.967 40.9052C885.211 44.2635 883.439 48.663 880.186 54.4951Z" fill="#00362F"/>
<path d="M276.941 300.644C273.31 295.602 270.829 294.059 268.262 296.7C267.371 297.618 268.057 299.836 268.017 301.453C270.527 301.218 273.026 300.996 276.926 300.631L276.941 300.644Z" fill="#00362F"/>
<path d="M981.09 201.024C985.708 199.447 998.816 186.39 1004.04 178.823C996.148 179.777 985.683 189.592 981.09 201.024Z" fill="#00362F"/>
<path d="M999.164 199.822C1008.18 195.482 1017.1 191.069 1025.83 182.64C1023.69 181.74 1022.53 180.652 1021.83 181.034C1013.45 185.665 1005.3 190.83 999.173 199.804L999.164 199.822Z" fill="#00362F"/>
<path d="M982.942 177.98C972.373 183.195 968.807 191.602 966.384 201.985C972.91 201.645 972.458 194.87 975.161 191.57C977.916 188.212 979.689 183.813 982.942 177.98Z" fill="#00362F"/>
<path d="M1011.36 534.271C1014.99 539.313 1017.48 540.856 1020.04 538.215C1020.93 537.297 1020.25 535.079 1020.29 533.462C1017.78 533.696 1015.28 533.919 1011.38 534.283L1011.36 534.271Z" fill="#00362F"/>
<path d="M1037.41 361.531C1044.19 363.753 1048.31 361.983 1052.38 359.32C1047.45 354.266 1045.31 354.532 1037.41 361.531Z" fill="#00362F"/>
<path d="M414.592 168.882C418.223 173.924 420.704 175.467 423.271 172.825C424.162 171.908 423.476 169.689 423.516 168.073C421.006 168.307 418.507 168.529 414.607 168.894L414.592 168.882Z" fill="#00362F"/>
<path d="M582.487 398.158C586.766 402.662 589.432 403.855 591.619 400.89C592.378 399.86 591.398 397.755 591.22 396.148C588.764 396.72 586.318 397.279 582.504 398.168L582.487 398.158Z" fill="#00362F"/>
<path d="M705.819 436.757C701.54 432.253 698.874 431.06 696.687 434.025C695.928 435.055 696.908 437.16 697.086 438.767C699.542 438.195 701.988 437.636 705.802 436.747L705.819 436.757Z" fill="#00362F"/>
<path d="M109.045 71.3669C104.766 66.863 102.1 65.6704 99.9126 68.6353C99.154 69.6653 100.134 71.77 100.312 73.3776C102.768 72.8051 105.214 72.2465 109.028 71.3569L109.045 71.3669Z" fill="#00362F"/>
<path d="M934.875 18.3508C937.671 17.3771 940.781 16.7675 943.13 15.2638C944.09 14.6619 944.176 11.5872 943.26 10.6257C942.402 9.71813 939.109 9.35702 937.978 10.0789C935.789 11.4414 934.392 13.7252 932.669 15.6235C933.406 16.5274 934.138 17.4468 934.875 18.3508Z" fill="#00362F"/>
<path d="M928.248 214.126C925.451 215.1 922.341 215.709 919.993 217.213C919.033 217.815 918.947 220.889 919.863 221.851C920.72 222.758 924.014 223.12 925.145 222.398C927.333 221.035 928.731 218.751 930.454 216.853C929.716 215.949 928.985 215.03 928.248 214.126Z" fill="#00362F"/>
<path d="M551.13 158.196C557.101 159.899 560.002 159.569 560.382 155.903C560.513 154.63 558.601 153.315 557.632 152.021C555.807 153.764 553.984 155.489 551.15 158.196L551.13 158.196Z" fill="#00362F"/>
<path d="M475.125 572.329C469.154 570.627 466.252 570.956 465.873 574.622C465.742 575.895 467.654 577.21 468.623 578.504C470.448 576.761 472.271 575.036 475.105 572.329L475.125 572.329Z" fill="#00362F"/>
<path d="M291.747 486.409C292.285 488.528 292.61 489.758 292.909 490.989C294.587 490.701 296.403 490.648 297.865 490.018C298.295 489.833 297.963 487.223 297.639 487.134C296.012 486.661 294.279 486.653 291.747 486.409Z" fill="#00362F"/>
<path d="M112.376 284.335C111.838 282.217 111.513 280.986 111.214 279.755C109.535 280.043 107.72 280.097 106.257 280.726C105.827 280.912 106.159 283.521 106.484 283.611C108.111 284.083 109.843 284.091 112.376 284.335Z" fill="#00362F"/>
<path d="M734.513 244.116C733.975 241.998 733.65 240.767 733.351 239.536C731.672 239.824 729.857 239.878 728.395 240.507C727.964 240.693 728.296 243.302 728.621 243.392C730.248 243.864 731.98 243.872 734.513 244.116Z" fill="#00362F"/>
<path d="M910.883 244.923C913.949 242.919 916.457 241.889 917.713 240.175C918.264 239.423 916.247 237.249 915.394 235.71C913.047 236.718 910.385 237.44 908.513 238.918C907.964 239.354 909.632 241.899 910.883 244.923Z" fill="#00362F"/>
<path d="M412.853 312.494C416.318 313.65 419.13 313.546 421.297 308.536C417.172 309.304 414.637 309.754 412.105 310.229C412.358 310.98 412.611 311.731 412.864 312.482L412.853 312.494Z" fill="#00362F"/>
<path d="M1165.65 132.907C1171.19 134.646 1174.76 133.589 1176.65 128.92C1171.43 127.268 1167.76 128.597 1165.65 132.907Z" fill="#00362F"/>
<path d="M405.5 148.518C411.043 150.257 414.612 149.2 416.507 144.531C411.283 142.879 407.614 144.208 405.5 148.518Z" fill="#00362F"/>
<path d="M1397.56 314.721C1401.02 315.876 1403.83 315.773 1406 310.762C1401.87 311.531 1399.34 311.981 1396.81 312.456C1397.06 313.207 1397.31 313.958 1397.57 314.709L1397.56 314.721Z" fill="#00362F"/>
<path d="M824.293 91.0561C827.758 92.2119 830.57 92.1087 832.737 87.0978C828.613 87.8663 826.077 88.3166 823.546 88.7915C823.799 89.5423 824.052 90.2932 824.305 91.044L824.293 91.0561Z" fill="#00362F"/>
<path d="M1210.52 149.828C1204.38 151.283 1201.7 153.205 1203.3 158.283C1209.72 157.871 1211.96 155.59 1210.52 149.828Z" fill="#00362F"/>
<path d="M450.376 165.438C444.234 166.893 441.556 168.816 443.154 173.894C449.569 173.482 451.817 171.201 450.376 165.438Z" fill="#00362F"/>
<path d="M1335.66 370.043C1332.79 367.749 1330.37 367.352 1328.49 369.567C1328.04 370.099 1328.65 372.281 1329.31 372.595C1332.11 373.956 1334.52 373.732 1335.66 370.043Z" fill="#00362F"/>
<path d="M1436.18 308.099C1433.31 305.806 1430.89 305.408 1429.01 307.623C1428.56 308.156 1429.17 310.337 1429.83 310.651C1432.63 312.012 1435.04 311.788 1436.18 308.099Z" fill="#00362F"/>
<path d="M862.926 84.4348C860.048 82.1411 857.632 81.7434 855.753 83.9586C855.304 84.4912 855.911 86.6724 856.571 86.9864C859.371 88.3479 861.778 88.1235 862.926 84.4348Z" fill="#00362F"/>
<path d="M1091.91 206.041C1097.8 203.768 1100.19 201.5 1097.92 196.685C1091.62 197.963 1089.7 200.527 1091.91 206.041Z" fill="#00362F"/>
<path d="M343.645 397.392C331.636 390.952 313.139 396.506 307.335 404.691C302.491 411.512 305.905 417.437 315.662 418.305C326.955 419.315 337.393 417.659 345.968 411.401C352.962 406.283 352.287 401.561 343.663 397.4L343.645 397.392ZM340.93 402.683C332.751 411.61 324.997 413.94 313.277 411.402C311.132 407.242 313.969 405.438 317.469 403.672C324.459 400.155 333.005 399.547 340.912 402.674L340.93 402.683Z" fill="#00362F"/>
<path d="M60.4731 373.353C72.4825 379.793 90.9787 374.239 96.7831 366.053C101.628 359.232 98.2134 353.307 88.4565 352.439C77.1632 351.43 66.7249 353.086 58.1497 359.344C51.1561 364.461 51.8316 369.183 60.4552 373.344L60.4731 373.353ZM63.1884 368.062C71.3668 359.135 79.121 356.805 90.8413 359.342C92.9865 363.503 90.1489 365.307 86.6496 367.073C79.6594 370.59 71.113 371.198 63.2062 368.07L63.1884 368.062Z" fill="#00362F"/>
<path d="M347.883 72.1338C359.893 78.5737 378.389 73.0196 384.193 64.8341C389.038 58.0133 385.624 52.0879 375.867 51.2203C364.573 50.2109 354.135 51.8665 345.56 58.1249C338.566 63.2425 339.242 67.964 347.865 72.1252L347.883 72.1338ZM350.599 66.8428C358.777 57.9159 366.531 55.5857 378.251 58.1231C380.397 62.2837 377.559 64.0878 374.06 65.8536C367.07 69.3706 358.523 69.9788 350.616 66.8513L350.599 66.8428Z" fill="#00362F"/>
<path d="M4.04062 412.586C5.06999 407.638 7.02708 402.724 6.84284 397.717C6.6936 394.148 4.42619 389.973 1.722 386.897C-1.66915 383.061 -6.21429 383.084 -10.6435 385.67C-19.977 391.099 -23.6284 407.337 -17.9821 416.67C-16.1431 419.723 -14.1585 422.528 -10.1615 422.69C-5.7809 422.868 -1.72788 421.673 0.305219 418.048C1.34744 416.193 2.21879 414.273 3.18887 412.383C3.47562 412.446 3.78038 412.517 4.06713 412.58L4.04062 412.586ZM-3.61556 388.784C3.31047 399.798 -1.65434 413.703 -12.5341 415.659C-16.56 407.347 -13.392 397.254 -3.61556 388.784Z" fill="#00362F"/>
<path d="M1095.54 398.207C1096.53 400.152 1097.12 401.279 1097.69 402.412C1099.26 401.756 1101.02 401.299 1102.31 400.358C1102.68 400.082 1101.78 397.612 1101.44 397.597C1099.75 397.5 1098.06 397.879 1095.54 398.207Z" fill="#00362F"/>
<path d="M400.077 358.158C399.048 363.106 397.091 368.02 397.275 373.028C397.424 376.597 399.691 380.772 402.396 383.848C405.787 387.684 410.332 387.66 414.761 385.075C424.095 379.646 427.746 363.408 422.1 354.075C420.261 351.022 418.276 348.217 414.279 348.055C409.899 347.877 405.846 349.072 403.812 352.696C402.77 354.552 401.899 356.471 400.929 358.362C400.642 358.299 400.337 358.227 400.051 358.164L400.077 358.158ZM407.733 381.96C400.807 370.946 405.772 357.041 416.652 355.086C420.678 363.397 417.51 373.49 407.733 381.96Z" fill="#00362F"/>
<path d="M1384.78 360.385C1383.75 365.333 1381.8 370.247 1381.98 375.254C1382.13 378.823 1384.4 382.998 1387.1 386.074C1390.49 389.91 1395.04 389.887 1399.47 387.301C1408.8 381.872 1412.45 365.634 1406.81 356.301C1404.97 353.248 1402.98 350.443 1398.99 350.281C1394.6 350.103 1390.55 351.298 1388.52 354.922C1387.48 356.778 1386.6 358.698 1385.63 360.588C1385.35 360.525 1385.04 360.454 1384.76 360.391L1384.78 360.385ZM1392.44 384.187C1385.51 373.173 1390.48 359.268 1401.36 357.312C1405.38 365.624 1402.22 375.717 1392.44 384.187Z" fill="#00362F"/>
<path d="M811.521 136.72C810.492 141.668 808.535 146.582 808.719 151.59C808.868 155.159 811.136 159.334 813.84 162.41C817.231 166.246 821.776 166.222 826.206 163.637C835.539 158.208 839.19 141.97 833.544 132.637C831.705 129.584 829.721 126.779 825.724 126.617C821.343 126.439 817.29 127.634 815.257 131.258C814.215 133.114 813.343 135.033 812.373 136.924C812.086 136.861 811.782 136.789 811.495 136.726L811.521 136.72ZM819.178 160.522C812.252 149.508 817.216 135.603 828.096 133.648C832.122 141.959 828.954 152.052 819.178 160.522Z" fill="#00362F"/>
<path d="M508.844 368.215C503.831 357.722 500.717 356.133 490.553 359.428C486.122 360.874 482.036 363.346 478.535 366.044C475.105 368.7 475.273 373.103 478.172 376.124C480.028 378.045 484.692 379.238 487.718 379.007C496.67 378.329 502.546 373.199 508.826 368.206L508.844 368.215ZM501.562 363.837C497.413 371.425 492.856 373.597 483.274 372.549C485.554 363.932 489.22 362.175 501.562 363.837Z" fill="#00362F"/>
<path d="M1083.77 136.636C1080.13 136.283 1077.41 137.011 1076.42 142.38C1080.27 140.71 1082.64 139.705 1085 138.676C1084.59 138.001 1084.17 137.326 1083.76 136.65L1083.77 136.636Z" fill="#00362F"/>
<path d="M779.457 466.7C784.47 477.192 787.584 478.782 797.747 475.486C802.179 474.041 806.265 471.568 809.765 468.871C813.196 466.215 813.027 461.811 810.129 458.791C808.273 456.87 803.608 455.677 800.583 455.908C791.631 456.585 785.755 461.716 779.475 466.708L779.457 466.7ZM786.738 471.077C790.888 463.489 795.445 461.318 805.026 462.365C802.747 470.983 799.081 472.74 786.738 471.077Z" fill="#00362F"/>
<path d="M182.688 101.31C187.701 111.803 190.815 113.392 200.979 110.097C205.41 108.651 209.496 106.179 212.997 103.482C216.427 100.826 216.259 96.4219 213.36 93.4013C211.504 91.4805 206.84 90.2877 203.814 90.5186C194.862 91.1961 188.986 96.3266 182.706 101.319L182.688 101.31ZM189.97 105.688C194.119 98.1001 198.676 95.9287 208.258 96.976C205.978 105.593 202.312 107.35 189.97 105.688Z" fill="#00362F"/>
<path d="M1047.59 151.717C1050.9 153.31 1053.35 153.158 1054.69 150.579C1055.01 149.96 1053.93 147.969 1053.21 147.81C1050.18 147.108 1047.88 147.865 1047.59 151.717Z" fill="#00362F"/>
<path d="M259.516 344.782C264.304 343.845 279.056 332.684 285.257 325.895C277.307 325.77 265.612 334.078 259.516 344.782Z" fill="#00362F"/>
<path d="M277.584 346.038C287.108 342.961 296.534 339.796 306.325 332.627C304.324 331.445 303.327 330.21 302.581 330.494C293.655 333.948 284.883 337.961 277.596 346.023L277.584 346.038Z" fill="#00362F"/>
<path d="M264.458 322.2C253.282 325.936 248.613 333.782 244.809 343.741C251.322 344.288 251.789 337.514 254.913 334.611C258.096 331.657 260.447 327.538 264.458 322.2Z" fill="#00362F"/>
<path d="M925.302 71.1223C911.913 68.6034 895.946 79.4779 892.873 89.0339C890.305 96.9991 895.343 101.62 904.907 99.5044C915.98 97.061 925.436 92.334 931.73 83.78C936.86 76.7908 934.796 72.4923 925.321 71.1251L925.302 71.1223ZM924.304 76.9866C919.19 87.9655 912.497 92.5262 900.557 93.6414C897.26 90.3209 899.424 87.7447 902.229 85.0056C907.837 79.5437 915.804 76.3861 924.284 76.9838L924.304 76.9866Z" fill="#00362F"/>
<path d="M1028.79 490.132C1024 491.069 1009.25 502.231 1003.05 509.02C1011 509.145 1022.69 500.837 1028.79 490.132Z" fill="#00362F"/>
<path d="M1010.72 488.876C1001.2 491.954 991.771 495.119 981.979 502.288C983.98 503.47 984.978 504.705 985.724 504.421C994.649 500.967 1003.42 496.954 1010.71 488.892L1010.72 488.876Z" fill="#00362F"/>
<path d="M1023.84 512.714C1035.02 508.979 1039.69 501.132 1043.49 491.173C1036.98 490.627 1036.51 497.4 1033.39 500.303C1030.2 503.257 1027.85 507.376 1023.84 512.714Z" fill="#00362F"/>
<path d="M937.821 161.355C951.21 163.874 967.177 152.999 970.25 143.443C972.818 135.478 967.78 130.857 958.216 132.973C947.143 135.416 937.687 140.143 931.393 148.697C926.263 155.686 928.327 159.985 937.802 161.352L937.821 161.355ZM938.819 155.49C943.933 144.512 950.627 139.951 962.566 138.836C965.863 142.156 963.7 144.732 960.894 147.471C955.286 152.933 947.319 156.091 938.839 155.493L938.819 155.49Z" fill="#00362F"/>
<path d="M432.02 124.743C427.232 125.68 412.48 136.841 406.28 143.63C414.23 143.755 425.925 135.448 432.02 124.743Z" fill="#00362F"/>
<path d="M413.952 123.487C404.429 126.564 395.003 129.73 385.211 136.898C387.212 138.08 388.21 139.315 388.956 139.031C397.881 135.577 406.653 131.564 413.94 123.503L413.952 123.487Z" fill="#00362F"/>
<path d="M427.075 147.325C438.251 143.589 442.92 135.743 446.723 125.784C440.211 125.237 439.744 132.011 436.62 134.914C433.436 137.868 431.086 141.987 427.075 147.325Z" fill="#00362F"/>
<path d="M774.452 374.22C771.071 377.973 766.906 381.228 764.543 385.644C762.874 388.802 762.729 393.552 763.514 397.574C764.511 402.599 768.447 404.874 773.574 404.879C784.368 404.905 795.699 392.728 795.525 381.817C795.474 378.252 795.174 374.828 791.804 372.669C788.111 370.303 784.009 369.288 780.428 371.39C778.594 372.467 776.874 373.684 775.085 374.826C774.869 374.627 774.642 374.411 774.426 374.212L774.452 374.22ZM769.074 398.64C768.641 385.632 779.932 376.132 790.311 379.939C789.601 389.149 781.782 396.264 769.074 398.64Z" fill="#00362F"/>
<path d="M1061.86 73.0016C1058.48 76.7543 1054.31 80.0089 1051.95 84.4257C1050.28 87.583 1050.14 92.3334 1050.92 96.3551C1051.92 101.38 1055.86 103.656 1060.98 103.66C1071.78 103.687 1083.11 91.5095 1082.93 80.5987C1082.88 77.0336 1082.58 73.6092 1079.21 71.4505C1075.52 69.0843 1071.42 68.0691 1067.84 70.1717C1066 71.2478 1064.28 72.465 1062.49 73.6075C1062.28 73.4084 1062.05 73.1926 1061.83 72.9934L1061.86 73.0016ZM1056.48 97.4214C1056.05 84.4128 1067.34 74.9136 1077.72 78.7202C1077.01 87.9306 1069.19 95.0452 1056.48 97.4214Z" fill="#00362F"/>
<path d="M786.646 294.696C778.71 286.203 775.263 285.626 766.562 291.834C762.771 294.549 759.619 298.139 757.092 301.767C754.619 305.334 756.105 309.482 759.777 311.489C762.125 312.76 766.931 312.491 769.747 311.358C778.079 308.013 782.139 301.348 786.627 294.693L786.646 294.696ZM778.386 292.718C776.711 301.205 773.019 304.65 763.567 306.541C763.149 297.636 766.117 294.855 778.386 292.718Z" fill="#00362F"/>
<path d="M594.623 332.67C590.006 334.247 576.897 347.304 571.671 354.871C579.565 353.918 590.03 344.102 594.623 332.67Z" fill="#00362F"/>
<path d="M576.55 333.873C567.529 338.213 558.618 342.626 549.885 351.055C552.027 351.955 553.182 353.043 553.883 352.661C562.26 348.03 570.409 342.865 576.54 333.89L576.55 333.873Z" fill="#00362F"/>
<path d="M592.772 355.714C603.34 350.499 606.906 342.093 609.329 331.71C602.803 332.05 603.255 338.825 600.552 342.124C597.797 345.483 596.025 349.882 592.772 355.714Z" fill="#00362F"/>
<path d="M861.467 349.259C856.86 347.649 838.501 349.836 829.727 352.567C836.529 356.69 850.812 355.423 861.467 349.259Z" fill="#00362F"/>
<path d="M846.496 339.048C836.722 336.895 826.989 334.868 814.923 336.113C816.056 338.143 816.295 339.714 817.082 339.845C826.529 341.371 836.125 342.336 846.478 339.056L846.496 339.048Z" fill="#00362F"/>
<path d="M845.823 366.26C857.354 368.679 865.338 364.262 873.639 357.583C868.291 353.822 864.476 359.435 860.316 360.364C856.079 361.307 851.975 363.676 845.823 366.26Z" fill="#00362F"/>
<path d="M1148.88 48.04C1144.27 46.4307 1125.91 48.6174 1117.14 51.3481C1123.94 55.4712 1138.22 54.2048 1148.88 48.04Z" fill="#00362F"/>
<path d="M1133.9 37.8296C1124.13 35.6769 1114.4 33.6493 1102.33 34.894C1103.46 36.9247 1103.7 38.495 1104.49 38.6267C1113.94 40.1524 1123.53 41.1177 1133.89 37.8373L1133.9 37.8296Z" fill="#00362F"/>
<path d="M1133.23 65.0411C1144.76 67.4604 1152.75 63.0435 1161.05 56.3649C1155.7 52.6038 1151.88 58.2166 1147.72 59.1457C1143.49 60.0884 1139.38 62.458 1133.23 65.0411Z" fill="#00362F"/>
<path d="M693.681 502.244C698.299 500.667 711.407 487.609 716.634 480.042C708.74 480.996 698.275 490.811 693.681 502.244Z" fill="#00362F"/>
<path d="M711.755 501.041C720.776 496.701 729.687 492.288 738.42 483.859C736.278 482.959 735.123 481.871 734.422 482.253C726.045 486.884 717.896 492.049 711.765 501.023L711.755 501.041Z" fill="#00362F"/>
<path d="M695.533 479.2C684.965 484.415 681.398 492.821 678.975 503.204C685.501 502.864 685.05 496.089 687.752 492.79C690.508 489.431 692.28 485.032 695.533 479.2Z" fill="#00362F"/>
<path d="M859.709 171.561C852.58 171.485 849.175 174.418 846.098 178.184C852.323 181.515 854.285 180.615 859.709 171.561Z" fill="#00362F"/>
<path d="M96.908 136.854C101.526 135.277 114.634 122.22 119.86 114.653C111.966 115.606 101.501 125.422 96.908 136.854Z" fill="#00362F"/>
<path d="M114.982 135.651C124.002 131.311 132.913 126.898 141.646 118.469C139.505 117.569 138.349 116.481 137.649 116.863C129.272 121.494 121.122 126.659 114.991 135.633L114.982 135.651Z" fill="#00362F"/>
<path d="M98.7597 113.81C88.1914 119.025 84.6249 127.432 82.202 137.815C88.728 137.474 88.2762 130.699 90.9788 127.4C93.7342 124.042 95.5066 119.642 98.7597 113.81Z" fill="#00362F"/>
<path d="M1003.41 60.916C1010.54 60.9919 1013.95 58.0589 1017.03 54.2929C1010.8 50.9617 1008.84 51.8614 1003.41 60.916Z" fill="#00362F"/>
<path d="M250.891 473.384C244.116 471.162 239.986 472.931 235.919 475.594C240.853 480.648 242.995 480.382 250.891 473.384Z" fill="#00362F"/>
<path d="M923.731 356.818C926.532 357.777 929.356 359.218 932.131 359.484C933.257 359.603 935.218 357.235 935.089 355.913C934.973 354.669 932.602 352.351 931.267 352.221C928.705 351.942 926.199 352.878 923.674 353.308C923.698 354.475 923.707 355.651 923.731 356.818Z" fill="#00362F"/>
<path d="M1211.14 55.5984C1213.94 56.5582 1216.77 57.9986 1219.54 58.2647C1220.67 58.3835 1222.63 56.0159 1222.5 54.6933C1222.38 53.4493 1220.01 51.1317 1218.68 51.0015C1216.11 50.7231 1213.61 51.6584 1211.08 52.0892C1211.11 53.2562 1211.12 54.4314 1211.14 55.5984Z" fill="#00362F"/>
<path d="M450.995 71.2093C453.795 72.169 456.619 73.6095 459.394 73.8756C460.521 73.9943 462.481 71.6267 462.352 70.3041C462.236 69.0601 459.865 66.7425 458.53 66.6123C455.968 66.3339 453.462 67.2693 450.937 67.7001C450.961 68.867 450.97 70.0423 450.995 71.2093Z" fill="#00362F"/>
<path d="M153.229 297.36C160.004 299.583 164.133 297.813 168.2 295.15C163.266 290.096 161.124 290.362 153.229 297.36Z" fill="#00362F"/>
<path d="M956.361 343.29C952.714 342.975 950.104 342.238 948.061 342.812C947.164 343.063 947.413 346.021 947.137 347.759C949.606 348.414 952.146 349.489 954.529 349.482C955.231 349.478 955.485 346.444 956.361 343.29Z" fill="#00362F"/>
<path d="M1243.77 42.0714C1240.12 41.7562 1237.51 41.019 1235.47 41.5931C1234.57 41.8443 1234.82 44.8019 1234.55 46.5402C1237.02 47.1956 1239.55 48.2706 1241.94 48.2628C1242.64 48.259 1242.89 45.2254 1243.77 42.0714Z" fill="#00362F"/>
<path d="M483.624 57.6823C479.977 57.367 477.368 56.6299 475.324 57.2039C474.427 57.4552 474.676 60.4128 474.4 62.151C476.87 62.8065 479.409 63.8814 481.793 63.8736C482.494 63.8699 482.748 60.8362 483.624 57.6823Z" fill="#00362F"/>
<path d="M1324.82 60.3119C1331.6 62.5343 1335.73 60.7645 1339.79 58.1014C1334.86 53.0475 1332.72 53.3136 1324.82 60.3119Z" fill="#00362F"/>
<path d="M564.673 75.9227C571.448 78.1451 575.577 76.3754 579.644 73.7122C574.71 68.6584 572.568 68.9244 564.673 75.9227Z" fill="#00362F"/>
<path d="M989.659 54.3294C983.851 54.343 980.766 56.4275 980.362 61.4512C985.841 61.451 988.94 59.0771 989.659 54.3294Z" fill="#00362F"/>
<path d="M201.939 369.707C199.037 370.293 195.873 370.475 193.343 371.647C192.31 372.113 191.81 375.148 192.587 376.225C193.314 377.24 196.528 378.044 197.747 377.482C200.099 376.429 201.792 374.355 203.756 372.708C203.147 371.712 202.547 370.702 201.939 369.707Z" fill="#00362F"/>
<path d="M873.464 178.147C879.272 178.134 882.357 176.049 882.761 171.025C877.282 171.026 874.183 173.399 873.464 178.147Z" fill="#00362F"/>
<path d="M1086.36 465.208C1089.26 464.622 1092.43 464.439 1094.96 463.268C1095.99 462.801 1096.49 459.767 1095.71 458.69C1094.99 457.674 1091.77 456.87 1090.55 457.432C1088.2 458.486 1086.51 460.559 1084.55 462.207C1085.15 463.202 1085.75 464.212 1086.36 465.208Z" fill="#00362F"/>
<path d="M941.779 51.7289C947.198 48.4893 949.173 45.8481 946.122 41.4879C940.128 43.8156 938.671 46.6688 941.779 51.7289Z" fill="#00362F"/>
<path d="M1373.78 163.989C1376.68 163.403 1379.84 163.221 1382.37 162.049C1383.4 161.583 1383.9 158.548 1383.13 157.471C1382.4 156.456 1379.19 155.652 1377.97 156.214C1375.62 157.267 1373.92 159.341 1371.96 160.988C1372.57 161.984 1373.17 162.994 1373.78 163.989Z" fill="#00362F"/>
<path d="M613.625 179.6C616.527 179.014 619.691 178.831 622.221 177.66C623.253 177.193 623.754 174.159 622.976 173.082C622.249 172.066 619.035 171.263 617.817 171.824C615.464 172.878 613.771 174.952 611.808 176.599C612.416 177.594 613.016 178.604 613.625 179.6Z" fill="#00362F"/>
<path d="M921.344 180.748C915.925 183.987 913.95 186.628 917 190.989C922.994 188.661 924.452 185.808 921.344 180.748Z" fill="#00362F"/>
<path d="M647.467 319.57C650.263 318.596 653.373 317.987 655.722 316.483C656.681 315.881 656.768 312.806 655.852 311.845C654.994 310.937 651.701 310.576 650.569 311.298C648.381 312.66 646.984 314.944 645.261 316.842C645.998 317.746 646.729 318.666 647.467 319.57Z" fill="#00362F"/>
<path d="M965.833 375.025C963.874 369.126 961.968 366.91 958.729 368.662C957.605 369.271 957.597 371.593 957.075 373.124C959.541 373.652 961.992 374.189 965.822 375.009L965.833 375.025Z" fill="#00362F"/>
<path d="M1253.24 73.8058C1251.28 67.9068 1249.38 65.6915 1246.14 67.4429C1245.01 68.0517 1245.01 70.374 1244.49 71.9047C1246.95 72.433 1249.4 72.9696 1253.23 73.7895L1253.24 73.8058Z" fill="#00362F"/>
<path d="M493.092 89.4167C491.133 83.5176 489.227 81.3023 485.988 83.0538C484.864 83.6626 484.856 85.9848 484.335 87.5156C486.8 88.0438 489.251 88.5804 493.081 89.4004L493.092 89.4167Z" fill="#00362F"/>
<path d="M965.4 303.596C965.28 305.779 965.223 307.05 965.141 308.315C966.829 308.542 968.577 309.035 970.16 308.872C970.626 308.824 971.089 306.235 970.806 306.052C969.394 305.114 967.744 304.588 965.4 303.596Z" fill="#00362F"/>
<path d="M1252.81 2.37722C1252.69 4.55992 1252.63 5.83163 1252.55 7.09596C1254.24 7.32333 1255.99 7.81634 1257.57 7.65348C1258.04 7.60559 1258.5 5.01642 1258.22 4.83345C1256.8 3.89501 1255.15 3.36888 1252.81 2.37722Z" fill="#00362F"/>
<path d="M492.659 17.9881C492.54 20.1708 492.482 21.4425 492.4 22.7068C494.088 22.9342 495.836 23.4272 497.42 23.2643C497.885 23.2164 498.348 20.6273 498.065 20.4443C496.654 19.5058 495.003 18.9797 492.659 17.9881Z" fill="#00362F"/>
<path d="M779.203 327.299C782.776 326.539 785.149 325.024 784.484 319.604C781.316 322.358 779.357 324.032 777.414 325.725C778.012 326.244 778.609 326.763 779.207 327.282L779.203 327.299Z" fill="#00362F"/>
<path d="M1066.62 26.0798C1070.19 25.3202 1072.56 23.8055 1071.9 18.3857C1068.73 21.1392 1066.77 22.8131 1064.83 24.5059C1065.42 25.0252 1066.02 25.5444 1066.62 26.0636L1066.62 26.0798Z" fill="#00362F"/>
<path d="M640.839 515.345C638.043 516.319 634.933 516.928 632.584 518.432C631.624 519.034 631.538 522.108 632.454 523.07C633.312 523.977 636.605 524.339 637.736 523.617C639.925 522.254 641.322 519.97 643.045 518.072C642.307 517.168 641.576 516.249 640.839 515.345Z" fill="#00362F"/>
<path d="M809.17 302.006C805.529 301.487 803.244 302.369 802.744 305.231C802.625 305.919 804.252 307.492 804.98 307.428C808.083 307.183 810.045 305.769 809.17 302.006Z" fill="#00362F"/>
<path d="M1096.58 0.786718C1092.94 0.267739 1090.66 1.1494 1090.16 4.01211C1090.04 4.69938 1091.67 6.27245 1092.39 6.20855C1095.5 5.96335 1097.46 4.54961 1096.58 0.786718Z" fill="#00362F"/>
<path d="M44.065 149.955C41.2689 150.929 38.1586 151.539 35.8101 153.042C34.8503 153.644 34.7642 156.719 35.6802 157.68C36.5377 158.588 39.831 158.949 40.9623 158.227C43.1507 156.865 44.548 154.581 46.2709 152.683C45.5335 151.779 44.8024 150.859 44.065 149.955Z" fill="#00362F"/>
<path d="M180.574 397.869C183.882 396.299 186.507 395.617 187.982 394.089C188.63 393.419 186.925 390.992 186.288 389.351C183.826 390.032 181.092 390.387 179.037 391.597C178.434 391.955 179.742 394.703 180.574 397.869Z" fill="#00362F"/>
<path d="M1107.73 437.046C1104.42 438.616 1101.79 439.298 1100.32 440.825C1099.67 441.495 1101.38 443.923 1102.01 445.564C1104.47 444.882 1107.21 444.528 1109.26 443.317C1109.87 442.96 1108.56 440.212 1107.73 437.046Z" fill="#00362F"/>
<path d="M1395.14 135.827C1391.83 137.397 1389.21 138.078 1387.73 139.606C1387.08 140.276 1388.79 142.704 1389.43 144.344C1391.89 143.663 1394.62 143.309 1396.68 142.098C1397.28 141.741 1395.97 138.993 1395.14 135.827Z" fill="#00362F"/>
<path d="M634.989 151.438C631.681 153.008 629.057 153.689 627.581 155.217C626.933 155.887 628.638 158.315 629.275 159.955C631.738 159.274 634.472 158.92 636.526 157.709C637.13 157.351 635.821 154.604 634.989 151.438Z" fill="#00362F"/>
<path d="M664.827 288.773C661.761 290.776 659.253 291.807 657.997 293.521C657.446 294.272 659.463 296.447 660.316 297.986C662.663 296.977 665.325 296.256 667.196 294.778C667.746 294.342 666.078 291.797 664.827 288.773Z" fill="#00362F"/>
<path d="M623.474 546.142C626.54 544.138 629.048 543.108 630.304 541.394C630.855 540.642 628.838 538.468 627.985 536.929C625.637 537.937 622.976 538.659 621.104 540.137C620.554 540.573 622.222 543.118 623.474 546.142Z" fill="#00362F"/>
<path d="M26.7008 180.753C29.7663 178.749 32.2748 177.718 33.5304 176.004C34.0818 175.253 32.0645 173.078 31.2115 171.539C28.8639 172.548 26.2028 173.269 24.3309 174.747C23.781 175.183 25.4491 177.728 26.7008 180.753Z" fill="#00362F"/>
<path d="M410.067 400.789C404.525 399.05 400.956 400.107 399.06 404.776C404.284 406.428 407.953 405.099 410.067 400.789Z" fill="#00362F"/>
<path d="M878.238 434.126C883.781 435.865 887.35 434.808 889.246 430.139C884.021 428.487 880.352 429.816 878.238 434.126Z" fill="#00362F"/>
<path d="M281.465 68.7369C287.008 70.4757 290.576 69.4185 292.472 64.7497C287.248 63.0976 283.579 64.4266 281.465 68.7369Z" fill="#00362F"/>
<path d="M365.192 383.868C371.333 382.413 374.011 380.49 372.414 375.413C365.998 375.825 363.75 378.106 365.192 383.868Z" fill="#00362F"/>
<path d="M923.113 451.047C916.971 452.502 914.294 454.424 915.891 459.502C922.307 459.09 924.555 456.809 923.113 451.047Z" fill="#00362F"/>
<path d="M326.342 85.6572C320.2 87.1121 317.522 89.035 319.12 94.1127C325.535 93.7008 327.783 91.4197 326.342 85.6572Z" fill="#00362F"/>
<path d="M483.801 327.654C477.912 329.928 475.519 332.196 477.788 337.01C484.089 335.733 486.008 333.168 483.801 327.654Z" fill="#00362F"/>
<path d="M804.501 507.26C810.389 504.987 812.782 502.719 810.514 497.904C804.213 499.182 802.294 501.746 804.501 507.26Z" fill="#00362F"/>
<path d="M207.728 141.871C213.617 139.597 216.01 137.33 213.741 132.515C207.44 133.792 205.521 136.357 207.728 141.871Z" fill="#00362F"/>
<path d="M156.414 375.249C161.077 379.354 163.839 380.304 165.753 377.156C166.417 376.062 165.254 374.053 164.934 372.468C162.538 373.257 160.152 374.032 156.432 375.258L156.414 375.249Z" fill="#00362F"/>
<path d="M1131.89 459.665C1127.23 455.561 1124.47 454.611 1122.55 457.759C1121.89 458.853 1123.05 460.862 1123.37 462.447C1125.77 461.658 1128.15 460.883 1131.87 459.657L1131.89 459.665Z" fill="#00362F"/>
<path d="M1419.3 158.446C1414.64 154.342 1411.87 153.392 1409.96 156.54C1409.3 157.634 1410.46 159.643 1410.78 161.228C1413.17 160.439 1415.56 159.664 1419.28 158.438L1419.3 158.446Z" fill="#00362F"/>
<path d="M659.148 174.057C654.486 169.953 651.724 169.003 649.809 172.151C649.145 173.245 650.308 175.254 650.629 176.839C653.024 176.05 655.411 175.275 659.131 174.049L659.148 174.057Z" fill="#00362F"/>
<path d="M192.767 436.708C191.771 434.763 191.18 433.636 190.614 432.503C189.042 433.159 187.285 433.616 185.999 434.557C185.621 434.833 186.526 437.303 186.862 437.318C188.553 437.415 190.244 437.036 192.767 436.708Z" fill="#00362F"/>
<path d="M211.356 334.036C212.352 335.981 212.943 337.108 213.509 338.242C215.081 337.585 216.839 337.128 218.124 336.188C218.502 335.911 217.597 333.442 217.261 333.427C215.57 333.329 213.879 333.709 211.356 334.036Z" fill="#00362F"/>
<path d="M1382.95 96.9876C1383.94 98.9327 1384.53 100.06 1385.1 101.193C1386.67 100.537 1388.43 100.08 1389.71 99.1392C1390.09 98.8625 1389.19 96.3932 1388.85 96.3781C1387.16 96.2806 1385.47 96.6601 1382.95 96.9876Z" fill="#00362F"/>
<path d="M622.8 112.598C623.796 114.544 624.387 115.671 624.953 116.804C626.525 116.148 628.283 115.691 629.568 114.75C629.946 114.473 629.042 112.004 628.705 111.989C627.014 111.891 625.324 112.271 622.8 112.598Z" fill="#00362F"/>
<path d="M491.946 397.06C495.581 397.413 498.299 396.684 499.296 391.316C495.446 392.986 493.075 393.991 490.713 395.019C491.127 395.695 491.54 396.37 491.954 397.046L491.946 397.06Z" fill="#00362F"/>
<path d="M796.359 437.855C792.724 437.502 790.005 438.23 789.009 443.599C792.858 441.929 795.23 440.924 797.592 439.895C797.178 439.22 796.764 438.545 796.35 437.869L796.359 437.855Z" fill="#00362F"/>
<path d="M199.586 72.4654C195.952 72.1124 193.233 72.841 192.237 78.2096C196.086 76.5394 198.458 75.5342 200.82 74.506C200.406 73.8306 199.992 73.1551 199.578 72.4797L199.586 72.4654Z" fill="#00362F"/>
<path d="M528.126 381.979C524.809 380.386 522.366 380.538 521.028 383.117C520.708 383.736 521.786 385.727 522.5 385.885C525.532 386.587 527.829 385.831 528.126 381.979Z" fill="#00362F"/>
<path d="M760.175 452.935C763.491 454.529 765.935 454.377 767.273 451.798C767.593 451.178 766.515 449.188 765.801 449.029C762.768 448.327 760.472 449.083 760.175 452.935Z" fill="#00362F"/>
<path d="M163.406 87.5463C166.723 89.1395 169.166 88.9877 170.504 86.4089C170.824 85.7893 169.746 83.7986 169.033 83.64C166 82.938 163.703 83.6942 163.406 87.5463Z" fill="#00362F"/>
<path d="M177.678 8.83123C174.297 12.5839 170.132 15.8385 167.769 20.2553C166.1 23.4126 165.955 28.1629 166.741 32.1847C167.737 37.2098 171.674 39.4851 176.8 39.4898C187.594 39.5162 198.926 27.3391 198.751 16.4283C198.701 12.8632 198.4 9.4388 195.03 7.28013C191.337 4.9139 187.236 3.89871 183.655 6.0013C181.82 7.07743 180.101 8.29463 178.311 9.43712C178.095 9.23795 177.868 9.02219 177.652 8.82301L177.678 8.83123ZM172.3 33.251C171.867 20.2424 183.158 10.7432 193.538 14.5498C192.828 23.7602 185.009 30.8748 172.3 33.251Z" fill="#00362F"/>
<path d="M637.892 372.341C624.504 369.822 608.537 380.697 605.464 390.253C602.896 398.218 607.933 402.838 617.498 400.723C628.571 398.28 638.026 393.553 644.321 384.999C649.451 378.01 647.387 373.711 637.912 372.344L637.892 372.341ZM636.894 378.205C631.781 389.184 625.087 393.745 613.148 394.86C609.851 391.54 612.014 388.963 614.82 386.224C620.428 380.762 628.395 377.605 636.875 378.203L636.894 378.205Z" fill="#00362F"/>
<path d="M41.119 6.95137C27.7303 4.43252 11.7634 15.307 8.69028 24.863C6.12223 32.8282 11.16 37.4488 20.7247 35.3335C31.7973 32.8901 41.253 28.1631 47.5478 19.6091C52.6775 12.6199 50.6133 8.32136 41.1385 6.95415L41.119 6.95137ZM40.121 12.8157C35.0072 23.7946 28.3139 28.3553 16.3746 29.4705C13.0777 26.15 15.2409 23.5738 18.0467 20.8347C23.6546 15.3728 31.6212 12.2152 40.1015 12.8129L40.121 12.8157Z" fill="#00362F"/>
<path d="M650.408 462.574C663.797 465.092 679.764 454.218 682.837 444.662C685.405 436.697 680.367 432.076 670.803 434.191C659.73 436.635 650.274 441.362 643.98 449.916C638.85 456.905 640.914 461.204 650.389 462.571L650.408 462.574ZM651.406 456.709C656.52 445.73 663.213 441.17 675.153 440.054C678.45 443.375 676.286 445.951 673.481 448.69C667.873 454.152 659.906 457.31 651.426 456.712L651.406 456.709Z" fill="#00362F"/>
<path d="M53.6388 97.1844C67.0275 99.7032 82.9944 88.8287 86.0675 79.2727C88.6356 71.3075 83.5978 66.687 74.0331 68.8023C62.9605 71.2457 53.5048 75.9726 47.2101 84.5266C42.0803 91.5159 44.1445 95.8144 53.6193 97.1816L53.6388 97.1844ZM54.6368 91.3201C59.7506 80.3411 66.4439 75.7805 78.3832 74.6653C81.6801 77.9857 79.5169 80.5619 76.7111 83.3011C71.1032 88.763 63.1366 91.9205 54.6564 91.3228L54.6368 91.3201Z" fill="#00362F"/>
<path d="M513.854 460.694C517.235 456.942 521.4 453.687 523.763 449.27C525.432 446.113 525.577 441.362 524.791 437.341C523.795 432.316 519.859 430.04 514.732 430.036C503.938 430.009 492.606 442.186 492.781 453.097C492.831 456.662 493.132 460.087 496.502 462.245C500.195 464.611 504.296 465.627 507.877 463.524C509.712 462.448 511.431 461.231 513.221 460.088C513.437 460.287 513.664 460.503 513.88 460.702L513.854 460.694ZM519.232 436.274C519.665 449.283 508.374 458.782 497.995 454.976C498.705 445.765 506.524 438.651 519.232 436.274Z" fill="#00362F"/>
<path d="M512.405 269.831C509.024 273.584 504.859 276.838 502.496 281.255C500.827 284.413 500.682 289.163 501.468 293.185C502.464 298.21 506.4 300.485 511.527 300.49C522.321 300.516 533.652 288.339 533.478 277.428C533.428 273.863 533.127 270.439 529.757 268.28C526.064 265.914 521.962 264.899 518.381 267.001C516.547 268.077 514.828 269.295 513.038 270.437C512.822 270.238 512.595 270.022 512.379 269.823L512.405 269.831ZM507.027 294.251C506.594 281.242 517.885 271.743 528.264 275.55C527.554 284.76 519.735 291.875 507.027 294.251Z" fill="#00362F"/>
<path d="M524.6 190.307C516.664 181.813 513.217 181.237 504.516 187.445C500.725 190.159 497.573 193.749 495.046 197.377C492.573 200.945 494.059 205.093 497.731 207.099C500.079 208.371 504.885 208.102 507.701 206.969C516.033 203.623 520.093 196.959 524.581 190.304L524.6 190.307ZM516.34 188.329C514.665 196.816 510.973 200.26 501.521 202.152C501.103 193.247 504.071 190.466 516.34 188.329Z" fill="#00362F"/>
<path d="M501.658 540.218C509.595 548.712 513.042 549.288 521.742 543.081C525.533 540.366 528.686 536.776 531.213 533.148C533.685 529.581 532.2 525.432 528.528 523.426C526.18 522.154 521.373 522.424 518.558 523.556C510.225 526.902 506.165 533.566 501.678 540.221L501.658 540.218ZM509.919 542.197C511.593 533.709 515.285 530.265 524.737 528.374C525.155 537.278 522.188 540.059 509.919 542.197Z" fill="#00362F"/>
<path d="M436.829 465.655C441.435 467.265 459.795 465.078 468.569 462.347C461.767 458.224 447.484 459.491 436.829 465.655Z" fill="#00362F"/>
<path d="M451.8 475.866C461.574 478.018 471.307 480.046 483.373 478.801C482.24 476.771 482.001 475.2 481.214 475.069C471.767 473.543 462.171 472.578 451.818 475.858L451.8 475.866Z" fill="#00362F"/>
<path d="M452.473 448.654C440.941 446.235 432.957 450.652 424.657 457.33C430.005 461.091 433.82 455.478 437.98 454.549C442.217 453.607 446.321 451.237 452.473 448.654Z" fill="#00362F"/>
<path d="M599.42 244.869C594.814 243.26 576.454 245.447 567.68 248.177C574.482 252.301 588.765 251.034 599.42 244.869Z" fill="#00362F"/>
<path d="M584.449 234.659C574.675 232.506 564.942 230.479 552.876 231.723C554.009 233.754 554.248 235.324 555.035 235.456C564.482 236.982 574.078 237.947 584.431 234.667L584.449 234.659Z" fill="#00362F"/>
<path d="M583.776 261.87C595.308 264.29 603.292 259.873 611.592 253.194C606.244 249.433 602.429 255.046 598.269 255.975C594.032 256.918 589.928 259.287 583.776 261.87Z" fill="#00362F"/>
<path d="M572.3 472.78C565.171 472.704 561.766 475.637 558.689 479.403C564.914 482.734 566.876 481.834 572.3 472.78Z" fill="#00362F"/>
<path d="M716.005 362.135C723.134 362.211 726.539 359.278 729.616 355.512C723.391 352.181 721.429 353.08 716.005 362.135Z" fill="#00362F"/>
<path d="M364.573 478.097C361.772 477.137 358.948 475.697 356.173 475.431C355.047 475.312 353.086 477.68 353.215 479.002C353.331 480.246 355.702 482.564 357.037 482.694C359.599 482.972 362.105 482.037 364.63 481.606C364.606 480.439 364.597 479.264 364.573 478.097Z" fill="#00362F"/>
<path d="M39.5492 292.647C42.3502 293.607 45.1742 295.047 47.949 295.314C49.0753 295.432 51.0362 293.065 50.907 291.742C50.7907 290.498 48.4202 288.181 47.085 288.05C44.5231 287.772 42.0169 288.707 39.4917 289.138C39.5157 290.305 39.5252 291.48 39.5492 292.647Z" fill="#00362F"/>
<path d="M661.686 252.428C664.487 253.388 667.311 254.828 670.086 255.094C671.212 255.213 673.173 252.845 673.044 251.523C672.927 250.279 670.557 247.961 669.222 247.831C666.66 247.553 664.154 248.488 661.628 248.919C661.652 250.086 661.662 251.261 661.686 252.428Z" fill="#00362F"/>
<path d="M331.939 491.624C335.586 491.94 338.196 492.677 340.24 492.103C341.136 491.851 340.887 488.894 341.163 487.156C338.694 486.5 336.154 485.425 333.771 485.433C333.069 485.437 332.816 488.47 331.939 491.624Z" fill="#00362F"/>
<path d="M72.1785 279.12C68.5314 278.805 65.9217 278.067 63.878 278.641C62.9812 278.893 63.2305 281.85 62.9546 283.589C65.4238 284.244 67.9632 285.319 70.3469 285.311C71.0482 285.307 71.302 282.274 72.1785 279.12Z" fill="#00362F"/>
<path d="M369.061 9.63543C367.102 3.7364 365.196 1.52109 361.957 3.27251C360.833 3.88132 360.825 6.20357 360.304 7.73434C362.769 8.26258 365.22 8.79917 369.05 9.6191L369.061 9.63543Z" fill="#00362F"/>
<path d="M694.316 238.901C690.669 238.586 688.059 237.849 686.015 238.423C685.118 238.674 685.368 241.632 685.092 243.37C687.561 244.025 690.1 245.1 692.484 245.092C693.185 245.089 693.439 242.055 694.316 238.901Z" fill="#00362F"/>
<path d="M702.25 355.549C696.442 355.562 693.357 357.647 692.953 362.67C698.432 362.67 701.531 360.296 702.25 355.549Z" fill="#00362F"/>
<path d="M586.051 479.366C591.859 479.353 594.944 477.268 595.348 472.244C589.869 472.245 586.77 474.618 586.051 479.366Z" fill="#00362F"/>
<path d="M654.37 352.948C659.789 349.708 661.764 347.067 658.714 342.707C652.72 345.035 651.262 347.888 654.37 352.948Z" fill="#00362F"/>
<path d="M633.935 481.967C628.515 485.206 626.541 487.847 629.591 492.208C635.585 489.88 637.042 487.027 633.935 481.967Z" fill="#00362F"/>
<path d="M37.1611 116.577C31.742 119.817 29.7672 122.458 32.8175 126.818C38.8114 124.491 40.2689 121.637 37.1611 116.577Z" fill="#00362F"/>
<path d="M322.471 459.89C324.43 465.789 326.336 468.004 329.575 466.253C330.7 465.644 330.707 463.322 331.229 461.791C328.763 461.263 326.312 460.726 322.482 459.906L322.471 459.89Z" fill="#00362F"/>
<path d="M81.6507 310.854C79.6919 304.955 77.7856 302.74 74.5467 304.492C73.4225 305.1 73.4151 307.423 72.8934 308.953C75.359 309.482 77.8099 310.018 81.6397 310.838L81.6507 310.854Z" fill="#00362F"/>
<path d="M703.784 270.635C701.825 264.736 699.918 262.521 696.68 264.273C695.555 264.881 695.548 267.204 695.026 268.734C697.492 269.263 699.943 269.799 703.773 270.619L703.784 270.635Z" fill="#00362F"/>
<path d="M322.904 531.319C323.024 529.136 323.081 527.864 323.164 526.6C321.476 526.372 319.728 525.879 318.144 526.042C317.678 526.09 317.215 528.679 317.499 528.862C318.91 529.801 320.56 530.327 322.904 531.319Z" fill="#00362F"/>
<path d="M81.2177 239.426C81.0982 241.608 81.0409 242.88 80.9585 244.144C82.6466 244.372 84.3944 244.865 85.9782 244.702C86.444 244.654 86.9066 242.065 86.6236 241.882C85.2123 240.943 83.5616 240.417 81.2177 239.426Z" fill="#00362F"/>
<path d="M379.008 239.645C378.888 241.827 378.831 243.099 378.749 244.364C380.437 244.591 382.184 245.084 383.768 244.921C384.234 244.873 384.697 242.284 384.414 242.101C383.002 241.163 381.352 240.636 379.008 239.645Z" fill="#00362F"/>
<path d="M703.35 199.207C703.231 201.39 703.174 202.661 703.091 203.926C704.779 204.153 706.527 204.646 708.111 204.483C708.577 204.435 709.039 201.846 708.756 201.663C707.345 200.725 705.694 200.198 703.35 199.207Z" fill="#00362F"/>
<path d="M517.158 222.909C520.73 222.15 523.103 220.635 522.438 215.215C519.27 217.969 517.311 219.643 515.368 221.336C515.966 221.855 516.563 222.374 517.161 222.893L517.158 222.909Z" fill="#00362F"/>
<path d="M509.097 507.616C505.525 508.376 503.152 509.89 503.817 515.31C506.985 512.557 508.944 510.883 510.887 509.19C510.289 508.671 509.691 508.151 509.094 507.632L509.097 507.616Z" fill="#00362F"/>
<path d="M547.124 197.616C543.483 197.097 541.198 197.979 540.698 200.842C540.58 201.529 542.206 203.102 542.934 203.038C546.037 202.793 548 201.379 547.124 197.616Z" fill="#00362F"/>
<path d="M479.13 532.909C482.772 533.428 485.056 532.546 485.557 529.683C485.675 528.996 484.049 527.423 483.321 527.487C480.218 527.732 478.255 529.146 479.13 532.909Z" fill="#00362F"/>
<path d="M248.173 589L1440 0H0L248.173 589Z" fill="url(#paint0_linear_3912_2536)"/>
</g>
<defs>
<linearGradient id="paint0_linear_3912_2536" x1="304.778" y1="-514.696" x2="304.778" y2="672.181" gradientUnits="userSpaceOnUse">
<stop stop-color="#004F46"/>
<stop offset="1" stop-color="#001C19"/>
</linearGradient>
<clipPath id="clip0_3912_2536">
<rect width="1440" height="646" fill="white"/>
</clipPath>
</defs>
</svg>
