<svg width="1441" height="614" viewBox="0 0 1441 614" fill="none" xmlns="http://www.w3.org/2000/svg">
<g clip-path="url(#clip0_3910_2521)">
<rect width="1440" height="614" transform="translate(0.203613)" fill="white"/>
<path d="M1232.41 0L0.407227 614.5L1440.41 614.5L1232.41 0Z" fill="#00362F"/>
<path d="M1273.8 165.457C1263.6 156.498 1244.48 157.782 1237.06 164.465C1230.86 170.032 1232.85 176.571 1242.1 179.595C1252.81 183.101 1263.27 183.818 1272.95 179.632C1280.85 176.205 1281.24 171.452 1273.81 165.47L1273.8 165.457ZM1270 170.009C1260.12 176.885 1252.1 177.425 1241.32 172.334C1240.16 167.799 1243.31 166.674 1247.08 165.734C1254.62 163.866 1263.03 165.182 1269.99 169.996L1270 170.009Z" fill="#00362F"/>
<path d="M264.992 312.629C275.187 321.588 294.308 320.304 301.733 313.621C307.927 308.054 305.934 301.515 296.686 298.491C285.983 294.985 275.519 294.268 265.84 298.454C257.943 301.881 257.553 306.634 264.976 312.616L264.992 312.629ZM268.788 308.077C278.673 301.201 286.69 300.661 297.468 305.752C298.624 310.287 295.48 311.412 291.704 312.352C284.164 314.219 275.761 312.904 268.803 308.09L268.788 308.077Z" fill="#00362F"/>
<path d="M1142.49 376.799C1152.68 385.759 1171.81 384.475 1179.23 377.792C1185.43 372.224 1183.43 365.686 1174.18 362.661C1163.48 359.155 1153.02 358.438 1143.34 362.624C1135.44 366.051 1135.05 370.805 1142.47 376.787L1142.49 376.799ZM1146.29 372.248C1156.17 365.372 1164.19 364.832 1174.97 369.923C1176.12 374.457 1172.98 375.583 1169.2 376.522C1161.66 378.39 1153.26 377.074 1146.3 372.26L1146.29 372.248Z" fill="#00362F"/>
<path d="M734.156 598.237C744.351 607.196 763.473 605.912 770.898 599.229C777.092 593.662 775.098 587.123 765.851 584.099C755.148 580.593 744.684 579.876 735.004 584.062C727.107 587.489 726.717 592.242 734.141 598.224L734.156 598.237ZM737.952 593.685C747.837 586.809 755.854 586.269 766.632 591.36C767.788 595.895 764.644 597.02 760.868 597.96C753.329 599.827 744.926 598.512 737.968 593.697L737.952 593.685Z" fill="#00362F"/>
<path d="M259.761 432.582C257.671 437.175 254.692 441.528 253.763 446.451C253.119 449.963 254.39 454.54 256.326 458.142C258.759 462.639 263.162 463.631 268.018 462.099C278.248 458.891 285.369 443.878 281.969 433.519C280.865 430.132 279.565 426.954 275.733 425.904C271.535 424.752 267.35 425.012 264.582 428.091C263.163 429.668 261.896 431.344 260.54 432.97C260.276 432.845 259.997 432.707 259.734 432.582L259.761 432.582ZM261.907 457.494C257.641 445.211 265.517 432.765 276.475 433.288C278.533 442.289 273.237 451.42 261.907 457.494Z" fill="#00362F"/>
<path d="M1279.03 45.5035C1281.12 40.9099 1284.1 36.5568 1285.03 31.6344C1285.67 28.1218 1284.4 23.5454 1282.46 19.9432C1280.03 15.4465 1275.63 14.4546 1270.77 15.9858C1260.54 19.1937 1253.42 34.2075 1256.82 44.5665C1257.92 47.9533 1259.22 51.1308 1263.06 52.1813C1267.25 53.333 1271.44 53.0731 1274.21 49.9941C1275.63 48.4177 1276.89 46.7413 1278.25 45.115C1278.51 45.2403 1278.79 45.3782 1279.05 45.5036L1279.03 45.5035ZM1276.88 20.591C1281.15 32.8743 1273.27 45.3206 1262.31 44.7973C1260.26 35.7959 1265.55 26.6649 1276.88 20.591Z" fill="#00362F"/>
<path d="M211.166 399.099C206.765 396.685 202.662 393.392 197.857 392.126C194.427 391.24 189.816 392.211 186.124 393.917C181.513 396.064 180.235 400.429 181.422 405.421C183.904 415.936 198.27 424.117 208.742 421.393C212.165 420.51 215.395 419.415 216.692 415.629C218.114 411.48 218.139 407.249 215.281 404.255C213.818 402.721 212.246 401.332 210.73 399.857C210.871 399.6 211.026 399.328 211.168 399.072L211.166 399.099ZM186.388 399.58C198.821 396.113 210.597 404.881 209.341 415.878C200.301 417.342 191.63 411.396 186.388 399.58Z" fill="#00362F"/>
<path d="M1137.26 496.752C1135.17 501.346 1132.19 505.699 1131.26 510.621C1130.62 514.134 1131.89 518.71 1133.82 522.312C1136.26 526.809 1140.66 527.801 1145.52 526.27C1155.75 523.062 1162.87 508.048 1159.47 497.689C1158.36 494.302 1157.06 491.125 1153.23 490.074C1149.03 488.923 1144.85 489.183 1142.08 492.261C1140.66 493.838 1139.39 495.514 1138.04 497.141C1137.77 497.015 1137.49 496.877 1137.23 496.752L1137.26 496.752ZM1139.4 521.665C1135.14 509.381 1143.01 496.935 1153.97 497.458C1156.03 506.46 1150.74 515.591 1139.4 521.665Z" fill="#00362F"/>
<path d="M1327.62 78.9865C1332.02 81.3998 1336.12 84.6928 1340.93 85.9594C1344.36 86.845 1348.97 85.8742 1352.66 84.1678C1357.27 82.0217 1358.55 77.6566 1357.36 72.6643C1354.88 62.1497 1340.52 53.9681 1330.04 56.6921C1326.62 57.5756 1323.39 58.6701 1322.09 62.456C1320.67 66.6053 1320.65 70.8361 1323.5 73.8303C1324.97 75.3646 1326.54 76.7533 1328.06 78.2284C1327.91 78.4853 1327.76 78.7569 1327.62 79.0137L1327.62 78.9865ZM1352.4 78.5057C1339.96 81.9724 1328.19 73.2037 1329.44 62.2076C1338.48 60.7429 1347.16 66.6897 1352.4 78.5057Z" fill="#00362F"/>
<path d="M98.7213 304.181C101.253 315.529 103.914 317.773 114.475 316.83C119.081 316.411 123.581 314.913 127.564 313.066C131.47 311.242 132.28 306.912 130.143 303.32C128.772 301.033 124.523 298.829 121.545 298.378C112.735 297.04 105.916 300.729 98.7368 304.193L98.7213 304.181ZM104.799 310.074C110.49 303.604 115.378 302.505 124.417 305.665C120.307 313.557 116.372 314.451 104.799 310.074Z" fill="#00362F"/>
<path d="M1088.66 463.269C1084.26 460.856 1080.16 457.563 1075.35 456.296C1071.92 455.411 1067.31 456.381 1063.62 458.088C1059.01 460.234 1057.73 464.599 1058.92 469.591C1061.4 480.106 1075.77 488.288 1086.24 485.564C1089.66 484.68 1092.89 483.586 1094.19 479.8C1095.61 475.65 1095.64 471.42 1092.78 468.425C1091.32 466.891 1089.74 465.502 1088.23 464.027C1088.37 463.77 1088.52 463.499 1088.67 463.242L1088.66 463.269ZM1063.89 463.75C1076.32 460.283 1088.09 469.052 1086.84 480.048C1077.8 481.513 1069.13 475.566 1063.89 463.75Z" fill="#00362F"/>
<path d="M311.541 371.051C312.34 375.869 323.001 390.938 329.561 397.329C329.898 389.374 321.982 377.442 311.541 371.051Z" fill="#00362F"/>
<path d="M309.811 389.104C312.604 398.721 315.486 408.242 322.325 418.238C323.549 416.267 324.8 415.302 324.539 414.547C321.357 405.519 317.616 396.629 309.826 389.117L309.811 389.104Z" fill="#00362F"/>
<path d="M333.779 376.613C330.379 365.325 322.731 360.438 312.967 356.361C312.25 362.865 318.949 363.517 321.741 366.722C324.582 369.989 328.599 372.453 333.779 376.613Z" fill="#00362F"/>
<path d="M1440.06 173.905C1437.53 162.557 1434.87 160.313 1424.31 161.256C1419.7 161.675 1415.2 163.173 1411.22 165.02C1407.32 166.844 1406.5 171.174 1408.64 174.766C1410.01 177.053 1414.26 179.257 1417.24 179.708C1426.05 181.046 1432.87 177.357 1440.05 173.893L1440.06 173.905ZM1433.99 168.012C1428.29 174.482 1423.41 175.581 1414.37 172.421C1418.48 164.529 1422.41 163.635 1433.99 168.012Z" fill="#00362F"/>
<path d="M976.219 368.351C978.75 379.699 981.411 381.944 991.972 381.001C996.579 380.581 1001.08 379.084 1005.06 377.236C1008.97 375.413 1009.78 371.082 1007.64 367.49C1006.27 365.204 1002.02 362.999 999.042 362.549C990.232 361.21 983.414 364.899 976.234 368.363L976.219 368.351ZM982.296 374.245C987.988 367.774 992.876 366.675 1001.91 369.836C997.805 377.727 993.869 378.621 982.296 374.245Z" fill="#00362F"/>
<path d="M371.521 259.262C377.584 262.941 381.97 262.138 386.493 260.45C382.836 254.422 380.706 254.203 371.521 259.262Z" fill="#00362F"/>
<path d="M638.464 531.124C640.995 542.472 643.656 544.717 654.218 543.774C658.824 543.354 663.323 541.856 667.306 540.009C671.212 538.186 672.022 533.855 669.886 530.263C668.514 527.976 664.266 525.772 661.288 525.322C652.477 523.983 645.659 527.672 638.479 531.136L638.464 531.124ZM644.541 537.017C650.233 530.547 655.121 529.448 664.159 532.609C660.05 540.5 656.114 541.394 644.541 537.017Z" fill="#00362F"/>
<path d="M1227.25 107.035C1226.45 102.216 1215.78 87.1474 1209.23 80.7566C1208.89 88.7116 1216.8 100.643 1227.25 107.035Z" fill="#00362F"/>
<path d="M1228.98 88.9817C1226.18 79.365 1223.3 69.844 1216.46 59.8484C1215.24 61.8192 1213.99 62.7843 1214.25 63.5386C1217.43 72.5668 1221.17 81.4568 1228.96 88.9694L1228.98 88.9817Z" fill="#00362F"/>
<path d="M1205.01 101.473C1208.41 112.761 1216.05 117.648 1225.82 121.725C1226.54 115.221 1219.84 114.569 1217.05 111.364C1214.2 108.097 1210.19 105.633 1205.01 101.473Z" fill="#00362F"/>
<path d="M395.967 371.26C398.904 371.337 402.005 371.865 404.712 371.288C405.814 371.064 406.969 368.218 406.454 366.994C405.975 365.842 403.043 364.341 401.74 364.616C399.232 365.118 397.136 366.761 394.872 367.929C395.241 369.035 395.598 370.154 395.967 371.26Z" fill="#00362F"/>
<path d="M1189.04 435.221C1189.84 440.04 1200.5 455.109 1207.06 461.5C1207.4 453.545 1199.48 441.613 1189.04 435.221Z" fill="#00362F"/>
<path d="M1187.31 453.275C1190.1 462.891 1192.99 472.412 1199.82 482.408C1201.05 480.437 1202.3 479.472 1202.04 478.718C1198.86 469.69 1195.12 460.8 1187.32 453.287L1187.31 453.275Z" fill="#00362F"/>
<path d="M1211.28 440.783C1207.88 429.495 1200.23 424.608 1190.47 420.532C1189.75 427.036 1196.45 427.687 1199.24 430.892C1202.08 434.159 1206.1 436.624 1211.28 440.783Z" fill="#00362F"/>
<path d="M1167.26 218.823C1161.2 215.144 1156.81 215.947 1152.29 217.635C1155.95 223.663 1158.08 223.882 1167.26 218.823Z" fill="#00362F"/>
<path d="M1249.02 323.433C1255.08 327.112 1259.47 326.309 1263.99 324.621C1260.33 318.593 1258.2 318.374 1249.02 323.433Z" fill="#00362F"/>
<path d="M86.2837 560.481C92.3471 564.161 96.7332 563.358 101.256 561.67C97.5997 555.641 95.4688 555.422 86.2837 560.481Z" fill="#00362F"/>
<path d="M840.688 544.871C846.752 548.55 851.138 547.747 855.661 546.059C852.004 540.031 849.874 539.812 840.688 544.871Z" fill="#00362F"/>
<path d="M563.168 438.218C560.816 439.995 558.058 441.52 556.289 443.666C555.562 444.531 556.404 447.487 557.559 448.125C558.643 448.73 561.866 448.074 562.719 447.043C564.38 445.08 565.015 442.479 566.074 440.147C565.105 439.51 564.137 438.856 563.168 438.218Z" fill="#00362F"/>
<path d="M510.006 419.087C512.358 417.31 515.117 415.785 516.886 413.64C517.613 412.775 516.771 409.818 515.615 409.18C514.532 408.576 511.309 409.231 510.456 410.263C508.795 412.225 508.16 414.826 507.101 417.158C508.07 417.795 509.037 418.45 510.006 419.087Z" fill="#00362F"/>
<path d="M1142.82 106.825C1139.88 106.748 1136.78 106.22 1134.07 106.797C1132.97 107.021 1131.82 109.868 1132.33 111.091C1132.81 112.243 1135.74 113.745 1137.04 113.469C1139.55 112.967 1141.65 111.324 1143.91 110.156C1143.54 109.05 1143.19 107.932 1142.82 106.825Z" fill="#00362F"/>
<path d="M1273.47 435.431C1276.4 435.508 1279.5 436.036 1282.21 435.459C1283.31 435.235 1284.47 432.388 1283.95 431.165C1283.47 430.013 1280.54 428.511 1279.24 428.787C1276.73 429.289 1274.63 430.932 1272.37 432.099C1272.74 433.206 1273.1 434.324 1273.47 435.431Z" fill="#00362F"/>
<path d="M977.927 435.211C980.864 435.288 983.966 435.817 986.672 435.24C987.774 435.016 988.929 432.169 988.415 430.946C987.936 429.793 985.004 428.292 983.701 428.568C981.192 429.069 979.096 430.713 976.832 431.88C977.201 432.987 977.559 434.105 977.927 435.211Z" fill="#00362F"/>
<path d="M422.861 348.578C419.313 349.37 416.623 349.448 414.858 350.608C414.083 351.116 415.196 353.864 415.45 355.605C417.983 355.491 420.706 355.756 422.961 355.035C423.624 354.821 422.965 351.85 422.861 348.578Z" fill="#00362F"/>
<path d="M656.033 475.65C658.97 475.727 662.071 476.255 664.778 475.678C665.88 475.454 667.035 472.607 666.52 471.384C666.041 470.232 663.109 468.73 661.806 469.006C659.298 469.508 657.202 471.151 654.938 472.319C655.307 473.425 655.664 474.544 656.033 475.65Z" fill="#00362F"/>
<path d="M1179.1 360.62C1176.16 360.543 1173.06 360.014 1170.35 360.591C1169.25 360.816 1168.09 363.662 1168.61 364.885C1169.09 366.038 1172.02 367.539 1173.32 367.263C1175.83 366.762 1177.93 365.118 1180.19 363.951C1179.82 362.845 1179.46 361.726 1179.1 360.62Z" fill="#00362F"/>
<path d="M359.689 117.466C362.625 117.543 365.727 118.072 368.434 117.494C369.535 117.27 370.69 114.424 370.176 113.201C369.697 112.048 366.765 110.547 365.462 110.823C362.953 111.324 360.857 112.968 358.594 114.135C358.962 115.241 359.32 116.36 359.689 117.466Z" fill="#00362F"/>
<path d="M545.589 363.468C543.292 366.308 541.23 368.052 540.557 370.066C540.261 370.95 542.823 372.41 544.092 373.617C546.009 371.944 548.309 370.448 549.635 368.472C550.024 367.889 547.682 365.97 545.589 363.468Z" fill="#00362F"/>
<path d="M74.4522 418.685C77.3892 418.762 80.4905 419.29 83.1972 418.713C84.299 418.489 85.4541 415.643 84.9396 414.419C84.4607 413.267 81.5288 411.766 80.2257 412.041C77.7172 412.543 75.621 414.186 73.3573 415.354C73.7261 416.46 74.0834 417.579 74.4522 418.685Z" fill="#00362F"/>
<path d="M690.38 341.087C692.732 339.31 695.491 337.785 697.26 335.639C697.987 334.774 697.145 331.818 695.989 331.18C694.906 330.575 691.683 331.231 690.83 332.262C689.169 334.225 688.534 336.825 687.475 339.157C688.444 339.795 689.411 340.449 690.38 341.087Z" fill="#00362F"/>
<path d="M201.486 294.485C206.464 297.418 210.15 297.184 213.016 293.056C208.327 290.279 204.483 290.756 201.486 294.485Z" fill="#00362F"/>
<path d="M848.405 136.999C846.053 138.775 843.295 140.301 841.526 142.446C840.799 143.311 841.641 146.267 842.796 146.906C843.88 147.51 847.103 146.855 847.956 145.823C849.616 143.861 850.252 141.26 851.311 138.928C850.342 138.291 849.374 137.636 848.405 136.999Z" fill="#00362F"/>
<path d="M241.161 321.001C234.898 321.047 231.882 322.324 232.305 327.63C238.603 328.662 241.282 326.94 241.161 321.001Z" fill="#00362F"/>
<path d="M1434.71 502.388C1432.36 504.165 1429.6 505.69 1427.83 507.836C1427.1 508.701 1427.95 511.657 1429.1 512.295C1430.19 512.9 1433.41 512.244 1434.26 511.213C1435.92 509.25 1436.56 506.65 1437.62 504.318C1436.65 503.68 1435.68 503.026 1434.71 502.388Z" fill="#00362F"/>
<path d="M1387.5 483.258C1389.86 481.481 1392.61 479.956 1394.38 477.81C1395.11 476.945 1394.27 473.989 1393.11 473.351C1392.03 472.746 1388.81 473.402 1387.95 474.433C1386.29 476.396 1385.66 478.996 1384.6 481.328C1385.57 481.966 1386.54 482.62 1387.5 483.258Z" fill="#00362F"/>
<path d="M441.235 376.023C437.631 370.981 435.169 369.438 432.621 372.08C431.737 372.997 432.419 375.216 432.378 376.832C434.87 376.598 437.35 376.376 441.22 376.011L441.235 376.023Z" fill="#00362F"/>
<path d="M1028.78 58.9988C1026.43 60.7755 1023.67 62.3005 1021.9 64.4464C1021.17 65.3113 1022.01 68.2675 1023.17 68.9057C1024.25 69.5103 1027.48 68.8546 1028.33 67.8233C1029.99 65.8606 1030.63 63.2601 1031.68 60.9281C1030.72 60.2906 1029.75 59.6363 1028.78 58.9988Z" fill="#00362F"/>
<path d="M1115.93 129.507C1119.48 128.716 1122.17 128.638 1123.93 127.478C1124.71 126.969 1123.59 124.222 1123.34 122.48C1120.81 122.595 1118.08 122.329 1115.83 123.051C1115.16 123.265 1115.82 126.235 1115.93 129.507Z" fill="#00362F"/>
<path d="M119.72 423.448C116.116 418.406 113.654 416.863 111.106 419.505C110.222 420.422 110.903 422.64 110.863 424.257C113.355 424.023 115.835 423.801 119.705 423.436L119.72 423.448Z" fill="#00362F"/>
<path d="M1300.36 412.748C1296.81 413.54 1294.12 413.618 1292.36 414.778C1291.58 415.287 1292.69 418.034 1292.95 419.775C1295.48 419.661 1298.2 419.926 1300.46 419.205C1301.12 418.991 1300.46 416.02 1300.36 412.748Z" fill="#00362F"/>
<path d="M1004.82 412.529C1001.27 413.321 998.579 413.399 996.814 414.559C996.039 415.067 997.152 417.815 997.406 419.556C999.939 419.442 1002.66 419.707 1004.92 418.986C1005.58 418.772 1004.92 415.801 1004.82 412.529Z" fill="#00362F"/>
<path d="M545.356 559.561C541.109 555.057 538.463 553.864 536.292 556.829C535.539 557.859 536.512 559.964 536.689 561.572C539.126 560.999 541.553 560.441 545.339 559.551L545.356 559.561Z" fill="#00362F"/>
<path d="M682.926 452.968C679.379 453.759 676.689 453.838 674.924 454.998C674.149 455.506 675.262 458.253 675.516 459.995C678.049 459.881 680.772 460.146 683.027 459.424C683.69 459.211 683.031 456.24 682.926 452.968Z" fill="#00362F"/>
<path d="M422.956 520.963C427.203 525.467 429.849 526.659 432.019 523.694C432.772 522.664 431.8 520.56 431.623 518.952C429.186 519.524 426.758 520.083 422.973 520.973L422.956 520.963Z" fill="#00362F"/>
<path d="M601.643 393.915C595.718 392.213 592.838 392.542 592.461 396.208C592.331 397.481 594.229 398.796 595.19 400.09C597.001 398.347 598.811 396.622 601.624 393.915L601.643 393.915Z" fill="#00362F"/>
<path d="M1152.21 383.302C1155.75 382.51 1158.44 382.432 1160.21 381.272C1160.98 380.764 1159.87 378.016 1159.62 376.275C1157.08 376.389 1154.36 376.124 1152.11 376.845C1151.44 377.059 1152.1 380.03 1152.21 383.302Z" fill="#00362F"/>
<path d="M386.582 94.7838C383.035 95.5755 380.345 95.6537 378.58 96.8137C377.805 97.322 378.918 100.07 379.172 101.811C381.705 101.697 384.428 101.962 386.683 101.24C387.346 101.027 386.687 98.0559 386.582 94.7838Z" fill="#00362F"/>
<path d="M419.65 307.994C420.184 310.113 420.506 311.344 420.803 312.575C422.469 312.286 424.271 312.233 425.722 311.603C426.149 311.418 425.82 308.809 425.497 308.719C423.883 308.246 422.163 308.239 419.65 307.994Z" fill="#00362F"/>
<path d="M134.413 609.213C134.947 611.332 135.27 612.563 135.567 613.794C137.233 613.505 139.034 613.452 140.486 612.822C140.913 612.637 140.583 610.028 140.261 609.938C138.646 609.465 136.927 609.458 134.413 609.213Z" fill="#00362F"/>
<path d="M888.814 593.603C889.348 595.721 889.671 596.952 889.968 598.183C891.634 597.895 893.435 597.841 894.887 597.212C895.314 597.026 894.984 594.417 894.662 594.327C893.047 593.855 891.328 593.847 888.814 593.603Z" fill="#00362F"/>
<path d="M101.342 396.003C97.7948 396.794 95.1049 396.873 93.3396 398.033C92.5649 398.541 93.6778 401.289 93.9317 403.03C96.4644 402.916 99.1879 403.181 101.443 402.459C102.106 402.246 101.447 399.275 101.342 396.003Z" fill="#00362F"/>
<path d="M121.445 279.836C118.007 278.68 115.216 278.783 113.065 283.794C117.158 283.026 119.675 282.575 122.187 282.1C121.936 281.349 121.685 280.599 121.434 279.848L121.445 279.836Z" fill="#00362F"/>
<path d="M1423.09 427.639C1420.79 430.479 1418.73 432.223 1418.05 434.237C1417.76 435.12 1420.32 436.58 1421.59 437.788C1423.51 436.114 1425.81 434.619 1427.13 432.642C1427.52 432.06 1425.18 430.141 1423.09 427.639Z" fill="#00362F"/>
<path d="M805.655 467.858C803.358 470.697 801.295 472.441 800.622 474.456C800.327 475.339 802.888 476.799 804.157 478.007C806.074 476.333 808.374 474.837 809.701 472.861C810.09 472.279 807.747 470.36 805.655 467.858Z" fill="#00362F"/>
<path d="M993.2 114.617C995.497 111.777 997.559 110.033 998.232 108.019C998.528 107.136 995.967 105.676 994.698 104.468C992.78 106.142 990.48 107.637 989.154 109.614C988.765 110.196 991.107 112.115 993.2 114.617Z" fill="#00362F"/>
<path d="M1337.3 183.601C1332.32 180.668 1328.64 180.902 1325.77 185.03C1330.46 187.807 1334.31 187.33 1337.3 183.601Z" fill="#00362F"/>
<path d="M1078.98 358.656C1083.96 361.588 1087.65 361.355 1090.51 357.227C1085.82 354.45 1081.98 354.926 1078.98 358.656Z" fill="#00362F"/>
<path d="M471.16 218.977C459.242 212.537 440.885 218.091 435.125 226.276C430.317 233.097 433.705 239.023 443.389 239.89C454.596 240.9 464.956 239.244 473.466 232.986C480.407 227.868 479.737 223.147 471.178 218.985L471.16 218.977ZM468.466 224.268C460.349 233.195 452.653 235.525 441.022 232.988C438.893 228.827 441.709 227.023 445.182 225.257C452.119 221.74 460.601 221.132 468.448 224.259L468.466 224.268Z" fill="#00362F"/>
<path d="M185.924 510.196C174.005 503.756 155.649 509.31 149.889 517.495C145.081 524.316 148.469 530.242 158.152 531.109C169.36 532.119 179.72 530.463 188.23 524.205C195.171 519.087 194.5 514.366 185.942 510.204L185.924 510.196ZM183.229 515.487C175.113 524.414 167.417 526.744 155.785 524.207C153.656 520.046 156.473 518.242 159.946 516.476C166.883 512.959 175.365 512.351 183.212 515.478L183.229 515.487Z" fill="#00362F"/>
<path d="M940.325 504.585C928.406 498.145 910.05 503.699 904.289 511.885C899.482 518.706 902.87 524.631 912.553 525.499C923.761 526.508 934.12 524.852 942.631 518.594C949.572 513.477 948.901 508.755 940.343 504.594L940.325 504.585ZM937.63 509.876C929.514 518.803 921.818 521.133 910.186 518.596C908.057 514.435 910.873 512.631 914.346 510.865C921.284 507.348 929.766 506.74 937.612 509.868L937.63 509.876Z" fill="#00362F"/>
<path d="M670.65 580.093C675.628 583.026 679.314 582.792 682.18 578.664C677.491 575.887 673.647 576.363 670.65 580.093Z" fill="#00362F"/>
<path d="M134.125 234.172C135.146 229.224 137.089 224.31 136.906 219.302C136.758 215.733 134.507 211.558 131.824 208.482C128.458 204.646 123.947 204.67 119.552 207.255C110.289 212.684 106.665 228.922 112.268 238.255C114.094 241.308 116.063 244.113 120.03 244.275C124.377 244.453 128.4 243.258 130.417 239.634C131.452 237.778 132.317 235.859 133.279 233.968C133.564 234.031 133.866 234.103 134.151 234.166L134.125 234.172ZM126.526 210.369C133.4 221.383 128.473 235.289 117.675 237.244C113.68 228.932 116.824 218.84 126.526 210.369Z" fill="#00362F"/>
<path d="M1297.63 157.085C1303.89 157.038 1306.91 155.762 1306.48 150.455C1300.19 149.424 1297.51 151.146 1297.63 157.085Z" fill="#00362F"/>
<path d="M1118.66 385.171C1112.4 385.218 1109.38 386.494 1109.8 391.801C1116.1 392.832 1118.78 391.11 1118.66 385.171Z" fill="#00362F"/>
<path d="M710.326 606.609C704.062 606.656 701.047 607.932 701.47 613.239C707.768 614.27 710.447 612.548 710.326 606.609Z" fill="#00362F"/>
<path d="M349.871 491.019C344.895 480.527 341.805 478.937 331.718 482.233C327.32 483.678 323.266 486.151 319.791 488.848C316.386 491.504 316.554 495.908 319.431 498.928C321.273 500.849 325.902 502.042 328.904 501.811C337.788 501.134 343.62 496.003 349.853 491.011L349.871 491.019ZM342.644 486.642C338.526 494.23 334.004 496.401 324.494 495.354C326.757 486.736 330.395 484.979 342.644 486.642Z" fill="#00362F"/>
<path d="M1097.55 102.063C1101.15 107.105 1103.62 108.648 1106.16 106.006C1107.05 105.089 1106.37 102.87 1106.41 101.253C1103.91 101.488 1101.43 101.71 1097.56 102.075L1097.55 102.063Z" fill="#00362F"/>
<path d="M1318.73 440.194C1315.13 435.152 1312.67 433.609 1310.12 436.25C1309.23 437.168 1309.92 439.386 1309.88 441.003C1312.37 440.768 1314.85 440.546 1318.72 440.181L1318.73 440.194Z" fill="#00362F"/>
<path d="M1023.19 439.975C1019.59 434.932 1017.12 433.389 1014.58 436.031C1013.69 436.949 1014.37 439.167 1014.33 440.784C1016.83 440.549 1019.31 440.327 1023.18 439.962L1023.19 439.975Z" fill="#00362F"/>
<path d="M102.423 467.586C107.175 466.649 121.815 455.488 127.969 448.699C120.079 448.574 108.472 456.882 102.423 467.586Z" fill="#00362F"/>
<path d="M120.354 468.842C129.806 465.765 139.16 462.6 148.878 455.431C146.892 454.249 145.902 453.014 145.162 453.298C136.304 456.752 127.598 460.765 120.366 468.827L120.354 468.842Z" fill="#00362F"/>
<path d="M107.331 445.005C96.2397 448.74 91.6056 456.586 87.831 466.546C94.2938 467.092 94.7579 460.318 97.8577 457.415C101.017 454.461 103.35 450.342 107.331 445.005Z" fill="#00362F"/>
<path d="M701.3 480.413C697.696 475.37 695.234 473.827 692.686 476.469C691.802 477.387 692.484 479.605 692.443 481.222C694.935 480.987 697.415 480.765 701.285 480.4L701.3 480.413Z" fill="#00362F"/>
<path d="M1133.83 355.857C1137.43 360.899 1139.89 362.442 1142.44 359.8C1143.33 358.883 1142.64 356.664 1142.69 355.047C1140.19 355.282 1137.71 355.504 1133.84 355.869L1133.83 355.857Z" fill="#00362F"/>
<path d="M435.001 455.475C430.418 457.052 417.409 470.11 412.222 477.677C420.056 476.723 430.443 466.908 435.001 455.475Z" fill="#00362F"/>
<path d="M417.064 456.679C408.112 461.018 399.268 465.431 390.601 473.861C392.727 474.76 393.873 475.849 394.569 475.467C402.882 470.835 410.97 465.67 417.055 456.696L417.064 456.679Z" fill="#00362F"/>
<path d="M433.163 478.519C443.652 473.304 447.191 464.897 449.596 454.515C443.119 454.855 443.568 461.63 440.886 464.929C438.151 468.288 436.392 472.687 433.163 478.519Z" fill="#00362F"/>
<path d="M404.957 122.229C401.353 117.187 398.891 115.644 396.343 118.285C395.459 119.203 396.14 121.421 396.1 123.038C398.592 122.804 401.072 122.581 404.942 122.217L404.957 122.229Z" fill="#00362F"/>
<path d="M379.107 294.969C372.383 292.747 368.285 294.517 364.249 297.18C369.145 302.234 371.271 301.968 379.107 294.969Z" fill="#00362F"/>
<path d="M997.218 487.619C993.614 482.576 991.152 481.034 988.604 483.675C987.72 484.593 988.402 486.811 988.361 488.428C990.853 488.193 993.333 487.971 997.203 487.606L997.218 487.619Z" fill="#00362F"/>
<path d="M830.592 258.342C826.346 253.838 823.7 252.645 821.529 255.61C820.776 256.64 821.749 258.745 821.926 260.352C824.363 259.78 826.79 259.221 830.576 258.332L830.592 258.342Z" fill="#00362F"/>
<path d="M708.193 219.744C712.439 224.248 715.086 225.44 717.256 222.475C718.009 221.445 717.037 219.341 716.86 217.733C714.422 218.305 711.995 218.864 708.21 219.754L708.193 219.744Z" fill="#00362F"/>
<path d="M1300.45 585.133C1304.7 589.637 1307.35 590.83 1309.52 587.865C1310.27 586.835 1309.3 584.73 1309.12 583.123C1306.68 583.695 1304.26 584.254 1300.47 585.143L1300.45 585.133Z" fill="#00362F"/>
<path d="M487.445 442.374C490.22 441.401 493.307 440.791 495.637 439.288C496.59 438.686 496.675 435.611 495.766 434.649C494.915 433.742 491.647 433.381 490.524 434.103C488.352 435.465 486.965 437.749 485.256 439.647C485.987 440.551 486.713 441.471 487.445 442.374Z" fill="#00362F"/>
<path d="M861.712 498.304C855.787 496.602 852.907 496.931 852.53 500.597C852.4 501.87 854.297 503.185 855.259 504.479C857.07 502.736 858.88 501.011 861.692 498.304L861.712 498.304Z" fill="#00362F"/>
<path d="M937.142 84.1709C943.067 85.8734 945.947 85.5443 946.324 81.8778C946.454 80.6048 944.557 79.2903 943.595 77.9963C941.784 79.7387 939.974 81.4642 937.162 84.1709L937.142 84.1709Z" fill="#00362F"/>
<path d="M1119.13 170.091C1118.6 167.972 1118.28 166.742 1117.98 165.511C1116.32 165.799 1114.51 165.852 1113.06 166.482C1112.64 166.667 1112.97 169.277 1113.29 169.366C1114.9 169.839 1116.62 169.847 1119.13 170.091Z" fill="#00362F"/>
<path d="M1297.15 372.165C1297.68 374.283 1298 375.514 1298.3 376.745C1299.97 376.457 1301.77 376.403 1303.22 375.774C1303.65 375.588 1303.32 372.979 1303 372.889C1301.38 372.417 1299.66 372.409 1297.15 372.165Z" fill="#00362F"/>
<path d="M679.715 412.384C680.249 414.503 680.572 415.733 680.869 416.964C682.535 416.676 684.336 416.623 685.788 415.993C686.215 415.808 685.885 413.198 685.563 413.109C683.948 412.636 682.229 412.628 679.715 412.384Z" fill="#00362F"/>
<path d="M504.678 411.577C501.635 413.581 499.146 414.612 497.9 416.325C497.353 417.077 499.355 419.252 500.201 420.79C502.531 419.782 505.172 419.06 507.03 417.583C507.575 417.147 505.92 414.602 504.678 411.577Z" fill="#00362F"/>
<path d="M1417.34 198.25C1420.78 199.406 1423.57 199.302 1425.72 194.291C1421.63 195.06 1419.11 195.51 1416.6 195.985C1416.85 196.736 1417.1 197.487 1417.35 198.238L1417.34 198.25Z" fill="#00362F"/>
<path d="M998.943 344.006C995.505 342.85 992.714 342.954 990.563 347.964C994.656 347.196 997.173 346.746 999.685 346.271C999.434 345.52 999.183 344.769 998.932 344.018L998.943 344.006Z" fill="#00362F"/>
<path d="M251.84 523.593C246.339 521.854 242.797 522.911 240.916 527.58C246.101 529.232 249.742 527.903 251.84 523.593Z" fill="#00362F"/>
<path d="M1006.24 507.982C1000.74 506.243 997.198 507.301 995.317 511.969C1000.5 513.621 1004.14 512.292 1006.24 507.982Z" fill="#00362F"/>
<path d="M21.6849 341.779C18.2464 340.624 15.4553 340.727 13.305 345.738C17.3981 344.969 19.9147 344.519 22.427 344.044C22.1759 343.293 21.9248 342.542 21.6736 341.791L21.6849 341.779Z" fill="#00362F"/>
<path d="M590.614 565.444C587.175 564.288 584.384 564.392 582.234 569.402C586.327 568.634 588.843 568.184 591.356 567.709C591.105 566.958 590.853 566.207 590.602 565.456L590.614 565.444Z" fill="#00362F"/>
<path d="M207.303 506.672C213.399 505.217 216.056 503.295 214.471 498.217C208.103 498.629 205.872 500.91 207.303 506.672Z" fill="#00362F"/>
<path d="M961.704 491.062C967.799 489.607 970.457 487.684 968.871 482.606C962.504 483.018 960.273 485.299 961.704 491.062Z" fill="#00362F"/>
<path d="M83.1081 286.457C85.9646 288.751 88.362 289.148 90.2265 286.933C90.6728 286.401 90.0698 284.219 89.4146 283.905C86.6358 282.544 84.247 282.768 83.1081 286.457Z" fill="#00362F"/>
<path d="M552.273 572.065C555.13 574.359 557.527 574.757 559.392 572.542C559.838 572.009 559.235 569.828 558.58 569.514C555.801 568.152 553.412 568.377 552.273 572.065Z" fill="#00362F"/>
<path d="M325.02 450.459C319.176 452.732 316.801 455 319.052 459.815C325.306 458.538 327.21 455.973 325.02 450.459Z" fill="#00362F"/>
<path d="M1067.63 259.109C1079.55 265.549 1097.9 259.994 1103.66 251.809C1108.47 244.988 1105.08 239.063 1095.4 238.195C1084.19 237.186 1073.83 238.841 1065.32 245.1C1058.38 250.217 1059.05 254.939 1067.61 259.1L1067.63 259.109ZM1070.32 253.818C1078.44 244.891 1086.13 242.561 1097.77 245.098C1099.9 249.259 1097.08 251.063 1093.61 252.828C1086.67 256.345 1078.19 256.954 1070.34 253.826L1070.32 253.818Z" fill="#00362F"/>
<path d="M1348.66 283.147C1336.74 276.707 1318.38 282.261 1312.62 290.447C1307.82 297.268 1311.2 303.193 1320.89 304.061C1332.09 305.07 1342.45 303.414 1350.96 297.156C1357.91 292.039 1357.23 287.317 1348.68 283.156L1348.66 283.147ZM1345.96 288.438C1337.85 297.365 1330.15 299.695 1318.52 297.158C1316.39 292.997 1319.21 291.193 1322.68 289.427C1329.62 285.91 1338.1 285.302 1345.95 288.43L1345.96 288.438Z" fill="#00362F"/>
<path d="M1063.42 584.366C1051.5 577.927 1033.15 583.481 1027.39 591.666C1022.58 598.487 1025.97 604.412 1035.65 605.28C1046.86 606.289 1057.22 604.634 1065.73 598.375C1072.67 593.258 1072 588.536 1063.44 584.375L1063.42 584.366ZM1060.73 589.657C1052.61 598.584 1044.92 600.915 1033.28 598.377C1031.15 594.217 1033.97 592.412 1037.44 590.647C1044.38 587.13 1052.86 586.521 1060.71 589.649L1060.73 589.657Z" fill="#00362F"/>
<path d="M1404.66 243.914C1403.64 248.862 1401.7 253.776 1401.88 258.783C1402.03 262.352 1404.28 266.527 1406.97 269.603C1410.33 273.439 1414.84 273.416 1419.24 270.83C1428.5 265.401 1432.12 249.163 1426.52 239.83C1424.7 236.777 1422.73 233.972 1418.76 233.81C1414.41 233.632 1410.39 234.827 1408.37 238.452C1407.34 240.307 1406.47 242.227 1405.51 244.117C1405.22 244.054 1404.92 243.983 1404.64 243.92L1404.66 243.914ZM1412.26 267.716C1405.39 256.702 1410.32 242.797 1421.11 240.841C1425.11 249.153 1421.96 259.246 1412.26 267.716Z" fill="#00362F"/>
<path d="M321.42 258.293C320.431 256.348 319.844 255.221 319.283 254.088C317.723 254.744 315.978 255.201 314.703 256.142C314.327 256.418 315.225 258.888 315.559 258.903C317.238 259 318.915 258.621 321.42 258.293Z" fill="#00362F"/>
<path d="M1011.62 298.342C1012.64 293.394 1014.59 288.48 1014.4 283.473C1014.26 279.904 1012.01 275.728 1009.32 272.653C1005.96 268.817 1001.45 268.84 997.05 271.426C987.787 276.854 984.163 293.093 989.766 302.426C991.592 305.479 993.561 308.284 997.528 308.446C1001.88 308.624 1005.9 307.429 1007.92 303.804C1008.95 301.948 1009.81 300.029 1010.78 298.139C1011.06 298.201 1011.36 298.273 1011.65 298.336L1011.62 298.342ZM1004.02 274.54C1010.9 285.554 1005.97 299.459 995.173 301.414C991.178 293.103 994.322 283.01 1004.02 274.54Z" fill="#00362F"/>
<path d="M37.337 296.115C38.3586 291.167 40.3009 286.253 40.1181 281.246C39.97 277.677 37.7197 273.502 35.036 270.426C31.6704 266.59 27.1597 266.613 22.7639 269.199C13.501 274.628 9.87724 290.866 15.4808 300.199C17.3059 303.252 19.2755 306.057 23.2423 306.219C27.5898 306.397 31.6121 305.202 33.6299 301.578C34.6642 299.722 35.529 297.802 36.4917 295.912C36.7763 295.975 37.0788 296.046 37.3634 296.109L37.337 296.115ZM29.7387 272.313C36.6124 283.327 31.6851 297.232 20.8876 299.188C16.8921 290.876 20.0362 280.783 29.7387 272.313Z" fill="#00362F"/>
<path d="M603.289 519.78C604.31 514.832 606.253 509.918 606.07 504.911C605.922 501.342 603.671 497.166 600.988 494.091C597.622 490.255 593.111 490.278 588.716 492.864C579.453 498.292 575.829 514.53 581.432 523.864C583.258 526.917 585.227 529.722 589.194 529.884C593.541 530.062 597.564 528.867 599.582 525.242C600.616 523.386 601.481 521.467 602.443 519.577C602.728 519.639 603.03 519.711 603.315 519.774L603.289 519.78ZM595.69 495.978C602.564 506.992 597.637 520.897 586.839 522.852C582.844 514.541 585.988 504.448 595.69 495.978Z" fill="#00362F"/>
<path d="M903.678 288.285C908.653 298.778 911.744 300.367 921.83 297.072C926.228 295.626 930.283 293.154 933.758 290.457C937.162 287.801 936.995 283.397 934.118 280.376C932.276 278.455 927.647 277.263 924.645 277.493C915.76 278.171 909.929 283.301 903.696 288.294L903.678 288.285ZM910.905 292.663C915.023 285.075 919.545 282.904 929.055 283.951C926.792 292.568 923.154 294.325 910.905 292.663Z" fill="#00362F"/>
<path d="M333.1 519.864C336.707 520.217 339.405 519.489 340.394 514.12C336.574 515.79 334.22 516.795 331.876 517.824C332.287 518.499 332.697 519.174 333.108 519.85L333.1 519.864Z" fill="#00362F"/>
<path d="M635.111 189.8C630.136 179.308 627.045 177.718 616.959 181.014C612.561 182.459 608.506 184.932 605.031 187.629C601.627 190.285 601.794 194.689 604.671 197.709C606.513 199.63 611.142 200.823 614.145 200.592C623.029 199.915 628.86 194.784 635.093 189.792L635.111 189.8ZM627.884 185.423C623.766 193.011 619.244 195.182 609.734 194.135C611.997 185.517 615.635 183.76 627.884 185.423Z" fill="#00362F"/>
<path d="M1227.37 555.19C1222.39 544.697 1219.3 543.108 1209.22 546.403C1204.82 547.849 1200.76 550.321 1197.29 553.018C1193.88 555.675 1194.05 560.078 1196.93 563.099C1198.77 565.02 1203.4 566.213 1206.4 565.982C1215.29 565.304 1221.12 560.174 1227.35 555.181L1227.37 555.19ZM1220.14 550.812C1216.02 558.4 1211.5 560.572 1201.99 559.524C1204.25 550.907 1207.89 549.15 1220.14 550.812Z" fill="#00362F"/>
<path d="M369.006 504.783C365.715 503.19 363.29 503.342 361.962 505.921C361.645 506.54 362.715 508.531 363.423 508.69C366.432 509.392 368.711 508.635 369.006 504.783Z" fill="#00362F"/>
<path d="M1151.12 311.718C1146.37 312.655 1131.73 323.816 1125.58 330.605C1133.47 330.73 1145.07 322.422 1151.12 311.718Z" fill="#00362F"/>
<path d="M1133.19 310.462C1123.74 313.539 1114.38 316.704 1104.67 323.873C1106.65 325.055 1107.64 326.29 1108.38 326.006C1117.24 322.552 1125.95 318.539 1133.18 310.477L1133.19 310.462Z" fill="#00362F"/>
<path d="M1146.22 334.3C1157.31 330.565 1161.94 322.718 1165.72 312.759C1159.25 312.212 1158.79 318.986 1155.69 321.889C1152.53 324.843 1150.2 328.962 1146.22 334.3Z" fill="#00362F"/>
<path d="M490.369 585.378C503.656 587.897 519.502 577.022 522.552 567.466C525.101 559.501 520.101 554.881 510.609 556.996C499.62 559.439 490.236 564.166 483.988 572.72C478.898 579.709 480.946 584.008 490.349 585.375L490.369 585.378ZM491.359 579.514C496.434 568.535 503.077 563.974 514.926 562.859C518.198 566.179 516.051 568.756 513.266 571.495C507.701 576.957 499.795 580.114 491.378 579.516L491.359 579.514Z" fill="#00362F"/>
<path d="M387.664 166.367C392.415 165.43 407.056 154.269 413.209 147.48C405.319 147.355 393.713 155.663 387.664 166.367Z" fill="#00362F"/>
<path d="M405.595 167.623C415.047 164.546 424.401 161.381 434.119 154.212C432.133 153.03 431.143 151.795 430.403 152.079C421.545 155.533 412.839 159.546 405.607 167.608L405.595 167.623Z" fill="#00362F"/>
<path d="M392.572 143.786C381.48 147.521 376.846 155.367 373.072 165.327C379.535 165.873 379.999 159.099 383.098 156.196C386.258 153.242 388.591 149.123 392.572 143.786Z" fill="#00362F"/>
<path d="M477.943 495.145C464.656 492.627 448.81 503.501 445.76 513.057C443.211 521.022 448.211 525.643 457.703 523.528C468.692 521.084 478.076 516.357 484.324 507.803C489.414 500.814 487.366 496.515 477.963 495.148L477.943 495.145ZM476.953 501.01C471.878 511.989 465.235 516.549 453.386 517.665C450.114 514.344 452.261 511.768 455.046 509.029C460.611 503.567 468.517 500.409 476.934 501.007L476.953 501.01Z" fill="#00362F"/>
<path d="M979.921 531.757C984.673 530.821 999.313 519.659 1005.47 512.87C997.577 512.745 985.971 521.053 979.921 531.757Z" fill="#00362F"/>
<path d="M997.853 533.014C1007.3 529.936 1016.66 526.771 1026.38 519.602C1024.39 518.42 1023.4 517.185 1022.66 517.469C1013.8 520.923 1005.1 524.936 997.865 532.998L997.853 533.014Z" fill="#00362F"/>
<path d="M984.829 509.176C973.738 512.911 969.104 520.757 965.33 530.717C971.792 531.263 972.256 524.49 975.356 521.587C978.516 518.633 980.849 514.514 984.829 509.176Z" fill="#00362F"/>
<path d="M640.079 282.28C643.435 278.527 647.568 275.273 649.913 270.856C651.569 267.699 651.713 262.948 650.934 258.926C649.945 253.901 646.038 251.626 640.95 251.621C630.238 251.595 618.992 263.772 619.165 274.683C619.215 278.248 619.514 281.672 622.858 283.831C626.523 286.197 630.594 287.212 634.148 285.11C635.968 284.034 637.675 282.816 639.451 281.674C639.665 281.873 639.891 282.089 640.105 282.288L640.079 282.28ZM645.416 257.86C645.846 270.869 634.64 280.368 624.34 276.561C625.044 267.351 632.804 260.236 645.416 257.86Z" fill="#00362F"/>
<path d="M354.842 583.498C358.198 579.746 362.331 576.491 364.676 572.074C366.333 568.917 366.477 564.167 365.697 560.145C364.708 555.12 360.801 552.844 355.713 552.84C345.001 552.813 333.755 564.99 333.929 575.901C333.978 579.466 334.277 582.891 337.621 585.049C341.286 587.416 345.357 588.431 348.911 586.328C350.732 585.252 352.438 584.035 354.214 582.892C354.428 583.092 354.654 583.307 354.868 583.507L354.842 583.498ZM360.179 559.079C360.609 572.087 349.404 581.586 339.103 577.78C339.807 568.569 347.567 561.455 360.179 559.079Z" fill="#00362F"/>
<path d="M627.976 361.804C635.852 370.297 639.274 370.874 647.908 364.666C651.671 361.951 654.799 358.361 657.307 354.733C659.761 351.166 658.287 347.018 654.642 345.011C652.312 343.74 647.542 344.009 644.748 345.142C636.478 348.487 632.449 355.152 627.996 361.807L627.976 361.804ZM636.174 363.782C637.836 355.295 641.5 351.85 650.881 349.959C651.296 358.864 648.35 361.645 636.174 363.782Z" fill="#00362F"/>
<path d="M818.548 323.831C823.131 322.254 836.14 309.197 841.327 301.63C833.492 302.584 823.106 312.399 818.548 323.831Z" fill="#00362F"/>
<path d="M836.485 322.629C845.437 318.289 854.281 313.876 862.948 305.447C860.822 304.547 859.676 303.459 858.98 303.841C850.667 308.472 842.579 313.637 836.494 322.611L836.485 322.629Z" fill="#00362F"/>
<path d="M820.385 300.788C809.897 306.003 806.357 314.409 803.953 324.792C810.43 324.452 809.981 317.677 812.663 314.377C815.398 311.019 817.157 306.62 820.385 300.788Z" fill="#00362F"/>
<path d="M553.722 307.24C558.293 308.85 576.514 306.663 585.222 303.932C578.471 299.809 564.296 301.076 553.722 307.24Z" fill="#00362F"/>
<path d="M568.58 317.451C578.28 319.604 587.939 321.631 599.914 320.386C598.79 318.356 598.552 316.786 597.771 316.654C588.396 315.128 578.872 314.163 568.598 317.443L568.58 317.451Z" fill="#00362F"/>
<path d="M569.248 290.239C557.803 287.82 549.88 292.237 541.642 298.916C546.949 302.677 550.736 297.064 554.864 296.135C559.069 295.192 563.142 292.823 569.248 290.239Z" fill="#00362F"/>
<path d="M720.238 154.256C715.655 155.833 702.646 168.89 697.459 176.457C705.293 175.504 715.679 165.688 720.238 154.256Z" fill="#00362F"/>
<path d="M702.301 155.459C693.349 159.799 684.505 164.212 675.838 172.641C677.964 173.541 679.11 174.629 679.805 174.247C688.119 169.616 696.207 164.451 702.292 155.477L702.301 155.459Z" fill="#00362F"/>
<path d="M718.4 177.3C728.889 172.085 732.428 163.678 734.833 153.295C728.356 153.636 728.804 160.411 726.122 163.71C723.388 167.068 721.629 171.468 718.4 177.3Z" fill="#00362F"/>
<path d="M555.465 484.94C562.54 485.016 565.92 482.083 568.974 478.317C562.796 474.985 560.848 475.885 555.465 484.94Z" fill="#00362F"/>
<path d="M1312.5 519.646C1307.92 521.223 1294.91 534.28 1289.72 541.847C1297.55 540.894 1307.94 531.078 1312.5 519.646Z" fill="#00362F"/>
<path d="M1294.56 520.85C1285.61 525.189 1276.77 529.602 1268.1 538.031C1270.22 538.931 1271.37 540.02 1272.07 539.637C1280.38 535.006 1288.47 529.841 1294.55 520.867L1294.56 520.85Z" fill="#00362F"/>
<path d="M1310.66 542.69C1321.15 537.475 1324.69 529.068 1327.09 518.685C1320.62 519.026 1321.07 525.801 1318.38 529.1C1315.65 532.459 1313.89 536.858 1310.66 542.69Z" fill="#00362F"/>
<path d="M412.846 595.584C405.771 595.508 402.391 598.441 399.338 602.207C405.516 605.538 407.463 604.639 412.846 595.584Z" fill="#00362F"/>
<path d="M1159.68 183.116C1166.41 185.339 1170.5 183.569 1174.54 180.906C1169.64 175.852 1167.52 176.118 1159.68 183.116Z" fill="#00362F"/>
<path d="M491.926 299.683C489.147 298.723 486.344 297.282 483.59 297.016C482.472 296.898 480.526 299.265 480.655 300.588C480.77 301.832 483.123 304.149 484.448 304.28C486.99 304.558 489.478 303.623 491.984 303.192C491.96 302.025 491.95 300.85 491.926 299.683Z" fill="#00362F"/>
<path d="M206.69 600.902C203.91 599.942 201.107 598.501 198.353 598.235C197.236 598.117 195.29 600.484 195.418 601.807C195.533 603.051 197.886 605.368 199.211 605.499C201.753 605.777 204.241 604.842 206.747 604.411C206.723 603.244 206.714 602.069 206.69 600.902Z" fill="#00362F"/>
<path d="M961.091 585.291C958.311 584.331 955.508 582.891 952.754 582.625C951.637 582.506 949.69 584.874 949.819 586.196C949.934 587.44 952.287 589.758 953.612 589.888C956.154 590.166 958.642 589.231 961.148 588.8C961.124 587.633 961.114 586.458 961.091 585.291Z" fill="#00362F"/>
<path d="M1256.6 359.14C1249.88 356.918 1245.78 358.687 1241.75 361.351C1246.64 366.404 1248.77 366.138 1256.6 359.14Z" fill="#00362F"/>
<path d="M459.543 313.21C463.163 313.525 465.753 314.262 467.781 313.688C468.671 313.437 468.423 310.48 468.697 308.741C466.247 308.086 463.727 307.011 461.361 307.019C460.665 307.022 460.413 310.056 459.543 313.21Z" fill="#00362F"/>
<path d="M174.307 614.429C177.926 614.744 180.516 615.481 182.545 614.907C183.435 614.656 183.187 611.698 183.461 609.96C181.011 609.304 178.49 608.229 176.125 608.237C175.429 608.241 175.177 611.275 174.307 614.429Z" fill="#00362F"/>
<path d="M928.707 598.818C932.327 599.133 934.917 599.87 936.945 599.296C937.835 599.045 937.588 596.087 937.861 594.349C935.411 593.694 932.891 592.619 930.525 592.627C929.829 592.63 929.577 595.664 928.707 598.818Z" fill="#00362F"/>
<path d="M93.8661 596.188C87.1422 593.966 83.044 595.735 79.0081 598.399C83.9047 603.452 86.0303 603.186 93.8661 596.188Z" fill="#00362F"/>
<path d="M848.271 580.578C841.548 578.355 837.449 580.125 833.413 582.788C838.31 587.842 840.436 587.576 848.271 580.578Z" fill="#00362F"/>
<path d="M426.497 602.171C432.262 602.157 435.324 600.073 435.724 595.049C430.287 595.049 427.211 597.423 426.497 602.171Z" fill="#00362F"/>
<path d="M1208.26 286.794C1211.14 286.208 1214.28 286.025 1216.79 284.853C1217.82 284.387 1218.32 281.352 1217.54 280.275C1216.82 279.26 1213.63 278.456 1212.42 279.018C1210.09 280.072 1208.41 282.145 1206.46 283.793C1207.06 284.788 1207.66 285.798 1208.26 286.794Z" fill="#00362F"/>
<path d="M541.815 478.353C536.05 478.367 532.988 480.451 532.588 485.475C538.025 485.475 541.101 483.101 541.815 478.353Z" fill="#00362F"/>
<path d="M330.525 191.292C327.645 191.878 324.505 192.061 321.994 193.233C320.97 193.699 320.473 196.734 321.244 197.81C321.966 198.826 325.156 199.63 326.365 199.068C328.7 198.014 330.38 195.941 332.329 194.293C331.725 193.298 331.129 192.288 330.525 191.292Z" fill="#00362F"/>
<path d="M474.015 604.771C468.637 608.011 466.677 610.652 469.705 615.012C475.653 612.685 477.1 609.831 474.015 604.771Z" fill="#00362F"/>
<path d="M45.2843 492.511C42.4043 493.097 39.2642 493.279 36.7533 494.451C35.7288 494.917 35.2319 497.952 36.0037 499.029C36.7252 500.044 39.9152 500.848 41.1244 500.286C43.459 499.233 45.1392 497.159 47.0878 495.512C46.4839 494.516 45.8883 493.506 45.2843 492.511Z" fill="#00362F"/>
<path d="M799.689 476.9C796.809 477.486 793.669 477.669 791.158 478.84C790.134 479.307 789.637 482.342 790.409 483.418C791.13 484.434 794.32 485.238 795.529 484.676C797.864 483.622 799.544 481.549 801.493 479.901C800.889 478.906 800.293 477.896 799.689 476.9Z" fill="#00362F"/>
<path d="M494.297 475.753C499.675 472.513 501.635 469.872 498.607 465.512C492.659 467.839 491.212 470.693 494.297 475.753Z" fill="#00362F"/>
<path d="M766.104 336.93C763.329 337.904 760.242 338.513 757.911 340.017C756.959 340.619 756.873 343.694 757.782 344.655C758.633 345.563 761.902 345.924 763.024 345.202C765.196 343.84 766.583 341.556 768.293 339.658C767.561 338.754 766.835 337.834 766.104 336.93Z" fill="#00362F"/>
<path d="M450.143 281.475C452.087 287.374 453.979 289.59 457.193 287.838C458.309 287.229 458.317 284.907 458.834 283.376C456.387 282.848 453.955 282.311 450.154 281.491L450.143 281.475Z" fill="#00362F"/>
<path d="M164.906 582.694C166.85 588.593 168.742 590.808 171.957 589.057C173.072 588.448 173.08 586.126 173.598 584.595C171.15 584.067 168.718 583.53 164.917 582.71L164.906 582.694Z" fill="#00362F"/>
<path d="M919.311 567.084C921.255 572.983 923.147 575.198 926.361 573.446C927.477 572.838 927.485 570.515 928.002 568.985C925.555 568.456 923.123 567.92 919.322 567.1L919.311 567.084Z" fill="#00362F"/>
<path d="M450.573 352.904C450.692 350.722 450.748 349.45 450.83 348.186C449.155 347.958 447.42 347.465 445.848 347.628C445.386 347.676 444.927 350.265 445.208 350.448C446.609 351.386 448.247 351.913 450.573 352.904Z" fill="#00362F"/>
<path d="M635.363 329.202C631.817 329.961 629.462 331.476 630.122 336.896C633.266 334.142 635.21 332.468 637.139 330.776C636.546 330.256 635.952 329.737 635.359 329.218L635.363 329.202Z" fill="#00362F"/>
<path d="M772.682 141.155C775.457 140.181 778.543 139.572 780.874 138.068C781.827 137.466 781.912 134.392 781.003 133.43C780.152 132.523 776.884 132.161 775.761 132.883C773.589 134.246 772.202 136.53 770.492 138.428C771.224 139.332 771.95 140.251 772.682 141.155Z" fill="#00362F"/>
<path d="M605.622 354.494C609.237 355.013 611.504 354.132 612 351.269C612.118 350.582 610.503 349.009 609.781 349.072C606.701 349.318 604.754 350.731 605.622 354.494Z" fill="#00362F"/>
<path d="M1364.94 506.545C1367.72 505.571 1370.8 504.962 1373.13 503.458C1374.09 502.856 1374.17 499.781 1373.26 498.82C1372.41 497.912 1369.14 497.551 1368.02 498.273C1365.85 499.636 1364.46 501.919 1362.75 503.818C1363.48 504.721 1364.21 505.641 1364.94 506.545Z" fill="#00362F"/>
<path d="M1229.47 258.631C1226.18 260.201 1223.58 260.883 1222.11 262.411C1221.47 263.081 1223.16 265.508 1223.8 267.149C1226.24 266.468 1228.95 266.113 1230.99 264.903C1231.59 264.545 1230.29 261.797 1229.47 258.631Z" fill="#00362F"/>
<path d="M309.322 219.454C312.605 217.884 315.21 217.203 316.675 215.675C317.318 215.005 315.625 212.577 314.993 210.937C312.549 211.618 309.836 211.972 307.797 213.183C307.198 213.54 308.497 216.288 309.322 219.454Z" fill="#00362F"/>
<path d="M24.0821 520.673C27.3651 519.103 29.97 518.422 31.4344 516.894C32.0773 516.224 30.3852 513.796 29.7528 512.156C27.3092 512.837 24.5957 513.191 22.5569 514.402C21.9578 514.759 23.2567 517.507 24.0821 520.673Z" fill="#00362F"/>
<path d="M778.487 505.063C781.77 503.493 784.375 502.811 785.839 501.283C786.482 500.613 784.79 498.185 784.158 496.545C781.714 497.226 779 497.581 776.962 498.791C776.363 499.149 777.662 501.896 778.487 505.063Z" fill="#00362F"/>
<path d="M748.875 367.727C751.917 365.724 754.406 364.693 755.652 362.979C756.2 362.228 754.198 360.053 753.351 358.514C751.021 359.523 748.38 360.244 746.522 361.722C745.977 362.158 747.632 364.703 748.875 367.727Z" fill="#00362F"/>
<path d="M789.915 110.358C786.872 112.362 784.383 113.392 783.137 115.106C782.589 115.858 784.591 118.032 785.438 119.571C787.768 118.563 790.409 117.841 792.267 116.363C792.812 115.927 791.157 113.382 789.915 110.358Z" fill="#00362F"/>
<path d="M1382.18 475.748C1379.13 477.751 1376.64 478.782 1375.4 480.496C1374.85 481.247 1376.85 483.422 1377.7 484.961C1380.03 483.952 1382.67 483.231 1384.53 481.753C1385.07 481.317 1383.42 478.772 1382.18 475.748Z" fill="#00362F"/>
<path d="M1001.71 255.712C1007.21 257.451 1010.75 256.393 1012.63 251.725C1007.45 250.072 1003.81 251.401 1001.71 255.712Z" fill="#00362F"/>
<path d="M537.077 222.374C531.576 220.635 528.034 221.693 526.153 226.361C531.338 228.014 534.979 226.684 537.077 222.374Z" fill="#00362F"/>
<path d="M1129.34 587.763C1123.84 586.025 1120.3 587.082 1118.41 591.751C1123.6 593.403 1127.24 592.074 1129.34 587.763Z" fill="#00362F"/>
<path d="M1046.24 272.632C1040.15 274.087 1037.49 276.01 1039.08 281.088C1045.44 280.676 1047.68 278.395 1046.24 272.632Z" fill="#00362F"/>
<path d="M492.54 205.453C498.635 203.998 501.293 202.076 499.707 196.998C493.34 197.41 491.109 199.691 492.54 205.453Z" fill="#00362F"/>
<path d="M1084.8 570.843C1090.9 569.388 1093.55 567.465 1091.97 562.388C1085.6 562.799 1083.37 565.081 1084.8 570.843Z" fill="#00362F"/>
<path d="M928.532 328.846C934.376 326.572 936.751 324.304 934.5 319.49C928.246 320.767 926.342 323.332 928.532 328.846Z" fill="#00362F"/>
<path d="M610.257 149.24C604.413 151.513 602.038 153.781 604.289 158.596C610.543 157.318 612.447 154.754 610.257 149.24Z" fill="#00362F"/>
<path d="M1202.52 514.629C1196.67 516.903 1194.3 519.171 1196.55 523.985C1202.8 522.708 1204.71 520.143 1202.52 514.629Z" fill="#00362F"/>
<path d="M1253.44 281.251C1248.82 277.147 1246.08 276.196 1244.17 279.345C1243.52 280.438 1244.67 282.447 1244.99 284.032C1247.37 283.243 1249.73 282.469 1253.43 281.242L1253.44 281.251Z" fill="#00362F"/>
<path d="M285.341 196.835C289.969 200.939 292.71 201.889 294.61 198.741C295.269 197.647 294.114 195.638 293.796 194.053C291.419 194.842 289.051 195.617 285.359 196.843L285.341 196.835Z" fill="#00362F"/>
<path d="M754.51 482.443C759.138 486.547 761.879 487.497 763.779 484.349C764.438 483.256 763.283 481.247 762.965 479.661C760.588 480.451 758.22 481.225 754.528 482.452L754.51 482.443Z" fill="#00362F"/>
<path d="M1217.37 219.792C1218.35 221.737 1218.94 222.864 1219.5 223.998C1221.06 223.341 1222.81 222.884 1224.08 221.944C1224.46 221.667 1223.56 219.198 1223.23 219.183C1221.55 219.085 1219.87 219.465 1217.37 219.792Z" fill="#00362F"/>
<path d="M1198.92 322.464C1197.93 320.519 1197.34 319.392 1196.78 318.258C1195.22 318.915 1193.48 319.372 1192.2 320.312C1191.82 320.589 1192.72 323.058 1193.06 323.073C1194.74 323.171 1196.41 322.791 1198.92 322.464Z" fill="#00362F"/>
<path d="M36.1829 559.512C35.1941 557.567 34.6076 556.44 34.0462 555.307C32.4859 555.963 30.7417 556.42 29.4658 557.361C29.0906 557.637 29.9884 560.107 30.3224 560.122C32.0009 560.219 33.6785 559.84 36.1829 559.512Z" fill="#00362F"/>
<path d="M790.584 543.902C789.595 541.957 789.008 540.83 788.447 539.696C786.887 540.353 785.143 540.81 783.867 541.75C783.491 542.027 784.389 544.496 784.723 544.511C786.402 544.609 788.079 544.229 790.584 543.902Z" fill="#00362F"/>
<path d="M920.448 259.44C916.841 259.087 914.143 259.816 913.154 265.184C916.975 263.514 919.328 262.509 921.672 261.481C921.262 260.805 920.851 260.13 920.44 259.455L920.448 259.44Z" fill="#00362F"/>
<path d="M618.337 218.645C621.944 218.998 624.642 218.27 625.631 212.901C621.811 214.571 619.457 215.576 617.113 216.605C617.524 217.28 617.934 217.955 618.345 218.631L618.337 218.645Z" fill="#00362F"/>
<path d="M1210.6 584.035C1214.21 584.388 1216.9 583.659 1217.89 578.291C1214.07 579.961 1211.72 580.966 1209.37 581.994C1209.78 582.67 1210.2 583.345 1210.61 584.021L1210.6 584.035Z" fill="#00362F"/>
<path d="M884.542 274.521C887.833 276.114 890.258 275.963 891.586 273.384C891.904 272.764 890.834 270.774 890.126 270.615C887.116 269.913 884.837 270.669 884.542 274.521Z" fill="#00362F"/>
<path d="M654.247 203.565C650.956 201.972 648.531 202.123 647.203 204.702C646.885 205.322 647.955 207.312 648.663 207.471C651.673 208.173 653.952 207.417 654.247 203.565Z" fill="#00362F"/>
<path d="M1246.5 568.954C1243.21 567.361 1240.79 567.512 1239.46 570.091C1239.14 570.711 1240.21 572.702 1240.92 572.86C1243.93 573.562 1246.21 572.806 1246.5 568.954Z" fill="#00362F"/>
<path d="M775.605 284.159C788.892 286.678 804.739 275.804 807.789 266.248C810.337 258.282 805.338 253.662 795.845 255.777C784.856 258.221 775.472 262.947 769.225 271.501C764.134 278.491 766.182 282.789 775.586 284.156L775.605 284.159ZM776.595 278.295C781.671 267.316 788.313 262.755 800.162 261.64C803.434 264.961 801.287 267.537 798.503 270.276C792.937 275.738 785.031 278.895 776.615 278.298L776.595 278.295Z" fill="#00362F"/>
<path d="M763.184 193.927C749.897 191.408 734.05 202.282 731.001 211.838C728.452 219.804 733.452 224.424 742.944 222.309C753.933 219.865 763.317 215.138 769.564 206.584C774.655 199.595 772.607 195.297 763.203 193.93L763.184 193.927ZM762.194 199.791C757.119 210.77 750.476 215.331 738.627 216.446C735.355 213.125 737.502 210.549 740.286 207.81C745.852 202.348 753.758 199.191 762.174 199.788L762.194 199.791Z" fill="#00362F"/>
<path d="M1355.44 559.316C1342.15 556.797 1326.31 567.672 1323.26 577.228C1320.71 585.193 1325.71 589.813 1335.2 587.698C1346.19 585.255 1355.57 580.528 1361.82 571.974C1366.91 564.984 1364.86 560.686 1355.46 559.319L1355.44 559.316ZM1354.45 565.18C1349.38 576.159 1342.73 580.72 1330.88 581.835C1327.61 578.515 1329.76 575.938 1332.54 573.199C1338.11 567.737 1346.02 564.58 1354.43 565.177L1354.45 565.18Z" fill="#00362F"/>
<path d="M898.706 195.806C895.351 199.559 891.217 202.813 888.872 207.23C887.216 210.387 887.072 215.138 887.852 219.16C888.84 224.185 892.747 226.46 897.835 226.465C908.547 226.491 919.793 214.314 919.62 203.403C919.57 199.838 919.271 196.414 915.927 194.255C912.262 191.889 908.191 190.874 904.638 192.976C902.817 194.052 901.111 195.269 899.334 196.412C899.12 196.213 898.895 195.997 898.68 195.798L898.706 195.806ZM893.369 220.226C892.939 207.217 904.145 197.718 914.446 201.525C913.741 210.735 905.981 217.85 893.369 220.226Z" fill="#00362F"/>
<path d="M900.144 386.669C903.5 382.916 907.633 379.662 909.978 375.245C911.634 372.088 911.778 367.337 910.999 363.316C910.01 358.29 906.103 356.015 901.015 356.01C890.303 355.984 879.057 368.161 879.23 379.072C879.28 382.637 879.579 386.061 882.923 388.22C886.588 390.586 890.659 391.602 894.213 389.499C896.033 388.423 897.74 387.206 899.516 386.063C899.73 386.262 899.956 386.478 900.17 386.677L900.144 386.669ZM905.481 362.249C905.911 375.258 894.705 384.757 884.404 380.95C885.109 371.74 892.869 364.625 905.481 362.249Z" fill="#00362F"/>
<path d="M888.041 466.193C895.917 474.687 899.339 475.263 907.973 469.056C911.736 466.341 914.864 462.751 917.372 459.123C919.826 455.556 918.352 451.407 914.707 449.401C912.377 448.129 907.607 448.399 904.813 449.531C896.543 452.877 892.514 459.542 888.061 466.196L888.041 466.193ZM896.239 468.172C897.901 459.685 901.565 456.24 910.946 454.349C911.361 463.253 908.415 466.034 896.239 468.172Z" fill="#00362F"/>
<path d="M910.809 116.282C902.933 107.788 899.512 107.212 890.877 113.419C887.114 116.134 883.986 119.724 881.478 123.352C879.024 126.919 880.498 131.068 884.143 133.074C886.473 134.346 891.243 134.076 894.037 132.944C902.307 129.598 906.336 122.934 910.789 116.279L910.809 116.282ZM902.611 114.303C900.949 122.791 897.285 126.235 887.904 128.126C887.49 119.222 890.435 116.441 902.611 114.303Z" fill="#00362F"/>
<path d="M975.15 190.845C970.578 189.236 952.357 191.423 943.65 194.154C950.401 198.277 964.575 197.01 975.15 190.845Z" fill="#00362F"/>
<path d="M960.292 180.635C950.592 178.482 940.932 176.455 928.958 177.699C930.082 179.73 930.319 181.3 931.1 181.432C940.476 182.958 949.999 183.923 960.274 180.643L960.292 180.635Z" fill="#00362F"/>
<path d="M959.624 207.847C971.068 210.266 978.992 205.849 987.229 199.17C981.922 195.409 978.135 201.022 974.008 201.951C969.803 202.894 965.729 205.263 959.624 207.847Z" fill="#00362F"/>
<path d="M1439.8 354.41C1428.36 351.991 1420.43 356.407 1412.2 363.086C1417.5 366.847 1421.29 361.234 1425.42 360.305C1429.62 359.363 1433.7 356.993 1439.8 354.41Z" fill="#00362F"/>
<path d="M813.787 411.63C818.358 413.239 836.579 411.052 845.287 408.322C838.536 404.199 824.361 405.465 813.787 411.63Z" fill="#00362F"/>
<path d="M828.644 421.84C838.344 423.993 848.004 426.02 859.978 424.776C858.854 422.745 858.617 421.175 857.836 421.043C848.46 419.517 838.937 418.552 828.662 421.832L828.644 421.84Z" fill="#00362F"/>
<path d="M829.312 394.629C817.868 392.209 809.944 396.626 801.707 403.305C807.014 407.066 810.801 401.453 814.928 400.524C819.133 399.581 823.207 397.212 829.312 394.629Z" fill="#00362F"/>
<path d="M840.702 183.72C847.777 183.796 851.156 180.863 854.21 177.097C848.032 173.766 846.085 174.666 840.702 183.72Z" fill="#00362F"/>
<path d="M1427.01 549.11C1434.08 549.186 1437.46 546.253 1440.52 542.487C1434.34 539.156 1432.39 540.055 1427.01 549.11Z" fill="#00362F"/>
<path d="M698.083 294.365C691.008 294.289 687.629 297.222 684.575 300.988C690.753 304.319 692.7 303.42 698.083 294.365Z" fill="#00362F"/>
<path d="M1046.86 178.403C1049.64 179.363 1052.44 180.803 1055.19 181.069C1056.31 181.188 1058.26 178.82 1058.13 177.498C1058.01 176.254 1055.66 173.936 1054.34 173.806C1051.79 173.528 1049.31 174.463 1046.8 174.894C1046.82 176.061 1046.83 177.236 1046.86 178.403Z" fill="#00362F"/>
<path d="M1369.42 363.853C1366.64 362.893 1363.84 361.453 1361.09 361.187C1359.97 361.068 1358.02 363.436 1358.15 364.758C1358.27 366.002 1360.62 368.32 1361.95 368.45C1364.49 368.728 1366.98 367.793 1369.48 367.362C1369.46 366.195 1369.45 365.02 1369.42 363.853Z" fill="#00362F"/>
<path d="M751.992 404.072C749.212 403.112 746.41 401.672 743.656 401.406C742.538 401.287 740.592 403.655 740.72 404.977C740.835 406.221 743.188 408.539 744.513 408.669C747.056 408.948 749.543 408.012 752.049 407.581C752.025 406.414 752.016 405.239 751.992 404.072Z" fill="#00362F"/>
<path d="M1079.25 164.876C1075.63 164.561 1073.04 163.823 1071.01 164.398C1070.12 164.649 1070.37 167.606 1070.09 169.345C1072.54 170 1075.06 171.075 1077.43 171.067C1078.12 171.063 1078.38 168.03 1079.25 164.876Z" fill="#00362F"/>
<path d="M1337.04 377.38C1340.66 377.696 1343.25 378.433 1345.28 377.859C1346.17 377.608 1345.92 374.65 1346.2 372.912C1343.74 372.256 1341.22 371.181 1338.86 371.189C1338.16 371.193 1337.91 374.227 1337.04 377.38Z" fill="#00362F"/>
<path d="M719.609 417.599C723.229 417.914 725.819 418.652 727.847 418.078C728.737 417.826 728.489 414.869 728.763 413.13C726.313 412.475 723.793 411.4 721.427 411.408C720.731 411.412 720.479 414.445 719.609 417.599Z" fill="#00362F"/>
<path d="M711.734 300.952C717.499 300.938 720.56 298.854 720.961 293.83C715.524 293.83 712.448 296.204 711.734 300.952Z" fill="#00362F"/>
<path d="M827.055 177.134C821.29 177.147 818.229 179.232 817.828 184.256C823.265 184.255 826.341 181.882 827.055 177.134Z" fill="#00362F"/>
<path d="M1419.31 542.524C1413.55 542.537 1410.49 544.622 1410.09 549.645C1415.52 549.645 1418.6 547.271 1419.31 542.524Z" fill="#00362F"/>
<path d="M759.252 303.552C753.874 306.792 751.914 309.433 754.941 313.793C760.89 311.465 762.337 308.612 759.252 303.552Z" fill="#00362F"/>
<path d="M779.533 174.533C784.911 171.294 786.871 168.653 783.844 164.292C777.895 166.62 776.449 169.473 779.533 174.533Z" fill="#00362F"/>
<path d="M1371.79 539.923C1377.17 536.683 1379.13 534.042 1376.1 529.682C1370.16 532.01 1368.71 534.863 1371.79 539.923Z" fill="#00362F"/>
<path d="M1088.64 196.61C1086.7 190.711 1084.81 188.496 1081.59 190.247C1080.48 190.856 1080.47 193.178 1079.95 194.709C1082.4 195.237 1084.83 195.774 1088.63 196.594L1088.64 196.61Z" fill="#00362F"/>
<path d="M1327.64 345.646C1329.59 351.545 1331.48 353.76 1334.69 352.008C1335.81 351.4 1335.81 349.077 1336.33 347.547C1333.89 347.018 1331.45 346.482 1327.65 345.662L1327.64 345.646Z" fill="#00362F"/>
<path d="M710.212 385.865C712.156 391.764 714.048 393.979 717.262 392.228C718.378 391.619 718.385 389.297 718.903 387.766C716.456 387.238 714.024 386.701 710.223 385.881L710.212 385.865Z" fill="#00362F"/>
<path d="M1088.21 125.182C1088.09 127.364 1088.04 128.636 1087.95 129.9C1089.63 130.128 1091.36 130.621 1092.94 130.458C1093.4 130.41 1093.86 127.821 1093.58 127.638C1092.18 126.699 1090.54 126.173 1088.21 125.182Z" fill="#00362F"/>
<path d="M1328.07 417.075C1328.19 414.892 1328.25 413.62 1328.33 412.356C1326.65 412.129 1324.92 411.636 1323.35 411.798C1322.88 411.846 1322.43 414.435 1322.71 414.618C1324.11 415.557 1325.74 416.083 1328.07 417.075Z" fill="#00362F"/>
<path d="M1032.53 416.855C1032.65 414.673 1032.71 413.401 1032.79 412.137C1031.11 411.909 1029.38 411.416 1027.81 411.579C1027.35 411.627 1026.89 414.216 1027.17 414.399C1028.57 415.338 1030.21 415.864 1032.53 416.855Z" fill="#00362F"/>
<path d="M710.642 457.293C710.76 455.111 710.817 453.839 710.899 452.575C709.224 452.347 707.489 451.854 705.917 452.017C705.455 452.065 704.996 454.654 705.277 454.837C706.677 455.776 708.316 456.302 710.642 457.293Z" fill="#00362F"/>
<path d="M895.427 433.591C891.882 434.35 889.527 435.865 890.186 441.285C893.331 438.531 895.275 436.858 897.203 435.165C896.61 434.645 896.017 434.126 895.423 433.607L895.427 433.591Z" fill="#00362F"/>
<path d="M903.426 148.884C906.972 148.125 909.327 146.61 908.667 141.19C905.523 143.944 903.579 145.618 901.65 147.31C902.244 147.83 902.837 148.349 903.43 148.868L903.426 148.884Z" fill="#00362F"/>
<path d="M865.687 458.884C869.301 459.403 871.568 458.521 872.065 455.659C872.182 454.971 870.568 453.398 869.845 453.462C866.766 453.707 864.818 455.121 865.687 458.884Z" fill="#00362F"/>
<path d="M933.167 123.591C929.553 123.072 927.286 123.954 926.789 126.817C926.671 127.504 928.286 129.077 929.008 129.013C932.088 128.768 934.035 127.354 933.167 123.591Z" fill="#00362F"/>
</g>
<defs>
<clipPath id="clip0_3910_2521">
<rect width="1440" height="614" fill="white" transform="translate(0.203613)"/>
</clipPath>
</defs>
</svg>
